<svg width="294" height="89" viewBox="0 0 294 89" fill="none" xmlns="http://www.w3.org/2000/svg">
<path d="M283.748 57.4653V27.886L263.563 7.70703H27.8964L7.71094 27.886V57.4653L27.8964 77.6442H263.563L283.748 57.4653Z" fill="url(#paint0_radial_20244_24649)"/>
<g filter="url(#filter0_d_20244_24649)">
<path d="M263.561 7.70798L283.747 27.8869V57.4662L263.561 77.6452H27.8948L7.70929 57.4662V27.8869L27.8948 7.70798H263.561ZM263.561 3.68359H27.8948C26.828 3.68359 25.8048 4.10615 25.0466 4.86073L4.86111 25.043C4.10629 25.7976 3.68359 26.8205 3.68359 27.8903V57.4696C3.68359 58.536 4.10629 59.5623 4.86111 60.3168L25.0466 80.4958C25.8014 81.2504 26.8246 81.6729 27.8948 81.6729H263.561C264.628 81.6729 265.651 81.2504 266.409 80.4958L286.595 60.3168C287.35 59.5623 287.772 58.5394 287.772 57.4696V27.8903C287.772 26.8238 287.35 25.7976 286.595 25.043L266.409 4.86408C265.655 4.10951 264.631 3.68695 263.561 3.68695V3.68359Z" fill="url(#paint1_radial_20244_24649)"/>
</g>
<path d="M263.561 3.68293C264.628 3.68293 265.651 4.10549 266.41 4.86006L286.595 25.039C287.35 25.7936 287.773 26.8165 287.773 27.8863V57.4656C287.773 58.532 287.35 59.5582 286.595 60.3128L266.41 80.4918C265.655 81.2463 264.632 81.6689 263.561 81.6689H27.895C26.8282 81.6689 25.805 81.2463 25.0468 80.4918L4.86131 60.3128C4.10649 59.5582 3.68379 58.5354 3.68379 57.4656V27.8863C3.68379 26.8198 4.10649 25.7936 4.86131 25.039L25.0502 4.86006C25.805 4.10549 26.8282 3.68293 27.8983 3.68293H263.565M263.561 1H27.895C26.1035 1 24.4195 1.69756 23.1514 2.96524L2.96588 23.1442C1.69779 24.4119 1 26.0954 1 27.8863V57.4656C1 59.2564 1.69779 60.9433 2.96588 62.2076L23.1514 82.3866C24.4195 83.6543 26.1035 84.3518 27.895 84.3518H262.89C264.682 84.3518 266.366 83.6543 267.634 82.3866L288.49 62.2076C289.759 60.9399 290.456 59.2564 290.456 57.4656V27.8863C290.456 26.0954 289.759 24.4085 288.49 23.1442L268.305 2.96524C267.037 1.69756 265.353 1 263.561 1Z" fill="url(#paint2_linear_20244_24649)"/>
<path d="M263.563 7.70703H27.8964L7.71094 27.886V57.4653L27.8964 77.6442H263.563L283.748 57.4653V27.886L263.563 7.70703ZM273.017 55.0305L256.152 71.8894H236.534V67.9086H54.9256V71.8894H35.3071L18.4428 55.0305V30.3208L35.3071 13.4619H54.9256V17.4427H236.53V13.4619H256.149L273.013 30.3208V55.0305H273.017Z" fill="#FFE61B"/>
<path opacity="0.2" d="M255.037 16.1439L270.328 31.4298V53.9195L255.037 69.2055H239.213V65.2247H52.2404V69.2055H36.4161L21.1252 53.9195V31.4298L36.4161 16.1439H52.2404V20.1247H239.213V16.1439H255.037ZM256.151 13.4609H236.532V17.4417H54.9242V13.4609H35.3057L18.4414 30.3198V55.0295L35.3057 71.8884H54.9242V67.9076H236.529V71.8884H256.147L273.012 55.0295V30.3198L256.147 13.4609H256.151Z" fill="black"/>
<g opacity="0.3">
<path d="M7.71094 42.6758V57.4654L27.8964 77.6444H263.563L283.748 57.4654V42.6758H7.71094Z" fill="black"/>
</g>
<path d="M43.6236 34.912L44.6316 34.912L44.6316 44.2L45.1116 44.824L45.1116 46.936L44.6316 47.536L44.6316 48.328L52.4076 48.328L52.4076 52L43.1436 52L40.0716 49.048L40.0716 47.536L40.5516 46.936L40.5516 44.824L40.0716 44.2L40.0716 38.368L43.6236 34.912ZM40.0716 35.968L40.0716 34.912L41.2236 34.912C41.7996 34.912 41.8956 35.152 41.4876 35.56L40.7676 36.28C40.5996 36.448 40.4796 36.52 40.3596 36.52C40.1916 36.52 40.0716 36.328 40.0716 35.968ZM45.1356 38.872L45.1356 44.056L45.6156 44.68L45.6156 46.504L45.3756 46.744L45.3756 44.752L44.8956 44.128L44.8956 38.872L45.1356 38.872ZM51.5676 51.4C51.5676 51.544 51.6636 51.64 51.7836 51.64C51.9276 51.64 52.0236 51.544 52.0236 51.4C52.0236 51.28 51.9276 51.184 51.7836 51.184C51.6636 51.184 51.5676 51.28 51.5676 51.4ZM61.3258 38.32L58.0378 38.32L58.0378 42.4L58.3018 42.4L58.3018 38.872L58.5418 38.872L58.5418 42.4L65.6698 42.4L65.6698 46L58.5178 46L58.5178 46.936L58.0378 47.536L58.0378 48.328L67.0138 48.328L67.0138 52L56.5498 52L53.4778 49.048L53.4778 47.536L53.9578 46.936L53.9578 44.824L53.4778 44.2L53.4778 38.368L57.0298 34.912L63.9658 34.912L67.0138 37.888L67.0138 41.32L62.4778 41.32L62.4778 39.448L61.3258 38.32ZM53.4778 35.968L53.4778 34.912L54.6298 34.912C55.2058 34.912 55.3018 35.152 54.8938 35.56L54.1738 36.28C54.0058 36.448 53.8858 36.52 53.7658 36.52C53.5978 36.52 53.4778 36.328 53.4778 35.968ZM61.9978 41.32L61.7338 41.32L61.7338 39.664L61.1098 39.04L59.2138 39.04L59.2138 38.8L61.2538 38.8L61.9978 39.544L61.9978 41.32ZM66.1738 51.4C66.1738 51.544 66.2698 51.64 66.3898 51.64C66.5338 51.64 66.6298 51.544 66.6298 51.4C66.6298 51.28 66.5338 51.184 66.3898 51.184C66.2698 51.184 66.1738 51.28 66.1738 51.4ZM67.62 38.32L71.172 34.912L80.028 34.912L83.076 37.888L83.076 41.32L78.54 41.32L78.54 39.448L77.388 38.32L76.692 38.32L76.692 44.2L77.172 44.824L77.172 46.936L76.692 47.536L76.692 48.328L77.412 48.328L77.412 52L75.204 52L72.132 49.048L72.132 47.536L72.612 46.936L72.612 44.824L72.132 44.2L72.132 38.32L67.62 38.32ZM67.62 35.968L67.62 34.912L68.772 34.912C69.348 34.912 69.444 35.152 69.036 35.56L68.316 36.28C68.148 36.448 68.028 36.52 67.908 36.52C67.74 36.52 67.62 36.328 67.62 35.968ZM78.084 41.32L77.82 41.32L77.82 39.664L77.196 39.04L76.908 39.04L76.908 38.8L77.34 38.8L78.084 39.544L78.084 41.32ZM77.196 41.368L77.196 44.056L77.676 44.68L77.676 46.504L77.436 46.744L77.436 44.752L76.956 44.128L76.956 41.368L77.196 41.368ZM76.572 51.4C76.572 51.544 76.668 51.64 76.788 51.64C76.932 51.64 77.028 51.544 77.028 51.4C77.028 51.28 76.932 51.184 76.788 51.184C76.668 51.184 76.572 51.28 76.572 51.4ZM88.4794 38.32L92.0314 34.912L100.887 34.912L103.935 37.888L103.935 41.32L99.3994 41.32L99.3994 39.448L98.2474 38.32L97.5514 38.32L97.5514 44.2L98.0314 44.824L98.0314 46.936L97.5514 47.536L97.5514 48.328L98.2714 48.328L98.2714 52L96.0634 52L92.9914 49.048L92.9914 47.536L93.4714 46.936L93.4714 44.824L92.9914 44.2L92.9914 38.32L88.4794 38.32ZM88.4794 35.968L88.4794 34.912L89.6314 34.912C90.2074 34.912 90.3034 35.152 89.8954 35.56L89.1754 36.28C89.0074 36.448 88.8874 36.52 88.7674 36.52C88.5994 36.52 88.4794 36.328 88.4794 35.968ZM98.9434 41.32L98.6794 41.32L98.6794 39.664L98.0554 39.04L97.7674 39.04L97.7674 38.8L98.1994 38.8L98.9434 39.544L98.9434 41.32ZM98.0554 41.368L98.0554 44.056L98.5354 44.68L98.5354 46.504L98.2954 46.744L98.2954 44.752L97.8154 44.128L97.8154 41.368L98.0554 41.368ZM97.4314 51.4C97.4314 51.544 97.5274 51.64 97.6474 51.64C97.7914 51.64 97.8874 51.544 97.8874 51.4C97.8874 51.28 97.7914 51.184 97.6474 51.184C97.5274 51.184 97.4314 51.28 97.4314 51.4ZM114.11 38.32L114.11 34.912L116.75 34.912L119.798 37.888L119.798 47.608L115.262 47.608L115.262 46L110.174 46L110.174 46.936L109.694 47.536L109.694 48.328L110.414 48.328L110.414 52L108.206 52L105.134 49.048L105.134 47.536L105.614 46.936L105.614 44.824L105.134 44.2L105.134 38.368L108.686 34.912L109.694 34.912L109.694 42.4L109.958 42.4L109.958 39.544L110.198 39.544L110.198 42.4L114.518 42.4L114.518 39.904L113.894 39.28L113.198 39.28L113.198 39.04L114.038 39.04L114.782 39.784L114.782 42.4L115.262 42.4L115.262 39.448L114.11 38.32ZM105.134 35.968L105.134 34.912L106.286 34.912C106.862 34.912 106.958 35.152 106.55 35.56L105.83 36.28C105.662 36.448 105.542 36.52 105.422 36.52C105.254 36.52 105.134 36.328 105.134 35.968ZM115.262 48.328L119.798 48.328L119.798 52L115.262 52L115.262 48.328ZM119.054 51.4C119.054 51.544 119.15 51.64 119.27 51.64C119.414 51.64 119.51 51.544 119.51 51.4C119.51 51.28 119.414 51.184 119.27 51.184C119.15 51.184 119.054 51.28 119.054 51.4ZM109.574 51.4C109.574 51.544 109.67 51.64 109.79 51.64C109.934 51.64 110.03 51.544 110.03 51.4C110.03 51.28 109.934 51.184 109.79 51.184C109.67 51.184 109.574 51.28 109.574 51.4ZM129.084 38.32L125.796 38.32L125.796 42.4L126.06 42.4L126.06 38.872L126.3 38.872L126.3 42.4L133.428 42.4L133.428 46L126.276 46L126.276 46.936L125.796 47.536L125.796 48.328L134.772 48.328L134.772 52L124.308 52L121.236 49.048L121.236 47.536L121.716 46.936L121.716 44.824L121.236 44.2L121.236 38.368L124.788 34.912L131.724 34.912L134.772 37.888L134.772 41.32L130.236 41.32L130.236 39.448L129.084 38.32ZM121.236 35.968L121.236 34.912L122.388 34.912C122.964 34.912 123.06 35.152 122.652 35.56L121.932 36.28C121.764 36.448 121.644 36.52 121.524 36.52C121.356 36.52 121.236 36.328 121.236 35.968ZM129.756 41.32L129.492 41.32L129.492 39.664L128.868 39.04L126.972 39.04L126.972 38.8L129.012 38.8L129.756 39.544L129.756 41.32ZM133.932 51.4C133.932 51.544 134.028 51.64 134.148 51.64C134.292 51.64 134.388 51.544 134.388 51.4C134.388 51.28 134.292 51.184 134.148 51.184C134.028 51.184 133.932 51.28 133.932 51.4ZM135.978 49.048L135.978 47.536L136.458 46.936L136.458 44.824L135.978 44.2L135.978 38.368L139.53 34.912L145.986 34.912L147.018 35.92L148.05 34.912L154.506 34.912L157.554 37.888L157.554 47.608L153.018 47.608L153.018 47.08L152.274 46.36L152.274 39.904L151.65 39.28L149.994 39.28L149.994 39.04L151.794 39.04L152.538 39.784L152.538 42.544L153.018 42.208L153.018 39.448L152.154 38.584L149.922 38.584L149.058 39.448L149.058 47.296L149.538 47.92L149.538 50.032L149.058 50.632L149.058 52L144.738 52L144.738 47.08L143.994 46.36L143.994 39.904L143.37 39.28L141.714 39.28L141.474 39.04L143.514 39.04L144.258 39.784L144.258 42.544L144.738 42.208L144.738 39.448L143.874 38.584L141.402 38.584L140.538 39.448L140.538 44.2L141.018 44.824L141.018 46.936L140.538 47.536L140.538 48.328L141.258 48.328L141.258 52L139.05 52L135.978 49.048ZM135.978 35.968L135.978 34.912L137.13 34.912C137.706 34.912 137.802 35.152 137.394 35.56L136.674 36.28C136.506 36.448 136.386 36.52 136.266 36.52C136.098 36.52 135.978 36.328 135.978 35.968ZM141.042 41.368L141.042 44.056L141.522 44.68L141.522 46.504L141.282 46.744L141.282 44.752L140.802 44.128L140.802 41.368L141.042 41.368ZM149.562 44.464L149.562 47.152L150.042 47.776L150.042 49.6L149.802 49.84L149.802 47.848L149.322 47.224L149.322 44.464L149.562 44.464ZM153.018 48.328L157.554 48.328L157.554 52L153.018 52L153.018 48.328ZM156.81 51.4C156.81 51.544 156.906 51.64 157.026 51.64C157.17 51.64 157.266 51.544 157.266 51.4C157.266 51.28 157.17 51.184 157.026 51.184C156.906 51.184 156.81 51.28 156.81 51.4ZM163.798 49.048L163.798 47.536L164.278 46.936L164.278 44.824L163.798 44.2L163.798 38.368L167.35 34.912L175.366 34.912L178.414 37.888L178.414 42.4L173.878 42.4L173.878 42.136L173.134 41.416L173.134 39.904L172.51 39.28L170.614 39.28L170.614 39.04L172.654 39.04L173.398 39.784L173.398 40.264L173.878 39.928L173.878 39.448L173.014 38.584L169.222 38.584L168.358 39.448L168.358 44.2L168.838 44.824L168.838 46.936L168.358 47.536L168.358 48.328L173.158 48.328L173.158 52L166.87 52L163.798 49.048ZM163.798 35.968L163.798 34.912L164.95 34.912C165.526 34.912 165.622 35.152 165.214 35.56L164.494 36.28C164.326 36.448 164.206 36.52 164.086 36.52C163.918 36.52 163.798 36.328 163.798 35.968ZM168.862 39.544L168.862 44.056L169.342 44.68L169.342 46.504L169.102 46.744L169.102 44.752L168.622 44.128L168.622 39.544L168.862 39.544ZM173.878 46.144L178.414 46.144L178.414 52L173.878 52L173.878 46.144ZM177.67 51.4C177.67 51.544 177.766 51.64 177.886 51.64C178.03 51.64 178.126 51.544 178.126 51.4C178.126 51.28 178.03 51.184 177.886 51.184C177.766 51.184 177.67 51.28 177.67 51.4ZM189.672 46.36L189.672 39.904L189.048 39.28L187.392 39.28L187.392 39.04L189.192 39.04L189.936 39.784L189.936 42.544L190.416 42.208L190.416 39.448L189.552 38.584L185.16 38.584L184.296 39.448L184.296 44.2L184.776 44.824L184.776 46.936L184.296 47.536L184.296 48.328L189.696 48.328L189.696 52L182.808 52L179.736 49.048L179.736 47.536L180.216 46.936L180.216 44.824L179.736 44.2L179.736 38.368L183.288 34.912L191.904 34.912L194.952 37.888L194.952 47.608L190.416 47.608L190.416 47.08L189.672 46.36ZM179.736 35.968L179.736 34.912L180.888 34.912C181.464 34.912 181.56 35.152 181.152 35.56L180.432 36.28C180.264 36.448 180.144 36.52 180.024 36.52C179.856 36.52 179.736 36.328 179.736 35.968ZM184.8 39.544L184.8 44.056L185.28 44.68L185.28 46.504L185.04 46.744L185.04 44.752L184.56 44.128L184.56 39.544L184.8 39.544ZM190.416 48.328L194.952 48.328L194.952 52L190.416 52L190.416 48.328ZM194.208 51.4C194.208 51.544 194.304 51.64 194.424 51.64C194.568 51.64 194.664 51.544 194.664 51.4C194.664 51.28 194.568 51.184 194.424 51.184C194.304 51.184 194.208 51.28 194.208 51.4ZM206.336 46.36L206.336 39.904L205.712 39.28L204.056 39.28L204.056 39.04L205.856 39.04L206.6 39.784L206.6 42.544L207.08 42.208L207.08 39.448L206.216 38.584L201.824 38.584L200.96 39.448L200.96 44.2L201.44 44.824L201.44 46.936L200.96 47.536L200.96 48.328L206.36 48.328L206.36 52L199.472 52L196.4 49.048L196.4 47.536L196.88 46.936L196.88 44.824L196.4 44.2L196.4 38.368L199.952 34.912L208.568 34.912L211.616 37.888L211.616 47.608L207.08 47.608L207.08 47.08L206.336 46.36ZM196.4 35.968L196.4 34.912L197.552 34.912C198.128 34.912 198.224 35.152 197.816 35.56L197.096 36.28C196.928 36.448 196.808 36.52 196.688 36.52C196.52 36.52 196.4 36.328 196.4 35.968ZM201.464 39.544L201.464 44.056L201.944 44.68L201.944 46.504L201.704 46.744L201.704 44.752L201.224 44.128L201.224 39.544L201.464 39.544ZM207.08 48.328L211.616 48.328L211.616 52L207.08 52L207.08 48.328ZM210.872 51.4C210.872 51.544 210.968 51.64 211.088 51.64C211.232 51.64 211.328 51.544 211.328 51.4C211.328 51.28 211.232 51.184 211.088 51.184C210.968 51.184 210.872 51.28 210.872 51.4ZM221.368 38.32L221.368 34.912L224.008 34.912L227.056 37.888L227.056 42.4L224.776 43.528L227.056 45.832L227.056 52L222.52 52L222.52 50.968L221.992 50.32L221.992 48.112L222.52 47.608L222.52 46.552L221.32 45.352L217.624 47.032L217.624 48.328L218.344 48.328L218.344 52L216.136 52L213.064 49.048L213.064 47.536L213.544 46.936L213.544 44.824L213.064 44.2L213.064 38.368L216.616 34.912L217.624 34.912L217.624 43.672L217.888 43.552L217.888 39.544L218.128 39.544L218.128 43.432L222.52 41.44L222.52 39.448L221.368 38.32ZM213.064 35.968L213.064 34.912L214.216 34.912C214.792 34.912 214.888 35.152 214.48 35.56L213.76 36.28C213.592 36.448 213.472 36.52 213.352 36.52C213.184 36.52 213.064 36.328 213.064 35.968ZM222.064 41.32L221.8 41.32L221.8 39.664L221.176 39.04L220.96 39.04L220.96 38.8L221.32 38.8L222.064 39.544L222.064 41.32ZM217.504 51.4C217.504 51.544 217.6 51.64 217.72 51.64C217.864 51.64 217.96 51.544 217.96 51.4C217.96 51.28 217.864 51.184 217.72 51.184C217.6 51.184 217.504 51.28 217.504 51.4Z" fill="#EDE4CC"/>
<path d="M247.068 45.1242C247.184 45.2564 247.327 45.3625 247.487 45.4355C247.647 45.5085 247.82 45.5468 247.996 45.5478C248.172 45.5488 248.346 45.5125 248.506 45.4414C248.667 45.3702 248.811 45.2658 248.928 45.135C250.45 43.6315 251.963 42.1194 253.467 40.5986C253.597 40.4885 253.704 40.3536 253.782 40.2018C253.859 40.05 253.906 39.8843 253.919 39.7143C253.932 39.5444 253.911 39.3735 253.857 39.2118C253.803 39.05 253.718 38.9005 253.606 38.772C253.48 38.6566 253.331 38.5686 253.169 38.5134C253.007 38.4582 252.836 38.4371 252.665 38.4514C252.495 38.4657 252.329 38.5151 252.179 38.5965C252.028 38.6778 251.896 38.7894 251.791 38.9242C251.049 39.6588 250.323 40.4098 249.587 41.1501C249.489 41.2477 249.376 41.3296 249.169 41.5026V40.8564C249.169 38.8661 249.177 36.8758 249.162 34.8862C249.177 34.7325 249.16 34.5773 249.111 34.4306C249.063 34.2839 248.984 34.1491 248.88 34.0348C248.776 33.9205 248.65 33.8294 248.508 33.7672C248.367 33.7051 248.214 33.6734 248.059 33.6742C247.906 33.6577 247.751 33.6742 247.605 33.7226C247.459 33.7711 247.325 33.8503 247.212 33.9549C247.099 34.0596 247.01 34.1873 246.95 34.3293C246.891 34.4714 246.862 34.6245 246.867 34.7785C246.837 35.0407 246.821 35.3043 246.818 35.5683C246.814 37.3267 246.818 39.0865 246.818 40.842C246.818 41.0151 246.801 41.1888 246.788 41.4782C246.585 41.2951 246.466 41.1953 246.357 41.0847C245.622 40.343 244.904 39.5834 244.151 38.8589C244.042 38.7318 243.908 38.6288 243.757 38.5563C243.606 38.4838 243.442 38.4435 243.274 38.4379C243.107 38.4323 242.941 38.4615 242.785 38.5238C242.63 38.586 242.489 38.6798 242.372 38.7993C242.161 39.0499 242.057 39.3729 242.081 39.6994C242.105 40.0259 242.256 40.33 242.501 40.5469C244.019 42.0787 245.543 43.6035 247.074 45.1214" fill="#FFE61B"/>
<path d="M255.085 48.8904C255.015 48.6222 254.848 48.3891 254.617 48.2357C254.386 48.0822 254.107 48.019 253.832 48.0582C251.893 48.0532 249.955 48.0582 248.016 48.0582C246.093 48.0582 244.17 48.0496 242.247 48.0683C241.936 48.068 241.629 48.1434 241.354 48.288C241.143 48.4251 240.986 48.631 240.909 48.8708C240.833 49.1106 240.842 49.3694 240.935 49.6034C241.011 49.8508 241.171 50.0642 241.387 50.207C241.603 50.3498 241.862 50.4133 242.119 50.3867C244.357 50.3925 246.595 50.3867 248.833 50.3867C250.524 50.3867 252.214 50.3968 253.906 50.3824C254.094 50.3991 254.283 50.3686 254.456 50.2938C254.63 50.219 254.782 50.1021 254.898 49.9538C255.015 49.8055 255.093 49.6304 255.125 49.4443C255.158 49.2583 255.143 49.0671 255.083 48.8882" fill="#FFE61B"/>
<defs>
<filter id="filter0_d_20244_24649" x="0.0835938" y="1.08359" width="293.289" height="87.1883" filterUnits="userSpaceOnUse" color-interpolation-filters="sRGB">
<feFlood flood-opacity="0" result="BackgroundImageFix"/>
<feColorMatrix in="SourceAlpha" type="matrix" values="0 0 0 0 0 0 0 0 0 0 0 0 0 0 0 0 0 0 127 0" result="hardAlpha"/>
<feOffset dx="1" dy="2"/>
<feGaussianBlur stdDeviation="2.3"/>
<feComposite in2="hardAlpha" operator="out"/>
<feColorMatrix type="matrix" values="0 0 0 0 1 0 0 0 0 0.966667 0 0 0 0 0 0 0 0 0.56 0"/>
<feBlend mode="normal" in2="BackgroundImageFix" result="effect1_dropShadow_20244_24649"/>
<feBlend mode="normal" in="SourceGraphic" in2="effect1_dropShadow_20244_24649" result="shape"/>
</filter>
<radialGradient id="paint0_radial_20244_24649" cx="0" cy="0" r="1" gradientUnits="userSpaceOnUse" gradientTransform="translate(135.731 42.6756) scale(93.8422 93.8119)">
<stop stop-color="#243035"/>
<stop offset="1" stop-color="#13181E"/>
</radialGradient>
<radialGradient id="paint1_radial_20244_24649" cx="0" cy="0" r="1" gradientUnits="userSpaceOnUse" gradientTransform="translate(1.16753 1.16835) scale(97.358 97.3265)">
<stop stop-color="#243035"/>
<stop offset="1" stop-color="#13181E"/>
</radialGradient>
<linearGradient id="paint2_linear_20244_24649" x1="1" y1="42.6759" x2="270.456" y2="42.6759" gradientUnits="userSpaceOnUse">
<stop stop-color="#41555D"/>
<stop offset="1" stop-color="#1B2429"/>
</linearGradient>
</defs>
</svg>
