<svg width="24" height="24" viewBox="0 0 24 24" fill="none" xmlns="http://www.w3.org/2000/svg">
<path fill-rule="evenodd" clip-rule="evenodd" d="M11.6336 3.37678C11.3992 3.13553 11.0813 3 10.7498 3C10.4184 3 10.1005 3.13553 9.86609 3.37678L2.36599 11.098C2.13165 11.3393 2 11.6665 2 12.0078C2 12.349 2.13165 12.6763 2.36599 12.9176L9.86609 20.6388C10.1018 20.8732 10.4176 21.0029 10.7453 21C11.0731 20.997 11.3866 20.8617 11.6184 20.6231C11.8501 20.3845 11.9816 20.0617 11.9845 19.7243C11.9873 19.3869 11.8613 19.0618 11.6336 18.8191L6.26729 13.2946L20.75 13.2946C21.0815 13.2946 21.3995 13.1591 21.6339 12.9177C21.8683 12.6764 22 12.3491 22 12.0078C22 11.6665 21.8683 11.3392 21.6339 11.0978C21.3995 10.8565 21.0815 10.7209 20.75 10.7209L6.26729 10.7209L11.6336 5.1964C11.868 4.95508 11.9996 4.62782 11.9996 4.28659C11.9996 3.94536 11.868 3.6181 11.6336 3.37678Z" fill="#EDE4CC"/>
</svg>
