<svg width="288" height="104" viewBox="0 0 288 104" fill="none" xmlns="http://www.w3.org/2000/svg">
<path d="M278.051 18.3566H114.57L112.859 16.6428L98.0806 1H54.8703H53.5284H20.3826L1 20.4149V38.7965V92.093L11.4839 102.653H16.9355L23.5865 96.3019H33.3826H46.7852H55.7426L63.0645 102.653H277.076L287 92.9163V27.3206L278.051 18.3566Z" fill="#0A1619" stroke="#FAAC07"/>
<path d="M245.904 27.0444H100.298L84.3391 10.2422H51.6281H50.5341H23.512L11.0652 26.1271V41.1666V80.8113L18.3541 88.3723H63.4845L72.291 95.0931H219.065L223.259 90.8926H250.639" stroke="url(#paint0_linear_19890_7563)"/>
<path d="M91.0237 1L105.238 16.6428L106.884 18.3566H259.101L267.709 27.3206V92.9163L258.163 102.653" stroke="#FAAC07"/>
<ellipse cx="245.458" cy="27.0688" rx="1.25806" ry="1.26016" fill="#FFE61B"/>
<ellipse cx="250.555" cy="90.891" rx="1.25806" ry="1.26016" fill="#FFE61B"/>
<path d="M12.1919 85.2734L6.03259 88.3713L10.6455 93.412L14.4197 87.5312L12.1919 85.2734Z" fill="#FAAC07"/>
<g clip-path="url(#clip0_19890_7563)">
<path d="M114.818 13.9941H119.855L114.169 6.04086H109.132L114.818 13.9941Z" fill="#FAAC07"/>
<path d="M121.761 13.9941H126.799L121.112 6.04086H116.075L121.761 13.9941Z" fill="#FAAC07"/>
<path d="M128.704 13.9941H133.741L128.055 6.04086H123.018L128.704 13.9941Z" fill="#FAAC07"/>
<path d="M135.648 13.9941H140.685L134.998 6.04086H129.961L135.648 13.9941Z" fill="#FAAC07"/>
<path d="M142.593 13.9941H147.63L141.944 6.04086H136.904L142.593 13.9941Z" fill="#FAAC07"/>
<path d="M149.539 13.9941H154.576L148.889 6.04086H143.85L149.539 13.9941Z" fill="#FAAC07"/>
<path d="M156.484 13.9941H161.521L155.834 6.04086H150.795L156.484 13.9941Z" fill="#FAAC07"/>
<path d="M163.429 13.9941H168.466L162.78 6.04086H157.74L163.429 13.9941Z" fill="#FAAC07"/>
<path d="M170.375 13.9941H175.412L169.725 6.04086H164.686L170.375 13.9941Z" fill="#FAAC07"/>
<path d="M177.32 13.9941H182.357L176.67 6.04086H171.631L177.32 13.9941Z" fill="#FAAC07"/>
</g>
<g clip-path="url(#clip1_19890_7563)">
<path d="M42.6326 75.3223H47.6697L41.9831 67.369H36.946L42.6326 75.3223Z" fill="#32434A"/>
<path d="M49.5758 75.3223H54.6128L48.9262 67.369H43.8892L49.5758 75.3223Z" fill="#32434A"/>
<path d="M56.519 75.3223H61.5561L55.8695 67.369H50.8324L56.519 75.3223Z" fill="#32434A"/>
<path d="M63.462 75.3223H68.4991L62.8125 67.369H57.7754L63.462 75.3223Z" fill="#32434A"/>
<path d="M70.4074 75.3223H75.4445L69.7579 67.369H64.7186L70.4074 75.3223Z" fill="#32434A"/>
<path d="M77.353 75.3223H82.3901L76.7035 67.369H71.6642L77.353 75.3223Z" fill="#32434A"/>
<path d="M84.2984 75.3223H89.3355L83.6489 67.369H78.6096L84.2984 75.3223Z" fill="#32434A"/>
<path d="M91.2439 75.3223H96.2809L90.5943 67.369H85.5551L91.2439 75.3223Z" fill="#32434A"/>
<path d="M98.1892 75.3223H103.226L97.5397 67.369H92.5004L98.1892 75.3223Z" fill="#32434A"/>
<path d="M105.134 75.3223H110.171L104.485 67.369H99.4456L105.134 75.3223Z" fill="#32434A"/>
<path d="M112.08 75.3223H117.117L111.43 67.369H106.391L112.08 75.3223Z" fill="#32434A"/>
<path d="M119.025 75.3223H124.062L118.376 67.369H113.337L119.025 75.3223Z" fill="#32434A"/>
<path d="M125.971 75.3223H131.008L125.321 67.369H120.282L125.971 75.3223Z" fill="#32434A"/>
<path d="M132.916 75.3223H137.953L132.267 67.369H127.227L132.916 75.3223Z" fill="#32434A"/>
<path d="M139.862 75.3223H144.899L139.212 67.369H134.173L139.862 75.3223Z" fill="#32434A"/>
<path d="M146.807 75.3223H151.844L146.157 67.369H141.118L146.807 75.3223Z" fill="#32434A"/>
<path d="M153.752 75.3223H158.789L153.103 67.369H148.063L153.752 75.3223Z" fill="#32434A"/>
<path d="M160.698 75.3223H165.735L160.048 67.369H155.009L160.698 75.3223Z" fill="#32434A"/>
<path d="M167.643 75.3223H172.68L166.994 67.369H161.954L167.643 75.3223Z" fill="#32434A"/>
<path d="M174.589 75.3223H179.626L173.939 67.369H168.9L174.589 75.3223Z" fill="#32434A"/>
</g>
<rect x="271.904" y="29.5645" width="9.2258" height="10.9214" rx="1.68022" fill="url(#paint1_linear_19890_7563)"/>
<rect x="271.904" y="42.166" width="9.2258" height="10.9214" rx="1.68022" fill="url(#paint2_linear_19890_7563)"/>
<rect x="271.904" y="54.7676" width="9.2258" height="10.9214" rx="1.68022" fill="url(#paint3_linear_19890_7563)"/>
<rect x="271.904" y="67.3691" width="9.2258" height="10.9214" rx="1.68022" fill="url(#paint4_linear_19890_7563)"/>
<rect x="271.904" y="79.9707" width="9.2258" height="10.9214" rx="1.68022" fill="url(#paint5_linear_19890_7563)"/>
<defs>
<linearGradient id="paint0_linear_19890_7563" x1="31.6136" y1="44.6866" x2="248.001" y2="44.6866" gradientUnits="userSpaceOnUse">
<stop stop-color="#FAAC07"/>
<stop offset="1" stop-color="#FFE61B"/>
</linearGradient>
<linearGradient id="paint1_linear_19890_7563" x1="272.695" y1="33.9979" x2="281.028" y2="33.9979" gradientUnits="userSpaceOnUse">
<stop stop-color="#FAAC07"/>
<stop offset="1" stop-color="#FFE61B"/>
</linearGradient>
<linearGradient id="paint2_linear_19890_7563" x1="272.695" y1="46.5995" x2="281.028" y2="46.5995" gradientUnits="userSpaceOnUse">
<stop stop-color="#FAAC07"/>
<stop offset="1" stop-color="#FFE61B"/>
</linearGradient>
<linearGradient id="paint3_linear_19890_7563" x1="272.695" y1="59.201" x2="281.028" y2="59.201" gradientUnits="userSpaceOnUse">
<stop stop-color="#FAAC07"/>
<stop offset="1" stop-color="#FFE61B"/>
</linearGradient>
<linearGradient id="paint4_linear_19890_7563" x1="272.695" y1="71.8026" x2="281.028" y2="71.8026" gradientUnits="userSpaceOnUse">
<stop stop-color="#FAAC07"/>
<stop offset="1" stop-color="#FFE61B"/>
</linearGradient>
<linearGradient id="paint5_linear_19890_7563" x1="272.695" y1="84.4041" x2="281.028" y2="84.4041" gradientUnits="userSpaceOnUse">
<stop stop-color="#FAAC07"/>
<stop offset="1" stop-color="#FFE61B"/>
</linearGradient>
<clipPath id="clip0_19890_7563">
<rect width="73.2257" height="7.95328" fill="white" transform="matrix(1 0 0 -1 109.132 13.9941)"/>
</clipPath>
<clipPath id="clip1_19890_7563">
<rect width="142.68" height="7.95328" fill="white" transform="matrix(1 0 0 -1 36.946 75.3223)"/>
</clipPath>
</defs>
</svg>
