<svg width="1553" height="514" viewBox="0 0 1553 514" fill="none" xmlns="http://www.w3.org/2000/svg">
<g clip-path="url(#clip0_19845_6626)">
<mask id="mask0_19845_6626" style="mask-type:luminance" maskUnits="userSpaceOnUse" x="2" y="0" width="1549" height="273">
<path d="M1550.1 0H2.73999V272.85H1550.1V0Z" fill="white"/>
</mask>
<g mask="url(#mask0_19845_6626)">
<path d="M10.1399 230.48L74.2799 166.34H179.05C179.45 164.89 180.77 163.82 182.35 163.82C184.25 163.82 185.79 165.36 185.79 167.26C185.79 169.16 184.25 170.7 182.35 170.7C180.77 170.7 179.46 169.63 179.05 168.18H75.0399L11.4399 231.78C12.1799 233.09 12.0099 234.78 10.8899 235.89C9.5499 237.23 7.3699 237.23 6.0299 235.89C4.6899 234.55 4.6899 232.37 6.0299 231.03C7.1499 229.91 8.8299 229.74 10.1399 230.48Z" fill="url(#paint0_radial_19845_6626)"/>
<path d="M926.89 60.1211H640.72V309.551H926.89V60.1211Z" fill="url(#paint1_radial_19845_6626)"/>
<path d="M0 221.41L72.94 148.47H208.47L226.85 166.85H335.39L383.91 118.32V31.3204L409.33 5.90039H515.71L550.53 40.7204H724.76L840.94 156.91L388.22 609.63L0 221.41Z" fill="url(#paint2_radial_19845_6626)"/>
<g style="mix-blend-mode:multiply">
<path d="M373.86 586.081L811.48 148.471L718.02 55.0207H599.4L574.87 79.5607L594.97 99.6607L586.93 107.701L552.05 72.8207H508.4L468.55 32.9707L446.24 55.2807V128.101L467.34 149.201V285.291L408.17 344.461H351.62L319.73 312.571V250.851L336.95 233.631V208.361H305.94L272.37 241.931V333.811L246.53 359.661V458.751L373.86 586.081Z" fill="#BDC9C9"/>
</g>
<path d="M337.11 538.991L253.84 455.721V362.681L279.68 336.841V244.951L308.97 215.661H329.64V230.601L312.42 247.831V315.591L348.6 351.771H411.19L474.65 288.311V146.181L453.55 125.071V58.3105L468.55 43.3105L505.38 80.1305H549.02L586.93 118.041L605.3 99.6605L585.2 79.5605L602.43 62.3305H714.99L801.14 148.471L373.86 575.751L337.11 538.991Z" fill="url(#paint3_radial_19845_6626)"/>
<g style="mix-blend-mode:multiply">
<path d="M235.5 340.511L222.44 327.461L244.68 305.221V247.021L279.87 211.841L254.95 186.911H183.04L172.71 197.251H135.88L112.91 174.281H78.52L20.29 232.511L207.96 420.181L235.5 450.541V340.511Z" fill="#BDC9C9"/>
</g>
<path d="M213.25 415.14L30.6299 232.51L81.5499 181.59H109.88L132.85 204.56H175.73L186.07 194.22H251.92L269.53 211.84L237.37 244V302.19L212.11 327.46L228.19 343.54V431.6L213.25 415.14Z" fill="url(#paint4_radial_19845_6626)"/>
<path style="mix-blend-mode:overlay" d="M208.47 148.47H72.94L0 221.41L388.22 609.63L840.94 156.91L724.75 40.7204H550.52L515.7 5.90039H409.31L383.9 31.3104V118.32L335.37 166.85H226.83L208.45 148.47H208.47ZM74.07 151.21H207.33L225.71 169.59H336.52L386.65 119.46V32.4504L410.46 8.64039H514.58L549.4 43.4604H723.63L837.08 156.91L388.23 605.76L3.88 221.41L74.07 151.22V151.21Z" fill="url(#paint5_radial_19845_6626)"/>
<path style="mix-blend-mode:overlay" d="M505.38 80.1308L468.55 43.3008L453.55 58.3008V125.061L474.66 146.171V288.311L411.2 351.771H348.6L312.42 315.591V247.821L329.65 230.591V215.661H308.98L279.69 244.951V336.841L253.85 362.681V455.721L337.12 538.991L373.87 575.741L801.14 148.471L715 62.3308H602.44L585.21 79.5608L605.31 99.6608L586.93 118.041L549.03 80.1408H505.38V80.1308ZM468.55 47.1808L504.24 82.8708H547.89L586.93 121.911L609.18 99.6608L589.08 79.5608L603.57 65.0708H713.86L797.26 148.471L373.86 571.871L339.04 537.051L256.57 454.581V363.821L282.41 337.981V246.091L310.09 218.411H326.89V229.471L309.66 246.701V316.741L347.45 354.531H412.32L477.39 289.461V145.051L456.28 123.941V59.4408L468.54 47.1808H468.55Z" fill="url(#paint6_radial_19845_6626)"/>
<path style="mix-blend-mode:overlay" d="M109.88 181.59H81.5499L30.6299 232.51L213.25 415.13L228.18 431.59V343.53L212.1 327.45L237.37 302.18V243.98L269.53 211.82L251.92 194.21H186.07L175.73 204.55H132.85L109.88 181.58V181.59ZM82.6899 184.33H108.75L131.72 207.3H176.87L187.21 196.96H250.79L265.66 211.83L234.64 242.85V301.04L208.24 327.44L225.46 344.66V424.48L215.3 413.28L215.26 413.23L34.5099 232.51L82.6899 184.33Z" fill="url(#paint7_radial_19845_6626)"/>
<path d="M398.18 333.59C396.84 332.25 396.84 330.07 398.18 328.73C399.3 327.61 400.98 327.44 402.29 328.18L447.03 283.44V165.74C445.58 165.34 444.51 164.02 444.51 162.44C444.51 160.54 446.05 159 447.95 159C449.85 159 451.39 160.54 451.39 162.44C451.39 164.02 450.32 165.33 448.87 165.74V284.2L403.59 329.48C404.33 330.79 404.16 332.48 403.04 333.59C401.7 334.93 399.52 334.93 398.18 333.59Z" fill="url(#paint8_radial_19845_6626)"/>
<path d="M488.99 39.9305C490.11 41.0505 490.28 42.7305 489.54 44.0405L508.35 62.8505H551.57L578.88 90.1606C580.19 89.4206 581.88 89.5905 582.99 90.7105C584.33 92.0505 584.33 94.2305 582.99 95.5705C581.65 96.9105 579.47 96.9105 578.13 95.5705C577.01 94.4506 576.84 92.7705 577.58 91.4605L550.81 64.6905H507.59L488.25 45.3505C486.94 46.0905 485.25 45.9205 484.14 44.8005C482.8 43.4605 482.8 41.2805 484.14 39.9405C485.48 38.6005 487.66 38.6005 489 39.9405L488.99 39.9305Z" fill="url(#paint9_radial_19845_6626)"/>
<path d="M28.23 255.631L79.16 204.701H106.91L129.02 226.811H176.5L194.02 209.291H232.46C232.86 207.841 234.18 206.771 235.76 206.771C237.66 206.771 239.2 208.311 239.2 210.211C239.2 212.111 237.66 213.651 235.76 213.651C234.18 213.651 232.87 212.581 232.46 211.131H194.78L177.26 228.651H128.26L106.15 206.541H79.91L29.52 256.931C30.26 258.241 30.09 259.931 28.97 261.041C27.63 262.381 25.45 262.381 24.11 261.041C22.77 259.701 22.77 257.521 24.11 256.181C25.23 255.061 26.91 254.891 28.22 255.631H28.23Z" fill="url(#paint10_radial_19845_6626)"/>
<path d="M302.45 257.77C302.45 259.35 301.38 260.66 299.93 261.07V347.37L280.79 366.51V442.33L301.46 463L268.82 495.64C269.56 496.95 269.39 498.64 268.27 499.75C266.93 501.09 264.75 501.09 263.41 499.75C262.07 498.41 262.07 496.23 263.41 494.89C264.53 493.77 266.21 493.6 267.52 494.34L298.87 462.99L278.96 443.08V365.75L298.1 346.61V261.07C296.65 260.67 295.58 259.35 295.58 257.77C295.58 255.87 297.12 254.33 299.02 254.33C300.92 254.33 302.46 255.87 302.46 257.77H302.45Z" fill="url(#paint11_radial_19845_6626)"/>
<g style="mix-blend-mode:overlay">
<path d="M244.24 480.411V334.991L261.76 317.481V245.691L307.98 199.471H348.18L413.37 134.281V41.8108L431.17 24.0208H509.24L537.23 52.0208H736.07L733.61 49.5508H538.26L510.26 21.5508H430.14L410.91 40.7908V133.251L347.16 197.001H306.96L259.29 244.671V316.451L241.78 333.971V480.411H244.24Z" fill="#C8C8C8"/>
<path d="M209.21 443.66V349.6L182.09 322.48L207.36 297.21L155.51 245.36H100.95L87.01 231.41L38.74 279.68L40.49 281.42L87.01 234.9L99.93 247.83H154.48L203.87 297.21L178.6 322.48L206.75 350.62V443.66H209.21Z" fill="#C8C8C8"/>
<path d="M429.59 446.512L392.86 409.782L512.44 290.202V155.242L543.57 124.112L582.33 162.872L639.06 106.152L790.18 106.142L787.67 103.682H638.04L582.33 159.382L543.57 120.622L509.97 154.222V289.172L389.37 409.782L427.85 448.252L429.59 446.512Z" fill="#C8C8C8"/>
</g>
<g style="mix-blend-mode:multiply">
<path d="M241.78 480.41V333.97L259.29 316.45V244.67L306.96 197H347.16L410.91 133.25V40.7898L430.14 21.5498H510.26L538.26 49.5498H733.61L731.09 47.0798H539.28L511.28 19.0898H429.12L408.44 39.7698V132.23L346.14 194.53H305.94L256.83 243.64V315.43L239.31 332.95V480.41H241.78Z" fill="#596B70"/>
<path d="M206.75 443.66V350.62L178.6 322.48L203.87 297.21L154.48 247.83H99.93L87.01 234.9L40.49 281.42L42.23 283.17L87.01 238.39L98.9 250.29H153.46L200.38 297.21L175.12 322.48L204.28 351.65V443.66H206.75Z" fill="#596B70"/>
<path d="M427.85 448.249L389.37 409.779L509.97 289.169V154.219L543.57 120.619L582.33 159.379L638.04 103.679H787.67L785.25 101.209H637.02L582.33 155.899L543.57 117.129L507.5 153.189V288.149L385.88 409.779L426.1 449.999L427.85 448.249Z" fill="#596B70"/>
</g>
<g style="mix-blend-mode:multiply">
<path d="M491.6 250.259L484.76 257.099V252.719L491.6 245.879L498.44 252.719V257.099L491.6 250.259Z" fill="#B1B1B1"/>
<path d="M491.6 241.55L484.76 248.39V244.01L491.6 237.17L498.44 244.02V248.4L491.6 241.55Z" fill="#B1B1B1"/>
<path d="M491.6 232.851L484.76 239.691V235.311L491.6 228.471L498.44 235.311V239.691L491.6 232.851Z" fill="#B1B1B1"/>
<path d="M491.6 224.15L484.76 230.99V226.61L491.6 219.77L498.44 226.61V230.99L491.6 224.15Z" fill="#B1B1B1"/>
<path d="M491.6 215.441L484.75 222.291V217.911L491.6 211.061L498.44 217.911V222.291L491.6 215.441Z" fill="#B1B1B1"/>
<path d="M491.6 206.739L484.75 213.579V209.199L491.6 202.359L498.44 209.199V213.579L491.6 206.739Z" fill="#B1B1B1"/>
<path d="M491.6 198.04L484.75 204.88V200.5L491.6 193.66L498.44 200.5V204.88L491.6 198.04Z" fill="#B1B1B1"/>
<path d="M491.59 189.341L484.75 196.181V191.801L491.59 184.961L498.44 191.801V196.181L491.59 189.341Z" fill="#B1B1B1"/>
<path d="M491.59 180.63L484.75 187.47V183.09L491.59 176.25L498.44 183.1V187.48L491.59 180.63Z" fill="#B1B1B1"/>
</g>
<g style="mix-blend-mode:overlay">
<path d="M265.61 182.07L258.77 175.23H263.15L269.99 182.07L263.15 188.91H258.77L265.61 182.07Z" fill="#D4D5DA"/>
<path d="M274.31 182.07L267.47 175.23H271.85L278.69 182.07L271.85 188.91H267.47L274.31 182.07Z" fill="#D4D5DA"/>
<path d="M283.02 182.07L276.17 175.23H280.55L287.4 182.07L280.55 188.91H276.17L283.02 182.07Z" fill="#D4D5DA"/>
<path d="M291.72 182.07L284.88 175.23H289.26L296.1 182.07L289.26 188.91H284.88L291.72 182.07Z" fill="#D4D5DA"/>
<path d="M300.42 182.071L293.58 175.221H297.96L304.8 182.071L297.96 188.911H293.58L300.42 182.071Z" fill="#D4D5DA"/>
<path d="M309.12 182.071L302.28 175.221H306.66L313.5 182.071L306.66 188.911H302.28L309.12 182.071Z" fill="#D4D5DA"/>
<path d="M317.83 182.071L310.99 175.221H315.37L322.21 182.071L315.37 188.911H310.99L317.83 182.071Z" fill="#D4D5DA"/>
<path d="M326.53 182.061L319.69 175.221H324.07L330.91 182.061L324.07 188.911H319.69L326.53 182.061Z" fill="#D4D5DA"/>
<path d="M335.23 182.061L328.39 175.221H332.77L339.61 182.061L332.77 188.911H328.39L335.23 182.061Z" fill="#D4D5DA"/>
</g>
<path d="M667.86 144.111C670.02 146.271 673.54 146.271 675.71 144.111C677.87 141.951 677.87 138.431 675.71 136.261L661.54 122.091C659.38 119.931 655.86 119.931 653.69 122.091C651.53 124.251 651.53 127.771 653.69 129.941L667.86 144.111Z" fill="url(#paint12_linear_19845_6626)"/>
<path d="M654.72 128.91L668.89 143.08C670.49 144.68 673.08 144.68 674.68 143.08C676.28 141.48 676.28 138.89 674.68 137.29L660.51 123.12C658.91 121.52 656.32 121.52 654.72 123.12C653.12 124.72 653.12 127.31 654.72 128.91Z" fill="url(#paint13_linear_19845_6626)"/>
<g style="mix-blend-mode:multiply">
<path d="M655.75 127.88L669.92 142.05C671.34 143.47 673.55 143.62 675.14 142.51C675 142.71 674.85 142.9 674.68 143.08C673.08 144.68 670.49 144.68 668.89 143.08L654.72 128.91C653.12 127.31 653.12 124.72 654.72 123.12C654.9 122.94 655.09 122.8 655.29 122.66C654.18 124.26 654.33 126.46 655.75 127.88Z" fill="#A39886"/>
</g>
<path d="M653.31 158.671C655.47 160.831 658.99 160.831 661.16 158.671C663.32 156.511 663.32 152.991 661.16 150.821L646.99 136.651C644.83 134.491 641.31 134.491 639.14 136.651C636.98 138.811 636.98 142.331 639.14 144.501L653.31 158.671Z" fill="url(#paint14_linear_19845_6626)"/>
<path d="M640.17 143.47L654.34 157.64C655.94 159.24 658.53 159.24 660.13 157.64C661.73 156.04 661.73 153.45 660.13 151.85L645.96 137.68C644.36 136.08 641.77 136.08 640.17 137.68C638.57 139.28 638.57 141.87 640.17 143.47Z" fill="url(#paint15_linear_19845_6626)"/>
<g style="mix-blend-mode:multiply">
<path d="M641.2 142.441L655.37 156.611C656.79 158.031 659 158.181 660.59 157.071C660.45 157.271 660.3 157.461 660.13 157.641C658.53 159.241 655.94 159.241 654.34 157.641L640.17 143.471C638.57 141.871 638.57 139.281 640.17 137.681C640.35 137.501 640.54 137.361 640.74 137.221C639.63 138.821 639.78 141.021 641.2 142.441Z" fill="#A39886"/>
</g>
<path d="M638.76 173.22C640.92 175.38 644.44 175.38 646.61 173.22C648.77 171.06 648.77 167.54 646.61 165.37L632.44 151.2C630.28 149.04 626.76 149.04 624.59 151.2C622.43 153.36 622.43 156.88 624.59 159.05L638.76 173.22Z" fill="url(#paint16_linear_19845_6626)"/>
<path d="M625.61 158.021L639.78 172.191C641.38 173.791 643.97 173.791 645.57 172.191C647.17 170.591 647.17 168.001 645.57 166.401L631.4 152.231C629.8 150.631 627.21 150.631 625.61 152.231C624.01 153.831 624.01 156.421 625.61 158.021Z" fill="url(#paint17_linear_19845_6626)"/>
<g style="mix-blend-mode:multiply">
<path d="M626.64 156.99L640.81 171.16C642.23 172.58 644.44 172.73 646.03 171.62C645.89 171.82 645.74 172.01 645.57 172.19C643.97 173.79 641.38 173.79 639.78 172.19L625.61 158.02C624.01 156.42 624.01 153.83 625.61 152.23C625.79 152.05 625.98 151.91 626.18 151.77C625.07 153.37 625.22 155.57 626.64 156.99Z" fill="#A39886"/>
</g>
<path d="M624.21 187.771C626.37 189.931 629.89 189.931 632.06 187.771C634.23 185.611 634.22 182.091 632.06 179.921L617.89 165.751C615.73 163.591 612.21 163.591 610.04 165.751C607.88 167.911 607.88 171.431 610.04 173.601L624.21 187.771Z" fill="url(#paint18_linear_19845_6626)"/>
<path d="M611.06 172.57L625.23 186.74C626.83 188.34 629.42 188.34 631.02 186.74C632.62 185.14 632.62 182.55 631.02 180.95L616.85 166.78C615.25 165.18 612.66 165.18 611.06 166.78C609.46 168.38 609.46 170.97 611.06 172.57Z" fill="url(#paint19_linear_19845_6626)"/>
<g style="mix-blend-mode:multiply">
<path d="M612.09 171.54L626.26 185.71C627.68 187.13 629.89 187.28 631.48 186.17C631.34 186.37 631.19 186.56 631.02 186.74C629.42 188.34 626.83 188.34 625.23 186.74L611.06 172.57C609.46 170.97 609.46 168.38 611.06 166.78C611.24 166.6 611.43 166.46 611.63 166.32C610.52 167.92 610.67 170.12 612.09 171.54Z" fill="#A39886"/>
</g>
<path d="M1532.54 230.48L1468.4 166.34H1363.63C1363.23 164.89 1361.91 163.82 1360.33 163.82C1358.43 163.82 1356.89 165.36 1356.89 167.26C1356.89 169.16 1358.43 170.7 1360.33 170.7C1361.91 170.7 1363.22 169.63 1363.63 168.18H1467.64L1531.24 231.78C1530.5 233.09 1530.67 234.78 1531.79 235.89C1533.13 237.23 1535.31 237.23 1536.65 235.89C1537.99 234.55 1537.99 232.37 1536.65 231.03C1535.53 229.91 1533.85 229.74 1532.54 230.48Z" fill="url(#paint20_radial_19845_6626)"/>
<path d="M1553.25 221.41L1480.32 148.47H1344.79L1326.41 166.85H1217.87L1169.34 118.32V31.3204L1143.93 5.90039H1037.54L1002.72 40.7204H828.5L712.31 156.91L1165.03 609.63L1553.25 221.41Z" fill="url(#paint21_radial_19845_6626)"/>
<g style="mix-blend-mode:multiply">
<path d="M1179.39 586.081L741.78 148.471L835.23 55.0207H953.85L978.39 79.5607L958.29 99.6607L966.33 107.701L1001.2 72.8207H1044.85L1084.7 32.9707L1107.02 55.2807V128.101L1085.91 149.201V285.291L1145.09 344.461H1201.63L1233.53 312.571V250.851L1216.3 233.631V208.361H1247.31L1280.88 241.931V333.811L1306.73 359.661V458.751L1179.39 586.081Z" fill="#BDC9C9"/>
</g>
<path d="M1216.14 538.991L1299.42 455.721V362.681L1273.57 336.841V244.951L1244.28 215.671H1223.61V230.601L1240.84 247.831V315.591L1204.66 351.771H1142.06L1078.6 288.311V146.181L1099.71 125.071V58.3105L1084.7 43.3105L1047.88 80.1305H1004.23L966.33 118.041L947.95 99.6605L968.05 79.5605L950.82 62.3305H838.26L752.12 148.471L1179.39 575.751L1216.14 538.991Z" fill="url(#paint22_radial_19845_6626)"/>
<g style="mix-blend-mode:multiply">
<path d="M1317.76 340.511L1330.81 327.461L1308.57 305.221V247.021L1273.38 211.841L1298.3 186.911H1370.21L1380.55 197.251H1417.37L1440.34 174.281H1474.73L1532.96 232.511L1345.29 420.181L1317.76 450.541V340.511Z" fill="#BDC9C9"/>
</g>
<path d="M1340 415.14L1522.62 232.51L1471.7 181.59H1443.37L1420.4 204.56H1377.52L1367.18 194.22H1301.33L1283.72 211.84L1315.88 244V302.19L1341.15 327.46L1325.07 343.54V431.6L1340 415.14Z" fill="url(#paint23_radial_19845_6626)"/>
<path style="mix-blend-mode:overlay" d="M1326.41 166.85H1217.87L1169.34 118.32V31.3202L1143.93 5.91016H1037.54L1002.72 40.7302H828.49L712.3 156.92L1165.02 609.64L1553.24 221.42L1480.3 148.48H1344.77L1326.39 166.86L1326.41 166.85ZM1549.38 221.41L1165.03 605.76L716.18 156.91L829.63 43.4602H1003.86L1038.68 8.64016H1142.8L1166.61 32.4502V119.46L1216.74 169.59H1327.55L1345.93 151.21H1479.19L1549.38 221.4V221.41Z" fill="url(#paint24_radial_19845_6626)"/>
<path style="mix-blend-mode:overlay" d="M1004.23 80.1305L966.33 118.031L947.95 99.6505L968.05 79.5505L950.82 62.3205H838.26L752.12 148.461L1179.39 575.731L1216.14 538.981L1299.41 455.711V362.671L1273.57 336.831V244.941L1244.28 215.651H1223.61V230.581L1240.84 247.811V315.581L1204.66 351.761H1142.06L1078.6 288.301V146.161L1099.71 125.051V58.3105L1084.71 43.3105L1047.88 80.1405H1004.23V80.1305ZM1096.96 59.4405V123.931L1075.86 145.041V289.451L1140.92 354.521H1205.79L1243.58 316.731V246.691L1226.35 229.461V218.401H1243.15L1270.83 246.081V337.971L1296.67 363.811V454.571L1214.2 537.041L1179.38 571.861L755.98 148.461L839.38 65.0605H949.67L964.16 79.5505L944.06 99.6505L966.31 121.901L1005.35 82.8605H1049L1084.69 47.1705L1096.95 59.4305L1096.96 59.4405Z" fill="url(#paint25_radial_19845_6626)"/>
<path style="mix-blend-mode:overlay" d="M1420.4 204.56H1377.52L1367.18 194.22H1301.33L1283.72 211.83L1315.88 243.99V302.19L1341.15 327.46L1325.07 343.54V431.6L1340 415.14L1522.62 232.52L1471.7 181.6H1443.37L1420.4 204.57V204.56ZM1518.75 232.51L1338.02 413.24L1337.98 413.29L1327.82 424.49V344.67L1345.04 327.45L1318.64 301.05V242.86L1287.62 211.84L1302.49 196.97H1366.07L1376.41 207.31H1421.56L1444.53 184.34H1470.59L1518.77 232.52L1518.75 232.51Z" fill="url(#paint26_radial_19845_6626)"/>
<path d="M1155.08 333.59C1156.42 332.25 1156.42 330.07 1155.08 328.73C1153.96 327.61 1152.28 327.44 1150.97 328.18L1106.23 283.44V165.74C1107.68 165.34 1108.75 164.02 1108.75 162.44C1108.75 160.54 1107.21 159 1105.31 159C1103.41 159 1101.87 160.54 1101.87 162.44C1101.87 164.02 1102.94 165.33 1104.39 165.74V284.2L1149.67 329.48C1148.93 330.79 1149.1 332.48 1150.22 333.59C1151.56 334.93 1153.74 334.93 1155.08 333.59Z" fill="url(#paint27_radial_19845_6626)"/>
<path d="M1064.27 39.9305C1063.15 41.0505 1062.98 42.7305 1063.72 44.0405L1044.91 62.8505H1001.69L974.38 90.1606C973.07 89.4206 971.38 89.5905 970.27 90.7105C968.93 92.0505 968.93 94.2305 970.27 95.5705C971.61 96.9105 973.79 96.9105 975.13 95.5705C976.25 94.4506 976.42 92.7705 975.68 91.4605L1002.45 64.6905H1045.67L1065.01 45.3505C1066.32 46.0905 1068.01 45.9205 1069.12 44.8005C1070.46 43.4605 1070.46 41.2805 1069.12 39.9405C1067.78 38.6005 1065.6 38.6005 1064.26 39.9405L1064.27 39.9305Z" fill="url(#paint28_radial_19845_6626)"/>
<path d="M1525.02 255.631L1474.09 204.701H1446.34L1424.23 226.811H1376.75L1359.23 209.291H1320.79C1320.39 207.841 1319.07 206.771 1317.49 206.771C1315.59 206.771 1314.05 208.311 1314.05 210.211C1314.05 212.111 1315.59 213.651 1317.49 213.651C1319.07 213.651 1320.38 212.581 1320.79 211.131H1358.47L1375.99 228.651H1424.99L1447.1 206.541H1473.34L1523.73 256.931C1522.99 258.241 1523.16 259.931 1524.28 261.041C1525.62 262.381 1527.8 262.381 1529.14 261.041C1530.48 259.701 1530.48 257.521 1529.14 256.181C1528.02 255.061 1526.34 254.891 1525.03 255.631H1525.02Z" fill="url(#paint29_radial_19845_6626)"/>
<path d="M1250.8 257.77C1250.8 259.35 1251.87 260.66 1253.32 261.07V347.37L1272.46 366.51V442.33L1251.79 463L1284.43 495.64C1283.69 496.95 1283.86 498.64 1284.98 499.75C1286.32 501.09 1288.5 501.09 1289.84 499.75C1291.18 498.41 1291.18 496.23 1289.84 494.89C1288.72 493.77 1287.04 493.6 1285.73 494.34L1254.38 462.99L1274.29 443.08V365.75L1255.15 346.61V261.07C1256.6 260.67 1257.67 259.35 1257.67 257.77C1257.67 255.87 1256.13 254.33 1254.23 254.33C1252.33 254.33 1250.79 255.87 1250.79 257.77H1250.8Z" fill="url(#paint30_radial_19845_6626)"/>
<g style="mix-blend-mode:overlay">
<path d="M1309.01 480.411V334.991L1291.49 317.481V245.691L1245.27 199.471H1205.07L1139.88 134.281V41.8108L1122.09 24.0208H1044.02L1016.02 52.0208H817.18L819.64 49.5508H1015L1042.99 21.5508H1123.11L1142.35 40.7908V133.251L1206.09 197.001H1246.29L1293.96 244.671V316.451L1311.48 333.971V480.411H1309.01Z" fill="#C8C8C8"/>
<path d="M1344.04 443.66V349.6L1371.16 322.48L1345.89 297.21L1397.75 245.36H1452.3L1466.25 231.41L1514.51 279.68L1512.77 281.42L1466.25 234.9L1453.33 247.83H1398.77L1349.38 297.21L1374.65 322.48L1346.51 350.62V443.66H1344.04Z" fill="#C8C8C8"/>
<path d="M1123.66 446.512L1160.39 409.782L1040.81 290.202V155.242L1009.69 124.112L970.92 162.872L914.19 106.152L763.07 106.142L765.58 103.682H915.21L970.92 159.382L1009.69 120.622L1043.28 154.222V289.172L1163.88 409.782L1125.41 448.252L1123.66 446.512Z" fill="#C8C8C8"/>
</g>
<g style="mix-blend-mode:multiply">
<path d="M1311.48 480.41V333.97L1293.96 316.45V244.67L1246.29 197H1206.09L1142.35 133.25V40.7898L1123.11 21.5498H1042.99L1015 49.5498H819.64L822.16 47.0798H1013.98L1041.97 19.0898H1124.13L1144.81 39.7698V132.23L1207.12 194.53H1247.32L1296.43 243.64V315.43L1313.94 332.95V480.41H1311.48Z" fill="#596B70"/>
<path d="M1346.51 443.66V350.62L1374.65 322.48L1349.38 297.21L1398.77 247.83H1453.33L1466.25 234.9L1512.77 281.42L1511.02 283.17L1466.25 238.39L1454.35 250.29H1399.79L1352.87 297.21L1378.14 322.48L1348.97 351.65V443.66H1346.51Z" fill="#596B70"/>
<path d="M1125.41 448.249L1163.88 409.779L1043.28 289.169V154.219L1009.69 120.619L970.92 159.379L915.21 103.679H765.58L768.01 101.209H916.24L970.92 155.899L1009.69 117.129L1045.75 153.189V288.149L1167.37 409.779L1127.15 449.999L1125.41 448.249Z" fill="#596B70"/>
</g>
<g style="mix-blend-mode:multiply">
<path d="M1061.65 250.261L1068.5 257.101V252.721L1061.65 245.881L1054.81 252.721V257.101L1061.65 250.261Z" fill="#B1B1B1"/>
<path d="M1061.65 241.55L1068.5 248.39V244.01L1061.66 237.17L1054.81 244.02V248.4L1061.65 241.55Z" fill="#B1B1B1"/>
<path d="M1061.66 232.851L1068.5 239.691V235.311L1061.66 228.471L1054.81 235.311V239.691L1061.66 232.851Z" fill="#B1B1B1"/>
<path d="M1061.66 224.15L1068.5 230.99V226.61L1061.66 219.77L1054.81 226.61V230.99L1061.66 224.15Z" fill="#B1B1B1"/>
<path d="M1061.66 215.441L1068.5 222.291V217.911L1061.66 211.061L1054.81 217.911V222.291L1061.66 215.441Z" fill="#B1B1B1"/>
<path d="M1061.66 206.739L1068.5 213.579V209.199L1061.66 202.359L1054.82 209.199L1054.81 213.579L1061.66 206.739Z" fill="#B1B1B1"/>
<path d="M1061.66 198.04L1068.5 204.88V200.5L1061.66 193.66L1054.82 200.5V204.88L1061.66 198.04Z" fill="#B1B1B1"/>
<path d="M1061.66 189.341L1068.5 196.181V191.801L1061.66 184.961L1054.82 191.801V196.181L1061.66 189.341Z" fill="#B1B1B1"/>
<path d="M1061.66 180.63L1068.5 187.47V183.09L1061.66 176.25L1054.82 183.1V187.48L1061.66 180.63Z" fill="#B1B1B1"/>
</g>
<g style="mix-blend-mode:overlay">
<path d="M1287.64 182.07L1294.48 175.23H1290.1L1283.26 182.07L1290.11 188.91H1294.49L1287.64 182.07Z" fill="#D4D5DA"/>
<path d="M1278.94 182.07L1285.78 175.23H1281.4L1274.56 182.07L1281.4 188.91H1285.78L1278.94 182.07Z" fill="#D4D5DA"/>
<path d="M1270.24 182.07L1277.08 175.23H1272.7L1265.86 182.07L1272.7 188.91H1277.08L1270.24 182.07Z" fill="#D4D5DA"/>
<path d="M1261.53 182.07L1268.38 175.23H1264L1257.15 182.07L1264 188.91H1268.38L1261.53 182.07Z" fill="#D4D5DA"/>
<path d="M1252.83 182.071L1259.67 175.231L1255.29 175.221L1248.45 182.071L1255.29 188.911H1259.67L1252.83 182.071Z" fill="#D4D5DA"/>
<path d="M1244.13 182.071L1250.97 175.221H1246.59L1239.75 182.071L1246.59 188.911H1250.97L1244.13 182.071Z" fill="#D4D5DA"/>
<path d="M1235.43 182.071L1242.27 175.221H1237.89L1231.05 182.071L1237.89 188.911H1242.27L1235.43 182.071Z" fill="#D4D5DA"/>
<path d="M1226.72 182.071L1233.56 175.221H1229.18L1222.34 182.061L1229.19 188.911H1233.57L1226.72 182.071Z" fill="#D4D5DA"/>
<path d="M1218.02 182.061L1224.86 175.221H1220.48L1213.64 182.061L1220.48 188.911H1224.86L1218.02 182.061Z" fill="#D4D5DA"/>
</g>
<path d="M885.39 144.111C883.23 146.271 879.71 146.271 877.54 144.111C875.38 141.951 875.38 138.431 877.54 136.261L891.71 122.091C893.87 119.931 897.39 119.931 899.56 122.091C901.73 124.251 901.72 127.771 899.56 129.941L885.39 144.111Z" fill="url(#paint31_linear_19845_6626)"/>
<path d="M898.53 128.91L884.36 143.08C882.76 144.68 880.17 144.68 878.57 143.08C876.97 141.48 876.97 138.89 878.57 137.29L892.74 123.12C894.34 121.52 896.93 121.52 898.53 123.12C900.13 124.72 900.13 127.31 898.53 128.91Z" fill="url(#paint32_linear_19845_6626)"/>
<g style="mix-blend-mode:multiply">
<path d="M897.5 127.88L883.33 142.05C881.91 143.47 879.7 143.62 878.11 142.51C878.25 142.71 878.4 142.9 878.57 143.08C880.17 144.68 882.76 144.68 884.36 143.08L898.53 128.91C900.13 127.31 900.13 124.72 898.53 123.12C898.35 122.94 898.16 122.8 897.96 122.66C899.07 124.26 898.92 126.46 897.5 127.88Z" fill="#A39886"/>
</g>
<path d="M899.94 158.671C897.78 160.831 894.26 160.831 892.09 158.671C889.92 156.511 889.93 152.991 892.09 150.821L906.26 136.651C908.42 134.491 911.94 134.491 914.11 136.651C916.27 138.811 916.27 142.331 914.11 144.501L899.94 158.671Z" fill="url(#paint33_linear_19845_6626)"/>
<path d="M913.09 143.47L898.92 157.64C897.32 159.24 894.73 159.24 893.13 157.64C891.53 156.04 891.53 153.45 893.13 151.85L907.3 137.68C908.9 136.08 911.49 136.08 913.09 137.68C914.69 139.28 914.69 141.87 913.09 143.47Z" fill="url(#paint34_linear_19845_6626)"/>
<g style="mix-blend-mode:multiply">
<path d="M912.06 142.441L897.89 156.611C896.47 158.031 894.26 158.181 892.67 157.071C892.81 157.271 892.96 157.461 893.13 157.641C894.73 159.241 897.32 159.241 898.92 157.641L913.09 143.471C914.69 141.871 914.69 139.281 913.09 137.681C912.91 137.501 912.72 137.361 912.52 137.221C913.63 138.821 913.48 141.021 912.06 142.441Z" fill="#A39886"/>
</g>
<path d="M914.49 173.22C912.33 175.38 908.81 175.38 906.64 173.22C904.48 171.06 904.48 167.54 906.64 165.37L920.81 151.2C922.97 149.04 926.49 149.04 928.66 151.2C930.82 153.36 930.82 156.88 928.66 159.05L914.49 173.22Z" fill="url(#paint35_linear_19845_6626)"/>
<path d="M927.64 158.021L913.47 172.191C911.87 173.791 909.28 173.791 907.68 172.191C906.08 170.591 906.08 168.001 907.68 166.401L921.85 152.231C923.45 150.631 926.04 150.631 927.64 152.231C929.24 153.831 929.24 156.421 927.64 158.021Z" fill="url(#paint36_linear_19845_6626)"/>
<g style="mix-blend-mode:multiply">
<path d="M926.61 156.99L912.44 171.16C911.02 172.58 908.81 172.73 907.22 171.62C907.36 171.82 907.51 172.01 907.68 172.19C909.28 173.79 911.87 173.79 913.47 172.19L927.64 158.02C929.24 156.42 929.24 153.83 927.64 152.23C927.46 152.05 927.27 151.91 927.07 151.77C928.18 153.37 928.03 155.57 926.61 156.99Z" fill="#A39886"/>
</g>
<path d="M929.05 187.771C926.89 189.931 923.37 189.931 921.2 187.771C919.04 185.611 919.04 182.091 921.2 179.921L935.37 165.751C937.53 163.591 941.05 163.591 943.22 165.751C945.38 167.911 945.38 171.431 943.22 173.601L929.05 187.771Z" fill="url(#paint37_linear_19845_6626)"/>
<path d="M942.19 172.57L928.02 186.74C926.42 188.34 923.83 188.34 922.23 186.74C920.63 185.14 920.63 182.55 922.23 180.95L936.4 166.78C938 165.18 940.59 165.18 942.19 166.78C943.79 168.38 943.79 170.97 942.19 172.57Z" fill="url(#paint38_linear_19845_6626)"/>
<g style="mix-blend-mode:multiply">
<path d="M941.16 171.54L926.99 185.71C925.57 187.13 923.36 187.28 921.77 186.17C921.91 186.37 922.06 186.56 922.23 186.74C923.83 188.34 926.42 188.34 928.02 186.74L942.19 172.57C943.79 170.97 943.79 168.38 942.19 166.78C942.01 166.6 941.82 166.46 941.62 166.32C942.73 167.92 942.58 170.12 941.16 171.54Z" fill="#A39886"/>
</g>
</g>
</g>
<g clip-path="url(#clip1_19845_6626)">
<mask id="mask1_19845_6626" style="mask-type:luminance" maskUnits="userSpaceOnUse" x="2" y="241" width="1549" height="273">
<path d="M2.89978 514L1550.26 514L1550.26 241.15L2.8998 241.15L2.89978 514Z" fill="white"/>
</mask>
<g mask="url(#mask1_19845_6626)">
<path d="M1542.86 283.52L1478.72 347.66L1373.95 347.66C1373.55 349.11 1372.23 350.18 1370.65 350.18C1368.75 350.18 1367.21 348.64 1367.21 346.74C1367.21 344.84 1368.75 343.3 1370.65 343.3C1372.23 343.3 1373.54 344.37 1373.95 345.82L1477.96 345.82L1541.56 282.22C1540.82 280.91 1540.99 279.22 1542.11 278.11C1543.45 276.77 1545.63 276.77 1546.97 278.11C1548.31 279.45 1548.31 281.63 1546.97 282.97C1545.85 284.09 1544.17 284.26 1542.86 283.52Z" fill="url(#paint39_radial_19845_6626)"/>
<path d="M626.11 453.879L912.28 453.879L912.28 204.449L626.11 204.449L626.11 453.879Z" fill="url(#paint40_radial_19845_6626)"/>
<path d="M1553 292.59L1480.06 365.53L1344.53 365.53L1326.15 347.15L1217.61 347.15L1169.09 395.68L1169.09 482.68L1143.67 508.1L1037.29 508.1L1002.47 473.28L828.24 473.28L712.06 357.09L1164.78 -95.6304L1553 292.59Z" fill="url(#paint41_radial_19845_6626)"/>
<g style="mix-blend-mode:multiply">
<path d="M1179.14 -72.0807L741.52 365.529L834.98 458.979L953.6 458.979L978.13 434.439L958.03 414.339L966.07 406.299L1000.95 441.179L1044.6 441.179L1084.45 481.029L1106.76 458.719L1106.76 385.899L1085.66 364.799L1085.66 228.709L1144.83 169.539L1201.38 169.539L1233.27 201.429L1233.27 263.149L1216.05 280.369L1216.05 305.639L1247.06 305.639L1280.63 272.069L1280.63 180.189L1306.47 154.339L1306.47 55.2493L1179.14 -72.0807Z" fill="#BDC9C9"/>
</g>
<path d="M1215.89 -24.9905L1299.16 58.2794L1299.16 151.319L1273.32 177.159L1273.32 269.049L1244.03 298.339L1223.36 298.339L1223.36 283.399L1240.58 266.169L1240.58 198.409L1204.4 162.229L1141.81 162.229L1078.35 225.689L1078.35 367.819L1099.45 388.929L1099.45 455.689L1084.45 470.689L1047.62 433.869L1003.98 433.869L966.07 395.959L947.7 414.339L967.8 434.439L950.57 451.669L838.01 451.669L751.86 365.529L1179.14 -61.7506L1215.89 -24.9905Z" fill="url(#paint42_radial_19845_6626)"/>
<g style="mix-blend-mode:multiply">
<path d="M1317.5 173.489L1330.56 186.539L1308.32 208.779L1308.32 266.979L1273.13 302.159L1298.05 327.089L1369.96 327.089L1380.29 316.749L1417.12 316.749L1440.09 339.719L1474.48 339.719L1532.71 281.489L1345.04 93.8187L1317.5 63.4587L1317.5 173.489Z" fill="#BDC9C9"/>
</g>
<path d="M1339.75 98.8601L1522.37 281.49L1471.45 332.41L1443.12 332.41L1420.15 309.44L1377.27 309.44L1366.93 319.78L1301.08 319.78L1283.47 302.16L1315.63 270L1315.63 211.81L1340.89 186.54L1324.81 170.46L1324.81 82.4001L1339.75 98.8601Z" fill="url(#paint43_radial_19845_6626)"/>
<path style="mix-blend-mode:overlay" d="M1344.53 365.53L1480.06 365.53L1553 292.59L1164.78 -95.6304L712.06 357.09L828.25 473.28L1002.48 473.28L1037.3 508.1L1143.69 508.1L1169.1 482.69L1169.1 395.68L1217.63 347.15L1326.17 347.15L1344.55 365.53L1344.53 365.53ZM1478.93 362.79L1345.67 362.79L1327.29 344.41L1216.48 344.41L1166.35 394.54L1166.35 481.55L1142.54 505.36L1038.42 505.36L1003.6 470.54L829.37 470.54L715.92 357.09L1164.77 -91.7604L1549.12 292.59L1478.93 362.78L1478.93 362.79Z" fill="url(#paint44_radial_19845_6626)"/>
<path style="mix-blend-mode:overlay" d="M1047.62 433.869L1084.45 470.699L1099.45 455.699L1099.45 388.939L1078.34 367.829L1078.34 225.689L1141.8 162.229L1204.4 162.229L1240.58 198.409L1240.58 266.179L1223.35 283.409L1223.35 298.339L1244.02 298.339L1273.31 269.049L1273.31 177.159L1299.15 151.319L1299.15 58.2792L1215.88 -24.9908L1179.13 -61.7408L751.86 365.529L838 451.669L950.56 451.669L967.79 434.439L947.69 414.339L966.07 395.959L1003.97 433.859L1047.62 433.859L1047.62 433.869ZM1084.45 466.819L1048.76 431.129L1005.11 431.129L966.07 392.089L943.82 414.339L963.92 434.439L949.43 448.929L839.14 448.929L755.74 365.529L1179.14 -57.8708L1213.96 -23.0508L1296.43 59.4192L1296.43 150.179L1270.59 176.019L1270.59 267.909L1242.91 295.589L1226.11 295.589L1226.11 284.529L1243.34 267.299L1243.34 197.259L1205.55 159.469L1140.68 159.469L1075.61 224.539L1075.61 368.949L1096.72 390.059L1096.72 454.559L1084.46 466.819L1084.45 466.819Z" fill="url(#paint45_radial_19845_6626)"/>
<path style="mix-blend-mode:overlay" d="M1443.12 332.41L1471.45 332.41L1522.37 281.49L1339.75 98.8699L1324.82 82.4099L1324.82 170.47L1340.9 186.55L1315.63 211.82L1315.63 270.02L1283.47 302.18L1301.08 319.79L1366.93 319.79L1377.27 309.45L1420.15 309.45L1443.12 332.42L1443.12 332.41ZM1470.31 329.67L1444.25 329.67L1421.28 306.7L1376.13 306.7L1365.79 317.04L1302.21 317.04L1287.34 302.17L1318.36 271.15L1318.36 212.96L1344.76 186.56L1327.54 169.34L1327.54 89.5199L1337.7 100.72L1337.74 100.77L1518.49 281.49L1470.31 329.67Z" fill="url(#paint46_radial_19845_6626)"/>
<path d="M1154.82 180.41C1156.16 181.75 1156.16 183.93 1154.82 185.27C1153.7 186.39 1152.02 186.56 1150.71 185.82L1105.97 230.56L1105.97 348.26C1107.42 348.66 1108.49 349.98 1108.49 351.56C1108.49 353.46 1106.95 355 1105.05 355C1103.15 355 1101.61 353.46 1101.61 351.56C1101.61 349.98 1102.68 348.67 1104.13 348.26L1104.13 229.8L1149.41 184.52C1148.67 183.21 1148.84 181.52 1149.96 180.41C1151.3 179.07 1153.48 179.07 1154.82 180.41Z" fill="url(#paint47_radial_19845_6626)"/>
<path d="M1064.01 474.069C1062.89 472.949 1062.72 471.269 1063.46 469.959L1044.65 451.149L1001.43 451.149L974.12 423.839C972.81 424.579 971.12 424.409 970.01 423.289C968.67 421.949 968.67 419.769 970.01 418.429C971.35 417.089 973.53 417.089 974.87 418.429C975.99 419.549 976.16 421.229 975.42 422.539L1002.19 449.309L1045.41 449.309L1064.75 468.649C1066.06 467.909 1067.75 468.079 1068.86 469.199C1070.2 470.539 1070.2 472.719 1068.86 474.059C1067.52 475.399 1065.34 475.399 1064 474.059L1064.01 474.069Z" fill="url(#paint48_radial_19845_6626)"/>
<path d="M1524.77 258.369L1473.84 309.299L1446.09 309.299L1423.98 287.189L1376.5 287.189L1358.98 304.709L1320.54 304.709C1320.14 306.159 1318.82 307.229 1317.24 307.229C1315.34 307.229 1313.8 305.689 1313.8 303.789C1313.8 301.889 1315.34 300.349 1317.24 300.349C1318.82 300.349 1320.13 301.419 1320.54 302.869L1358.22 302.869L1375.74 285.349L1424.74 285.349L1446.85 307.459L1473.09 307.459L1523.48 257.069C1522.74 255.759 1522.91 254.069 1524.03 252.959C1525.37 251.619 1527.55 251.619 1528.89 252.959C1530.23 254.299 1530.23 256.479 1528.89 257.819C1527.77 258.939 1526.09 259.109 1524.78 258.369L1524.77 258.369Z" fill="url(#paint49_radial_19845_6626)"/>
<path d="M1250.55 256.23C1250.55 254.65 1251.62 253.34 1253.07 252.93L1253.07 166.63L1272.21 147.49L1272.21 71.6699L1251.54 50.9999L1284.18 18.3599C1283.44 17.0499 1283.61 15.3599 1284.73 14.2499C1286.07 12.9099 1288.25 12.9099 1289.59 14.2499C1290.93 15.5899 1290.93 17.7699 1289.59 19.1099C1288.47 20.2299 1286.79 20.3999 1285.48 19.6599L1254.13 51.0099L1274.04 70.9199L1274.04 148.25L1254.9 167.39L1254.9 252.93C1256.35 253.33 1257.42 254.65 1257.42 256.23C1257.42 258.13 1255.88 259.67 1253.98 259.67C1252.08 259.67 1250.54 258.13 1250.54 256.23L1250.55 256.23Z" fill="url(#paint50_radial_19845_6626)"/>
<g style="mix-blend-mode:overlay">
<path d="M1308.76 33.5892L1308.76 179.009L1291.24 196.519L1291.24 268.309L1245.02 314.529L1204.82 314.529L1139.63 379.719L1139.63 472.189L1121.83 489.979L1043.76 489.979L1015.77 461.979L816.93 461.979L819.39 464.449L1014.74 464.449L1042.74 492.449L1122.86 492.449L1142.09 473.209L1142.09 380.749L1205.84 316.999L1246.04 316.999L1293.71 269.329L1293.71 197.549L1311.22 180.029L1311.22 33.5892L1308.76 33.5892Z" fill="#C8C8C8"/>
<path d="M1343.79 70.3398L1343.79 164.4L1370.91 191.52L1345.64 216.79L1397.49 268.64L1452.05 268.64L1465.99 282.59L1514.26 234.32L1512.51 232.58L1465.99 279.1L1453.07 266.17L1398.52 266.17L1349.13 216.79L1374.4 191.52L1346.25 163.38L1346.25 70.3398L1343.79 70.3398Z" fill="#C8C8C8"/>
<path d="M1123.41 67.4883L1160.14 104.218L1040.56 223.798L1040.56 358.758L1009.43 389.888L970.67 351.128L913.94 407.848L762.82 407.858L765.33 410.318L914.96 410.318L970.67 354.618L1009.43 393.378L1043.03 359.778L1043.03 224.828L1163.63 104.218L1125.15 65.7483L1123.41 67.4883Z" fill="#C8C8C8"/>
</g>
<g style="mix-blend-mode:multiply">
<path d="M1311.22 33.5901L1311.22 180.03L1293.71 197.55L1293.71 269.33L1246.04 317L1205.84 317L1142.09 380.75L1142.09 473.21L1122.86 492.45L1042.74 492.45L1014.74 464.45L819.39 464.45L821.91 466.92L1013.72 466.92L1041.72 494.91L1123.88 494.91L1144.56 474.23L1144.56 381.77L1206.86 319.47L1247.06 319.47L1296.17 270.36L1296.17 198.57L1313.69 181.05L1313.69 33.5901L1311.22 33.5901Z" fill="#596B70"/>
<path d="M1346.25 70.3396L1346.25 163.38L1374.4 191.52L1349.13 216.79L1398.52 266.17L1453.07 266.17L1465.99 279.1L1512.51 232.58L1510.77 230.83L1465.99 275.61L1454.1 263.71L1399.54 263.71L1352.62 216.79L1377.88 191.52L1348.72 162.35L1348.72 70.3396L1346.25 70.3396Z" fill="#596B70"/>
<path d="M1125.15 65.751L1163.63 104.221L1043.03 224.831L1043.03 359.781L1009.43 393.381L970.67 354.621L914.96 410.321L765.33 410.321L767.75 412.791L915.98 412.791L970.67 358.101L1009.43 396.871L1045.5 360.811L1045.5 225.851L1167.12 104.221L1126.9 64.001L1125.15 65.751Z" fill="#596B70"/>
</g>
<g style="mix-blend-mode:multiply">
<path d="M1061.4 263.739L1068.24 256.899L1068.24 261.279L1061.4 268.119L1054.56 261.279L1054.56 256.899L1061.4 263.739Z" fill="#B1B1B1"/>
<path d="M1061.4 272.45L1068.24 265.61L1068.24 269.99L1061.4 276.83L1054.56 269.98L1054.56 265.6L1061.4 272.45Z" fill="#B1B1B1"/>
<path d="M1061.4 281.149L1068.24 274.309L1068.24 278.689L1061.4 285.529L1054.56 278.689L1054.56 274.309L1061.4 281.149Z" fill="#B1B1B1"/>
<path d="M1061.4 289.85L1068.24 283.01L1068.24 287.39L1061.4 294.23L1054.56 287.39L1054.56 283.01L1061.4 289.85Z" fill="#B1B1B1"/>
<path d="M1061.4 298.559L1068.25 291.709L1068.25 296.089L1061.4 302.939L1054.56 296.089L1054.56 291.709L1061.4 298.559Z" fill="#B1B1B1"/>
<path d="M1061.4 307.261L1068.25 300.421L1068.25 304.801L1061.4 311.641L1054.56 304.801L1054.56 300.421L1061.4 307.261Z" fill="#B1B1B1"/>
<path d="M1061.4 315.96L1068.25 309.12L1068.25 313.5L1061.4 320.34L1054.56 313.5L1054.56 309.12L1061.4 315.96Z" fill="#B1B1B1"/>
<path d="M1061.41 324.659L1068.25 317.819L1068.25 322.199L1061.41 329.039L1054.56 322.199L1054.56 317.819L1061.41 324.659Z" fill="#B1B1B1"/>
<path d="M1061.41 333.37L1068.25 326.53L1068.25 330.91L1061.41 337.75L1054.56 330.9L1054.56 326.52L1061.41 333.37Z" fill="#B1B1B1"/>
</g>
<g style="mix-blend-mode:overlay">
<path d="M1287.39 331.93L1294.23 338.77L1289.85 338.77L1283.01 331.93L1289.85 325.09L1294.23 325.09L1287.39 331.93Z" fill="#D4D5DA"/>
<path d="M1278.69 331.93L1285.53 338.77L1281.15 338.77L1274.31 331.93L1281.15 325.09L1285.53 325.09L1278.69 331.93Z" fill="#D4D5DA"/>
<path d="M1269.98 331.93L1276.83 338.77L1272.45 338.77L1265.6 331.93L1272.45 325.09L1276.83 325.09L1269.98 331.93Z" fill="#D4D5DA"/>
<path d="M1261.28 331.93L1268.12 338.77L1263.74 338.77L1256.9 331.93L1263.74 325.09L1268.12 325.09L1261.28 331.93Z" fill="#D4D5DA"/>
<path d="M1252.58 331.929L1259.42 338.779L1255.04 338.779L1248.2 331.929L1255.04 325.089L1259.42 325.089L1252.58 331.929Z" fill="#D4D5DA"/>
<path d="M1243.88 331.929L1250.72 338.779L1246.34 338.779L1239.5 331.929L1246.34 325.089L1250.72 325.089L1243.88 331.929Z" fill="#D4D5DA"/>
<path d="M1235.17 331.929L1242.01 338.779L1237.63 338.779L1230.79 331.929L1237.63 325.089L1242.01 325.089L1235.17 331.929Z" fill="#D4D5DA"/>
<path d="M1226.47 331.939L1233.31 338.779L1228.93 338.779L1222.09 331.939L1228.93 325.089L1233.31 325.089L1226.47 331.939Z" fill="#D4D5DA"/>
<path d="M1217.77 331.939L1224.61 338.779L1220.23 338.779L1213.39 331.939L1220.23 325.089L1224.61 325.089L1217.77 331.939Z" fill="#D4D5DA"/>
</g>
<path d="M885.14 369.889C882.98 367.729 879.46 367.729 877.29 369.889C875.13 372.049 875.13 375.569 877.29 377.739L891.46 391.909C893.62 394.069 897.14 394.069 899.31 391.909C901.47 389.749 901.47 386.229 899.31 384.059L885.14 369.889Z" fill="url(#paint51_linear_19845_6626)"/>
<path d="M898.28 385.09L884.11 370.92C882.51 369.32 879.92 369.32 878.32 370.92C876.72 372.52 876.72 375.11 878.32 376.71L892.49 390.88C894.09 392.48 896.68 392.48 898.28 390.88C899.88 389.28 899.88 386.69 898.28 385.09Z" fill="url(#paint52_linear_19845_6626)"/>
<g style="mix-blend-mode:multiply">
<path d="M897.25 386.12L883.08 371.95C881.66 370.53 879.45 370.38 877.86 371.49C878 371.29 878.15 371.1 878.32 370.92C879.92 369.32 882.51 369.32 884.11 370.92L898.28 385.09C899.88 386.69 899.88 389.28 898.28 390.88C898.1 391.06 897.91 391.2 897.71 391.34C898.82 389.74 898.67 387.54 897.25 386.12Z" fill="#A39886"/>
</g>
<path d="M899.69 355.329C897.53 353.169 894.01 353.169 891.84 355.329C889.68 357.489 889.68 361.009 891.84 363.179L906.01 377.349C908.17 379.509 911.69 379.509 913.86 377.349C916.02 375.189 916.02 371.669 913.86 369.499L899.69 355.329Z" fill="url(#paint53_linear_19845_6626)"/>
<path d="M912.83 370.53L898.66 356.36C897.06 354.76 894.47 354.76 892.87 356.36C891.27 357.96 891.27 360.55 892.87 362.15L907.04 376.32C908.64 377.92 911.23 377.92 912.83 376.32C914.43 374.72 914.43 372.13 912.83 370.53Z" fill="url(#paint54_linear_19845_6626)"/>
<g style="mix-blend-mode:multiply">
<path d="M911.8 371.559L897.63 357.389C896.21 355.969 894 355.819 892.41 356.929C892.55 356.729 892.7 356.539 892.87 356.359C894.47 354.759 897.06 354.759 898.66 356.359L912.83 370.529C914.43 372.129 914.43 374.719 912.83 376.319C912.65 376.499 912.46 376.639 912.26 376.779C913.37 375.179 913.22 372.979 911.8 371.559Z" fill="#A39886"/>
</g>
<path d="M914.24 340.78C912.08 338.62 908.56 338.62 906.39 340.78C904.23 342.94 904.23 346.46 906.39 348.63L920.56 362.8C922.72 364.96 926.24 364.96 928.41 362.8C930.57 360.64 930.57 357.12 928.41 354.95L914.24 340.78Z" fill="url(#paint55_linear_19845_6626)"/>
<path d="M927.39 355.979L913.22 341.809C911.62 340.209 909.03 340.209 907.43 341.809C905.83 343.409 905.83 345.999 907.43 347.599L921.6 361.769C923.2 363.369 925.79 363.369 927.39 361.769C928.99 360.169 928.99 357.579 927.39 355.979Z" fill="url(#paint56_linear_19845_6626)"/>
<g style="mix-blend-mode:multiply">
<path d="M926.36 357.01L912.19 342.84C910.77 341.42 908.56 341.27 906.97 342.38C907.11 342.18 907.26 341.99 907.43 341.81C909.03 340.21 911.62 340.21 913.22 341.81L927.39 355.98C928.99 357.58 928.99 360.17 927.39 361.77C927.21 361.95 927.02 362.09 926.82 362.23C927.93 360.63 927.78 358.43 926.36 357.01Z" fill="#A39886"/>
</g>
<path d="M928.79 326.229C926.63 324.069 923.11 324.069 920.94 326.229C918.77 328.389 918.78 331.909 920.94 334.079L935.11 348.249C937.27 350.409 940.79 350.409 942.96 348.249C945.12 346.089 945.12 342.569 942.96 340.399L928.79 326.229Z" fill="url(#paint57_linear_19845_6626)"/>
<path d="M941.94 341.43L927.77 327.26C926.17 325.66 923.58 325.66 921.98 327.26C920.38 328.86 920.38 331.45 921.98 333.05L936.15 347.22C937.75 348.82 940.34 348.82 941.94 347.22C943.54 345.62 943.54 343.03 941.94 341.43Z" fill="url(#paint58_linear_19845_6626)"/>
<g style="mix-blend-mode:multiply">
<path d="M940.91 342.46L926.74 328.29C925.32 326.87 923.11 326.72 921.52 327.83C921.66 327.63 921.81 327.44 921.98 327.26C923.58 325.66 926.17 325.66 927.77 327.26L941.94 341.43C943.54 343.03 943.54 345.62 941.94 347.22C941.76 347.4 941.57 347.54 941.37 347.68C942.48 346.08 942.33 343.88 940.91 342.46Z" fill="#A39886"/>
</g>
<path d="M20.4598 283.52L84.5999 347.66L189.37 347.66C189.77 349.11 191.09 350.18 192.67 350.18C194.57 350.18 196.11 348.64 196.11 346.74C196.11 344.84 194.57 343.3 192.67 343.3C191.09 343.3 189.78 344.37 189.37 345.82L85.3599 345.82L21.7599 282.22C22.4999 280.91 22.3298 279.22 21.2098 278.11C19.8698 276.77 17.6899 276.77 16.3499 278.11C15.0099 279.45 15.0099 281.63 16.3499 282.97C17.4699 284.09 19.1498 284.26 20.4598 283.52Z" fill="url(#paint59_radial_19845_6626)"/>
<path d="M-0.250042 292.59L72.68 365.53L208.21 365.53L226.59 347.15L335.13 347.15L383.66 395.68L383.66 482.68L409.07 508.1L515.46 508.1L550.28 473.28L724.5 473.28L840.69 357.09L387.97 -95.6304L-0.250042 292.59Z" fill="url(#paint60_radial_19845_6626)"/>
<g style="mix-blend-mode:multiply">
<path d="M373.61 -72.0807L811.22 365.529L717.77 458.979L599.15 458.979L574.61 434.439L594.71 414.339L586.67 406.299L551.8 441.179L508.15 441.179L468.3 481.029L445.98 458.719L445.98 385.899L467.09 364.799L467.09 228.709L407.91 169.539L351.37 169.539L319.47 201.429L319.47 263.149L336.7 280.369L336.7 305.639L305.69 305.639L272.12 272.069L272.12 180.189L246.27 154.339L246.27 55.2492L373.61 -72.0807Z" fill="#BDC9C9"/>
</g>
<path d="M336.86 -24.9906L253.58 58.2794L253.58 151.319L279.43 177.159L279.43 269.049L308.72 298.329L329.39 298.329L329.39 283.399L312.16 266.169L312.16 198.409L348.34 162.229L410.94 162.229L474.4 225.689L474.4 367.819L453.29 388.929L453.29 455.689L468.3 470.689L505.12 433.869L548.77 433.869L586.67 395.959L605.05 414.339L584.95 434.439L602.18 451.669L714.74 451.669L800.88 365.529L373.61 -61.7506L336.86 -24.9906Z" fill="url(#paint61_radial_19845_6626)"/>
<g style="mix-blend-mode:multiply">
<path d="M235.24 173.489L222.19 186.539L244.43 208.779L244.43 266.979L279.62 302.159L254.7 327.089L182.79 327.089L172.45 316.749L135.63 316.749L112.66 339.719L78.2701 339.719L20.0402 281.489L207.71 93.8187L235.24 63.4587L235.24 173.489Z" fill="#BDC9C9"/>
</g>
<path d="M213 98.8601L30.3803 281.49L81.3003 332.41L109.63 332.41L132.6 309.44L175.48 309.44L185.82 319.78L251.67 319.78L269.28 302.16L237.12 270L237.12 211.81L211.85 186.54L227.93 170.46L227.93 82.4001L213 98.8601Z" fill="url(#paint62_radial_19845_6626)"/>
<path style="mix-blend-mode:overlay" d="M226.59 347.15L335.13 347.15L383.66 395.68L383.66 482.68L409.07 508.09L515.46 508.09L550.28 473.27L724.51 473.27L840.7 357.08L387.98 -95.6402L-0.239788 292.58L72.7001 365.52L208.23 365.52L226.61 347.14L226.59 347.15ZM3.6202 292.59L387.97 -91.7602L836.82 357.09L723.37 470.54L549.14 470.54L514.32 505.36L410.2 505.36L386.39 481.55L386.39 394.54L336.26 344.41L225.45 344.41L207.07 362.79L73.8103 362.79L3.6202 292.6L3.6202 292.59Z" fill="url(#paint63_radial_19845_6626)"/>
<path style="mix-blend-mode:overlay" d="M548.77 433.869L586.67 395.969L605.05 414.349L584.95 434.449L602.18 451.679L714.74 451.679L800.88 365.539L373.61 -61.7306L336.86 -24.9806L253.59 58.2894L253.59 151.329L279.43 177.169L279.43 269.059L308.72 298.349L329.39 298.349L329.39 283.419L312.16 266.189L312.16 198.419L348.34 162.239L410.94 162.239L474.4 225.699L474.4 367.839L453.29 388.949L453.29 455.689L468.29 470.689L505.12 433.859L548.77 433.859L548.77 433.869ZM456.04 454.559L456.04 390.069L477.14 368.959L477.14 224.549L412.08 159.479L347.21 159.479L309.42 197.269L309.42 267.309L326.65 284.539L326.65 295.599L309.85 295.599L282.17 267.919L282.17 176.029L256.33 150.189L256.33 59.4294L338.8 -23.0406L373.62 -57.8606L797.02 365.539L713.62 448.939L603.33 448.939L588.84 434.449L608.94 414.349L586.69 392.099L547.65 431.139L504 431.139L468.31 466.829L456.05 454.569L456.04 454.559Z" fill="url(#paint64_radial_19845_6626)"/>
<path style="mix-blend-mode:overlay" d="M132.6 309.44L175.48 309.44L185.82 319.78L251.67 319.78L269.28 302.17L237.12 270.01L237.12 211.81L211.85 186.54L227.93 170.46L227.93 82.4004L213 98.8604L30.3803 281.48L81.3003 332.4L109.63 332.4L132.6 309.43L132.6 309.44ZM34.2502 281.49L214.98 100.76L215.02 100.71L225.18 89.5104L225.18 169.33L207.96 186.55L234.36 212.95L234.36 271.14L265.38 302.16L250.51 317.03L186.93 317.03L176.59 306.69L131.44 306.69L108.47 329.66L82.4103 329.66L34.2302 281.48L34.2502 281.49Z" fill="url(#paint65_radial_19845_6626)"/>
<path d="M397.92 180.41C396.58 181.75 396.58 183.93 397.92 185.27C399.04 186.39 400.72 186.56 402.03 185.82L446.77 230.56L446.77 348.26C445.32 348.66 444.25 349.98 444.25 351.56C444.25 353.46 445.79 355 447.69 355C449.59 355 451.13 353.46 451.13 351.56C451.13 349.98 450.06 348.67 448.61 348.26L448.61 229.8L403.33 184.52C404.07 183.21 403.9 181.52 402.78 180.41C401.44 179.07 399.26 179.07 397.92 180.41Z" fill="url(#paint66_radial_19845_6626)"/>
<path d="M488.73 474.069C489.85 472.949 490.02 471.269 489.28 469.959L508.09 451.149L551.31 451.149L578.62 423.839C579.93 424.579 581.62 424.409 582.73 423.289C584.07 421.949 584.07 419.769 582.73 418.429C581.39 417.089 579.21 417.089 577.87 418.429C576.75 419.549 576.58 421.229 577.32 422.539L550.55 449.309L507.33 449.309L487.99 468.649C486.68 467.909 484.99 468.079 483.88 469.199C482.54 470.539 482.54 472.719 483.88 474.059C485.22 475.399 487.4 475.399 488.74 474.059L488.73 474.069Z" fill="url(#paint67_radial_19845_6626)"/>
<path d="M27.9802 258.369L78.9103 309.299L106.66 309.299L128.77 287.189L176.25 287.189L193.77 304.709L232.21 304.709C232.61 306.159 233.93 307.229 235.51 307.229C237.41 307.229 238.95 305.689 238.95 303.789C238.95 301.889 237.41 300.349 235.51 300.349C233.93 300.349 232.62 301.419 232.21 302.869L194.53 302.869L177.01 285.349L128.01 285.349L105.9 307.459L79.6603 307.459L29.2703 257.069C30.0103 255.759 29.8402 254.069 28.7202 252.959C27.3802 251.619 25.2002 251.619 23.8602 252.959C22.5202 254.299 22.5202 256.479 23.8602 257.819C24.9802 258.939 26.6602 259.109 27.9702 258.369L27.9802 258.369Z" fill="url(#paint68_radial_19845_6626)"/>
<path d="M302.2 256.23C302.2 254.65 301.13 253.34 299.68 252.93L299.68 166.63L280.54 147.49L280.54 71.6699L301.21 50.9999L268.57 18.3599C269.31 17.0499 269.14 15.3599 268.02 14.2499C266.68 12.9099 264.5 12.9099 263.16 14.2499C261.82 15.5899 261.82 17.7699 263.16 19.1099C264.28 20.2299 265.96 20.3999 267.27 19.6599L298.62 51.0099L278.71 70.9199L278.71 148.25L297.85 167.39L297.85 252.93C296.4 253.33 295.33 254.65 295.33 256.23C295.33 258.13 296.87 259.67 298.77 259.67C300.67 259.67 302.21 258.13 302.21 256.23L302.2 256.23Z" fill="url(#paint69_radial_19845_6626)"/>
<g style="mix-blend-mode:overlay">
<path d="M243.99 33.5892L243.99 179.009L261.51 196.519L261.51 268.309L307.73 314.529L347.93 314.529L413.12 379.719L413.12 472.189L430.91 489.979L508.98 489.979L536.98 461.979L735.82 461.979L733.36 464.449L538 464.449L510.01 492.449L429.89 492.449L410.65 473.209L410.65 380.749L346.91 316.999L306.71 316.999L259.04 269.329L259.04 197.549L241.52 180.029L241.52 33.5892L243.99 33.5892Z" fill="#C8C8C8"/>
<path d="M208.96 70.3398L208.96 164.4L181.84 191.52L207.11 216.79L155.25 268.64L100.7 268.64L86.75 282.59L38.49 234.32L40.23 232.58L86.75 279.1L99.67 266.17L154.23 266.17L203.62 216.79L178.35 191.52L206.49 163.38L206.49 70.3398L208.96 70.3398Z" fill="#C8C8C8"/>
<path d="M429.34 67.4883L392.61 104.218L512.19 223.798L512.19 358.758L543.31 389.888L582.08 351.128L638.81 407.848L789.93 407.858L787.42 410.318L637.79 410.318L582.08 354.618L543.31 393.378L509.72 359.778L509.72 224.828L389.12 104.218L427.59 65.7483L429.34 67.4883Z" fill="#C8C8C8"/>
</g>
<g style="mix-blend-mode:multiply">
<path d="M241.52 33.5901L241.52 180.03L259.04 197.55L259.04 269.33L306.71 317L346.91 317L410.65 380.75L410.65 473.21L429.89 492.45L510.01 492.45L538 464.45L733.36 464.45L730.84 466.92L539.02 466.92L511.03 494.91L428.87 494.91L408.19 474.23L408.19 381.77L345.88 319.47L305.68 319.47L256.57 270.36L256.57 198.57L239.06 181.05L239.06 33.5901L241.52 33.5901Z" fill="#596B70"/>
<path d="M206.49 70.3396L206.49 163.38L178.35 191.52L203.62 216.79L154.23 266.17L99.6698 266.17L86.7498 279.1L40.2297 232.58L41.9797 230.83L86.7498 275.61L98.6498 263.71L153.21 263.71L200.13 216.79L174.86 191.52L204.03 162.35L204.03 70.3396L206.49 70.3396Z" fill="#596B70"/>
<path d="M427.59 65.751L389.12 104.221L509.72 224.831L509.72 359.781L543.31 393.381L582.08 354.621L637.79 410.321L787.42 410.321L784.99 412.791L636.76 412.791L582.08 358.101L543.31 396.871L507.25 360.811L507.25 225.851L385.63 104.221L425.85 64.001L427.59 65.751Z" fill="#596B70"/>
</g>
<g style="mix-blend-mode:multiply">
<path d="M491.35 263.739L484.5 256.899L484.5 261.279L491.35 268.119L498.19 261.279L498.19 256.899L491.35 263.739Z" fill="#B1B1B1"/>
<path d="M491.35 272.45L484.5 265.61L484.5 269.99L491.34 276.83L498.19 269.98L498.19 265.6L491.35 272.45Z" fill="#B1B1B1"/>
<path d="M491.34 281.149L484.5 274.309L484.5 278.689L491.34 285.529L498.19 278.689L498.19 274.309L491.34 281.149Z" fill="#B1B1B1"/>
<path d="M491.34 289.85L484.5 283.01L484.5 287.39L491.34 294.23L498.19 287.39L498.19 283.01L491.34 289.85Z" fill="#B1B1B1"/>
<path d="M491.34 298.559L484.5 291.709L484.5 296.089L491.34 302.939L498.19 296.089L498.19 291.709L491.34 298.559Z" fill="#B1B1B1"/>
<path d="M491.34 307.261L484.5 300.421L484.5 304.801L491.34 311.641L498.18 304.801L498.19 300.421L491.34 307.261Z" fill="#B1B1B1"/>
<path d="M491.34 315.96L484.5 309.12L484.5 313.5L491.34 320.34L498.18 313.5L498.18 309.12L491.34 315.96Z" fill="#B1B1B1"/>
<path d="M491.34 324.659L484.5 317.819L484.5 322.199L491.34 329.039L498.18 322.199L498.18 317.819L491.34 324.659Z" fill="#B1B1B1"/>
<path d="M491.34 333.37L484.5 326.53L484.5 330.91L491.34 337.75L498.18 330.9L498.18 326.52L491.34 333.37Z" fill="#B1B1B1"/>
</g>
<g style="mix-blend-mode:overlay">
<path d="M265.36 331.93L258.52 338.77L262.9 338.77L269.74 331.93L262.89 325.09L258.51 325.09L265.36 331.93Z" fill="#D4D5DA"/>
<path d="M274.06 331.93L267.22 338.77L271.6 338.77L278.44 331.93L271.6 325.09L267.22 325.09L274.06 331.93Z" fill="#D4D5DA"/>
<path d="M282.76 331.93L275.92 338.77L280.3 338.77L287.14 331.93L280.3 325.09L275.92 325.09L282.76 331.93Z" fill="#D4D5DA"/>
<path d="M291.47 331.93L284.62 338.77L289 338.77L295.85 331.93L289 325.09L284.62 325.09L291.47 331.93Z" fill="#D4D5DA"/>
<path d="M300.17 331.929L293.33 338.769L297.71 338.779L304.55 331.929L297.71 325.089L293.33 325.089L300.17 331.929Z" fill="#D4D5DA"/>
<path d="M308.87 331.929L302.03 338.779L306.41 338.779L313.25 331.929L306.41 325.089L302.03 325.089L308.87 331.929Z" fill="#D4D5DA"/>
<path d="M317.57 331.929L310.73 338.779L315.11 338.779L321.95 331.929L315.11 325.089L310.73 325.089L317.57 331.929Z" fill="#D4D5DA"/>
<path d="M326.28 331.929L319.44 338.779L323.82 338.779L330.66 331.939L323.81 325.089L319.43 325.089L326.28 331.929Z" fill="#D4D5DA"/>
<path d="M334.98 331.939L328.14 338.779L332.52 338.779L339.36 331.939L332.52 325.089L328.14 325.089L334.98 331.939Z" fill="#D4D5DA"/>
</g>
<path d="M667.61 369.889C669.77 367.729 673.29 367.729 675.46 369.889C677.62 372.049 677.62 375.569 675.46 377.739L661.29 391.909C659.13 394.069 655.61 394.069 653.44 391.909C651.27 389.749 651.28 386.229 653.44 384.059L667.61 369.889Z" fill="url(#paint70_linear_19845_6626)"/>
<path d="M654.47 385.09L668.64 370.92C670.24 369.32 672.83 369.32 674.43 370.92C676.03 372.52 676.03 375.11 674.43 376.71L660.26 390.88C658.66 392.48 656.07 392.48 654.47 390.88C652.87 389.28 652.87 386.69 654.47 385.09Z" fill="url(#paint71_linear_19845_6626)"/>
<g style="mix-blend-mode:multiply">
<path d="M655.5 386.12L669.67 371.95C671.09 370.53 673.3 370.38 674.89 371.49C674.75 371.29 674.6 371.1 674.43 370.92C672.83 369.32 670.24 369.32 668.64 370.92L654.47 385.09C652.87 386.69 652.87 389.28 654.47 390.88C654.65 391.06 654.84 391.2 655.04 391.34C653.93 389.74 654.08 387.54 655.5 386.12Z" fill="#A39886"/>
</g>
<path d="M653.06 355.329C655.22 353.169 658.74 353.169 660.91 355.329C663.08 357.489 663.07 361.009 660.91 363.179L646.74 377.349C644.58 379.509 641.06 379.509 638.89 377.349C636.73 375.189 636.73 371.669 638.89 369.499L653.06 355.329Z" fill="url(#paint72_linear_19845_6626)"/>
<path d="M639.91 370.53L654.08 356.36C655.68 354.76 658.27 354.76 659.87 356.36C661.47 357.96 661.47 360.55 659.87 362.15L645.7 376.32C644.1 377.92 641.51 377.92 639.91 376.32C638.31 374.72 638.31 372.13 639.91 370.53Z" fill="url(#paint73_linear_19845_6626)"/>
<g style="mix-blend-mode:multiply">
<path d="M640.94 371.559L655.11 357.389C656.53 355.969 658.74 355.819 660.33 356.929C660.19 356.729 660.04 356.539 659.87 356.359C658.27 354.759 655.68 354.759 654.08 356.359L639.91 370.529C638.31 372.129 638.31 374.719 639.91 376.319C640.09 376.499 640.28 376.639 640.48 376.779C639.37 375.179 639.52 372.979 640.94 371.559Z" fill="#A39886"/>
</g>
<path d="M638.51 340.78C640.67 338.62 644.19 338.62 646.36 340.78C648.52 342.94 648.52 346.46 646.36 348.63L632.19 362.8C630.03 364.96 626.51 364.96 624.34 362.8C622.18 360.64 622.18 357.12 624.34 354.95L638.51 340.78Z" fill="url(#paint74_linear_19845_6626)"/>
<path d="M625.36 355.979L639.53 341.809C641.13 340.209 643.72 340.209 645.32 341.809C646.92 343.409 646.92 345.999 645.32 347.599L631.15 361.769C629.55 363.369 626.96 363.369 625.36 361.769C623.76 360.169 623.76 357.579 625.36 355.979Z" fill="url(#paint75_linear_19845_6626)"/>
<g style="mix-blend-mode:multiply">
<path d="M626.39 357.009L640.56 342.839C641.98 341.419 644.19 341.269 645.78 342.379C645.64 342.179 645.49 341.989 645.32 341.809C643.72 340.209 641.13 340.209 639.53 341.809L625.36 355.979C623.76 357.579 623.76 360.169 625.36 361.769C625.54 361.949 625.73 362.089 625.93 362.229C624.82 360.629 624.97 358.429 626.39 357.009Z" fill="#A39886"/>
</g>
<path d="M623.95 326.229C626.11 324.069 629.63 324.069 631.8 326.229C633.96 328.389 633.96 331.909 631.8 334.079L617.63 348.249C615.47 350.409 611.95 350.409 609.78 348.249C607.62 346.089 607.62 342.569 609.78 340.399L623.95 326.229Z" fill="url(#paint76_linear_19845_6626)"/>
<path d="M610.81 341.43L624.98 327.26C626.58 325.66 629.17 325.66 630.77 327.26C632.37 328.86 632.37 331.45 630.77 333.05L616.6 347.22C615 348.82 612.41 348.82 610.81 347.22C609.21 345.62 609.21 343.03 610.81 341.43Z" fill="url(#paint77_linear_19845_6626)"/>
<g style="mix-blend-mode:multiply">
<path d="M611.84 342.46L626.01 328.29C627.43 326.87 629.64 326.72 631.23 327.83C631.09 327.63 630.94 327.44 630.77 327.26C629.17 325.66 626.58 325.66 624.98 327.26L610.81 341.43C609.21 343.03 609.21 345.62 610.81 347.22C610.99 347.4 611.18 347.54 611.38 347.68C610.27 346.08 610.42 343.88 611.84 342.46Z" fill="#A39886"/>
</g>
</g>
</g>
<defs>
<radialGradient id="paint0_radial_19845_6626" cx="0" cy="0" r="1" gradientUnits="userSpaceOnUse" gradientTransform="translate(205.22 154.431) rotate(-135) scale(186.81)">
<stop stop-color="#FBEA98"/>
<stop offset="0.19" stop-color="#F0D35F"/>
<stop offset="0.36" stop-color="#E8C236"/>
<stop offset="0.45" stop-color="#E5BC26"/>
<stop offset="1" stop-color="#A86A07"/>
</radialGradient>
<radialGradient id="paint1_radial_19845_6626" cx="0" cy="0" r="1" gradientUnits="userSpaceOnUse" gradientTransform="translate(785.544 184.889) scale(116.258 179.756)">
<stop stop-color="#243035"/>
<stop offset="1" stop-color="#12181E"/>
</radialGradient>
<radialGradient id="paint2_radial_19845_6626" cx="0" cy="0" r="1" gradientUnits="userSpaceOnUse" gradientTransform="translate(372.14 -95.6018) rotate(-135) scale(543.54)">
<stop stop-color="#243035"/>
<stop offset="1" stop-color="#12181E"/>
</radialGradient>
<radialGradient id="paint3_radial_19845_6626" cx="0" cy="0" r="1" gradientUnits="userSpaceOnUse" gradientTransform="translate(449.483 -110.536) rotate(-135) scale(473.06)">
<stop stop-color="#3E5055"/>
<stop offset="1" stop-color="#1B2429"/>
</radialGradient>
<radialGradient id="paint4_radial_19845_6626" cx="0" cy="0" r="1" gradientUnits="userSpaceOnUse" gradientTransform="translate(203.686 96.9782) rotate(-135) scale(333.69)">
<stop stop-color="#2C3B41"/>
<stop offset="1" stop-color="#12181E"/>
</radialGradient>
<radialGradient id="paint5_radial_19845_6626" cx="0" cy="0" r="1" gradientUnits="userSpaceOnUse" gradientTransform="translate(400.855 -55.4028) rotate(-135) scale(509.4)">
<stop stop-color="#D4D5DA"/>
<stop offset="0.09" stop-color="#C4C7CC"/>
<stop offset="0.48" stop-color="#818C91"/>
<stop offset="0.77" stop-color="#57676C"/>
<stop offset="0.92" stop-color="#47595E"/>
</radialGradient>
<radialGradient id="paint6_radial_19845_6626" cx="0" cy="0" r="1" gradientUnits="userSpaceOnUse" gradientTransform="translate(415.217 -51.379) rotate(-135) scale(507.45)">
<stop stop-color="#D4D5DA"/>
<stop offset="0.09" stop-color="#C4C7CC"/>
<stop offset="0.48" stop-color="#818C91"/>
<stop offset="0.77" stop-color="#57676C"/>
<stop offset="0.92" stop-color="#47595E"/>
</radialGradient>
<radialGradient id="paint7_radial_19845_6626" cx="0" cy="0" r="1" gradientUnits="userSpaceOnUse" gradientTransform="translate(215.94 159.381) rotate(-135) scale(273.2)">
<stop stop-color="#D4D5DA"/>
<stop offset="0.09" stop-color="#C4C7CC"/>
<stop offset="0.48" stop-color="#818C91"/>
<stop offset="0.77" stop-color="#57676C"/>
<stop offset="0.92" stop-color="#47595E"/>
</radialGradient>
<radialGradient id="paint8_radial_19845_6626" cx="0" cy="0" r="1" gradientUnits="userSpaceOnUse" gradientTransform="translate(441.825 119.181) rotate(-135) scale(197.85)">
<stop stop-color="#FBEA98"/>
<stop offset="0.19" stop-color="#F0D35F"/>
<stop offset="0.36" stop-color="#E8C236"/>
<stop offset="0.45" stop-color="#E5BC26"/>
<stop offset="1" stop-color="#A86A07"/>
</radialGradient>
<radialGradient id="paint9_radial_19845_6626" cx="0" cy="0" r="1" gradientUnits="userSpaceOnUse" gradientTransform="translate(445.657 -7.16381) rotate(-135) scale(261.92)">
<stop stop-color="#FBEA98"/>
<stop offset="0.19" stop-color="#F0D35F"/>
<stop offset="0.36" stop-color="#E8C236"/>
<stop offset="0.45" stop-color="#E5BC26"/>
<stop offset="1" stop-color="#A86A07"/>
</radialGradient>
<radialGradient id="paint10_radial_19845_6626" cx="0" cy="0" r="1" gradientUnits="userSpaceOnUse" gradientTransform="translate(246.565 182.737) rotate(-135) scale(171.55)">
<stop stop-color="#FBEA98"/>
<stop offset="0.19" stop-color="#F0D35F"/>
<stop offset="0.36" stop-color="#E8C236"/>
<stop offset="0.45" stop-color="#E5BC26"/>
<stop offset="1" stop-color="#A86A07"/>
</radialGradient>
<radialGradient id="paint11_radial_19845_6626" cx="0" cy="0" r="1" gradientUnits="userSpaceOnUse" gradientTransform="translate(281.785 185.798) rotate(-135) scale(197.94)">
<stop stop-color="#FBEA98"/>
<stop offset="0.19" stop-color="#F0D35F"/>
<stop offset="0.36" stop-color="#E8C236"/>
<stop offset="0.45" stop-color="#E5BC26"/>
<stop offset="1" stop-color="#A86A07"/>
</radialGradient>
<linearGradient id="paint12_linear_19845_6626" x1="670.15" y1="127.653" x2="662.075" y2="135.728" gradientUnits="userSpaceOnUse">
<stop stop-color="#D4D5DA"/>
<stop offset="0.11" stop-color="#929CA1"/>
<stop offset="0.19" stop-color="#69787D"/>
<stop offset="0.24" stop-color="#596B70"/>
<stop offset="1" stop-color="#12181E"/>
</linearGradient>
<linearGradient id="paint13_linear_19845_6626" x1="668.722" y1="129.081" x2="662.768" y2="135.035" gradientUnits="userSpaceOnUse">
<stop stop-color="#FBEA98"/>
<stop offset="0.19" stop-color="#F0D35F"/>
<stop offset="0.36" stop-color="#E8C236"/>
<stop offset="0.45" stop-color="#E5BC26"/>
<stop offset="1" stop-color="#A86A07"/>
</linearGradient>
<linearGradient id="paint14_linear_19845_6626" x1="655.598" y1="142.206" x2="647.522" y2="150.281" gradientUnits="userSpaceOnUse">
<stop stop-color="#D4D5DA"/>
<stop offset="0.11" stop-color="#929CA1"/>
<stop offset="0.19" stop-color="#69787D"/>
<stop offset="0.24" stop-color="#596B70"/>
<stop offset="1" stop-color="#12181E"/>
</linearGradient>
<linearGradient id="paint15_linear_19845_6626" x1="654.169" y1="143.634" x2="648.215" y2="149.588" gradientUnits="userSpaceOnUse">
<stop stop-color="#FBEA98"/>
<stop offset="0.19" stop-color="#F0D35F"/>
<stop offset="0.36" stop-color="#E8C236"/>
<stop offset="0.45" stop-color="#E5BC26"/>
<stop offset="1" stop-color="#A86A07"/>
</linearGradient>
<linearGradient id="paint16_linear_19845_6626" x1="641.046" y1="156.757" x2="632.97" y2="164.832" gradientUnits="userSpaceOnUse">
<stop stop-color="#D4D5DA"/>
<stop offset="0.11" stop-color="#929CA1"/>
<stop offset="0.19" stop-color="#69787D"/>
<stop offset="0.24" stop-color="#596B70"/>
<stop offset="1" stop-color="#12181E"/>
</linearGradient>
<linearGradient id="paint17_linear_19845_6626" x1="639.617" y1="158.187" x2="633.656" y2="164.148" gradientUnits="userSpaceOnUse">
<stop stop-color="#FBEA98"/>
<stop offset="0.19" stop-color="#F0D35F"/>
<stop offset="0.36" stop-color="#E8C236"/>
<stop offset="0.45" stop-color="#E5BC26"/>
<stop offset="1" stop-color="#A86A07"/>
</linearGradient>
<linearGradient id="paint18_linear_19845_6626" x1="626.493" y1="171.31" x2="618.418" y2="179.385" gradientUnits="userSpaceOnUse">
<stop stop-color="#D4D5DA"/>
<stop offset="0.11" stop-color="#929CA1"/>
<stop offset="0.19" stop-color="#69787D"/>
<stop offset="0.24" stop-color="#596B70"/>
<stop offset="1" stop-color="#12181E"/>
</linearGradient>
<linearGradient id="paint19_linear_19845_6626" x1="625.065" y1="172.738" x2="619.104" y2="178.699" gradientUnits="userSpaceOnUse">
<stop stop-color="#FBEA98"/>
<stop offset="0.19" stop-color="#F0D35F"/>
<stop offset="0.36" stop-color="#E8C236"/>
<stop offset="0.45" stop-color="#E5BC26"/>
<stop offset="1" stop-color="#A86A07"/>
</linearGradient>
<radialGradient id="paint20_radial_19845_6626" cx="0" cy="0" r="1" gradientUnits="userSpaceOnUse" gradientTransform="translate(1337.47 154.431) rotate(-45) scale(186.81)">
<stop stop-color="#FBEA98"/>
<stop offset="0.19" stop-color="#F0D35F"/>
<stop offset="0.36" stop-color="#E8C236"/>
<stop offset="0.45" stop-color="#E5BC26"/>
<stop offset="1" stop-color="#A86A07"/>
</radialGradient>
<radialGradient id="paint21_radial_19845_6626" cx="0" cy="0" r="1" gradientUnits="userSpaceOnUse" gradientTransform="translate(1181.12 -95.6018) rotate(-45) scale(543.54)">
<stop stop-color="#243035"/>
<stop offset="1" stop-color="#12181E"/>
</radialGradient>
<radialGradient id="paint22_radial_19845_6626" cx="0" cy="0" r="1" gradientUnits="userSpaceOnUse" gradientTransform="translate(1103.77 -110.536) rotate(-45) scale(473.06)">
<stop stop-color="#3E5055"/>
<stop offset="1" stop-color="#1B2429"/>
</radialGradient>
<radialGradient id="paint23_radial_19845_6626" cx="0" cy="0" r="1" gradientUnits="userSpaceOnUse" gradientTransform="translate(1349.57 96.9782) rotate(-45) scale(333.69)">
<stop stop-color="#2C3B41"/>
<stop offset="1" stop-color="#12181E"/>
</radialGradient>
<radialGradient id="paint24_radial_19845_6626" cx="0" cy="0" r="1" gradientUnits="userSpaceOnUse" gradientTransform="translate(1152.4 -55.403) rotate(-45) scale(509.4)">
<stop stop-color="#D4D5DA"/>
<stop offset="0.09" stop-color="#C4C7CC"/>
<stop offset="0.48" stop-color="#818C91"/>
<stop offset="0.77" stop-color="#57676C"/>
<stop offset="0.92" stop-color="#47595E"/>
</radialGradient>
<radialGradient id="paint25_radial_19845_6626" cx="0" cy="0" r="1" gradientUnits="userSpaceOnUse" gradientTransform="translate(1138.04 -51.3792) rotate(-45) scale(507.45)">
<stop stop-color="#D4D5DA"/>
<stop offset="0.09" stop-color="#C4C7CC"/>
<stop offset="0.48" stop-color="#818C91"/>
<stop offset="0.77" stop-color="#57676C"/>
<stop offset="0.92" stop-color="#47595E"/>
</radialGradient>
<radialGradient id="paint26_radial_19845_6626" cx="0" cy="0" r="1" gradientUnits="userSpaceOnUse" gradientTransform="translate(1337.32 159.38) rotate(-45) scale(273.2)">
<stop stop-color="#D4D5DA"/>
<stop offset="0.09" stop-color="#C4C7CC"/>
<stop offset="0.48" stop-color="#818C91"/>
<stop offset="0.77" stop-color="#57676C"/>
<stop offset="0.92" stop-color="#47595E"/>
</radialGradient>
<radialGradient id="paint27_radial_19845_6626" cx="0" cy="0" r="1" gradientUnits="userSpaceOnUse" gradientTransform="translate(1111.43 119.181) rotate(-45) scale(197.85)">
<stop stop-color="#FBEA98"/>
<stop offset="0.19" stop-color="#F0D35F"/>
<stop offset="0.36" stop-color="#E8C236"/>
<stop offset="0.45" stop-color="#E5BC26"/>
<stop offset="1" stop-color="#A86A07"/>
</radialGradient>
<radialGradient id="paint28_radial_19845_6626" cx="0" cy="0" r="1" gradientUnits="userSpaceOnUse" gradientTransform="translate(1107.6 -7.16381) rotate(-45) scale(261.92)">
<stop stop-color="#FBEA98"/>
<stop offset="0.19" stop-color="#F0D35F"/>
<stop offset="0.36" stop-color="#E8C236"/>
<stop offset="0.45" stop-color="#E5BC26"/>
<stop offset="1" stop-color="#A86A07"/>
</radialGradient>
<radialGradient id="paint29_radial_19845_6626" cx="0" cy="0" r="1" gradientUnits="userSpaceOnUse" gradientTransform="translate(1306.69 182.737) rotate(-45) scale(171.55)">
<stop stop-color="#FBEA98"/>
<stop offset="0.19" stop-color="#F0D35F"/>
<stop offset="0.36" stop-color="#E8C236"/>
<stop offset="0.45" stop-color="#E5BC26"/>
<stop offset="1" stop-color="#A86A07"/>
</radialGradient>
<radialGradient id="paint30_radial_19845_6626" cx="0" cy="0" r="1" gradientUnits="userSpaceOnUse" gradientTransform="translate(1271.47 185.798) rotate(-45.0001) scale(197.94)">
<stop stop-color="#FBEA98"/>
<stop offset="0.19" stop-color="#F0D35F"/>
<stop offset="0.36" stop-color="#E8C236"/>
<stop offset="0.45" stop-color="#E5BC26"/>
<stop offset="1" stop-color="#A86A07"/>
</radialGradient>
<linearGradient id="paint31_linear_19845_6626" x1="883.106" y1="127.653" x2="891.181" y2="135.728" gradientUnits="userSpaceOnUse">
<stop stop-color="#D4D5DA"/>
<stop offset="0.11" stop-color="#929CA1"/>
<stop offset="0.19" stop-color="#69787D"/>
<stop offset="0.24" stop-color="#596B70"/>
<stop offset="1" stop-color="#12181E"/>
</linearGradient>
<linearGradient id="paint32_linear_19845_6626" x1="884.534" y1="129.081" x2="890.488" y2="135.035" gradientUnits="userSpaceOnUse">
<stop stop-color="#FBEA98"/>
<stop offset="0.19" stop-color="#F0D35F"/>
<stop offset="0.36" stop-color="#E8C236"/>
<stop offset="0.45" stop-color="#E5BC26"/>
<stop offset="1" stop-color="#A86A07"/>
</linearGradient>
<linearGradient id="paint33_linear_19845_6626" x1="897.658" y1="142.206" x2="905.733" y2="150.281" gradientUnits="userSpaceOnUse">
<stop stop-color="#D4D5DA"/>
<stop offset="0.11" stop-color="#929CA1"/>
<stop offset="0.19" stop-color="#69787D"/>
<stop offset="0.24" stop-color="#596B70"/>
<stop offset="1" stop-color="#12181E"/>
</linearGradient>
<linearGradient id="paint34_linear_19845_6626" x1="899.086" y1="143.634" x2="905.047" y2="149.595" gradientUnits="userSpaceOnUse">
<stop stop-color="#FBEA98"/>
<stop offset="0.19" stop-color="#F0D35F"/>
<stop offset="0.36" stop-color="#E8C236"/>
<stop offset="0.45" stop-color="#E5BC26"/>
<stop offset="1" stop-color="#A86A07"/>
</linearGradient>
<linearGradient id="paint35_linear_19845_6626" x1="912.21" y1="156.757" x2="920.285" y2="164.832" gradientUnits="userSpaceOnUse">
<stop stop-color="#D4D5DA"/>
<stop offset="0.11" stop-color="#929CA1"/>
<stop offset="0.19" stop-color="#69787D"/>
<stop offset="0.24" stop-color="#596B70"/>
<stop offset="1" stop-color="#12181E"/>
</linearGradient>
<linearGradient id="paint36_linear_19845_6626" x1="913.638" y1="158.187" x2="919.599" y2="164.148" gradientUnits="userSpaceOnUse">
<stop stop-color="#FBEA98"/>
<stop offset="0.19" stop-color="#F0D35F"/>
<stop offset="0.36" stop-color="#E8C236"/>
<stop offset="0.45" stop-color="#E5BC26"/>
<stop offset="1" stop-color="#A86A07"/>
</linearGradient>
<linearGradient id="paint37_linear_19845_6626" x1="926.762" y1="171.31" x2="934.838" y2="179.385" gradientUnits="userSpaceOnUse">
<stop stop-color="#D4D5DA"/>
<stop offset="0.11" stop-color="#929CA1"/>
<stop offset="0.19" stop-color="#69787D"/>
<stop offset="0.24" stop-color="#596B70"/>
<stop offset="1" stop-color="#12181E"/>
</linearGradient>
<linearGradient id="paint38_linear_19845_6626" x1="928.191" y1="172.738" x2="934.151" y2="178.699" gradientUnits="userSpaceOnUse">
<stop stop-color="#FBEA98"/>
<stop offset="0.19" stop-color="#F0D35F"/>
<stop offset="0.36" stop-color="#E8C236"/>
<stop offset="0.45" stop-color="#E5BC26"/>
<stop offset="1" stop-color="#A86A07"/>
</linearGradient>
<radialGradient id="paint39_radial_19845_6626" cx="0" cy="0" r="1" gradientUnits="userSpaceOnUse" gradientTransform="translate(1347.78 359.569) rotate(45) scale(186.81)">
<stop stop-color="#FBEA98"/>
<stop offset="0.19" stop-color="#F0D35F"/>
<stop offset="0.36" stop-color="#E8C236"/>
<stop offset="0.45" stop-color="#E5BC26"/>
<stop offset="1" stop-color="#A86A07"/>
</radialGradient>
<radialGradient id="paint40_radial_19845_6626" cx="0" cy="0" r="1" gradientUnits="userSpaceOnUse" gradientTransform="translate(767.456 329.111) rotate(-180) scale(116.258 179.756)">
<stop stop-color="#243035"/>
<stop offset="1" stop-color="#12181E"/>
</radialGradient>
<radialGradient id="paint41_radial_19845_6626" cx="0" cy="0" r="1" gradientUnits="userSpaceOnUse" gradientTransform="translate(1180.86 609.602) rotate(45) scale(543.54)">
<stop stop-color="#243035"/>
<stop offset="1" stop-color="#12181E"/>
</radialGradient>
<radialGradient id="paint42_radial_19845_6626" cx="0" cy="0" r="1" gradientUnits="userSpaceOnUse" gradientTransform="translate(1103.52 624.536) rotate(45) scale(473.06)">
<stop stop-color="#3E5055"/>
<stop offset="1" stop-color="#1B2429"/>
</radialGradient>
<radialGradient id="paint43_radial_19845_6626" cx="0" cy="0" r="1" gradientUnits="userSpaceOnUse" gradientTransform="translate(1349.31 417.022) rotate(45) scale(333.69)">
<stop stop-color="#2C3B41"/>
<stop offset="1" stop-color="#12181E"/>
</radialGradient>
<radialGradient id="paint44_radial_19845_6626" cx="0" cy="0" r="1" gradientUnits="userSpaceOnUse" gradientTransform="translate(1152.14 569.403) rotate(45) scale(509.4)">
<stop stop-color="#D4D5DA"/>
<stop offset="0.09" stop-color="#C4C7CC"/>
<stop offset="0.48" stop-color="#818C91"/>
<stop offset="0.77" stop-color="#57676C"/>
<stop offset="0.92" stop-color="#47595E"/>
</radialGradient>
<radialGradient id="paint45_radial_19845_6626" cx="0" cy="0" r="1" gradientUnits="userSpaceOnUse" gradientTransform="translate(1137.78 565.379) rotate(45) scale(507.45)">
<stop stop-color="#D4D5DA"/>
<stop offset="0.09" stop-color="#C4C7CC"/>
<stop offset="0.48" stop-color="#818C91"/>
<stop offset="0.77" stop-color="#57676C"/>
<stop offset="0.92" stop-color="#47595E"/>
</radialGradient>
<radialGradient id="paint46_radial_19845_6626" cx="0" cy="0" r="1" gradientUnits="userSpaceOnUse" gradientTransform="translate(1337.06 354.619) rotate(45) scale(273.2)">
<stop stop-color="#D4D5DA"/>
<stop offset="0.09" stop-color="#C4C7CC"/>
<stop offset="0.48" stop-color="#818C91"/>
<stop offset="0.77" stop-color="#57676C"/>
<stop offset="0.92" stop-color="#47595E"/>
</radialGradient>
<radialGradient id="paint47_radial_19845_6626" cx="0" cy="0" r="1" gradientUnits="userSpaceOnUse" gradientTransform="translate(1111.18 394.819) rotate(45) scale(197.85)">
<stop stop-color="#FBEA98"/>
<stop offset="0.19" stop-color="#F0D35F"/>
<stop offset="0.36" stop-color="#E8C236"/>
<stop offset="0.45" stop-color="#E5BC26"/>
<stop offset="1" stop-color="#A86A07"/>
</radialGradient>
<radialGradient id="paint48_radial_19845_6626" cx="0" cy="0" r="1" gradientUnits="userSpaceOnUse" gradientTransform="translate(1107.34 521.164) rotate(45) scale(261.92)">
<stop stop-color="#FBEA98"/>
<stop offset="0.19" stop-color="#F0D35F"/>
<stop offset="0.36" stop-color="#E8C236"/>
<stop offset="0.45" stop-color="#E5BC26"/>
<stop offset="1" stop-color="#A86A07"/>
</radialGradient>
<radialGradient id="paint49_radial_19845_6626" cx="0" cy="0" r="1" gradientUnits="userSpaceOnUse" gradientTransform="translate(1306.44 331.263) rotate(45) scale(171.55)">
<stop stop-color="#FBEA98"/>
<stop offset="0.19" stop-color="#F0D35F"/>
<stop offset="0.36" stop-color="#E8C236"/>
<stop offset="0.45" stop-color="#E5BC26"/>
<stop offset="1" stop-color="#A86A07"/>
</radialGradient>
<radialGradient id="paint50_radial_19845_6626" cx="0" cy="0" r="1" gradientUnits="userSpaceOnUse" gradientTransform="translate(1271.21 328.202) rotate(45) scale(197.94)">
<stop stop-color="#FBEA98"/>
<stop offset="0.19" stop-color="#F0D35F"/>
<stop offset="0.36" stop-color="#E8C236"/>
<stop offset="0.45" stop-color="#E5BC26"/>
<stop offset="1" stop-color="#A86A07"/>
</radialGradient>
<linearGradient id="paint51_linear_19845_6626" x1="882.85" y1="386.347" x2="890.925" y2="378.272" gradientUnits="userSpaceOnUse">
<stop stop-color="#D4D5DA"/>
<stop offset="0.11" stop-color="#929CA1"/>
<stop offset="0.19" stop-color="#69787D"/>
<stop offset="0.24" stop-color="#596B70"/>
<stop offset="1" stop-color="#12181E"/>
</linearGradient>
<linearGradient id="paint52_linear_19845_6626" x1="884.278" y1="384.919" x2="890.232" y2="378.965" gradientUnits="userSpaceOnUse">
<stop stop-color="#FBEA98"/>
<stop offset="0.19" stop-color="#F0D35F"/>
<stop offset="0.36" stop-color="#E8C236"/>
<stop offset="0.45" stop-color="#E5BC26"/>
<stop offset="1" stop-color="#A86A07"/>
</linearGradient>
<linearGradient id="paint53_linear_19845_6626" x1="897.402" y1="371.794" x2="905.478" y2="363.719" gradientUnits="userSpaceOnUse">
<stop stop-color="#D4D5DA"/>
<stop offset="0.11" stop-color="#929CA1"/>
<stop offset="0.19" stop-color="#69787D"/>
<stop offset="0.24" stop-color="#596B70"/>
<stop offset="1" stop-color="#12181E"/>
</linearGradient>
<linearGradient id="paint54_linear_19845_6626" x1="898.831" y1="370.366" x2="904.785" y2="364.412" gradientUnits="userSpaceOnUse">
<stop stop-color="#FBEA98"/>
<stop offset="0.19" stop-color="#F0D35F"/>
<stop offset="0.36" stop-color="#E8C236"/>
<stop offset="0.45" stop-color="#E5BC26"/>
<stop offset="1" stop-color="#A86A07"/>
</linearGradient>
<linearGradient id="paint55_linear_19845_6626" x1="911.954" y1="357.243" x2="920.03" y2="349.168" gradientUnits="userSpaceOnUse">
<stop stop-color="#D4D5DA"/>
<stop offset="0.11" stop-color="#929CA1"/>
<stop offset="0.19" stop-color="#69787D"/>
<stop offset="0.24" stop-color="#596B70"/>
<stop offset="1" stop-color="#12181E"/>
</linearGradient>
<linearGradient id="paint56_linear_19845_6626" x1="913.383" y1="355.813" x2="919.344" y2="349.852" gradientUnits="userSpaceOnUse">
<stop stop-color="#FBEA98"/>
<stop offset="0.19" stop-color="#F0D35F"/>
<stop offset="0.36" stop-color="#E8C236"/>
<stop offset="0.45" stop-color="#E5BC26"/>
<stop offset="1" stop-color="#A86A07"/>
</linearGradient>
<linearGradient id="paint57_linear_19845_6626" x1="926.507" y1="342.69" x2="934.582" y2="334.615" gradientUnits="userSpaceOnUse">
<stop stop-color="#D4D5DA"/>
<stop offset="0.11" stop-color="#929CA1"/>
<stop offset="0.19" stop-color="#69787D"/>
<stop offset="0.24" stop-color="#596B70"/>
<stop offset="1" stop-color="#12181E"/>
</linearGradient>
<linearGradient id="paint58_linear_19845_6626" x1="927.935" y1="341.262" x2="933.896" y2="335.301" gradientUnits="userSpaceOnUse">
<stop stop-color="#FBEA98"/>
<stop offset="0.19" stop-color="#F0D35F"/>
<stop offset="0.36" stop-color="#E8C236"/>
<stop offset="0.45" stop-color="#E5BC26"/>
<stop offset="1" stop-color="#A86A07"/>
</linearGradient>
<radialGradient id="paint59_radial_19845_6626" cx="0" cy="0" r="1" gradientUnits="userSpaceOnUse" gradientTransform="translate(215.529 359.569) rotate(135) scale(186.81)">
<stop stop-color="#FBEA98"/>
<stop offset="0.19" stop-color="#F0D35F"/>
<stop offset="0.36" stop-color="#E8C236"/>
<stop offset="0.45" stop-color="#E5BC26"/>
<stop offset="1" stop-color="#A86A07"/>
</radialGradient>
<radialGradient id="paint60_radial_19845_6626" cx="0" cy="0" r="1" gradientUnits="userSpaceOnUse" gradientTransform="translate(371.884 609.602) rotate(135) scale(543.54)">
<stop stop-color="#243035"/>
<stop offset="1" stop-color="#12181E"/>
</radialGradient>
<radialGradient id="paint61_radial_19845_6626" cx="0" cy="0" r="1" gradientUnits="userSpaceOnUse" gradientTransform="translate(449.227 624.536) rotate(135) scale(473.06)">
<stop stop-color="#3E5055"/>
<stop offset="1" stop-color="#1B2429"/>
</radialGradient>
<radialGradient id="paint62_radial_19845_6626" cx="0" cy="0" r="1" gradientUnits="userSpaceOnUse" gradientTransform="translate(203.43 417.022) rotate(135) scale(333.69)">
<stop stop-color="#2C3B41"/>
<stop offset="1" stop-color="#12181E"/>
</radialGradient>
<radialGradient id="paint63_radial_19845_6626" cx="0" cy="0" r="1" gradientUnits="userSpaceOnUse" gradientTransform="translate(400.6 569.403) rotate(135) scale(509.4)">
<stop stop-color="#D4D5DA"/>
<stop offset="0.09" stop-color="#C4C7CC"/>
<stop offset="0.48" stop-color="#818C91"/>
<stop offset="0.77" stop-color="#57676C"/>
<stop offset="0.92" stop-color="#47595E"/>
</radialGradient>
<radialGradient id="paint64_radial_19845_6626" cx="0" cy="0" r="1" gradientUnits="userSpaceOnUse" gradientTransform="translate(414.961 565.379) rotate(135) scale(507.45)">
<stop stop-color="#D4D5DA"/>
<stop offset="0.09" stop-color="#C4C7CC"/>
<stop offset="0.48" stop-color="#818C91"/>
<stop offset="0.77" stop-color="#57676C"/>
<stop offset="0.92" stop-color="#47595E"/>
</radialGradient>
<radialGradient id="paint65_radial_19845_6626" cx="0" cy="0" r="1" gradientUnits="userSpaceOnUse" gradientTransform="translate(215.685 354.62) rotate(135) scale(273.2)">
<stop stop-color="#D4D5DA"/>
<stop offset="0.09" stop-color="#C4C7CC"/>
<stop offset="0.48" stop-color="#818C91"/>
<stop offset="0.77" stop-color="#57676C"/>
<stop offset="0.92" stop-color="#47595E"/>
</radialGradient>
<radialGradient id="paint66_radial_19845_6626" cx="0" cy="0" r="1" gradientUnits="userSpaceOnUse" gradientTransform="translate(441.57 394.819) rotate(135) scale(197.85)">
<stop stop-color="#FBEA98"/>
<stop offset="0.19" stop-color="#F0D35F"/>
<stop offset="0.36" stop-color="#E8C236"/>
<stop offset="0.45" stop-color="#E5BC26"/>
<stop offset="1" stop-color="#A86A07"/>
</radialGradient>
<radialGradient id="paint67_radial_19845_6626" cx="0" cy="0" r="1" gradientUnits="userSpaceOnUse" gradientTransform="translate(445.402 521.164) rotate(135) scale(261.92)">
<stop stop-color="#FBEA98"/>
<stop offset="0.19" stop-color="#F0D35F"/>
<stop offset="0.36" stop-color="#E8C236"/>
<stop offset="0.45" stop-color="#E5BC26"/>
<stop offset="1" stop-color="#A86A07"/>
</radialGradient>
<radialGradient id="paint68_radial_19845_6626" cx="0" cy="0" r="1" gradientUnits="userSpaceOnUse" gradientTransform="translate(246.309 331.263) rotate(135) scale(171.55)">
<stop stop-color="#FBEA98"/>
<stop offset="0.19" stop-color="#F0D35F"/>
<stop offset="0.36" stop-color="#E8C236"/>
<stop offset="0.45" stop-color="#E5BC26"/>
<stop offset="1" stop-color="#A86A07"/>
</radialGradient>
<radialGradient id="paint69_radial_19845_6626" cx="0" cy="0" r="1" gradientUnits="userSpaceOnUse" gradientTransform="translate(281.53 328.202) rotate(135) scale(197.94)">
<stop stop-color="#FBEA98"/>
<stop offset="0.19" stop-color="#F0D35F"/>
<stop offset="0.36" stop-color="#E8C236"/>
<stop offset="0.45" stop-color="#E5BC26"/>
<stop offset="1" stop-color="#A86A07"/>
</radialGradient>
<linearGradient id="paint70_linear_19845_6626" x1="669.894" y1="386.347" x2="661.819" y2="378.272" gradientUnits="userSpaceOnUse">
<stop stop-color="#D4D5DA"/>
<stop offset="0.11" stop-color="#929CA1"/>
<stop offset="0.19" stop-color="#69787D"/>
<stop offset="0.24" stop-color="#596B70"/>
<stop offset="1" stop-color="#12181E"/>
</linearGradient>
<linearGradient id="paint71_linear_19845_6626" x1="668.466" y1="384.919" x2="662.512" y2="378.965" gradientUnits="userSpaceOnUse">
<stop stop-color="#FBEA98"/>
<stop offset="0.19" stop-color="#F0D35F"/>
<stop offset="0.36" stop-color="#E8C236"/>
<stop offset="0.45" stop-color="#E5BC26"/>
<stop offset="1" stop-color="#A86A07"/>
</linearGradient>
<linearGradient id="paint72_linear_19845_6626" x1="655.342" y1="371.794" x2="647.267" y2="363.719" gradientUnits="userSpaceOnUse">
<stop stop-color="#D4D5DA"/>
<stop offset="0.11" stop-color="#929CA1"/>
<stop offset="0.19" stop-color="#69787D"/>
<stop offset="0.24" stop-color="#596B70"/>
<stop offset="1" stop-color="#12181E"/>
</linearGradient>
<linearGradient id="paint73_linear_19845_6626" x1="653.914" y1="370.366" x2="647.953" y2="364.405" gradientUnits="userSpaceOnUse">
<stop stop-color="#FBEA98"/>
<stop offset="0.19" stop-color="#F0D35F"/>
<stop offset="0.36" stop-color="#E8C236"/>
<stop offset="0.45" stop-color="#E5BC26"/>
<stop offset="1" stop-color="#A86A07"/>
</linearGradient>
<linearGradient id="paint74_linear_19845_6626" x1="640.79" y1="357.243" x2="632.715" y2="349.168" gradientUnits="userSpaceOnUse">
<stop stop-color="#D4D5DA"/>
<stop offset="0.11" stop-color="#929CA1"/>
<stop offset="0.19" stop-color="#69787D"/>
<stop offset="0.24" stop-color="#596B70"/>
<stop offset="1" stop-color="#12181E"/>
</linearGradient>
<linearGradient id="paint75_linear_19845_6626" x1="639.362" y1="355.813" x2="633.401" y2="349.852" gradientUnits="userSpaceOnUse">
<stop stop-color="#FBEA98"/>
<stop offset="0.19" stop-color="#F0D35F"/>
<stop offset="0.36" stop-color="#E8C236"/>
<stop offset="0.45" stop-color="#E5BC26"/>
<stop offset="1" stop-color="#A86A07"/>
</linearGradient>
<linearGradient id="paint76_linear_19845_6626" x1="626.238" y1="342.69" x2="618.162" y2="334.615" gradientUnits="userSpaceOnUse">
<stop stop-color="#D4D5DA"/>
<stop offset="0.11" stop-color="#929CA1"/>
<stop offset="0.19" stop-color="#69787D"/>
<stop offset="0.24" stop-color="#596B70"/>
<stop offset="1" stop-color="#12181E"/>
</linearGradient>
<linearGradient id="paint77_linear_19845_6626" x1="624.809" y1="341.262" x2="618.849" y2="335.301" gradientUnits="userSpaceOnUse">
<stop stop-color="#FBEA98"/>
<stop offset="0.19" stop-color="#F0D35F"/>
<stop offset="0.36" stop-color="#E8C236"/>
<stop offset="0.45" stop-color="#E5BC26"/>
<stop offset="1" stop-color="#A86A07"/>
</linearGradient>
<clipPath id="clip0_19845_6626">
<rect width="1553" height="257" fill="white"/>
</clipPath>
<clipPath id="clip1_19845_6626">
<rect width="1553" height="257" fill="white" transform="translate(1553 514) rotate(-180)"/>
</clipPath>
</defs>
</svg>
