<svg width="968" height="973" viewBox="0 0 968 973" fill="none" xmlns="http://www.w3.org/2000/svg">
<path d="M966.61 901.987L900.346 968.288C900.346 968.288 900.306 968.318 900.286 968.339L899.466 969.679H767.102L751.456 953.123L699.868 901.507H585.664C580.595 906.248 571.987 914.061 571.987 914.471C571.987 915.061 571.507 914.471 570.927 914.471H526.008L472.6 967.908C472.4 968.108 472.88 968.219 472.6 968.219H315.007C314.507 970.939 312.128 973.01 309.268 973.01C306.039 973.01 303.42 970.389 303.42 967.158C303.42 963.927 306.039 961.306 309.268 961.306C312.138 961.306 314.507 963.377 315.007 966.098H447.196L515.021 898.235C515.22 898.035 515.49 897.925 515.77 897.925H589.273C589.273 897.925 589.273 897.985 589.193 898.075H724.522C724.802 898.075 725.072 898.185 725.272 898.385L778.679 953.133H902.115L958.532 896.685V72.994L895.037 9.46311H817.51V0H896.997C898.256 0 899.456 0.500164 900.346 1.39046L966.61 67.6923C967.5 68.5826 968 69.783 968 71.0434V898.646C968 899.906 967.5 901.106 966.61 901.997V901.987Z" fill="#FCEE36"/>
<path d="M2.68938 177.848L175.719 4.71155C175.719 4.71155 175.759 4.68154 175.779 4.66153L176.599 3.32109H331.963L347.609 19.8765L399.197 71.4935H493.386C498.454 66.752 507.062 58.9394 507.062 58.5292C507.062 57.9391 507.542 58.5292 508.122 58.5292H653.388L706.796 5.09167C706.996 4.89161 706.516 4.78157 706.796 4.78157H784.058C784.558 2.07068 786.937 0 789.807 0C793.036 0 795.655 2.62086 795.655 5.85192C795.655 9.08299 793.036 11.7038 789.807 11.7038C786.937 11.7038 784.568 9.63317 784.058 6.91227H732.2L664.376 74.7746C664.176 74.9747 663.906 75.0847 663.626 75.0847H489.776C489.776 75.0847 489.776 75.0247 489.856 74.9346H374.553C374.273 74.9346 374.003 74.8246 373.803 74.6245L320.396 19.8765H173.96L9.4678 183.15V900.006L72.9631 963.537H281.555V973.01H70.9935C69.7338 973.01 68.5341 972.51 67.6443 971.62L1.38968 905.318C0.499884 904.427 0 903.227 0 901.967V181.19C0 179.929 1.79958 178.729 2.68938 177.838V177.848Z" fill="#FCEE36"/>
</svg>
