<svg width="343" height="620" viewBox="0 0 343 620" fill="none" xmlns="http://www.w3.org/2000/svg">
<path d="M342.603 20.3075L323.645 1.34783C323.645 1.34783 323.634 1.33939 323.628 1.33376L323.395 0.95108H278.948L274.472 5.68397L259.712 20.4454H227.038C225.586 19.0891 223.124 16.8549 223.124 16.7396C223.124 16.5707 222.989 16.7396 222.82 16.7396H209.97L194.692 1.46039C194.636 1.40411 194.774 1.37034 194.692 1.37034H90.1195C89.976 0.590908 89.2951 0 88.4764 0C87.5507 0 86.8023 0.748483 86.8023 1.67424C86.8023 2.59999 87.5507 3.34848 88.4764 3.34848C89.2951 3.34848 89.976 2.75757 90.1195 1.97813H187.425L206.83 21.3852C206.887 21.4415 206.965 21.4753 207.044 21.4753H228.073C228.073 21.4753 228.073 21.4584 228.05 21.4331H266.766C266.847 21.4331 266.923 21.4021 266.982 21.343L282.26 5.68678H324.152L340.29 21.827V599.127L322.126 617.293H293.365V620.003H322.686C323.046 620.003 323.389 619.859 323.642 619.606L342.6 600.646C342.854 600.393 342.997 600.05 342.997 599.69V21.2642C342.997 20.9041 342.854 20.5608 342.6 20.3075H342.603Z" fill="#FFE61B"/>
<path d="M0.768112 569.145L50.2705 618.652C50.2705 618.652 50.2818 618.661 50.2874 618.666L50.521 619.049H94.9674L99.4438 614.316L114.204 599.555H200.638C202.089 600.911 204.551 603.145 204.551 603.26C204.551 603.429 204.686 603.26 204.855 603.26H246.415L261.693 618.542C261.749 618.599 261.611 618.633 261.693 618.633H283.796C283.94 619.412 284.621 620.003 285.439 620.003C286.362 620.003 287.114 619.254 287.114 618.329C287.114 617.403 286.365 616.654 285.439 616.654C284.618 616.654 283.94 617.245 283.796 618.025H268.96L249.555 598.618C249.499 598.561 249.42 598.528 249.341 598.528H199.602C199.602 598.528 199.602 598.544 199.625 598.57H107.15C107.069 598.57 106.993 598.601 106.934 598.66L91.6557 614.316H49.7641L2.70949 567.629V20.8731L20.8713 2.70973H80.5477V0H20.3114C19.9512 0 19.608 0.143506 19.3547 0.396752L0.396717 19.3564C0.143493 19.6097 0 19.953 0 20.3132V568.189C0 568.549 0.514888 568.892 0.768112 569.145Z" fill="#FFE61B"/>
</svg>
