<svg width="287" height="104" viewBox="0 0 287 104" fill="none" xmlns="http://www.w3.org/2000/svg">
<path d="M259.191 18.3566H114.759L113.045 16.6428L98.2426 1H54.9602H53.616H20.4149L1 20.4149V38.7965V92.093L11.5014 102.653H16.9621L23.6241 96.3019H33.4366H46.8615H55.8339L63.168 102.653H258.214L268.154 92.9163V27.3206L259.191 18.3566Z" fill="#0A1619" stroke="#32434A"/>
<path d="M246.312 27.0424H100.464L84.4782 10.2402H51.7126H50.6167H23.5496L11.082 26.1252V41.1646V80.8093L18.3831 88.3703H63.5888L72.4099 95.0912H219.429L223.629 90.8906H251.056" stroke="url(#paint0_linear_19890_7651)"/>
<path d="M251.13 18.3566H107.061L105.412 16.6428L91.1738 1" stroke="#32434A"/>
<circle cx="245.866" cy="27.0688" r="1.26016" fill="#32434A"/>
<circle cx="250.971" cy="90.891" r="1.26016" fill="#32434A"/>
<path d="M12.2106 85.2734L6.04102 88.3713L10.6616 93.412L14.4421 87.5312L12.2106 85.2734Z" fill="#32434A"/>
<g clip-path="url(#clip0_19890_7651)">
<path d="M115.06 13.9941H120.097L114.41 6.04086H109.373L115.06 13.9941Z" fill="#32434A"/>
<path d="M122.003 13.9941H127.04L121.353 6.04086H116.316L122.003 13.9941Z" fill="#32434A"/>
<path d="M128.946 13.9941H133.983L128.296 6.04086H123.259L128.946 13.9941Z" fill="#32434A"/>
<path d="M135.889 13.9941H140.926L135.24 6.04086H130.203L135.889 13.9941Z" fill="#32434A"/>
<path d="M142.835 13.9941H147.872L142.185 6.04086H137.146L142.835 13.9941Z" fill="#32434A"/>
<path d="M149.78 13.9941H154.817L149.13 6.04086H144.091L149.78 13.9941Z" fill="#32434A"/>
<path d="M156.725 13.9941H161.763L156.076 6.04086H151.037L156.725 13.9941Z" fill="#32434A"/>
<path d="M163.67 13.9941H168.708L163.021 6.04086H157.982L163.67 13.9941Z" fill="#32434A"/>
<path d="M170.616 13.9941H175.653L169.967 6.04086H164.927L170.616 13.9941Z" fill="#32434A"/>
<path d="M177.561 13.9941H182.598L176.912 6.04086H171.873L177.561 13.9941Z" fill="#32434A"/>
</g>
<g clip-path="url(#clip1_19890_7651)">
<path d="M42.8116 75.3223H47.8487L42.1621 67.369H37.125L42.8116 75.3223Z" fill="#32434A"/>
<path d="M49.7547 75.3223H54.7918L49.1052 67.369H44.0681L49.7547 75.3223Z" fill="#32434A"/>
<path d="M56.6979 75.3223H61.735L56.0484 67.369H51.0114L56.6979 75.3223Z" fill="#32434A"/>
<path d="M63.6409 75.3223H68.678L62.9914 67.369H57.9543L63.6409 75.3223Z" fill="#32434A"/>
<path d="M70.5864 75.3223H75.6235L69.9369 67.369H64.8976L70.5864 75.3223Z" fill="#32434A"/>
<path d="M77.5319 75.3223H82.569L76.8824 67.369H71.8431L77.5319 75.3223Z" fill="#32434A"/>
<path d="M84.4774 75.3223H89.5145L83.8279 67.369H78.7886L84.4774 75.3223Z" fill="#32434A"/>
<path d="M91.4228 75.3223H96.4599L90.7733 67.369H85.734L91.4228 75.3223Z" fill="#32434A"/>
<path d="M98.3681 75.3223H103.405L97.7186 67.369H92.6793L98.3681 75.3223Z" fill="#32434A"/>
<path d="M105.313 75.3223H110.35L104.664 67.369H99.6245L105.313 75.3223Z" fill="#32434A"/>
<path d="M112.259 75.3223H117.296L111.609 67.369H106.57L112.259 75.3223Z" fill="#32434A"/>
<path d="M119.204 75.3223H124.241L118.555 67.369H113.516L119.204 75.3223Z" fill="#32434A"/>
<path d="M126.15 75.3223H131.187L125.5 67.369H120.461L126.15 75.3223Z" fill="#32434A"/>
<path d="M133.095 75.3223H138.132L132.446 67.369H127.406L133.095 75.3223Z" fill="#32434A"/>
<path d="M140.041 75.3223H145.078L139.391 67.369H134.352L140.041 75.3223Z" fill="#32434A"/>
<path d="M146.986 75.3223H152.023L146.336 67.369H141.297L146.986 75.3223Z" fill="#32434A"/>
<path d="M153.931 75.3223H158.968L153.282 67.369H148.242L153.931 75.3223Z" fill="#32434A"/>
<path d="M160.877 75.3223H165.914L160.227 67.369H155.188L160.877 75.3223Z" fill="#32434A"/>
<path d="M167.822 75.3223H172.859L167.173 67.369H162.133L167.822 75.3223Z" fill="#32434A"/>
<path d="M174.768 75.3223H179.805L174.118 67.369H169.079L174.768 75.3223Z" fill="#32434A"/>
</g>
<defs>
<linearGradient id="paint0_linear_19890_7651" x1="31.6647" y1="44.6847" x2="248.413" y2="44.6847" gradientUnits="userSpaceOnUse">
<stop stop-color="#243338"/>
<stop offset="1" stop-color="#32434A"/>
</linearGradient>
<clipPath id="clip0_19890_7651">
<rect width="73.2257" height="7.95328" fill="white" transform="matrix(1 0 0 -1 109.373 13.9941)"/>
</clipPath>
<clipPath id="clip1_19890_7651">
<rect width="142.68" height="7.95328" fill="white" transform="matrix(1 0 0 -1 37.125 75.3223)"/>
</clipPath>
</defs>
</svg>
