<svg width="27" height="27" viewBox="0 0 27 27" fill="none" xmlns="http://www.w3.org/2000/svg">
<path d="M7.89562 6.88903V3.6163C7.89562 3.32697 8.01055 3.0495 8.21514 2.84491C8.41972 2.64033 8.6972 2.52539 8.98653 2.52539H22.0774C22.3668 2.52539 22.6442 2.64033 22.8488 2.84491C23.0534 3.0495 23.1683 3.32697 23.1683 3.6163V18.889C23.1683 19.1784 23.0534 19.4558 22.8488 19.6604C22.6442 19.865 22.3668 19.9799 22.0774 19.9799H18.8047V23.2527C18.8047 23.8548 18.3138 24.3436 17.7062 24.3436H4.63053C4.48667 24.3444 4.34405 24.3169 4.21088 24.2624C4.07771 24.208 3.9566 24.1278 3.85452 24.0264C3.75244 23.9251 3.67139 23.8045 3.61604 23.6717C3.56069 23.5389 3.53212 23.3965 3.53198 23.2527L3.53526 7.97994C3.53526 7.37775 4.02616 6.88903 4.6338 6.88903H7.89562ZM10.0774 6.88903H18.8047V17.7981H20.9865V4.70721H10.0774V6.88903Z" fill="#152226"/>
</svg>
