<svg width="63" height="63" viewBox="0 0 63 63" fill="none" xmlns="http://www.w3.org/2000/svg">
<path d="M47.8324 13.6499H16.1299C13.0924 13.6499 10.6299 16.1124 10.6299 19.1499V19.5799L28.6199 29.9024C29.6428 30.4897 30.8017 30.7987 31.9811 30.7987C33.1606 30.7987 34.3195 30.4897 35.3424 29.9024L53.3324 19.5799V19.1499C53.3324 16.1124 50.8699 13.6499 47.8324 13.6499Z" fill="black"/>
<path d="M54.5499 18.505C54.2249 15.085 51.3349 12.3975 47.8324 12.3975H16.1299C12.6249 12.3975 9.73738 15.0825 9.41238 18.505C9.39238 18.5925 9.37988 18.6825 9.37988 18.7775V42.2775C9.37988 46.585 12.4074 50.09 16.1299 50.09H47.8324C51.5549 50.09 54.5824 46.585 54.5824 42.2775V18.7775C54.5824 18.685 54.5699 18.595 54.5499 18.505ZM16.1299 14.9H47.8324C50.0799 14.9 51.9249 16.6525 52.0724 18.8625L34.3074 29.055C33.5987 29.4592 32.797 29.6719 31.9811 29.6719C31.1653 29.6719 30.3635 29.4592 29.6549 29.055L11.8899 18.8625C12.0374 16.6525 13.8824 14.9 16.1299 14.9ZM47.8324 47.5925H16.1299C13.7874 47.5925 11.8799 45.21 11.8799 42.28V21.74L28.4099 31.225C29.5099 31.8575 30.7449 32.1725 31.9799 32.1725C33.2149 32.1725 34.4499 31.8575 35.5499 31.225L52.0799 21.74V42.2775C52.0824 45.2075 50.1749 47.5925 47.8324 47.5925Z" fill="black"/>
</svg>
