<svg width="24" height="24" viewBox="0 0 24 24" fill="none" xmlns="http://www.w3.org/2000/svg">
<mask id="mask0_603_42694" style="mask-type:luminance" maskUnits="userSpaceOnUse" x="0" y="2" width="24" height="20">
<path d="M23.6071 2.96875L0.393066 2.96875L0.393066 21.0317L23.6071 21.0317L23.6071 2.96875Z" fill="white"/>
</mask>
<g mask="url(#mask0_603_42694)">
<path d="M21.9206 11.5048C21.8576 11.3803 21.8101 11.2456 21.7478 11.1246C21.6096 10.8542 21.4705 10.5846 21.3228 10.3202C21.2173 10.131 21.0981 9.95042 20.9823 9.76639C20.8432 9.54693 20.7085 9.32402 20.5573 9.11234C20.3845 8.86783 20.1892 8.638 20.0086 8.39695C19.6797 7.97649 19.3173 7.58325 18.9252 7.22105C18.6098 6.91865 18.2728 6.63957 17.9402 6.35705C17.553 6.04203 17.1387 5.76186 16.7021 5.51983C16.4429 5.36863 16.1837 5.22434 15.9176 5.09647C15.6134 4.95305 15.3033 4.81913 14.9879 4.70162C14.4606 4.51433 13.9163 4.37891 13.3627 4.29727C13.177 4.26703 12.986 4.26617 12.7985 4.24025C12.1741 4.17932 11.5449 4.18627 10.9219 4.26099C10.7111 4.27913 10.502 4.32406 10.2921 4.35689C10.216 4.36985 10.1383 4.37849 10.064 4.39836C9.73911 4.48476 9.41338 4.57116 9.09111 4.67398C8.86036 4.74602 8.63441 4.8326 8.4146 4.93318C8.12256 5.0671 7.84176 5.22521 7.55492 5.37036C7.14523 5.58152 6.7529 5.82478 6.3816 6.09785C6.16647 6.25337 5.95997 6.42185 5.7578 6.59378C5.4986 6.81324 5.2394 7.03356 4.99488 7.27116C4.75037 7.50876 4.505 7.77833 4.2769 8.04876C4.00474 8.36844 3.73776 8.69416 3.4898 9.03372C3.2738 9.33093 3.08026 9.64543 2.89364 9.96251C2.68628 10.3142 2.4962 10.6753 2.30698 11.0356C2.23008 11.1799 2.17133 11.3345 2.10567 11.4849C1.97571 11.7279 1.94475 12.0118 2.01927 12.2772C2.0666 12.424 2.12169 12.5682 2.18429 12.7092C2.29661 12.9597 2.41498 13.2068 2.53767 13.4522C2.59642 13.5706 2.66813 13.6829 2.73639 13.7978C2.88759 14.0458 3.0362 14.2963 3.19517 14.54C3.32477 14.7387 3.46474 14.9314 3.60471 15.1232C3.76196 15.3375 3.91575 15.5552 4.08768 15.7582C4.25962 15.9613 4.45229 16.1453 4.63373 16.3406C4.72013 16.433 4.79271 16.5375 4.88256 16.6257C5.01216 16.7527 5.153 16.8702 5.28864 16.992C5.51242 17.1916 5.72583 17.405 5.96084 17.589C6.2114 17.786 6.47924 17.9606 6.74276 18.1377C6.96336 18.2851 7.18772 18.4265 7.41581 18.5619C7.58861 18.6647 7.76832 18.7554 7.94804 18.8453C8.14589 18.9447 8.34548 19.0431 8.55284 19.1295C8.70058 19.1918 8.8561 19.235 9.00903 19.2842C9.31834 19.3827 9.62247 19.5028 9.93783 19.571C10.343 19.6574 10.7552 19.7153 11.1664 19.7654C11.436 19.7983 11.7099 19.7957 11.9829 19.8086C12.4017 19.8007 12.8196 19.7693 13.2349 19.7145C13.713 19.6479 14.1855 19.5456 14.6484 19.4086C14.7754 19.3723 14.9006 19.3222 15.0242 19.2773C15.2782 19.1797 15.5365 19.0915 15.7837 18.9775C16.0429 18.8565 16.2925 18.7088 16.5474 18.5749C17.0108 18.3227 17.4531 18.0338 17.8702 17.7109C18.0802 17.5527 18.278 17.3774 18.475 17.2046C18.672 17.0318 18.8733 16.8503 19.0643 16.6646C19.2042 16.5289 19.3321 16.3812 19.4643 16.2377C19.8274 15.8431 20.1648 15.4255 20.4743 14.9875C20.6177 14.7828 20.7715 14.5832 20.9063 14.3706C21.086 14.0821 21.2519 13.7866 21.4187 13.4876C21.5854 13.1887 21.7306 12.8906 21.88 12.5882C21.9329 12.4901 21.9738 12.3859 22.0019 12.278C22.0694 12.0206 22.0424 11.7475 21.9258 11.5082M15.7551 15.3686C15.3091 15.8737 14.7651 16.283 14.1562 16.5717C13.5473 16.8605 12.8861 17.0225 12.2127 17.0482C10.8664 17.0915 9.5574 16.6015 8.57043 15.6847C7.58346 14.768 6.99835 13.4986 6.94234 12.1528C6.90361 10.8206 7.39331 9.52719 8.3046 8.55472C9.21589 7.58225 10.4748 7.00965 11.8067 6.96185C12.4629 6.93104 13.1188 7.03081 13.7362 7.25535C14.3536 7.47989 14.9203 7.82475 15.4035 8.26994C15.9305 8.73675 16.3505 9.31181 16.6348 9.95582C16.9192 10.5998 17.0612 11.2976 17.0511 12.0016C17.0687 13.2497 16.6045 14.4565 15.7551 15.3711" fill="#737578"/>
<path d="M15.3106 12.1989C15.2961 12.4177 15.2596 12.6345 15.2017 12.846C15.0606 13.3616 14.8049 13.8386 14.4535 14.2414C14.1186 14.6179 13.6981 14.9086 13.2275 15.0889C12.6043 15.3367 11.9211 15.3918 11.2662 15.2471C10.9622 15.1875 10.6702 15.0777 10.4022 14.9222C10.0804 14.7544 9.78844 14.5345 9.53821 14.2716C9.42858 14.1468 9.32973 14.013 9.24271 13.8716C9.11723 13.6842 9.00632 13.4875 8.91094 13.2832C8.74989 12.9366 8.66504 12.5595 8.66211 12.1773C8.66313 12.1343 8.67391 12.092 8.69362 12.0538C8.71333 12.0155 8.74147 11.9823 8.77591 11.9565C8.81035 11.9307 8.8502 11.913 8.89245 11.9049C8.9347 11.8968 8.97824 11.8983 9.01981 11.9094C9.38781 12.014 9.77459 12.0347 10.1516 11.9699C10.4707 11.9077 10.7728 11.7784 11.0381 11.5906C11.3802 11.3607 11.6499 11.0383 11.8157 10.6609C11.9508 10.3838 12.0104 10.076 11.9885 9.76844C11.9878 9.75606 11.9878 9.74366 11.9885 9.73128C12.0014 9.50494 11.9721 9.27818 11.9021 9.06255C11.8846 9.02087 11.8776 8.97555 11.8817 8.93054C11.8857 8.88553 11.9007 8.84219 11.9253 8.80429C11.9499 8.76639 11.9834 8.73508 12.0229 8.71308C12.0624 8.69108 12.1066 8.67906 12.1518 8.67807C12.2438 8.66482 12.3373 8.66775 12.4283 8.68671C12.7368 8.75146 13.0396 8.84103 13.3338 8.95455C13.7544 9.13923 14.1328 9.40797 14.4457 9.74424C14.8022 10.1269 15.0586 10.5917 15.1922 11.0973C15.2904 11.4557 15.3295 11.8278 15.308 12.1989" fill="#737578"/>
</g>
</svg>
