<svg width="63" height="63" viewBox="0 0 63 63" fill="none" xmlns="http://www.w3.org/2000/svg">
<path d="M54.2025 27.218H31.9741V36.3542H44.6726C44.125 39.3073 42.4639 41.8052 39.9599 43.4786C37.8435 44.8937 35.1426 45.7304 31.968 45.7304C25.8218 45.7304 20.623 41.5775 18.765 35.9974C18.2975 34.5823 18.0268 33.0688 18.0268 31.5123C18.0268 29.9558 18.2975 28.4423 18.765 27.0272C20.6292 21.4532 25.8279 17.3004 31.9741 17.3004C35.4379 17.3004 38.5448 18.4939 40.9935 20.8318L47.761 14.0581C43.6697 10.2437 38.3356 7.90576 31.9741 7.90576C22.7518 7.90576 14.7722 13.1968 10.89 20.9118C9.29043 24.0987 8.37988 27.704 8.37988 31.5185C8.37988 35.3329 9.29043 38.932 10.89 42.1189C14.7722 49.834 22.7518 55.125 31.9741 55.125C38.3479 55.125 43.6882 53.0086 47.5888 49.4033C52.0492 45.2936 54.627 39.2397 54.627 32.0476C54.627 30.3741 54.4794 28.7684 54.2025 27.218Z" fill="black"/>
</svg>
