<svg width="63" height="63" viewBox="0 0 63 63" fill="none" xmlns="http://www.w3.org/2000/svg">
<path d="M54.8227 26.3122H32.5942V35.4484H45.2927C44.7451 38.4016 43.084 40.8994 40.58 42.5729C38.4636 43.9879 35.7627 44.8246 32.5881 44.8246C26.4419 44.8246 21.2432 40.6718 19.3852 35.0916C18.9176 33.6766 18.6469 32.1631 18.6469 30.6065C18.6469 29.05 18.9176 27.5365 19.3852 26.1215C21.2493 20.5475 26.448 16.3946 32.5942 16.3946C36.058 16.3946 39.1649 17.5882 41.6136 19.9261L48.3811 13.1523C44.2898 9.33789 38.9558 7 32.5942 7C23.3719 7 15.3923 12.291 11.5102 20.0061C9.91055 23.193 9 26.7982 9 30.6127C9 34.4271 9.91055 38.0263 11.5102 41.2132C15.3923 48.9282 23.3719 54.2192 32.5942 54.2192C38.9681 54.2192 44.3083 52.1028 48.2089 48.4976C52.6693 44.3878 55.2472 38.3339 55.2472 31.1418C55.2472 29.4684 55.0995 27.8626 54.8227 26.3122Z" fill="white"/>
</svg>
