<svg width="274" height="88" viewBox="0 0 274 88" fill="none" xmlns="http://www.w3.org/2000/svg">
<path d="M263.746 56.4653V26.886L243.561 6.70703H27.8945L7.70898 26.886V56.4653L27.8945 76.6442H243.561L263.746 56.4653Z" fill="url(#paint0_radial_19766_3886)"/>
<g filter="url(#filter0_d_19766_3886)">
<path d="M243.561 6.70798L263.747 26.8869V56.4662L243.561 76.6452H27.8948L7.70929 56.4662V26.8869L27.8948 6.70798H243.561ZM243.561 2.68359H27.8948C26.828 2.68359 25.8048 3.10615 25.0466 3.86073L4.86111 24.043C4.10629 24.7976 3.68359 25.8205 3.68359 26.8903V56.4696C3.68359 57.536 4.10629 58.5623 4.86111 59.3168L25.0466 79.4958C25.8014 80.2504 26.8246 80.6729 27.8948 80.6729H243.561C244.628 80.6729 245.651 80.2504 246.409 79.4958L266.595 59.3168C267.35 58.5623 267.772 57.5394 267.772 56.4696V26.8903C267.772 25.8238 267.35 24.7976 266.595 24.043L246.409 3.86408C245.655 3.10951 244.631 2.68695 243.561 2.68695V2.68359Z" fill="url(#paint1_radial_19766_3886)"/>
</g>
<path d="M243.561 2.68293C244.628 2.68293 245.651 3.10549 246.41 3.86006L266.595 24.039C267.35 24.7936 267.773 25.8165 267.773 26.8863V56.4656C267.773 57.532 267.35 58.5582 266.595 59.3128L246.41 79.4918C245.655 80.2464 244.632 80.6689 243.561 80.6689H27.895C26.8282 80.6689 25.805 80.2464 25.0468 79.4918L4.86131 59.3128C4.10649 58.5582 3.68379 57.5354 3.68379 56.4656V26.8863C3.68379 25.8198 4.10649 24.7936 4.86131 24.039L25.0502 3.86006C25.805 3.10549 26.8282 2.68293 27.8983 2.68293H243.565M243.561 0H27.895C26.1035 0 24.4195 0.697561 23.1514 1.96524L2.96588 22.1442C1.69779 23.4119 1 25.0954 1 26.8863V56.4656C1 58.2564 1.69779 59.9433 2.96588 61.2076L23.1514 81.3866C24.4195 82.6543 26.1035 83.3518 27.895 83.3518H242.89C244.682 83.3518 246.366 82.6543 247.634 81.3866L268.49 61.2076C269.759 59.9399 270.456 58.2564 270.456 56.4656V26.8863C270.456 25.0954 269.759 23.4085 268.49 22.1442L248.305 1.96524C247.037 0.697561 245.353 0 243.561 0Z" fill="url(#paint2_linear_19766_3886)"/>
<path d="M243.561 6.70703H27.8945L7.70898 26.886V56.4653L27.8945 76.6442H243.561L263.746 56.4653V26.886L243.561 6.70703ZM253.015 54.0305L236.15 70.8894H216.532V66.9086H54.9237V70.8894H35.3051L18.4408 54.0305V29.3208L35.3051 12.4619H54.9237V16.4427H216.528V12.4619H236.147L253.011 29.3208V54.0305H253.015Z" fill="#FFE61B"/>
<path opacity="0.2" d="M235.037 15.1458L250.327 30.4318V52.9214L235.037 68.2074H219.212V64.2266H52.24V68.2074H36.4156L21.1247 52.9214V30.4318L36.4156 15.1458H52.24V19.1266H219.212V15.1458H235.037ZM236.15 12.4629H216.532V16.4437H54.9238V12.4629H35.3052L18.4409 29.3217V54.0315L35.3052 70.8903H54.9238V66.9095H216.528V70.8903H236.147L253.011 54.0315V29.3217L236.147 12.4629H236.15Z" fill="black"/>
<g opacity="0.3">
<path d="M7.70898 41.6758V56.4654L27.8945 76.6444H243.561L263.746 56.4654V41.6758H7.70898Z" fill="black"/>
</g>
<defs>
<filter id="filter0_d_19766_3886" x="0.0835938" y="0.0835938" width="273.289" height="87.1902" filterUnits="userSpaceOnUse" color-interpolation-filters="sRGB">
<feFlood flood-opacity="0" result="BackgroundImageFix"/>
<feColorMatrix in="SourceAlpha" type="matrix" values="0 0 0 0 0 0 0 0 0 0 0 0 0 0 0 0 0 0 127 0" result="hardAlpha"/>
<feOffset dx="1" dy="2"/>
<feGaussianBlur stdDeviation="2.3"/>
<feComposite in2="hardAlpha" operator="out"/>
<feColorMatrix type="matrix" values="0 0 0 0 1 0 0 0 0 0.966667 0 0 0 0 0 0 0 0 0.56 0"/>
<feBlend mode="normal" in2="BackgroundImageFix" result="effect1_dropShadow_19766_3886"/>
<feBlend mode="normal" in="SourceGraphic" in2="effect1_dropShadow_19766_3886" result="shape"/>
</filter>
<radialGradient id="paint0_radial_19766_3886" cx="0" cy="0" r="1" gradientUnits="userSpaceOnUse" gradientTransform="translate(135.729 41.6756) scale(93.8423 93.8119)">
<stop stop-color="#243035"/>
<stop offset="1" stop-color="#13181E"/>
</radialGradient>
<radialGradient id="paint1_radial_19766_3886" cx="0" cy="0" r="1" gradientUnits="userSpaceOnUse" gradientTransform="translate(1.16753 0.168347) scale(97.358 97.3265)">
<stop stop-color="#243035"/>
<stop offset="1" stop-color="#13181E"/>
</radialGradient>
<linearGradient id="paint2_linear_19766_3886" x1="1" y1="41.6759" x2="270.456" y2="41.6759" gradientUnits="userSpaceOnUse">
<stop stop-color="#41555D"/>
<stop offset="1" stop-color="#1B2429"/>
</linearGradient>
</defs>
</svg>
