<svg width="721" height="863" viewBox="0 0 721 863" fill="none" xmlns="http://www.w3.org/2000/svg">
<path d="M197.354 571.323H34.92V564.293L54.8798 544.343H212.372V556.332L197.354 571.342V571.323ZM35.8135 570.43H196.974L211.459 555.952V545.236H55.241L35.8135 564.654V570.411V570.43ZM345.608 360.083H67.502L0 427.551L106.699 534.197H187.451V520.441L166.768 499.77H120.956L48.6828 427.532L81.7589 394.472H367.164V381.609L345.589 360.045L345.608 360.083ZM522.812 278.326V350.963H454.227L336.198 468.933H242.577L215.964 495.533V503.36H350.455L468.484 385.39H557.238V256.609H544.521L522.793 278.326H522.812ZM551.459 523.405H215.964V531.404L242.406 557.833H565.697V537.655L551.459 523.424V523.405ZM523.573 503.949H417.919V490.745L440.331 468.344H508.821L626.85 350.374H695.455L713.494 368.405V385.979H641.62L523.592 503.949H523.573ZM419.098 502.752H523.078L641.107 384.782H712.297V368.88L694.96 351.552H627.344L509.316 469.522H440.825L419.117 491.22V502.752H419.098ZM685.208 476.172H628.067L575.753 528.459L584.25 536.952H615.939L642.324 510.58H705.491V496.445L685.208 476.172ZM304.434 452.555H164.677V436.842L187.736 413.795H329.374V427.627L304.434 452.555ZM165.875 451.377H303.958L328.214 427.133V414.992H188.268L165.894 437.355V451.377H165.875Z" fill="#1F2D32"/>
<g clip-path="url(#clip0_19745_4697)">
<g style="mix-blend-mode:multiply">
<path d="M755.35 425.032L755.35 862.385L638.751 862.385L556.516 780.106L523.645 780.106L470.566 727.005L470.566 698.955L511.63 657.875L511.631 616.076L463.253 567.68L445.901 567.68L379.066 500.819L379.066 425.032L755.35 425.032Z" fill="#5B6668"/>
</g>
<path d="M383.945 429.913L383.945 498.797L447.923 562.8L465.275 562.8L516.509 614.053L516.509 659.897L475.445 700.978L475.445 724.982L525.668 775.225L558.538 775.225L640.774 857.492L750.472 857.492L750.472 429.913L383.945 429.913Z" fill="url(#paint0_radial_19745_4697)"/>
<g style="mix-blend-mode:multiply">
<path d="M732.578 434.254L732.578 847.567L644.347 847.567L588.352 791.55L588.352 768.369L607.326 768.369L607.326 760.784L574.409 760.784L553.8 740.167L516.168 740.167L516.168 719.091L550.543 684.702L570.47 684.702L634.707 620.441L634.707 564.553L608.02 537.856L577.9 537.856L548.768 566.999L548.768 583.265L536.847 595.202L522.211 580.56L522.211 548.852L565.58 505.454L565.58 481.051L612.358 434.254L732.578 434.254Z" fill="#BDC9C9"/>
</g>
<path d="M692.996 439.135L614.381 439.135L570.46 483.073L570.46 507.477L527.091 550.863L527.091 578.537L536.848 588.298L543.89 581.242L543.89 564.976L575.879 532.975L610.043 532.975L639.587 562.53L639.587 622.464L572.493 689.595L552.566 689.595L521.06 721.114L521.06 735.286L555.823 735.286L576.432 755.903L612.206 755.903L612.206 773.25L593.232 773.25L593.232 789.527L646.37 842.687L727.7 842.687L727.7 439.135L692.996 439.135Z" fill="url(#paint1_radial_19745_4697)"/>
<g style="mix-blend-mode:multiply">
<path d="M551.343 484.873L539.011 484.873L539.011 505.878L511.548 533.363L511.548 566.599L488.012 566.599L454.072 532.646L454.072 522.872L436.684 505.49L414.994 505.49L398.77 489.248L398.77 434.254L575.949 434.254L603.271 432.913L551.343 484.873Z" fill="#BDC9C9"/>
</g>
<path d="M576.067 439.134L403.649 439.134L403.649 487.225L417.016 500.609L438.706 500.609L458.951 520.861L458.951 530.622L490.034 561.718L506.658 561.718L506.658 531.34L534.132 503.855L534.132 479.992L549.321 479.992L590.88 438.405L576.067 439.134Z" fill="url(#paint2_radial_19745_4697)"/>
<path style="mix-blend-mode:overlay" d="M447.923 562.799L383.945 498.797L383.945 429.913L750.472 429.913L750.472 857.504L640.774 857.504L558.526 775.225L525.656 775.225L475.433 724.982L475.433 700.978L516.509 659.886L516.509 614.053L465.275 562.799L447.923 562.799ZM385.779 498.044L448.687 560.977L466.04 560.977L518.343 613.301L518.343 660.65L477.267 701.743L477.267 724.23L526.42 773.402L559.291 773.402L641.538 855.681L748.638 855.681L748.638 431.748L385.779 431.748L385.779 498.044Z" fill="url(#paint3_radial_19745_4697)"/>
<path style="mix-blend-mode:overlay" d="M555.823 735.286L521.06 735.286L521.06 721.114L552.578 689.583L572.505 689.583L639.598 622.464L639.598 562.53L610.043 532.963L575.879 532.963L543.89 564.965L543.89 581.242L536.837 588.298L527.079 578.537L527.079 550.875L570.46 507.477L570.46 483.073L614.381 439.135L692.996 439.135L727.7 439.135L727.7 842.687L646.37 842.687L593.232 789.527L593.232 773.25L612.206 773.25L612.206 755.891L576.42 755.891L555.811 735.274L555.823 735.286ZM522.882 733.451L556.575 733.451L577.184 754.068L614.04 754.068L614.04 775.085L595.066 775.085L595.066 788.763L647.134 840.852L725.878 840.852L725.878 440.969L693.007 440.969L615.145 440.969L572.294 483.826L572.294 508.23L528.913 551.628L528.913 577.772L536.848 585.711L542.068 580.489L542.068 564.212L575.127 531.14L610.795 531.14L641.421 561.777L641.421 623.228L573.258 691.418L553.331 691.418L522.882 721.879L522.882 733.463L522.882 733.451Z" fill="url(#paint4_radial_19745_4697)"/>
<path style="mix-blend-mode:overlay" d="M417.015 500.609L403.637 487.225L403.637 439.134L576.055 439.134L590.879 438.417L549.309 480.004L534.132 480.004L534.132 503.866L506.657 531.352L506.657 561.73L490.034 561.73L458.95 530.634L458.95 520.873L438.706 500.62L417.015 500.62L417.015 500.609ZM405.471 486.472L417.768 498.774L439.458 498.774L460.772 520.096L460.772 529.858L490.786 559.884L504.823 559.884L504.823 530.575L532.298 503.09L532.298 478.157L548.557 478.157L586.236 440.463L576.149 440.957L576.102 440.957L405.471 440.957L405.471 486.46L405.471 486.472Z" fill="url(#paint5_radial_19745_4697)"/>
<path d="M391.2 432.243L391.2 492.823L440.658 542.301C440.165 543.171 440.282 544.301 441.023 545.053C441.916 545.947 443.374 545.947 444.268 545.053C445.161 544.159 445.161 542.701 444.268 541.807C443.527 541.066 442.398 540.949 441.517 541.443L392.422 492.306L392.422 432.243C393.386 431.972 394.104 431.09 394.104 430.043C394.104 428.773 393.081 427.75 391.811 427.75C390.541 427.75 389.519 428.773 389.519 430.043C389.519 431.102 390.236 431.972 391.2 432.243Z" fill="url(#paint6_radial_19745_4697)"/>
<path d="M624.867 564.977C623.597 564.977 622.575 566 622.575 567.27C622.575 568.328 623.292 569.199 624.256 569.469L624.256 611.726L568.695 667.308C567.826 666.814 566.697 666.932 565.945 667.673C565.051 668.567 565.051 670.025 565.945 670.919C566.838 671.813 568.296 671.813 569.189 670.919C569.93 670.178 570.047 669.049 569.554 668.167L625.478 612.22L625.478 569.458C626.442 569.187 627.16 568.305 627.16 567.258C627.16 565.988 626.137 564.965 624.867 564.965L624.867 564.977Z" fill="url(#paint7_radial_19745_4697)"/>
<path d="M529.112 746.528C530.17 746.528 531.04 745.811 531.31 744.846L549.062 744.846L569.459 765.252L595.241 765.252C595.511 766.216 596.393 766.933 597.439 766.933C598.709 766.933 599.732 765.91 599.732 764.64C599.732 763.37 598.709 762.347 597.439 762.347C596.381 762.347 595.511 763.064 595.241 764.028L569.965 764.028L549.568 743.623L531.31 743.623C531.04 742.659 530.158 741.941 529.112 741.941C527.842 741.941 526.819 742.965 526.819 744.235C526.819 745.505 527.842 746.528 529.112 746.528Z" fill="url(#paint8_radial_19745_4697)"/>
<path d="M413.431 427.091L413.431 475.193L426.527 488.295L447.406 488.295L469.826 510.723L469.826 527.271L487.977 545.429C487.484 546.3 487.601 547.429 488.342 548.182C489.235 549.075 490.693 549.075 491.587 548.182C492.48 547.288 492.48 545.829 491.587 544.936C490.846 544.195 489.717 544.077 488.836 544.571L471.048 526.777L471.048 510.229L447.924 487.095L427.044 487.095L414.665 474.711L414.665 427.091C415.629 426.821 416.346 425.939 416.346 424.892C416.346 423.622 415.323 422.599 414.054 422.599C412.784 422.599 411.761 423.622 411.761 424.892C411.761 425.95 412.478 426.821 413.442 427.091L413.431 427.091Z" fill="url(#paint9_radial_19745_4697)"/>
<path d="M543.89 555.567C544.631 554.826 544.748 553.697 544.254 552.815L584.99 512.064L584.99 493.987L620.776 458.187L640.292 458.187L640.292 427.362C641.256 427.091 641.973 426.209 641.973 425.163C641.973 423.892 640.95 422.869 639.68 422.869C638.411 422.869 637.388 423.892 637.388 425.163C637.388 426.221 638.105 427.091 639.069 427.362L639.069 456.964L620.271 456.964L583.767 493.482L583.767 511.558L543.384 551.957C542.515 551.463 541.386 551.58 540.633 552.321C539.74 553.215 539.74 554.674 540.633 555.567C541.527 556.461 542.985 556.461 543.878 555.567L543.89 555.567Z" fill="url(#paint10_radial_19745_4697)"/>
<g style="mix-blend-mode:overlay">
<path d="M621.505 422.94L552.86 491.612L552.86 508.159L518.979 542.054L518.979 585.711L537.953 604.693L537.953 666.273L494.302 709.929L494.302 726.736L531.158 763.606L557.586 763.606L669.694 875.758L668.531 876.922L556.904 765.253L530.476 765.253L492.656 727.418L492.656 709.247L536.307 665.591L536.307 605.387L517.321 586.393L517.321 541.372L551.214 507.477L551.214 490.929L620.341 421.775L621.505 422.94Z" fill="#C8C8C8"/>
<path d="M587.624 423.751L543.22 468.172L517.615 468.172L517.615 492.035L468.661 492.035L442.903 466.279L429.736 466.279L429.736 420.693L431.394 420.693L431.394 464.62L443.585 464.62L469.343 490.388L515.969 490.388L515.969 466.526L542.538 466.526L586.46 422.587L587.624 423.751Z" fill="#C8C8C8"/>
<path d="M692.995 526.482L658.314 526.482L658.314 639.422L594.606 703.155L594.606 732.557L631.204 732.557L631.204 786.128L707.443 862.397L706.279 863.562L629.558 786.81L629.558 734.203L592.96 734.203L592.96 702.473L656.668 638.74L656.668 524.836L692.995 524.836L692.995 526.482Z" fill="#C8C8C8"/>
</g>
<g style="mix-blend-mode:multiply">
<path d="M620.342 421.776L551.215 490.93L551.215 507.477L517.322 541.372L517.322 586.393L536.308 605.387L536.308 665.591L492.657 709.247L492.657 727.418L530.477 765.253L556.905 765.253L668.531 876.923L667.368 878.087L556.223 766.899L529.795 766.899L491.011 728.1L491.011 708.565L534.662 664.909L534.662 606.069L515.676 587.075L515.676 540.69L549.569 506.795L549.569 490.248L619.178 420.611L620.342 421.776Z" fill="#596B70"/>
<path d="M586.46 422.587L542.539 466.526L515.969 466.526L515.969 490.388L469.344 490.388L443.586 464.62L431.395 464.62L431.395 420.693L433.04 420.693L433.04 462.974L444.268 462.974L470.026 488.742L514.324 488.742L514.324 464.879L541.857 464.879L585.296 421.423L586.46 422.587Z" fill="#596B70"/>
<path d="M692.995 524.837L656.668 524.837L656.668 638.741L592.961 702.474L592.961 734.205L629.558 734.205L629.558 786.811L706.28 863.563L705.116 864.727L627.912 787.505L627.912 735.851L591.315 735.851L591.315 701.791L655.022 638.059L655.022 523.19L692.995 523.19L692.995 524.837Z" fill="#596B70"/>
</g>
<g style="mix-blend-mode:multiply">
<path d="M629.627 648.443L629.627 641.975L627.558 644.045L627.558 650.513L634.012 650.513L636.081 648.443L629.627 648.443Z" fill="#B1B1B1"/>
<path d="M625.513 652.548L625.513 646.091L623.444 648.161L623.444 654.617L629.91 654.617L631.979 652.548L625.513 652.548Z" fill="#B1B1B1"/>
<path d="M621.41 656.663L621.41 650.194L619.341 652.264L619.341 658.733L625.796 658.733L627.865 656.663L621.41 656.663Z" fill="#B1B1B1"/>
<path d="M617.295 660.768L617.295 654.312L615.226 656.381L615.226 662.838L621.692 662.838L623.761 660.768L617.295 660.768Z" fill="#B1B1B1"/>
<path d="M613.192 664.885L613.192 658.416L611.123 660.486L611.123 666.943L617.577 666.943L619.646 664.885L613.192 664.885Z" fill="#B1B1B1"/>
<path d="M609.078 668.989L609.078 662.532L607.021 664.59L607.021 671.059L613.475 671.059L615.544 668.989L609.078 668.989Z" fill="#B1B1B1"/>
<path d="M604.975 673.093L604.975 666.637L602.906 668.707L602.906 675.163L609.372 675.163L611.43 673.093L604.975 673.093Z" fill="#B1B1B1"/>
<path d="M600.86 677.21L600.86 670.741L598.802 672.811L598.802 679.28L605.256 679.28L607.326 677.21L600.86 677.21Z" fill="#B1B1B1"/>
<path d="M596.757 681.315L596.757 674.858L594.688 676.928L594.688 683.385L601.154 683.385L603.223 681.315L596.757 681.315Z" fill="#B1B1B1"/>
</g>
<g style="mix-blend-mode:overlay">
<path d="M490.763 573.925L484.297 573.925L486.366 575.983L492.82 575.983L492.832 569.526L490.763 567.456L490.763 573.925Z" fill="#D4D5DA"/>
<path d="M494.866 578.029L488.412 578.029L490.469 580.099L496.935 580.099L496.935 573.63L494.866 571.572L494.866 578.029Z" fill="#D4D5DA"/>
<path d="M498.969 582.144L492.515 582.144L494.584 584.202L501.038 584.202L501.038 577.746L498.969 575.676L498.969 582.144Z" fill="#D4D5DA"/>
<path d="M503.083 586.25L496.617 586.25L498.686 588.32L505.152 588.32L505.152 581.851L503.083 579.781L503.083 586.25Z" fill="#D4D5DA"/>
<path d="M507.186 590.355L500.732 590.355L502.801 592.425L509.255 592.425L509.255 585.968L507.186 583.898L507.186 590.355Z" fill="#D4D5DA"/>
<path d="M511.301 594.471L504.835 594.471L506.904 596.541L513.37 596.541L513.37 590.073L511.301 588.003L511.301 594.471Z" fill="#D4D5DA"/>
<path d="M515.404 598.575L508.95 598.575L511.019 600.645L517.474 600.645L517.474 594.188L515.404 592.118L515.404 598.575Z" fill="#D4D5DA"/>
<path d="M519.519 602.691L513.053 602.691L515.122 604.761L521.576 604.761L521.576 598.293L519.519 596.223L519.519 602.691Z" fill="#D4D5DA"/>
<path d="M523.622 606.797L517.168 606.797L519.225 608.866L525.691 608.866L525.691 602.41L523.622 600.34L523.622 606.797Z" fill="#D4D5DA"/>
</g>
<g style="mix-blend-mode:overlay">
<path d="M626.501 466.901L626.501 460.433L624.432 462.503L624.432 468.959L630.886 468.959L632.955 466.901L626.501 466.901Z" fill="#D4D5DA"/>
<path d="M622.386 471.006L622.386 464.549L620.317 466.607L620.317 473.075L626.783 473.075L628.852 471.006L622.386 471.006Z" fill="#D4D5DA"/>
<path d="M618.284 475.109L618.284 468.652L616.215 470.722L616.215 477.179L622.681 477.179L624.738 475.109L618.284 475.109Z" fill="#D4D5DA"/>
<path d="M614.168 479.227L614.168 472.759L612.111 474.829L612.111 481.297L618.565 481.297L620.634 479.227L614.168 479.227Z" fill="#D4D5DA"/>
<path d="M610.066 483.332L610.066 476.875L607.997 478.945L607.997 485.402L614.463 485.402L616.52 483.332L610.066 483.332Z" fill="#D4D5DA"/>
<path d="M605.951 487.448L605.951 480.979L603.894 483.049L603.894 489.518L610.348 489.518L612.417 487.448L605.951 487.448Z" fill="#D4D5DA"/>
<path d="M601.849 491.551L601.849 485.095L599.78 487.165L599.78 493.621L606.246 493.621L608.303 491.551L601.849 491.551Z" fill="#D4D5DA"/>
<path d="M597.745 495.668L597.745 489.199L595.676 491.269L595.676 497.726L602.13 497.726L604.199 495.668L597.745 495.668Z" fill="#D4D5DA"/>
<path d="M593.631 499.773L593.631 493.316L591.562 495.375L591.562 501.843L598.027 501.843L600.097 499.773L593.631 499.773Z" fill="#D4D5DA"/>
</g>
<path d="M662.723 781.799C664.769 781.799 666.426 783.457 666.426 785.504C666.426 787.55 664.769 789.208 662.723 789.208L649.344 789.208C647.299 789.208 645.641 787.55 645.641 785.504C645.641 783.457 647.299 781.799 649.344 781.799L662.723 781.799Z" fill="url(#paint11_linear_19745_4697)"/>
<path d="M649.344 782.776L662.723 782.776C664.228 782.776 665.462 783.999 665.462 785.517C665.462 787.022 664.239 788.257 662.723 788.257L649.344 788.257C647.839 788.257 646.605 787.034 646.605 785.517C646.605 783.999 647.828 782.776 649.344 782.776Z" fill="url(#paint12_linear_19745_4697)"/>
<g style="mix-blend-mode:multiply">
<path d="M649.344 783.753L662.722 783.753C664.063 783.753 665.179 784.729 665.403 785.999C665.426 785.846 665.45 785.681 665.45 785.517C665.45 784.011 664.227 782.776 662.711 782.776L649.332 782.776C647.827 782.776 646.593 783.999 646.593 785.517C646.593 785.681 646.616 785.846 646.64 785.999C646.875 784.717 647.98 783.753 649.32 783.753L649.344 783.753Z" fill="#A39886"/>
</g>
<path d="M662.723 768.063C664.769 768.063 666.426 769.722 666.426 771.768C666.426 773.815 664.769 775.473 662.723 775.473L649.344 775.473C647.299 775.473 645.641 773.815 645.641 771.768C645.641 769.722 647.299 768.063 649.344 768.063L662.723 768.063Z" fill="url(#paint13_linear_19745_4697)"/>
<path d="M649.344 769.027L662.723 769.027C664.228 769.027 665.462 770.25 665.462 771.768C665.462 773.273 664.239 774.508 662.723 774.508L649.344 774.508C647.839 774.508 646.605 773.285 646.605 771.768C646.605 770.262 647.828 769.027 649.344 769.027Z" fill="url(#paint14_linear_19745_4697)"/>
<g style="mix-blend-mode:multiply">
<path d="M649.344 770.003L662.722 770.003C664.063 770.003 665.179 770.98 665.403 772.25C665.426 772.097 665.45 771.932 665.45 771.768C665.45 770.262 664.227 769.027 662.711 769.027L649.332 769.027C647.827 769.027 646.593 770.25 646.593 771.768C646.593 771.932 646.616 772.097 646.64 772.25C646.875 770.968 647.98 770.003 649.32 770.003L649.344 770.003Z" fill="#A39886"/>
</g>
<path d="M662.723 754.314C664.769 754.314 666.426 755.973 666.426 758.019C666.426 760.066 664.769 761.724 662.723 761.724L649.344 761.724C647.299 761.724 645.641 760.066 645.641 758.019C645.641 755.973 647.299 754.314 649.344 754.314L662.723 754.314Z" fill="url(#paint15_linear_19745_4697)"/>
<path d="M649.344 755.291L662.723 755.291C664.228 755.291 665.462 756.514 665.462 758.031C665.462 759.548 664.239 760.772 662.723 760.772L649.344 760.772C647.839 760.772 646.605 759.548 646.605 758.031C646.605 756.514 647.828 755.291 649.344 755.291Z" fill="url(#paint16_linear_19745_4697)"/>
<g style="mix-blend-mode:multiply">
<path d="M649.344 756.255L662.722 756.255C664.063 756.255 665.179 757.232 665.403 758.502C665.426 758.349 665.45 758.184 665.45 758.02C665.45 756.514 664.227 755.279 662.711 755.279L649.332 755.279C647.827 755.279 646.593 756.502 646.593 758.02C646.593 758.184 646.616 758.349 646.64 758.502C646.875 757.22 647.98 756.255 649.32 756.255L649.344 756.255Z" fill="#A39886"/>
</g>
<path d="M662.723 740.566C664.769 740.566 666.426 742.225 666.426 744.271C666.426 746.318 664.769 747.976 662.723 747.976L649.344 747.976C647.299 747.976 645.641 746.318 645.641 744.271C645.641 742.225 647.299 740.566 649.344 740.566L662.723 740.566Z" fill="url(#paint17_linear_19745_4697)"/>
<path d="M649.344 741.542L662.723 741.542C664.228 741.542 665.462 742.765 665.462 744.282C665.462 745.799 664.239 747.023 662.723 747.023L649.344 747.023C647.839 747.023 646.605 745.799 646.605 744.282C646.605 742.777 647.828 741.542 649.344 741.542Z" fill="url(#paint18_linear_19745_4697)"/>
<g style="mix-blend-mode:multiply">
<path d="M649.344 742.506L662.722 742.506C664.063 742.506 665.179 743.483 665.403 744.753C665.426 744.6 665.45 744.435 665.45 744.271C665.45 742.765 664.227 741.53 662.711 741.53L649.332 741.53C647.827 741.53 646.593 742.753 646.593 744.271C646.593 744.435 646.616 744.6 646.64 744.753C646.875 743.471 647.98 742.506 649.32 742.506L649.344 742.506Z" fill="#A39886"/>
</g>
<path d="M668.459 515.934L668.459 457.518L655.727 470.255L655.727 503.197L668.459 515.934Z" fill="url(#paint19_linear_19745_4697)"/>
<g style="mix-blend-mode:screen" opacity="0.77">
<path d="M655.727 470.254L655.727 503.196L659.172 506.642L659.172 466.808L655.727 470.254Z" fill="#243035"/>
</g>
<g style="mix-blend-mode:multiply">
<path d="M755.35 432.605L755.35 -4.74712L638.751 -4.74711L556.516 77.5321L523.645 77.5321L470.566 130.633L470.566 158.682L511.63 199.763L511.631 241.561L463.253 289.958L445.901 289.958L379.066 356.818L379.066 432.605L755.35 432.605Z" fill="#5B6668"/>
</g>
<path d="M383.945 427.725L383.945 358.841L447.923 294.838L465.275 294.838L516.509 243.584L516.509 197.74L475.445 156.659L475.445 132.655L525.668 82.4128L558.538 82.4128L640.774 0.145313L750.472 0.145309L750.472 427.725L383.945 427.725Z" fill="url(#paint20_radial_19745_4697)"/>
<g style="mix-blend-mode:multiply">
<path d="M732.578 423.385L732.578 10.0714L644.347 10.0714L588.352 66.0886L588.352 89.2693L607.326 89.2693L607.326 96.8552L574.409 96.8552L553.8 117.472L516.168 117.472L516.168 138.548L550.543 172.936L570.47 172.936L634.707 237.198L634.707 293.086L608.02 319.783L577.9 319.783L548.768 290.639L548.768 274.374L536.847 262.437L522.211 277.079L522.211 308.787L565.58 352.184L565.58 376.588L612.358 423.385L732.578 423.385Z" fill="#BDC9C9"/>
</g>
<path d="M692.996 418.504L614.381 418.504L570.46 374.565L570.46 350.161L527.091 306.775L527.091 279.102L536.848 269.34L543.89 276.397L543.89 292.662L575.879 324.664L610.043 324.664L639.587 295.109L639.587 235.175L572.493 168.044L552.566 168.044L521.06 136.525L521.06 122.353L555.823 122.353L576.432 101.736L612.206 101.736L612.206 84.3885L593.232 84.3885L593.232 68.1114L646.37 14.9521L727.7 14.9521L727.7 418.504L692.996 418.504Z" fill="url(#paint21_radial_19745_4697)"/>
<g style="mix-blend-mode:multiply">
<path d="M551.343 372.766L539.011 372.766L539.011 351.761L511.548 324.276L511.548 291.039L488.012 291.039L454.072 324.993L454.072 334.766L436.684 352.149L414.994 352.149L398.77 368.391L398.77 423.385L575.949 423.385L603.271 424.726L551.343 372.766Z" fill="#BDC9C9"/>
</g>
<path d="M576.067 418.505L403.649 418.505L403.649 370.415L417.016 357.031L438.706 357.031L458.951 336.779L458.951 327.017L490.034 295.921L506.658 295.921L506.658 326.3L534.132 353.785L534.132 377.648L549.321 377.648L590.88 419.234L576.067 418.505Z" fill="url(#paint22_radial_19745_4697)"/>
<path style="mix-blend-mode:overlay" d="M447.923 294.838L383.945 358.841L383.945 427.725L750.472 427.725L750.472 0.133559L640.774 0.133564L558.526 82.4129L525.656 82.4129L475.433 132.655L475.433 156.659L516.509 197.752L516.509 243.584L465.275 294.838L447.923 294.838ZM385.779 359.594L448.687 296.661L466.04 296.661L518.343 244.337L518.343 196.988L477.267 155.895L477.267 133.408L526.42 84.2358L559.291 84.2358L641.538 1.95653L748.638 1.95653L748.638 425.89L385.779 425.89L385.779 359.594Z" fill="url(#paint23_radial_19745_4697)"/>
<path style="mix-blend-mode:overlay" d="M555.823 122.353L521.06 122.353L521.06 136.525L552.578 168.056L572.505 168.056L639.598 235.175L639.598 295.109L610.043 324.675L575.879 324.675L543.89 292.674L543.89 276.397L536.837 269.34L527.079 279.102L527.079 306.764L570.46 350.161L570.46 374.565L614.381 418.504L692.996 418.504L727.7 418.504L727.7 14.9521L646.37 14.9521L593.232 68.1114L593.232 84.3885L612.206 84.3885L612.206 101.748L576.42 101.748L555.811 122.364L555.823 122.353ZM522.882 124.187L556.575 124.187L577.184 103.57L614.04 103.57L614.04 82.5538L595.066 82.5538L595.066 68.8759L647.134 16.7868L725.878 16.7868L725.878 416.669L693.007 416.669L615.145 416.669L572.294 373.812L572.294 349.409L528.913 306.011L528.913 279.866L536.848 271.928L542.068 277.15L542.068 293.427L575.127 326.498L610.795 326.498L641.421 295.861L641.421 234.411L573.258 166.221L553.331 166.221L522.882 135.76L522.882 124.176L522.882 124.187Z" fill="url(#paint24_radial_19745_4697)"/>
<path style="mix-blend-mode:overlay" d="M417.015 357.031L403.637 370.415L403.637 418.505L576.055 418.505L590.879 419.223L549.309 377.636L534.132 377.636L534.132 353.773L506.657 326.288L506.657 295.91L490.034 295.91L458.95 327.005L458.95 336.767L438.706 357.019L417.015 357.019L417.015 357.031ZM405.471 371.168L417.768 358.866L439.458 358.866L460.772 337.543L460.772 327.782L490.786 297.756L504.823 297.756L504.823 327.064L532.298 354.549L532.298 379.483L548.557 379.483L586.236 417.176L576.149 416.682L576.102 416.682L405.471 416.682L405.471 371.179L405.471 371.168Z" fill="url(#paint25_radial_19745_4697)"/>
<path d="M391.199 425.396L391.199 364.816L440.658 315.337C440.164 314.467 440.281 313.338 441.022 312.585C441.915 311.692 443.373 311.692 444.267 312.585C445.16 313.479 445.16 314.938 444.267 315.831C443.526 316.572 442.397 316.69 441.516 316.196L392.421 365.333L392.421 425.396C393.385 425.667 394.103 426.549 394.103 427.595C394.103 428.865 393.08 429.889 391.81 429.889C390.54 429.889 389.518 428.865 389.518 427.595C389.518 426.537 390.235 425.667 391.199 425.396Z" fill="url(#paint26_radial_19745_4697)"/>
<path d="M624.867 292.662C623.597 292.662 622.575 291.639 622.575 290.369C622.575 289.31 623.292 288.44 624.256 288.169L624.256 245.912L568.695 190.33C567.826 190.824 566.697 190.707 565.945 189.966C565.051 189.072 565.051 187.614 565.945 186.72C566.838 185.826 568.296 185.826 569.189 186.72C569.93 187.461 570.047 188.59 569.554 189.472L625.478 245.419L625.478 288.181C626.442 288.452 627.16 289.334 627.16 290.38C627.16 291.651 626.137 292.674 624.867 292.674L624.867 292.662Z" fill="url(#paint27_radial_19745_4697)"/>
<path d="M529.112 111.11C530.17 111.11 531.04 111.827 531.31 112.791L549.062 112.791L569.459 92.3862L595.241 92.3862C595.511 91.4218 596.393 90.7044 597.439 90.7044C598.709 90.7044 599.732 91.7276 599.732 92.9978C599.732 94.2679 598.709 95.2911 597.439 95.2911C596.381 95.2911 595.511 94.5737 595.241 93.6093L569.965 93.6093L549.568 114.014L531.31 114.014C531.04 114.979 530.158 115.696 529.112 115.696C527.842 115.696 526.819 114.673 526.819 113.403C526.819 112.133 527.842 111.11 529.112 111.11Z" fill="url(#paint28_radial_19745_4697)"/>
<path d="M413.431 430.547L413.431 382.445L426.527 369.344L447.406 369.344L469.826 346.916L469.826 330.368L487.977 312.209C487.484 311.339 487.601 310.21 488.342 309.457C489.235 308.563 490.693 308.563 491.587 309.457C492.48 310.351 492.48 311.809 491.587 312.703C490.846 313.444 489.717 313.562 488.836 313.068L471.048 330.862L471.048 347.41L447.924 370.543L427.044 370.543L414.665 382.927L414.665 430.547C415.629 430.818 416.346 431.7 416.346 432.747C416.346 434.017 415.323 435.04 414.054 435.04C412.784 435.04 411.761 434.017 411.761 432.747C411.761 431.688 412.478 430.818 413.442 430.547L413.431 430.547Z" fill="url(#paint29_radial_19745_4697)"/>
<path d="M543.89 302.071C544.631 302.812 544.748 303.941 544.254 304.823L584.99 345.575L584.99 363.651L620.776 399.452L640.292 399.452L640.292 430.277C641.256 430.547 641.973 431.429 641.973 432.476C641.973 433.746 640.95 434.77 639.68 434.77C638.411 434.77 637.388 433.746 637.388 432.476C637.388 431.418 638.105 430.547 639.069 430.277L639.069 400.675L620.271 400.675L583.767 364.157L583.767 346.081L543.384 305.682C542.515 306.176 541.386 306.058 540.633 305.317C539.74 304.423 539.74 302.965 540.633 302.071C541.527 301.177 542.985 301.177 543.878 302.071L543.89 302.071Z" fill="url(#paint30_radial_19745_4697)"/>
<g style="mix-blend-mode:overlay">
<path d="M621.506 434.7L552.861 366.028L552.861 349.48L518.979 315.586L518.979 271.929L537.954 252.947L537.954 191.367L494.303 147.71L494.303 130.904L531.159 94.0336L557.587 94.0336L669.695 -18.1183L668.531 -19.2826L556.905 92.3871L530.477 92.3871L492.657 130.222L492.657 148.393L536.308 192.049L536.308 252.253L517.321 271.247L517.321 316.268L551.215 350.163L551.215 366.71L620.342 435.864L621.506 434.7Z" fill="#C8C8C8"/>
<path d="M587.624 433.888L543.22 389.468L517.615 389.468L517.615 365.605L468.661 365.605L442.903 391.361L429.736 391.361L429.736 436.946L431.394 436.946L431.394 393.019L443.585 393.019L469.343 367.251L515.969 367.251L515.969 391.114L542.538 391.114L586.46 435.053L587.624 433.888Z" fill="#C8C8C8"/>
<path d="M692.995 331.157L658.314 331.157L658.314 218.217L594.606 154.485L594.606 125.083L631.204 125.083L631.204 71.5118L707.443 -4.75763L706.279 -5.92197L629.558 70.8297L629.558 123.436L592.96 123.436L592.96 155.167L656.668 218.899L656.668 332.804L692.995 332.804L692.995 331.157Z" fill="#C8C8C8"/>
</g>
<g style="mix-blend-mode:multiply">
<path d="M620.341 435.864L551.214 366.71L551.214 350.162L517.32 316.267L517.32 271.247L536.307 252.253L536.307 192.049L492.656 148.392L492.656 130.222L530.476 92.3869L556.904 92.3869L668.53 -19.2829L667.366 -20.4472L556.222 90.7404L529.794 90.7404L491.01 129.54L491.01 149.074L534.661 192.731L534.661 251.571L515.674 270.565L515.674 316.95L549.568 350.844L549.568 367.392L619.177 437.028L620.341 435.864Z" fill="#596B70"/>
<path d="M586.459 435.053L542.538 391.114L515.968 391.114L515.968 367.251L469.343 367.251L443.585 393.019L431.394 393.019L431.394 436.946L433.039 436.946L433.039 394.666L444.267 394.666L470.025 368.898L514.323 368.898L514.323 392.761L541.856 392.761L585.295 436.217L586.459 435.053Z" fill="#596B70"/>
<path d="M692.995 332.803L656.668 332.803L656.668 218.898L592.961 155.166L592.961 123.435L629.558 123.435L629.558 70.8286L706.28 -5.92304L705.116 -7.08735L627.912 70.1347L627.912 121.789L591.315 121.789L591.315 155.848L655.022 219.58L655.022 334.449L692.995 334.449L692.995 332.803Z" fill="#596B70"/>
</g>
<g style="mix-blend-mode:multiply">
<path d="M629.628 209.195L629.628 215.663L627.559 213.593L627.559 207.125L634.013 207.125L636.082 209.195L629.628 209.195Z" fill="#B1B1B1"/>
<path d="M625.514 205.09L625.514 211.547L623.445 209.477L623.445 203.02L629.911 203.02L631.98 205.09L625.514 205.09Z" fill="#B1B1B1"/>
<path d="M621.411 200.975L621.411 207.443L619.342 205.373L619.342 198.905L625.796 198.905L627.866 200.975L621.411 200.975Z" fill="#B1B1B1"/>
<path d="M617.296 196.869L617.296 203.326L615.227 201.256L615.227 194.8L621.693 194.8L623.762 196.869L617.296 196.869Z" fill="#B1B1B1"/>
<path d="M613.193 192.753L613.193 199.222L611.124 197.152L611.124 190.695L617.578 190.695L619.647 192.753L613.193 192.753Z" fill="#B1B1B1"/>
<path d="M609.079 188.649L609.079 195.105L607.021 193.047L607.021 186.579L613.476 186.579L615.545 188.649L609.079 188.649Z" fill="#B1B1B1"/>
<path d="M604.976 184.544L604.976 191.001L602.907 188.931L602.907 182.474L609.373 182.474L611.431 184.544L604.976 184.544Z" fill="#B1B1B1"/>
<path d="M600.861 180.428L600.861 186.896L598.803 184.827L598.803 178.358L605.257 178.358L607.327 180.428L600.861 180.428Z" fill="#B1B1B1"/>
<path d="M596.758 176.323L596.758 182.779L594.689 180.709L594.689 174.253L601.155 174.253L603.224 176.323L596.758 176.323Z" fill="#B1B1B1"/>
</g>
<g style="mix-blend-mode:overlay">
<path d="M490.762 283.713L484.296 283.713L486.365 281.655L492.819 281.655L492.831 288.112L490.762 290.182L490.762 283.713Z" fill="#D4D5DA"/>
<path d="M494.865 279.609L488.411 279.609L490.468 277.539L496.934 277.539L496.934 284.007L494.865 286.065L494.865 279.609Z" fill="#D4D5DA"/>
<path d="M498.968 275.493L492.514 275.493L494.583 273.435L501.037 273.435L501.037 279.892L498.968 281.962L498.968 275.493Z" fill="#D4D5DA"/>
<path d="M503.083 271.388L496.617 271.388L498.686 269.318L505.152 269.318L505.152 275.787L503.083 277.856L503.083 271.388Z" fill="#D4D5DA"/>
<path d="M507.185 267.283L500.731 267.283L502.8 265.214L509.254 265.214L509.254 271.67L507.185 273.74L507.185 267.283Z" fill="#D4D5DA"/>
<path d="M511.301 263.166L504.835 263.166L506.904 261.096L513.37 261.096L513.37 267.565L511.301 269.635L511.301 263.166Z" fill="#D4D5DA"/>
<path d="M515.403 259.064L508.949 259.064L511.018 256.994L517.473 256.994L517.473 263.451L515.403 265.521L515.403 259.064Z" fill="#D4D5DA"/>
<path d="M519.518 254.947L513.052 254.947L515.121 252.877L521.575 252.877L521.575 259.345L519.518 261.415L519.518 254.947Z" fill="#D4D5DA"/>
<path d="M523.621 250.841L517.167 250.841L519.224 248.771L525.69 248.771L525.69 255.228L523.621 257.298L523.621 250.841Z" fill="#D4D5DA"/>
</g>
<g style="mix-blend-mode:overlay">
<path d="M626.501 390.737L626.501 397.205L624.432 395.135L624.432 388.678L630.886 388.678L632.955 390.737L626.501 390.737Z" fill="#D4D5DA"/>
<path d="M622.386 386.632L622.386 393.089L620.317 391.031L620.317 384.562L626.783 384.562L628.852 386.632L622.386 386.632Z" fill="#D4D5DA"/>
<path d="M618.284 382.529L618.284 388.985L616.215 386.915L616.215 380.459L622.681 380.459L624.738 382.529L618.284 382.529Z" fill="#D4D5DA"/>
<path d="M614.168 378.411L614.168 384.88L612.111 382.81L612.111 376.341L618.565 376.341L620.634 378.411L614.168 378.411Z" fill="#D4D5DA"/>
<path d="M610.066 374.307L610.066 380.764L607.997 378.694L607.997 372.237L614.463 372.237L616.52 374.307L610.066 374.307Z" fill="#D4D5DA"/>
<path d="M605.951 370.19L605.951 376.658L603.894 374.588L603.894 368.12L610.348 368.12L612.417 370.19L605.951 370.19Z" fill="#D4D5DA"/>
<path d="M601.849 366.086L601.849 372.543L599.78 370.473L599.78 364.016L606.246 364.016L608.303 366.086L601.849 366.086Z" fill="#D4D5DA"/>
<path d="M597.745 361.97L597.745 368.438L595.676 366.369L595.676 359.912L602.13 359.912L604.199 361.97L597.745 361.97Z" fill="#D4D5DA"/>
<path d="M593.631 357.865L593.631 364.321L591.562 362.263L591.562 355.795L598.027 355.795L600.097 357.865L593.631 357.865Z" fill="#D4D5DA"/>
</g>
<path d="M662.723 75.8389C664.769 75.8389 666.426 74.1806 666.426 72.1342C666.426 70.0878 664.769 68.4295 662.723 68.4295L649.344 68.4295C647.299 68.4295 645.641 70.0878 645.641 72.1342C645.641 74.1806 647.299 75.8389 649.344 75.8389L662.723 75.8389Z" fill="url(#paint31_linear_19745_4697)"/>
<path d="M649.344 74.8633L662.723 74.8633C664.228 74.8633 665.462 73.6402 665.462 72.123C665.462 70.6176 664.239 69.3827 662.723 69.3827L649.344 69.3827C647.839 69.3827 646.605 70.6059 646.605 72.123C646.605 73.6402 647.828 74.8633 649.344 74.8633Z" fill="url(#paint32_linear_19745_4697)"/>
<g style="mix-blend-mode:multiply">
<path d="M649.344 73.8871L662.722 73.8871C664.063 73.8871 665.179 72.911 665.403 71.6408C665.426 71.7937 665.45 71.9584 665.45 72.123C665.45 73.6284 664.227 74.8633 662.711 74.8633L649.332 74.8633C647.827 74.8633 646.593 73.6402 646.593 72.123C646.593 71.9584 646.616 71.7937 646.64 71.6408C646.875 72.9227 647.98 73.8871 649.32 73.8871L649.344 73.8871Z" fill="#A39886"/>
</g>
<path d="M662.723 89.5752C664.769 89.5752 666.426 87.9169 666.426 85.8705C666.426 83.8241 664.769 82.1658 662.723 82.1658L649.344 82.1658C647.299 82.1658 645.641 83.8241 645.641 85.8705C645.641 87.9169 647.299 89.5752 649.344 89.5752L662.723 89.5752Z" fill="url(#paint33_linear_19745_4697)"/>
<path d="M649.344 88.6113L662.723 88.6113C664.228 88.6113 665.462 87.3882 665.462 85.8711C665.462 84.3657 664.239 83.1307 662.723 83.1307L649.344 83.1307C647.839 83.1307 646.605 84.3539 646.605 85.8711C646.605 87.3764 647.828 88.6113 649.344 88.6113Z" fill="url(#paint34_linear_19745_4697)"/>
<g style="mix-blend-mode:multiply">
<path d="M649.344 87.6352L662.722 87.6352C664.063 87.6352 665.179 86.659 665.403 85.3889C665.426 85.5417 665.45 85.7064 665.45 85.8711C665.45 87.3764 664.227 88.6113 662.711 88.6113L649.332 88.6113C647.827 88.6113 646.593 87.3882 646.593 85.8711C646.593 85.7064 646.616 85.5417 646.64 85.3889C646.875 86.6708 647.98 87.6352 649.32 87.6352L649.344 87.6352Z" fill="#A39886"/>
</g>
<path d="M662.723 103.324C664.769 103.324 666.426 101.666 666.426 99.6195C666.426 97.5731 664.769 95.9148 662.723 95.9148L649.344 95.9148C647.299 95.9148 645.641 97.5731 645.641 99.6195C645.641 101.666 647.299 103.324 649.344 103.324L662.723 103.324Z" fill="url(#paint35_linear_19745_4697)"/>
<path d="M649.344 102.348L662.723 102.348C664.228 102.348 665.462 101.125 665.462 99.6074C665.462 98.0902 664.239 96.8671 662.723 96.8671L649.344 96.8671C647.839 96.8671 646.605 98.0902 646.605 99.6074C646.605 101.125 647.828 102.348 649.344 102.348Z" fill="url(#paint36_linear_19745_4697)"/>
<g style="mix-blend-mode:multiply">
<path d="M649.344 101.382L662.722 101.382C664.063 101.382 665.179 100.406 665.403 99.1359C665.426 99.2888 665.45 99.4534 665.45 99.6181C665.45 101.123 664.227 102.358 662.711 102.358L649.332 102.358C647.827 102.358 646.593 101.135 646.593 99.6181C646.593 99.4534 646.616 99.2888 646.64 99.1359C646.875 100.418 647.98 101.382 649.32 101.382L649.344 101.382Z" fill="#A39886"/>
</g>
<path d="M662.723 117.071C664.769 117.071 666.426 115.413 666.426 113.367C666.426 111.32 664.769 109.662 662.723 109.662L649.344 109.662C647.299 109.662 645.641 111.32 645.641 113.367C645.641 115.413 647.299 117.071 649.344 117.071L662.723 117.071Z" fill="url(#paint37_linear_19745_4697)"/>
<path d="M649.344 116.097L662.723 116.097C664.228 116.097 665.462 114.874 665.462 113.356C665.462 111.839 664.239 110.616 662.723 110.616L649.344 110.616C647.839 110.616 646.605 111.839 646.605 113.356C646.605 114.862 647.828 116.097 649.344 116.097Z" fill="url(#paint38_linear_19745_4697)"/>
<g style="mix-blend-mode:multiply">
<path d="M649.344 115.131L662.722 115.131C664.063 115.131 665.179 114.155 665.403 112.885C665.426 113.038 665.45 113.202 665.45 113.367C665.45 114.873 664.227 116.107 662.711 116.107L649.332 116.107C647.827 116.107 646.593 114.884 646.593 113.367C646.593 113.202 646.616 113.038 646.64 112.885C646.875 114.167 647.98 115.131 649.32 115.131L649.344 115.131Z" fill="#A39886"/>
</g>
<path d="M668.459 341.705L668.459 400.121L655.727 387.384L655.727 354.442L668.459 341.705Z" fill="url(#paint39_linear_19745_4697)"/>
<g style="mix-blend-mode:screen" opacity="0.77">
<path d="M655.727 387.385L655.727 354.443L659.172 350.997L659.172 390.831L655.727 387.385Z" fill="#243035"/>
</g>
<path d="M389.554 336.338C389.554 259.556 394.547 261.341 420.221 258.582C394.547 255.824 392.311 253.587 389.554 227.904C386.797 253.587 384.561 255.824 358.887 258.582C384.561 261.341 389.554 259.544 389.554 336.338Z" fill="#A9700B"/>
</g>
<defs>
<radialGradient id="paint0_radial_19745_4697" cx="0" cy="0" r="1" gradientUnits="userSpaceOnUse" gradientTransform="translate(409.974 755.349) rotate(-180) scale(362.858 363)">
<stop stop-color="#243035"/>
<stop offset="1" stop-color="#12181E"/>
</radialGradient>
<radialGradient id="paint1_radial_19745_4697" cx="0" cy="0" r="1" gradientUnits="userSpaceOnUse" gradientTransform="translate(439.436 798.924) rotate(-180) scale(315.81 315.933)">
<stop stop-color="#3E5055"/>
<stop offset="1" stop-color="#1B2429"/>
</radialGradient>
<radialGradient id="paint2_radial_19745_4697" cx="0" cy="0" r="1" gradientUnits="userSpaceOnUse" gradientTransform="translate(421.366 584.852) rotate(-180) scale(222.77 222.857)">
<stop stop-color="#2C3B41"/>
<stop offset="1" stop-color="#12181E"/>
</radialGradient>
<radialGradient id="paint3_radial_19745_4697" cx="0" cy="0" r="1" gradientUnits="userSpaceOnUse" gradientTransform="translate(442.503 749.927) rotate(-180) scale(340.063 340.196)">
<stop stop-color="#D4D5DA"/>
<stop offset="0.09" stop-color="#C4C7CC"/>
<stop offset="0.48" stop-color="#818C91"/>
<stop offset="0.77" stop-color="#57676C"/>
<stop offset="0.92" stop-color="#47595E"/>
</radialGradient>
<radialGradient id="paint4_radial_19745_4697" cx="0" cy="0" r="1" gradientUnits="userSpaceOnUse" gradientTransform="translate(451.18 754.809) rotate(-180) scale(338.77 338.902)">
<stop stop-color="#D4D5DA"/>
<stop offset="0.09" stop-color="#C4C7CC"/>
<stop offset="0.48" stop-color="#818C91"/>
<stop offset="0.77" stop-color="#57676C"/>
<stop offset="0.92" stop-color="#47595E"/>
</radialGradient>
<radialGradient id="paint5_radial_19745_4697" cx="0" cy="0" r="1" gradientUnits="userSpaceOnUse" gradientTransform="translate(456.599 561.177) rotate(-180) scale(182.387 182.459)">
<stop stop-color="#D4D5DA"/>
<stop offset="0.09" stop-color="#C4C7CC"/>
<stop offset="0.48" stop-color="#818C91"/>
<stop offset="0.77" stop-color="#57676C"/>
<stop offset="0.92" stop-color="#47595E"/>
</radialGradient>
<radialGradient id="paint6_radial_19745_4697" cx="0" cy="0" r="1" gradientUnits="userSpaceOnUse" gradientTransform="translate(447.383 560.272) rotate(-180) scale(124.711 124.76)">
<stop stop-color="#FBEA98"/>
<stop offset="0.19" stop-color="#F0D35F"/>
<stop offset="0.36" stop-color="#E8C236"/>
<stop offset="0.45" stop-color="#E5BC26"/>
<stop offset="1" stop-color="#A86A07"/>
</radialGradient>
<radialGradient id="paint7_radial_19745_4697" cx="0" cy="0" r="1" gradientUnits="userSpaceOnUse" gradientTransform="translate(544.254 686.831) rotate(-180) scale(132.082 132.134)">
<stop stop-color="#FBEA98"/>
<stop offset="0.19" stop-color="#F0D35F"/>
<stop offset="0.36" stop-color="#E8C236"/>
<stop offset="0.45" stop-color="#E5BC26"/>
<stop offset="1" stop-color="#A86A07"/>
</radialGradient>
<radialGradient id="paint8_radial_19745_4697" cx="0" cy="0" r="1" gradientUnits="userSpaceOnUse" gradientTransform="translate(486.425 748.304) rotate(-180) scale(174.852 174.92)">
<stop stop-color="#FBEA98"/>
<stop offset="0.19" stop-color="#F0D35F"/>
<stop offset="0.36" stop-color="#E8C236"/>
<stop offset="0.45" stop-color="#E5BC26"/>
<stop offset="1" stop-color="#A86A07"/>
</radialGradient>
<radialGradient id="paint9_radial_19745_4697" cx="0" cy="0" r="1" gradientUnits="userSpaceOnUse" gradientTransform="translate(482.087 564.612) rotate(-180) scale(114.53 114.575)">
<stop stop-color="#FBEA98"/>
<stop offset="0.19" stop-color="#F0D35F"/>
<stop offset="0.36" stop-color="#E8C236"/>
<stop offset="0.45" stop-color="#E5BC26"/>
<stop offset="1" stop-color="#A86A07"/>
</radialGradient>
<radialGradient id="paint10_radial_19745_4697" cx="0" cy="0" r="1" gradientUnits="userSpaceOnUse" gradientTransform="translate(500.157 579.795) rotate(-180) scale(132.141 132.193)">
<stop stop-color="#FBEA98"/>
<stop offset="0.19" stop-color="#F0D35F"/>
<stop offset="0.36" stop-color="#E8C236"/>
<stop offset="0.45" stop-color="#E5BC26"/>
<stop offset="1" stop-color="#A86A07"/>
</radialGradient>
<linearGradient id="paint11_linear_19745_4697" x1="656.045" y1="790.655" x2="656.045" y2="783.022" gradientUnits="userSpaceOnUse">
<stop stop-color="#D4D5DA"/>
<stop offset="0.11" stop-color="#929CA1"/>
<stop offset="0.19" stop-color="#69787D"/>
<stop offset="0.24" stop-color="#596B70"/>
<stop offset="1" stop-color="#12181E"/>
</linearGradient>
<linearGradient id="paint12_linear_19745_4697" x1="656.045" y1="789.304" x2="656.045" y2="783.682" gradientUnits="userSpaceOnUse">
<stop stop-color="#FBEA98"/>
<stop offset="0.19" stop-color="#F0D35F"/>
<stop offset="0.36" stop-color="#E8C236"/>
<stop offset="0.45" stop-color="#E5BC26"/>
<stop offset="1" stop-color="#A86A07"/>
</linearGradient>
<linearGradient id="paint13_linear_19745_4697" x1="656.045" y1="776.908" x2="656.045" y2="769.287" gradientUnits="userSpaceOnUse">
<stop stop-color="#D4D5DA"/>
<stop offset="0.11" stop-color="#929CA1"/>
<stop offset="0.19" stop-color="#69787D"/>
<stop offset="0.24" stop-color="#596B70"/>
<stop offset="1" stop-color="#12181E"/>
</linearGradient>
<linearGradient id="paint14_linear_19745_4697" x1="656.045" y1="775.555" x2="656.045" y2="769.933" gradientUnits="userSpaceOnUse">
<stop stop-color="#FBEA98"/>
<stop offset="0.19" stop-color="#F0D35F"/>
<stop offset="0.36" stop-color="#E8C236"/>
<stop offset="0.45" stop-color="#E5BC26"/>
<stop offset="1" stop-color="#A86A07"/>
</linearGradient>
<linearGradient id="paint15_linear_19745_4697" x1="656.045" y1="763.159" x2="656.045" y2="755.538" gradientUnits="userSpaceOnUse">
<stop stop-color="#D4D5DA"/>
<stop offset="0.11" stop-color="#929CA1"/>
<stop offset="0.19" stop-color="#69787D"/>
<stop offset="0.24" stop-color="#596B70"/>
<stop offset="1" stop-color="#12181E"/>
</linearGradient>
<linearGradient id="paint16_linear_19745_4697" x1="656.045" y1="761.818" x2="656.045" y2="756.185" gradientUnits="userSpaceOnUse">
<stop stop-color="#FBEA98"/>
<stop offset="0.19" stop-color="#F0D35F"/>
<stop offset="0.36" stop-color="#E8C236"/>
<stop offset="0.45" stop-color="#E5BC26"/>
<stop offset="1" stop-color="#A86A07"/>
</linearGradient>
<linearGradient id="paint17_linear_19745_4697" x1="656.045" y1="749.422" x2="656.045" y2="741.79" gradientUnits="userSpaceOnUse">
<stop stop-color="#D4D5DA"/>
<stop offset="0.11" stop-color="#929CA1"/>
<stop offset="0.19" stop-color="#69787D"/>
<stop offset="0.24" stop-color="#596B70"/>
<stop offset="1" stop-color="#12181E"/>
</linearGradient>
<linearGradient id="paint18_linear_19745_4697" x1="656.045" y1="748.069" x2="656.045" y2="742.448" gradientUnits="userSpaceOnUse">
<stop stop-color="#FBEA98"/>
<stop offset="0.19" stop-color="#F0D35F"/>
<stop offset="0.36" stop-color="#E8C236"/>
<stop offset="0.45" stop-color="#E5BC26"/>
<stop offset="1" stop-color="#A86A07"/>
</linearGradient>
<linearGradient id="paint19_linear_19745_4697" x1="684.72" y1="486.667" x2="660.313" y2="486.667" gradientUnits="userSpaceOnUse">
<stop stop-color="#1B2429"/>
<stop offset="0.99" stop-color="#0A0E11"/>
</linearGradient>
<radialGradient id="paint20_radial_19745_4697" cx="0" cy="0" r="1" gradientUnits="userSpaceOnUse" gradientTransform="translate(409.974 102.289) rotate(180) scale(362.858 363)">
<stop stop-color="#243035"/>
<stop offset="1" stop-color="#12181E"/>
</radialGradient>
<radialGradient id="paint21_radial_19745_4697" cx="0" cy="0" r="1" gradientUnits="userSpaceOnUse" gradientTransform="translate(439.436 58.7145) rotate(180) scale(315.81 315.933)">
<stop stop-color="#3E5055"/>
<stop offset="1" stop-color="#1B2429"/>
</radialGradient>
<radialGradient id="paint22_radial_19745_4697" cx="0" cy="0" r="1" gradientUnits="userSpaceOnUse" gradientTransform="translate(421.366 272.788) rotate(180) scale(222.77 222.857)">
<stop stop-color="#2C3B41"/>
<stop offset="1" stop-color="#12181E"/>
</radialGradient>
<radialGradient id="paint23_radial_19745_4697" cx="0" cy="0" r="1" gradientUnits="userSpaceOnUse" gradientTransform="translate(442.503 107.711) rotate(180) scale(340.063 340.196)">
<stop stop-color="#D4D5DA"/>
<stop offset="0.09" stop-color="#C4C7CC"/>
<stop offset="0.48" stop-color="#818C91"/>
<stop offset="0.77" stop-color="#57676C"/>
<stop offset="0.92" stop-color="#47595E"/>
</radialGradient>
<radialGradient id="paint24_radial_19745_4697" cx="0" cy="0" r="1" gradientUnits="userSpaceOnUse" gradientTransform="translate(451.18 102.83) rotate(180) scale(338.77 338.902)">
<stop stop-color="#D4D5DA"/>
<stop offset="0.09" stop-color="#C4C7CC"/>
<stop offset="0.48" stop-color="#818C91"/>
<stop offset="0.77" stop-color="#57676C"/>
<stop offset="0.92" stop-color="#47595E"/>
</radialGradient>
<radialGradient id="paint25_radial_19745_4697" cx="0" cy="0" r="1" gradientUnits="userSpaceOnUse" gradientTransform="translate(456.599 296.462) rotate(180) scale(182.387 182.459)">
<stop stop-color="#D4D5DA"/>
<stop offset="0.09" stop-color="#C4C7CC"/>
<stop offset="0.48" stop-color="#818C91"/>
<stop offset="0.77" stop-color="#57676C"/>
<stop offset="0.92" stop-color="#47595E"/>
</radialGradient>
<radialGradient id="paint26_radial_19745_4697" cx="0" cy="0" r="1" gradientUnits="userSpaceOnUse" gradientTransform="translate(447.382 297.367) rotate(180) scale(124.711 124.76)">
<stop stop-color="#FBEA98"/>
<stop offset="0.19" stop-color="#F0D35F"/>
<stop offset="0.36" stop-color="#E8C236"/>
<stop offset="0.45" stop-color="#E5BC26"/>
<stop offset="1" stop-color="#A86A07"/>
</radialGradient>
<radialGradient id="paint27_radial_19745_4697" cx="0" cy="0" r="1" gradientUnits="userSpaceOnUse" gradientTransform="translate(544.254 170.807) rotate(180) scale(132.082 132.134)">
<stop stop-color="#FBEA98"/>
<stop offset="0.19" stop-color="#F0D35F"/>
<stop offset="0.36" stop-color="#E8C236"/>
<stop offset="0.45" stop-color="#E5BC26"/>
<stop offset="1" stop-color="#A86A07"/>
</radialGradient>
<radialGradient id="paint28_radial_19745_4697" cx="0" cy="0" r="1" gradientUnits="userSpaceOnUse" gradientTransform="translate(486.425 109.334) rotate(180) scale(174.852 174.92)">
<stop stop-color="#FBEA98"/>
<stop offset="0.19" stop-color="#F0D35F"/>
<stop offset="0.36" stop-color="#E8C236"/>
<stop offset="0.45" stop-color="#E5BC26"/>
<stop offset="1" stop-color="#A86A07"/>
</radialGradient>
<radialGradient id="paint29_radial_19745_4697" cx="0" cy="0" r="1" gradientUnits="userSpaceOnUse" gradientTransform="translate(482.087 293.027) rotate(180) scale(114.53 114.575)">
<stop stop-color="#FBEA98"/>
<stop offset="0.19" stop-color="#F0D35F"/>
<stop offset="0.36" stop-color="#E8C236"/>
<stop offset="0.45" stop-color="#E5BC26"/>
<stop offset="1" stop-color="#A86A07"/>
</radialGradient>
<radialGradient id="paint30_radial_19745_4697" cx="0" cy="0" r="1" gradientUnits="userSpaceOnUse" gradientTransform="translate(500.157 277.844) rotate(180) scale(132.141 132.193)">
<stop stop-color="#FBEA98"/>
<stop offset="0.19" stop-color="#F0D35F"/>
<stop offset="0.36" stop-color="#E8C236"/>
<stop offset="0.45" stop-color="#E5BC26"/>
<stop offset="1" stop-color="#A86A07"/>
</radialGradient>
<linearGradient id="paint31_linear_19745_4697" x1="656.045" y1="66.9829" x2="656.045" y2="74.6157" gradientUnits="userSpaceOnUse">
<stop stop-color="#D4D5DA"/>
<stop offset="0.11" stop-color="#929CA1"/>
<stop offset="0.19" stop-color="#69787D"/>
<stop offset="0.24" stop-color="#596B70"/>
<stop offset="1" stop-color="#12181E"/>
</linearGradient>
<linearGradient id="paint32_linear_19745_4697" x1="656.045" y1="68.336" x2="656.045" y2="73.9577" gradientUnits="userSpaceOnUse">
<stop stop-color="#FBEA98"/>
<stop offset="0.19" stop-color="#F0D35F"/>
<stop offset="0.36" stop-color="#E8C236"/>
<stop offset="0.45" stop-color="#E5BC26"/>
<stop offset="1" stop-color="#A86A07"/>
</linearGradient>
<linearGradient id="paint33_linear_19745_4697" x1="656.045" y1="80.731" x2="656.045" y2="88.3521" gradientUnits="userSpaceOnUse">
<stop stop-color="#D4D5DA"/>
<stop offset="0.11" stop-color="#929CA1"/>
<stop offset="0.19" stop-color="#69787D"/>
<stop offset="0.24" stop-color="#596B70"/>
<stop offset="1" stop-color="#12181E"/>
</linearGradient>
<linearGradient id="paint34_linear_19745_4697" x1="656.045" y1="82.084" x2="656.045" y2="87.7057" gradientUnits="userSpaceOnUse">
<stop stop-color="#FBEA98"/>
<stop offset="0.19" stop-color="#F0D35F"/>
<stop offset="0.36" stop-color="#E8C236"/>
<stop offset="0.45" stop-color="#E5BC26"/>
<stop offset="1" stop-color="#A86A07"/>
</linearGradient>
<linearGradient id="paint35_linear_19745_4697" x1="656.045" y1="94.48" x2="656.045" y2="102.101" gradientUnits="userSpaceOnUse">
<stop stop-color="#D4D5DA"/>
<stop offset="0.11" stop-color="#929CA1"/>
<stop offset="0.19" stop-color="#69787D"/>
<stop offset="0.24" stop-color="#596B70"/>
<stop offset="1" stop-color="#12181E"/>
</linearGradient>
<linearGradient id="paint36_linear_19745_4697" x1="656.045" y1="95.8204" x2="656.045" y2="101.454" gradientUnits="userSpaceOnUse">
<stop stop-color="#FBEA98"/>
<stop offset="0.19" stop-color="#F0D35F"/>
<stop offset="0.36" stop-color="#E8C236"/>
<stop offset="0.45" stop-color="#E5BC26"/>
<stop offset="1" stop-color="#A86A07"/>
</linearGradient>
<linearGradient id="paint37_linear_19745_4697" x1="656.045" y1="108.215" x2="656.045" y2="115.848" gradientUnits="userSpaceOnUse">
<stop stop-color="#D4D5DA"/>
<stop offset="0.11" stop-color="#929CA1"/>
<stop offset="0.19" stop-color="#69787D"/>
<stop offset="0.24" stop-color="#596B70"/>
<stop offset="1" stop-color="#12181E"/>
</linearGradient>
<linearGradient id="paint38_linear_19745_4697" x1="656.045" y1="109.569" x2="656.045" y2="115.191" gradientUnits="userSpaceOnUse">
<stop stop-color="#FBEA98"/>
<stop offset="0.19" stop-color="#F0D35F"/>
<stop offset="0.36" stop-color="#E8C236"/>
<stop offset="0.45" stop-color="#E5BC26"/>
<stop offset="1" stop-color="#A86A07"/>
</linearGradient>
<linearGradient id="paint39_linear_19745_4697" x1="684.72" y1="370.972" x2="660.313" y2="370.972" gradientUnits="userSpaceOnUse">
<stop stop-color="#1B2429"/>
<stop offset="0.99" stop-color="#0A0E11"/>
</linearGradient>
<clipPath id="clip0_19745_4697">
<rect width="862.129" height="370" fill="white" transform="matrix(-4.37114e-08 1 1 4.37114e-08 351.001 0)"/>
</clipPath>
</defs>
</svg>
