<svg width="46" height="46" viewBox="0 0 46 46" fill="none" xmlns="http://www.w3.org/2000/svg">
<g filter="url(#filter0_bi_21633_25502)">
<circle cx="23" cy="23" r="23" fill="#FFF2D0" fill-opacity="0.4"/>
</g>
<circle cx="23" cy="23" r="14" fill="url(#paint0_linear_21633_25502)"/>
<circle cx="23" cy="23" r="19.75" stroke="url(#paint1_linear_21633_25502)" stroke-width="0.5"/>
<path fill-rule="evenodd" clip-rule="evenodd" d="M18.6562 16.4508L28 15V27.2926C28 28.3066 27.2147 29.123 25.9859 29.435C24.6931 29.7574 23.3896 29.1854 23.1331 28.239C22.8767 27.2302 23.7208 26.1538 25.0777 25.8418C25.6654 25.6494 26.2477 25.7222 26.7606 25.8418V18.4735L19.9491 19.6695L19.885 28.9358C19.885 29.7626 19.1103 30.6361 17.8816 30.8857C16.5781 31.2705 15.2158 30.6361 15.0288 29.6898C14.8311 28.7434 15.6699 27.6774 16.9734 27.355C17.6145 27.173 18.2021 27.2354 18.6562 27.355V16.4508Z" fill="white"/>
<defs>
<filter id="filter0_bi_21633_25502" x="-4" y="-4" width="54" height="54" filterUnits="userSpaceOnUse" color-interpolation-filters="sRGB">
<feFlood flood-opacity="0" result="BackgroundImageFix"/>
<feGaussianBlur in="BackgroundImageFix" stdDeviation="2"/>
<feComposite in2="SourceAlpha" operator="in" result="effect1_backgroundBlur_21633_25502"/>
<feBlend mode="normal" in="SourceGraphic" in2="effect1_backgroundBlur_21633_25502" result="shape"/>
<feColorMatrix in="SourceAlpha" type="matrix" values="0 0 0 0 0 0 0 0 0 0 0 0 0 0 0 0 0 0 127 0" result="hardAlpha"/>
<feOffset/>
<feGaussianBlur stdDeviation="3"/>
<feComposite in2="hardAlpha" operator="arithmetic" k2="-1" k3="1"/>
<feColorMatrix type="matrix" values="0 0 0 0 1 0 0 0 0 0.886018 0 0 0 0 0.59292 0 0 0 1 0"/>
<feBlend mode="normal" in2="shape" result="effect2_innerShadow_21633_25502"/>
</filter>
<linearGradient id="paint0_linear_21633_25502" x1="23" y1="9" x2="23" y2="37" gradientUnits="userSpaceOnUse">
<stop stop-color="#FFE33E"/>
<stop offset="1" stop-color="#FAAC07"/>
</linearGradient>
<linearGradient id="paint1_linear_21633_25502" x1="23" y1="3" x2="23" y2="43" gradientUnits="userSpaceOnUse">
<stop stop-color="white"/>
<stop offset="0.475" stop-color="white" stop-opacity="0"/>
<stop offset="1" stop-color="white" stop-opacity="0.5"/>
</linearGradient>
</defs>
</svg>
