<svg width="167" height="47" viewBox="0 0 167 47" fill="none" xmlns="http://www.w3.org/2000/svg">
<mask id="mask0_21614_9218" style="mask-type:alpha" maskUnits="userSpaceOnUse" x="0" y="0" width="167" height="47">
<path d="M0 23.5C0 10.5213 10.5213 0 23.5 0H143.5C156.479 0 167 10.5213 167 23.5C167 36.4787 156.479 47 143.5 47H23.5C10.5213 47 0 36.4787 0 23.5Z" fill="url(#paint0_linear_21614_9218)"/>
</mask>
<g mask="url(#mask0_21614_9218)">
<path d="M55.6227 27.2022L64.5485 12H41.7021L49.3213 20.3195L51.5735 16.4423H55.9829L51.8268 23.1141L55.6227 27.2022Z" fill="black"/>
<path d="M43.5996 19.6636L35 33.9593L56.7302 33.9999L49.8305 26.5099L47.823 30.0218H43.4135L47.2654 23.6934L43.5996 19.6636Z" fill="black"/>
<path d="M69.7068 29.5719H67.6426L70.4636 24.7405L67.6701 19.9912H69.7342L71.647 23.4539H71.8948L73.8075 19.9912H75.8717L73.0782 24.7405L75.8992 29.5719H73.835L71.8948 26.0271H71.647L69.7068 29.5719Z" fill="black"/>
<path d="M79.4776 29.5719H77.6611V19.9912H81.6243C83.4407 19.9912 84.7068 21.1409 84.7068 22.9338V23.1255C84.7068 24.9184 83.3857 26.0681 81.6243 26.0681H79.4776V29.5719ZM79.4776 21.6336V24.4257H81.4454C82.2986 24.4257 82.8903 23.9193 82.8903 23.0981V22.9612C82.8903 22.14 82.3123 21.6336 81.4454 21.6336H79.4776Z" fill="black"/>
<path d="M87.7652 29.5709H86.0312V22.7823H87.7376V23.5487H87.9853C88.178 23.0013 88.6734 22.7549 89.3066 22.7549H90.1319V24.2878H89.2791C88.3981 24.2878 87.7652 24.7532 87.7652 25.7112V29.5709Z" fill="black"/>
<path d="M94.7412 29.7625C92.7044 29.7625 91.1631 28.4759 91.1631 26.286V26.067C91.1631 23.8771 92.7044 22.5906 94.7412 22.5906C96.7775 22.5906 98.3188 23.8771 98.3188 26.067V26.286C98.3188 28.4759 96.7775 29.7625 94.7412 29.7625ZM94.7412 28.2295C95.8006 28.2295 96.585 27.5178 96.585 26.2449V26.1081C96.585 24.8352 95.8146 24.1235 94.7412 24.1235C93.6678 24.1235 92.8969 24.8352 92.8969 26.1081V26.2449C92.8969 27.5178 93.6813 28.2295 94.7412 28.2295Z" fill="black"/>
<path d="M104.495 29.5707H102.569C101.66 29.5707 101.055 28.9685 101.055 28.0378V24.2055H99.3486V22.7821H101.055V20.6743H102.789V22.7821H104.661V24.2055H102.789V27.7367C102.789 28.0104 102.926 28.1473 103.174 28.1473H104.495V29.5707Z" fill="black"/>
<path d="M109.486 29.7625C107.45 29.7625 105.908 28.4759 105.908 26.286V26.067C105.908 23.8771 107.45 22.5906 109.486 22.5906C111.523 22.5906 113.064 23.8771 113.064 26.067V26.286C113.064 28.4759 111.523 29.7625 109.486 29.7625ZM109.486 28.2295C110.546 28.2295 111.33 27.5178 111.33 26.2449V26.1081C111.33 24.8352 110.559 24.1235 109.486 24.1235C108.412 24.1235 107.642 24.8352 107.642 26.1081V26.2449C107.642 27.5178 108.426 28.2295 109.486 28.2295Z" fill="black"/>
<path d="M117.905 29.7625C115.924 29.7625 114.368 28.4896 114.368 26.2723V26.0807C114.368 23.8634 115.924 22.5906 117.905 22.5906C119.859 22.5906 121.001 23.7129 121.29 25.2185L119.611 25.5743C119.501 24.7531 118.992 24.1235 117.946 24.1235C116.9 24.1235 116.102 24.8216 116.102 26.1081V26.2449C116.102 27.5315 116.9 28.2295 117.946 28.2295C118.992 28.2295 119.501 27.641 119.653 26.7651L121.331 27.162C120.973 28.6264 119.859 29.7625 117.905 29.7625Z" fill="black"/>
<path d="M126.02 29.7625C123.984 29.7625 122.442 28.4759 122.442 26.286V26.067C122.442 23.8771 123.984 22.5906 126.02 22.5906C128.057 22.5906 129.598 23.8771 129.598 26.067V26.286C129.598 28.4759 128.057 29.7625 126.02 29.7625ZM126.02 28.2295C127.08 28.2295 127.864 27.5178 127.864 26.2449V26.1081C127.864 24.8352 127.093 24.1235 126.02 24.1235C124.947 24.1235 124.176 24.8352 124.176 26.1081V26.2449C124.176 27.5178 124.961 28.2295 126.02 28.2295Z" fill="black"/>
<path d="M132.967 29.5719H131.232V19.9912H132.967V29.5719Z" fill="black"/>
</g>
<defs>
<linearGradient id="paint0_linear_21614_9218" x1="80.732" y1="0" x2="80.732" y2="47" gradientUnits="userSpaceOnUse">
<stop stop-color="#FFE169"/>
<stop offset="0.99" stop-color="#F7B72E"/>
</linearGradient>
</defs>
</svg>
