<svg width="167" height="47" viewBox="0 0 167 47" fill="none" xmlns="http://www.w3.org/2000/svg">
<mask id="mask0_22019_2899" style="mask-type:alpha" maskUnits="userSpaceOnUse" x="0" y="0" width="167" height="47">
<rect width="167" height="47" rx="23.5" fill="url(#paint0_linear_22019_2899)"/>
</mask>
<g mask="url(#mask0_22019_2899)">
</g>
<g clip-path="url(#clip0_22019_2899)">
<path d="M61.8615 21.0318C62.5046 21.0318 63.1146 20.8843 63.6543 20.5913C65.4285 20.081 66.5472 18.8864 66.7229 17.3107C66.9276 15.4768 65.8131 13.5035 63.9996 12.4442C64.0348 12.4257 64.0803 12.4032 64.134 12.3765C64.3098 12.2884 64.4773 12.2065 64.5724 12.0835C65.6828 10.9852 65.3189 9.57752 64.4628 8.66979C64.4546 8.66159 64.4297 8.6411 64.4194 8.63495C64.3036 8.55914 64.1899 8.47718 64.0761 8.39521C63.9976 8.33989 63.919 8.28456 63.8384 8.22924C63.8487 8.21285 63.8549 8.19645 63.8549 8.17801V7.15348C63.8549 7.0961 63.8094 7.05103 63.7515 7.05103H62.7176C62.6597 7.05103 62.6142 7.0961 62.6142 7.15348V7.68829C62.5956 7.68624 62.577 7.68214 62.5584 7.68009C62.5522 7.68009 62.5439 7.68009 62.5377 7.68009C62.4984 7.68009 62.4591 7.68419 62.4219 7.68829C61.6961 7.74976 61.1916 8.06326 61.0365 8.54479C61.0282 8.57143 61.0158 8.60422 61.0055 8.6329C60.8959 8.54684 60.778 8.46488 60.6519 8.39316C60.168 8.11449 59.6531 7.99565 59.1651 8.04892C58.8157 8.08785 58.4952 8.2108 58.2139 8.41775C58.1602 8.44439 58.1126 8.47513 58.0651 8.50791V7.77025C58.0651 7.71287 58.0196 7.66779 57.9617 7.66779H56.9298C56.8719 7.66779 56.8265 7.71287 56.8265 7.77025V8.79478C56.8265 8.85216 56.8719 8.89723 56.9298 8.89723H57.697C57.5336 9.17386 57.4819 9.51605 57.5605 9.89513C57.728 10.6984 58.4952 11.5877 59.3864 11.6327C59.924 11.6102 60.0832 11.4032 60.1225 11.2332C60.1846 10.9688 59.9633 10.6656 59.5518 10.4443C59.5187 10.4258 59.4836 10.4176 59.4464 10.4156C59.2954 10.4156 59.1796 10.4996 59.0679 10.5795C59.039 10.6 58.9894 10.6369 58.9521 10.6574C58.948 10.6512 58.9439 10.6451 58.9377 10.6389C58.6875 10.3603 58.613 10.0713 58.7102 9.78243C58.8364 9.4136 59.221 9.10829 59.6676 9.02018C59.9447 8.9669 60.3417 8.9792 60.6622 9.32959C60.7098 9.42999 60.7449 9.53449 60.7718 9.64309C60.778 9.70047 60.7884 9.75579 60.8049 9.81112C60.9021 10.432 60.7408 11.1778 60.5733 11.9565C60.1949 13.7002 59.7234 15.8702 62.5977 16.9706C62.6246 16.9808 62.6535 16.9869 62.6804 16.9869C62.7176 16.9869 62.7528 16.9788 62.7858 16.9603C62.8437 16.9296 62.8851 16.8763 62.9016 16.8128C62.9968 16.4071 62.5977 16.1796 62.2461 15.9788C61.9649 15.819 61.6754 15.653 61.6506 15.4522C61.6465 15.4256 61.6403 15.3989 61.6279 15.3764C61.2122 14.5752 61.3136 13.6695 61.5121 12.7638C61.7892 12.9032 62.1097 12.9851 62.4054 12.9032C63.5675 12.9544 64.6241 13.7453 65.1659 14.9686C65.7076 16.1878 65.5774 17.4828 64.8247 18.3475C63.6874 19.7102 61.6899 20.247 59.9633 19.6548C58.5345 19.1631 57.6908 18.0197 57.6432 16.5116C57.8273 15.8907 58.0051 15.6694 58.3732 15.6059C58.4414 15.5936 58.5014 15.5547 58.5386 15.4952C58.5758 15.4358 58.5841 15.3661 58.5655 15.2985C58.5593 15.2801 58.5531 15.2657 58.5489 15.2473H58.7847C58.8426 15.2473 58.888 15.2022 58.888 15.1448V14.3252C58.888 14.2678 58.8426 14.2228 58.7847 14.2228H57.9575C57.8996 14.2228 57.8541 14.2678 57.8541 14.3252V14.3867C57.8252 14.3805 57.7983 14.3744 57.7673 14.3723C57.3868 14.3457 57.0126 14.6715 56.7375 15.2678C56.4212 15.9604 56.3116 16.8783 56.7727 17.3927C57.0622 18.282 57.668 19.1118 58.4683 19.7552H57.7487C57.6908 19.7552 57.6453 19.8003 57.6453 19.8577V21.7019C57.6453 21.7592 57.6908 21.8043 57.7487 21.8043H59.6097C59.6676 21.8043 59.7131 21.7592 59.7131 21.7019V20.5298C59.8124 20.5749 59.9116 20.6199 60.015 20.6589C60.6415 20.9089 61.2619 21.0318 61.8553 21.0318H61.8615ZM61.9587 10.6779C61.9918 10.4135 61.9649 10.141 61.8843 9.87874C61.9794 9.69432 62.1428 9.40745 62.3185 9.25992C62.6969 8.94436 62.9554 8.82552 63.1849 8.86445C63.5034 8.91977 63.7432 9.13698 63.8094 9.42999C63.8115 9.44229 63.8218 9.47097 63.828 9.48122C64.0886 10.0201 64.0162 10.5672 63.6295 11.018C63.1849 11.5344 62.4385 11.809 61.7623 11.729C61.8491 11.3664 61.9236 11.018 61.9587 10.6779Z" fill="black"/>
<path d="M71.9859 14.0056C72.1409 13.9708 72.356 13.9216 72.4594 14.0056C72.5421 14.0732 72.5835 14.2494 72.5752 14.5035C72.5752 14.524 72.5752 14.5424 72.5814 14.5588C72.6951 15.0178 72.7303 15.5342 72.7654 16.0342C72.782 16.278 72.7985 16.5239 72.8254 16.7636C72.8254 16.7841 72.8337 16.8046 72.8419 16.8231C72.8812 16.9132 72.8812 17.1939 72.8812 17.4234C72.8812 17.9439 72.8833 18.4336 73.1831 18.5791C73.2327 18.6037 73.2865 18.616 73.3423 18.616C73.5078 18.616 73.6525 18.5094 73.7104 18.4664C74.3576 18.1427 74.2832 17.6427 74.217 17.198C74.1963 17.0607 74.1757 16.9194 74.1695 16.7882C74.2294 15.3621 74.3824 13.7617 75.468 12.8335C75.8382 12.7311 75.9808 12.7413 76.0263 12.7536C76.0139 12.8806 75.7596 13.2761 75.6603 13.4298C75.5094 13.6634 75.3543 13.9052 75.2819 14.106C75.2509 14.1921 75.2819 14.2843 75.3543 14.3375C75.4267 14.3908 75.5259 14.3929 75.5983 14.3375C76.839 13.4482 77.4283 12.6409 77.2567 12.0651C77.1698 11.7721 76.901 11.5938 76.5185 11.5754C75.6355 11.5324 74.3431 12.3254 73.6835 13.8785C73.6608 13.8191 73.6401 13.7536 73.6256 13.7105C73.4933 13.3171 73.3279 12.8274 72.8957 12.727C72.5731 12.6532 72.2154 12.8253 71.7625 13.2823C71.5537 13.563 71.4234 13.7597 71.5351 13.9277C71.6385 14.0835 71.8246 14.0425 71.9879 14.0056H71.9859Z" fill="black"/>
<path d="M76.0905 16.614C76.136 16.9542 76.32 17.2267 76.6509 17.4296C77.2464 17.7431 77.8502 17.0648 78.3382 16.5177C78.4189 16.4276 78.5988 16.2268 78.7166 16.1223C78.7042 17.0976 79.0247 17.8619 79.5313 18.0443C79.612 18.073 79.6947 18.0873 79.7815 18.0873C80.1579 18.0873 80.557 17.8127 80.9643 17.2697C81.0139 17.2021 81.0119 17.112 80.9581 17.0464C80.9043 16.9829 80.8134 16.9644 80.7389 17.0013C80.5115 17.1161 80.3419 17.1304 80.222 17.0484C79.7112 16.7001 79.9097 14.7986 79.9842 14.0834L79.9945 13.9851C80.0007 13.9339 79.9821 13.8847 79.949 13.8458C79.9139 13.8089 79.8663 13.7863 79.8146 13.7863C79.5892 13.7884 79.3866 13.7515 79.1591 13.7146C78.576 13.6163 77.9164 13.5056 77.2836 14.2023C76.9735 14.5322 75.9685 15.6797 76.0926 16.6099L76.0905 16.614ZM77.6786 14.9277C77.782 14.7904 77.9391 14.6449 78.1356 14.6449C78.1769 14.6449 78.2224 14.651 78.2679 14.6674C78.2844 14.6715 78.301 14.6756 78.3175 14.6756C78.483 14.6818 78.5078 14.7432 78.514 14.7637C78.605 15.0014 78.239 15.6694 77.7923 16.0874C77.5959 16.2718 77.4615 16.3354 77.3953 16.3477C77.2443 16.0157 77.3788 15.3211 77.6786 14.9256V14.9277Z" fill="black"/>
<path d="M81.0646 15.7597C81.0852 15.7495 81.1059 15.7372 81.1225 15.7208C81.1576 15.6859 81.2259 15.6327 81.2734 15.647C81.4202 15.6941 81.5981 16.1019 81.6601 16.4318C81.7552 17.0404 81.8069 17.6367 81.8152 18.2596C81.8193 18.3436 81.8152 18.4583 81.811 18.5833C81.7945 19.0792 81.778 19.5935 82.1005 19.7349C82.3445 19.8415 82.5947 19.655 82.7643 19.4952C83.2109 19.3087 83.1861 18.8149 83.1654 18.4174C83.153 18.1756 83.1386 17.9256 83.213 17.7637C83.2709 17.6449 83.3391 17.4481 83.4198 17.2125C83.5707 16.7699 83.9264 15.7351 84.1973 15.7023C84.2407 15.6982 84.3296 15.7515 84.433 15.9113C84.6253 16.2556 84.6749 16.6797 84.7266 17.1305C84.7473 17.3027 84.768 17.4809 84.7949 17.6387C84.8031 17.735 84.8031 17.8395 84.8031 17.9543C84.8031 18.3272 84.8073 18.6796 85.0699 18.8108C85.3015 18.9255 85.5786 18.7657 85.7709 18.6284C86.2051 18.4932 86.1948 18.0178 86.1865 17.6715C86.1824 17.4379 86.1762 17.1941 86.2671 17.0465C86.2775 17.0301 86.2857 17.0117 86.2899 16.9932C86.6642 15.6163 86.9495 15.356 87.0136 15.3151C87.0653 15.3663 87.2452 15.6327 87.3279 16.9051C87.361 17.1797 87.3569 17.5526 87.3527 17.9502C87.3383 19.3025 87.3176 21.1529 88.8457 21.1918C88.8581 21.1918 90.196 21.0668 90.3676 20.5853C90.3924 20.5176 90.4275 20.3435 90.2352 20.1836C90.1711 20.1283 90.076 20.1181 90.0016 20.1591C89.6438 20.3558 89.3688 20.4008 89.1889 20.2963C88.6885 20.0074 88.6741 18.6059 88.6637 17.3662C88.6492 15.8929 88.6368 14.5016 87.8945 14.2045C87.3962 14.0057 86.7076 14.352 85.7316 15.2905C85.4917 14.813 85.1464 14.6819 84.8879 14.6573C84.2448 14.5979 83.4508 15.1552 82.9235 15.7945C82.8387 15.1696 82.5844 14.7885 82.1688 14.6594C81.474 14.4442 80.62 15.0774 80.4091 15.395C80.2726 15.5978 80.3388 15.729 80.3905 15.7884C80.5373 15.9585 80.802 15.8745 81.0646 15.7577V15.7597Z" fill="black"/>
<path d="M89.8098 18.4131C90.0166 18.5115 90.2502 18.5606 90.5046 18.5606C91.2924 18.5606 92.3366 18.0484 92.8949 16.8927C93.3891 15.6858 92.6613 15.026 91.9417 14.5014C91.9231 14.4871 91.9024 14.4769 91.8776 14.4707C90.9946 14.2043 89.9525 14.9195 89.4128 15.737C88.6973 17.2369 89.1481 18.1037 89.8077 18.4131H89.8098ZM91.2283 17.573C91.0567 17.6591 90.8685 17.6222 90.6514 17.4582C90.3164 17.2144 90.2709 16.3292 90.5707 15.8538C90.6762 15.6858 90.8106 15.6018 90.9677 15.6018C91.0629 15.6018 91.1704 15.6325 91.2986 15.6981C91.5509 15.8108 91.6997 16.0936 91.7101 16.4767C91.7225 16.948 91.5095 17.4296 91.2262 17.573H91.2283Z" fill="black"/>
<path d="M93.9792 16.7329C93.9668 17.6795 93.9772 18.2656 94.306 18.4193C94.4052 18.4664 94.5706 18.4848 94.7691 18.3189C95.3026 18.0053 95.4991 17.5402 95.2985 17.0689C95.5094 16.2145 96.1298 14.6777 96.4006 14.5937C96.4172 14.61 96.4523 14.6551 96.4895 14.7453C96.6488 15.2432 96.6674 15.7944 96.686 16.3313C96.7087 17.0259 96.7335 17.7451 97.0706 18.4479C97.2588 18.7041 97.6372 18.8578 98.0818 18.8578C98.3009 18.8578 98.5119 18.8209 98.6938 18.7512C99.0991 18.5955 99.3162 18.284 99.2749 17.9213C99.2666 17.8435 99.2108 17.7759 99.1363 17.7513C99.0619 17.7267 98.9771 17.7472 98.9213 17.8025C98.7662 17.9603 98.6442 17.9336 98.5656 17.9008C98.2989 17.7841 98.0569 17.3251 98.0755 16.9644C97.9804 14.6285 97.6785 13.604 97.0375 13.4318C96.5123 13.2904 95.9002 13.7576 95.069 14.944C94.9863 14.2535 94.8705 13.4359 94.3928 13.2761C94.1343 13.19 93.851 13.3068 93.5264 13.6326C93.0549 13.9359 92.8688 14.1982 92.9702 14.4113C93.0756 14.6326 93.3775 14.5998 93.6567 14.5281C93.7477 14.858 93.8159 15.2125 93.8883 15.5854L93.9213 15.7555C93.9255 15.7739 93.9317 15.7903 93.94 15.8067C93.9917 15.9112 93.9854 16.4091 93.9813 16.7411L93.9792 16.7329Z" fill="black"/>
<path d="M98.7812 14.6408C98.9466 14.6388 99.0417 14.647 99.0562 14.6552C99.2568 14.8621 99.234 15.2207 99.2092 15.5998C99.1947 15.817 99.1803 16.0403 99.2092 16.2493C98.9694 17.1694 99.2878 17.7738 99.7117 17.9644C99.8192 18.0136 99.935 18.0361 100.055 18.0361C100.284 18.0361 100.735 17.9398 101.165 17.2964C101.215 17.2226 101.211 17.1263 101.157 17.0567C101.103 16.9891 101.01 16.9624 100.925 16.9891C100.793 17.0362 100.7 17.0382 100.646 16.9993C100.442 16.8497 100.475 16.0998 100.5 15.5547C100.537 14.7002 100.574 13.895 100.094 13.6306C99.7882 13.4626 99.3519 13.5733 98.7626 13.9728C98.533 14.1204 98.3139 14.2597 98.3759 14.4605C98.4297 14.6408 98.6261 14.6408 98.7832 14.6388L98.7812 14.6408Z" fill="black"/>
<path d="M101.588 14.5651H101.592C101.623 14.5651 101.654 14.561 101.685 14.561C101.778 14.9073 101.741 15.3069 101.706 15.6962C101.693 15.8417 101.679 15.9851 101.673 16.1203C101.621 16.8437 101.747 17.2535 102.059 17.3703C102.491 17.5321 103.188 17.0199 104.127 15.8458C104.15 16.0158 104.129 16.2884 104.113 16.5179C104.059 17.2514 103.984 18.2534 104.849 18.3989C104.894 18.4153 104.944 18.4235 105.004 18.4235C105.446 18.4235 106.236 17.9358 106.408 17.7432C106.53 17.608 106.493 17.5014 106.459 17.4481C106.366 17.3006 106.172 17.3395 105.994 17.3887C105.98 17.3928 105.963 17.399 105.951 17.4071C105.771 17.5096 105.634 17.5403 105.556 17.4912C105.254 17.3088 105.312 16.1982 105.355 15.3888C105.415 14.2639 105.428 13.6697 105.074 13.5283C104.847 13.4381 104.592 13.5836 104.222 14.0118C104.212 14.0241 104.201 14.0385 104.195 14.0549C103.856 14.7884 103.333 15.5077 102.895 16.0712C102.845 15.8519 102.876 15.4237 102.901 15.0938C102.955 14.3745 103.006 13.6942 102.609 13.4811C102.343 13.3398 101.97 13.4627 101.435 13.8705C101.147 14.102 101.013 14.2495 101.079 14.4176C101.147 14.5938 101.352 14.5815 101.588 14.5692V14.5651Z" fill="black"/>
<path d="M116.394 19.3496C116.007 19.5812 115.707 19.6426 115.503 19.532C114.917 19.2164 114.874 17.569 114.837 16.1142C114.806 14.9708 114.777 13.8725 114.508 13.1963H115.242C115.3 13.1963 115.345 13.1512 115.345 13.0938V11.2497C115.345 11.1923 115.3 11.1472 115.242 11.1472H113.381C113.323 11.1472 113.278 11.1923 113.278 11.2497V12.6C112.829 12.7721 112.287 13.2168 111.605 13.9647C111.361 13.3623 110.962 13.186 110.658 13.1492C109.901 13.0569 108.964 13.7208 108.375 14.4565C108.284 13.7167 107.997 13.27 107.517 13.1287C106.741 12.8971 105.798 13.6163 105.567 13.9749C105.426 14.1921 105.497 14.3253 105.55 14.3868C105.707 14.5651 106.001 14.4626 106.293 14.3274C106.313 14.3192 106.33 14.3048 106.346 14.2905C106.427 14.2147 106.493 14.186 106.543 14.2024C106.725 14.2597 106.925 14.7187 106.998 15.1101C107.105 15.7965 107.163 16.4707 107.174 17.1756C107.178 17.2657 107.174 17.3948 107.169 17.5424C107.153 18.069 107.134 18.6652 107.48 18.8169C107.738 18.9316 108.011 18.7267 108.199 18.5546C108.683 18.3927 108.66 17.862 108.642 17.3928C108.629 17.1039 108.619 16.8067 108.702 16.6059C108.757 16.4912 108.826 16.2945 108.917 16.0342C109.084 15.5527 109.529 14.27 109.851 14.2413C109.905 14.2393 110.021 14.3294 110.126 14.5159C110.346 14.9073 110.401 15.3888 110.461 15.9011C110.482 16.0855 110.507 16.2945 110.538 16.4789C110.546 16.5895 110.546 16.7084 110.548 16.8354C110.548 17.2473 110.552 17.6366 110.836 17.778C111.086 17.903 111.39 17.7227 111.603 17.571C112.078 17.4256 112.066 16.9215 112.058 16.5137C112.051 16.2453 112.045 15.9666 112.153 15.7945C112.163 15.7781 112.171 15.7597 112.176 15.7412C112.585 14.2372 112.941 13.8397 113.015 13.8172C113.017 13.8172 113.29 13.9483 113.398 15.6429C113.435 15.9707 113.431 16.3928 113.424 16.8436C113.406 18.3456 113.385 20.2164 114.936 20.4848C114.948 20.4848 114.959 20.4889 114.971 20.4889C114.975 20.4889 114.992 20.4889 114.996 20.4889C115.374 20.4438 116.617 20.2635 116.776 19.7963C116.805 19.7123 116.826 19.5463 116.648 19.3783C116.582 19.3148 116.479 19.3025 116.398 19.3517L116.394 19.3496Z" fill="black"/>
<path d="M71.418 30.2711C69.9437 31.4494 68.612 31.9329 67.115 31.8407C65.1733 31.5375 63.4591 29.9044 62.847 27.7754C62.3032 25.8841 62.7746 24.0748 64.1146 22.9314C65.6985 21.4725 67.5823 20.952 69.1559 21.5401C70.1215 21.9028 70.7936 22.6343 70.8701 23.4047C70.9321 24.0153 70.5971 24.5891 69.9292 25.0235C69.4412 25.0665 69.2531 24.9764 69.1848 24.9169C69.0918 24.835 69.0814 24.6956 69.0752 24.4928C69.0711 24.3186 69.067 24.1198 68.916 23.9826C68.8292 23.9026 68.7154 23.8658 68.581 23.876C68.5727 23.876 68.5645 23.876 68.5562 23.8801C67.909 24.0051 67.6257 24.5542 67.6298 25.044C67.636 25.5583 67.9503 26.1279 68.6389 26.2447C70.0243 26.4845 71.3188 25.4927 71.9329 24.4723C72.3961 23.6977 72.4416 22.874 72.0653 22.0913C71.5566 21.034 70.3138 20.1959 68.9677 20.0012C68.9636 20.0012 68.9574 20.0012 68.9512 20.0012C68.9429 20.0012 68.9367 20.0012 68.9284 20.0012C67.2659 20.0115 65.4876 20.6159 64.0443 21.663C63.3929 22.1343 62.845 22.6753 62.4086 23.2592V22.7265C62.4086 22.6691 62.3632 22.624 62.3053 22.624H61.2714C61.2135 22.624 61.168 22.6691 61.168 22.7265V23.751C61.168 23.8084 61.2135 23.8535 61.2714 23.8535H62.0137C61.625 24.5133 61.3747 25.2202 61.2755 25.9456C60.9839 27.7426 61.5712 29.6093 62.8015 31.0252H62.0985C62.0406 31.0252 61.9951 31.0703 61.9951 31.1277V32.9718C61.9951 33.0292 62.0406 33.0743 62.0985 33.0743H63.9595C64.0174 33.0743 64.0629 33.0292 64.0629 32.9718V32.1542C64.2262 32.2669 64.3917 32.3694 64.5592 32.4636C64.5116 32.4739 64.4764 32.5128 64.4764 32.562V33.3816C64.4764 33.439 64.5219 33.4841 64.5798 33.4841H65.407C65.4649 33.4841 65.5103 33.439 65.5103 33.3816V32.896C66.0728 33.0907 66.6497 33.1931 67.2287 33.1931C68.0455 33.1931 68.8416 32.9964 69.6004 32.6071C70.0574 32.3591 71.5773 31.4801 71.9019 30.6174C71.9495 30.4883 71.906 30.3408 71.7923 30.2609C71.6786 30.181 71.5256 30.1851 71.416 30.2711H71.418Z" fill="black"/>
<path d="M79.4248 30.7812C79.3669 30.7669 79.307 30.7771 79.2573 30.812C78.85 31.0927 78.4798 31.1685 78.1531 31.0435C77.3157 30.7177 76.9249 29.226 76.8215 28.7609C76.6126 28.0744 76.4637 27.431 76.3335 26.8634C76.0419 25.6053 75.8496 24.7754 75.2789 24.6484C74.8178 24.548 74.2305 24.966 73.2897 26.0848C73.4634 23.7509 73.7508 21.6895 75.0473 20.079C75.3016 19.7224 75.6759 19.7777 76.1122 19.8392C76.6126 19.913 77.235 20.0031 77.5307 19.2532C77.5514 19.1999 77.5493 19.1405 77.5245 19.0893C77.4997 19.038 77.4522 18.9991 77.3963 18.9827C76.4348 18.704 75.5932 18.7942 74.8943 19.247C73.0209 20.4601 72.5597 23.9927 72.2206 26.5847C72.1565 27.0683 72.0966 27.5273 72.0345 27.9105C71.7512 29.6481 71.7988 30.0005 72.0759 30.1214C72.3778 30.2526 72.69 29.9083 73.3827 29.0313C73.4158 28.9883 73.4303 28.9371 73.4262 28.8838C73.3228 27.9064 73.9721 26.7958 74.4952 25.9045L74.5407 25.8266C74.8054 26.0602 75.0866 27.2384 75.3141 28.1974C75.6594 29.6543 76.0171 31.1603 76.6354 31.5517C76.929 31.8447 77.3136 32.0004 77.7499 32.0004C78.0808 32.0004 78.4344 31.9062 78.7776 31.7279C78.8272 31.6972 78.9162 31.6644 79.0051 31.6296C79.2511 31.5353 79.5034 31.439 79.5882 31.2197C79.6275 31.1132 79.6192 31.0005 79.5613 30.8878C79.5344 30.8366 79.4848 30.7976 79.4269 30.7833L79.4248 30.7812Z" fill="black"/>
<path d="M82.5711 23.5401C82.4843 23.2471 82.2155 23.0688 81.8329 23.0503C80.95 23.0094 79.6617 23.8003 78.998 25.3514C78.9752 25.292 78.9545 25.2265 78.9401 25.1834C78.8077 24.79 78.6423 24.3003 78.2101 24.1999C77.8896 24.1261 77.5236 24.3064 77.077 24.7552C76.8681 25.0359 76.7379 25.2326 76.8495 25.4006C76.9529 25.5564 77.139 25.5154 77.3024 25.4785C77.4492 25.4437 77.6725 25.3945 77.7759 25.4785C77.8586 25.5461 77.9 25.7223 77.8917 25.9764C77.8917 25.9969 77.8917 26.0153 77.8979 26.0317C78.0116 26.4907 78.0468 27.0071 78.0819 27.5071C78.0985 27.7509 78.115 27.9968 78.1419 28.2365C78.1419 28.257 78.1502 28.2775 78.1584 28.296C78.1977 28.3861 78.1977 28.6668 78.1977 28.8963C78.1977 29.4168 78.1998 29.9065 78.4996 30.052C78.5493 30.0766 78.603 30.0889 78.6589 30.0889C78.8243 30.0889 78.969 29.9823 79.0269 29.9393C79.6741 29.6156 79.5997 29.1156 79.5335 28.6709C79.5129 28.5336 79.4922 28.3923 79.486 28.2611C79.5459 26.835 79.699 25.2346 80.7845 24.3064C81.1547 24.204 81.2974 24.2163 81.3429 24.2245C81.3304 24.3515 81.0761 24.747 80.9769 24.9007C80.8259 25.1342 80.6708 25.376 80.5984 25.5768C80.5674 25.6629 80.5984 25.7551 80.6708 25.8084C80.7432 25.8617 80.8424 25.8637 80.9148 25.8084C82.1555 24.9191 82.7448 24.1118 82.5732 23.536L82.5711 23.5401Z" fill="black"/>
<path d="M84.2112 24.54C84.1926 24.5257 84.1719 24.5154 84.1492 24.5093C83.2641 24.2429 82.224 24.958 81.6843 25.7756C80.9689 27.2755 81.4197 28.1423 82.0772 28.4517C82.284 28.55 82.5177 28.5992 82.772 28.5992C83.5598 28.5992 84.6041 28.0849 85.1624 26.9313C85.6566 25.7244 84.9287 25.0646 84.2091 24.54H84.2112ZM83.4957 27.6136C83.3262 27.6997 83.138 27.6628 82.9333 27.5112C82.9292 27.5071 82.925 27.503 82.9188 27.4989C82.5838 27.253 82.5404 26.3698 82.8382 25.8945C83.0077 25.626 83.2393 25.5687 83.566 25.7387C83.8183 25.8514 83.9672 26.1342 83.9775 26.5174C83.9899 26.9887 83.7769 27.4702 83.4937 27.6136H83.4957Z" fill="black"/>
<path d="M91.4 27.3799C91.3235 27.3553 91.2408 27.3738 91.1849 27.4312C91.0299 27.5889 90.9079 27.5623 90.8293 27.5295C90.5625 27.4127 90.3206 26.9599 90.3392 26.5931C90.2441 24.2571 89.9422 23.2326 89.3012 23.0605C88.776 22.9191 88.1639 23.3863 87.3326 24.5727C87.2499 23.8822 87.1341 23.0646 86.6565 22.9048C86.398 22.8187 86.1147 22.9355 85.7901 23.2613C85.3186 23.5646 85.1325 23.8268 85.2338 24.0399C85.3393 24.2612 85.6412 24.2285 85.9203 24.1567C86.0113 24.4866 86.0796 24.8411 86.1519 25.2141L86.185 25.3841C86.1892 25.4026 86.1954 25.419 86.2036 25.4354C86.2553 25.5399 86.2491 26.0378 86.245 26.3697C86.2326 27.3164 86.2429 27.9024 86.5717 28.0561C86.7164 28.1237 86.8839 28.0848 87.0266 27.9598C87.5663 27.6463 87.7648 27.1791 87.5642 26.7058C87.7752 25.8513 88.3955 24.3104 88.6664 24.2305C88.6829 24.2449 88.7181 24.2879 88.7553 24.3821C88.9145 24.8801 88.9331 25.4313 88.9517 25.9681C88.9745 26.6628 88.9993 27.382 89.3363 28.0848C89.5245 28.3409 89.9029 28.4946 90.3475 28.4946C90.5667 28.4946 90.7776 28.4577 90.9596 28.3881C91.3648 28.2323 91.582 27.9209 91.5406 27.5582C91.5323 27.4803 91.4765 27.4127 91.4021 27.3881L91.4 27.3799Z" fill="black"/>
<path d="M93.6047 28.4679C93.4745 28.515 93.3793 28.5171 93.3256 28.4782C93.1209 28.3286 93.1539 27.5786 93.1788 27.0336C93.216 26.1791 93.2532 25.3738 92.7735 25.1095C92.4674 24.9415 92.0291 25.0542 91.4397 25.4517C91.2102 25.5992 90.9931 25.7386 91.0531 25.9373C91.1068 26.1176 91.295 26.1156 91.4604 26.1156C91.6196 26.1156 91.7148 26.1197 91.7313 26.1279C91.936 26.3348 91.9133 26.6934 91.8864 27.0766C91.8719 27.2938 91.8574 27.5172 91.8864 27.7262C91.6465 28.6462 91.965 29.2507 92.3889 29.4412C92.4964 29.4904 92.6122 29.5129 92.7321 29.5129C92.9616 29.5129 93.4124 29.4166 93.8425 28.7732C93.8921 28.6995 93.888 28.6032 93.8343 28.5335C93.7805 28.4638 93.6874 28.4372 93.6027 28.4659L93.6047 28.4679Z" fill="black"/>
<path d="M97.9626 28.2344C97.8137 28.1054 97.6049 28.2119 97.4208 28.3205C97.4084 28.3287 97.396 28.3369 97.3815 28.3492C96.968 28.7508 96.4118 28.7631 95.8886 28.382C95.3117 27.9578 94.9085 27.1095 95.2972 26.3698C95.3075 26.3514 95.3138 26.3309 95.3179 26.3083C95.3489 26.1219 95.4502 26.003 95.6157 25.9538C95.8948 25.8739 96.3022 26.001 96.5296 26.2387C96.5255 26.255 96.511 26.2919 96.4614 26.3718C96.3973 26.4763 96.3104 26.6218 96.3911 26.7714C96.4779 26.9333 96.6909 26.9435 96.7674 26.9476C96.7881 26.9476 96.8108 26.9476 96.8357 26.9415C97.3795 26.798 97.7682 26.3534 97.7806 25.8637C97.791 25.4293 97.4973 25.0768 96.9804 24.915C95.8576 24.7305 94.8961 25.1465 94.344 26.0542C93.7981 26.9497 93.8084 28.132 94.3688 28.8635C94.5776 29.136 95.0656 29.595 95.9754 29.595C96.2525 29.595 96.5544 29.552 96.8708 29.468C97.2864 29.4557 97.9047 28.7979 98.0102 28.548C98.0887 28.3635 97.9895 28.259 97.9585 28.2324L97.9626 28.2344Z" fill="black"/>
<path d="M100.491 30.4473C100.044 30.3776 99.8065 30.2649 99.8272 29.8469C99.7858 28.5171 99.8727 27.1503 99.9575 25.8184C100.053 24.3226 100.152 22.7776 100.059 21.3044C100.257 20.1979 99.7631 19.9171 99.4509 19.8475C98.7313 19.6856 97.6167 20.372 97.5009 20.8085C97.4513 20.997 97.5506 21.165 97.7491 21.2244C97.8111 21.2429 97.8752 21.2326 97.9269 21.1958C98.4232 20.8556 98.5927 20.8966 98.632 20.9171C98.8036 21.0072 98.8016 21.5933 98.8016 22.0318C98.8016 22.2674 98.8016 22.5113 98.8181 22.7162C98.7912 23.6628 98.7375 24.6054 98.6858 25.5275C98.6279 26.55 98.57 27.6052 98.5472 28.6441C98.3901 29.5887 98.51 30.7936 99.1469 31.1993C99.2999 31.2956 99.4715 31.3448 99.6576 31.3448C99.9513 31.3448 100.284 31.2218 100.646 30.9821C100.716 30.9391 100.882 30.8407 100.847 30.6686C100.814 30.4985 100.648 30.4719 100.487 30.4473H100.491Z" fill="black"/>
<path d="M104.492 27.886C104.465 27.7774 104.382 27.6995 104.27 27.677C103.998 27.6216 103.569 27.931 103.129 28.5068C102.835 28.722 102.397 28.5847 102.11 28.4003C101.822 28.2159 101.533 27.8839 101.522 27.5622C102.833 27.5417 103.621 26.8696 103.9 26.2938C104.105 25.8676 104.08 25.4414 103.83 25.1546C103.648 24.9456 103.189 24.6402 102.163 24.9517C101.055 25.2918 100.311 26.1299 100.174 27.1913C100.058 28.0868 100.41 28.9269 101.07 29.3347C101.26 29.4514 101.576 29.5908 102.012 29.5908C102.544 29.5908 103.121 29.3879 103.737 28.9802C104.057 28.7199 104.581 28.2323 104.494 27.888L104.492 27.886ZM101.646 26.4516C101.684 26.1955 101.928 25.8738 102.283 25.7713C102.635 25.7529 102.883 25.841 102.98 26.0172C103.069 26.177 103.024 26.3901 102.866 26.5602C102.653 26.7938 102.281 26.8942 101.893 26.8348C101.702 26.7692 101.62 26.6401 101.646 26.4516Z" fill="black"/>
<path d="M68.1905 17.5301C68.3807 17.6469 68.6971 17.7862 69.1334 17.7862C69.6648 17.7862 70.2418 17.5834 70.858 17.1756C71.1785 16.9154 71.7016 16.4277 71.6148 16.0835C71.5879 15.9749 71.5052 15.897 71.3935 15.8745C71.1185 15.8191 70.6925 16.1286 70.2521 16.7043C69.9585 16.9195 69.5201 16.7822 69.2327 16.5978C68.9453 16.4134 68.6558 16.0814 68.6454 15.7597C69.9564 15.7392 70.7442 15.0671 71.0234 14.4913C71.2281 14.0651 71.2033 13.6389 70.9531 13.3521C70.7711 13.1431 70.3121 12.8378 69.2864 13.1492C68.1781 13.4894 67.4337 14.3274 67.2972 15.3888C67.1814 16.2843 67.533 17.1244 68.1926 17.5322L68.1905 17.5301ZM68.7695 14.6491C68.8067 14.393 69.0507 14.0713 69.4064 13.9688C69.7579 13.9504 70.006 14.0385 70.1032 14.2147C70.1921 14.3746 70.1466 14.5877 69.9895 14.7577C69.7765 14.9913 69.4043 15.0917 69.0156 15.0323C68.8253 14.9667 68.7426 14.8376 68.7695 14.6491Z" fill="black"/>
<path d="M58.378 12.9915H57.7577C57.7006 12.9915 57.6543 13.0373 57.6543 13.0939V13.7086C57.6543 13.7652 57.7006 13.8111 57.7577 13.8111H58.378C58.4351 13.8111 58.4814 13.7652 58.4814 13.7086V13.0939C58.4814 13.0373 58.4351 12.9915 58.378 12.9915Z" fill="black"/>
<path d="M65.2022 7.04907H64.5819C64.5248 7.04907 64.4785 7.09494 64.4785 7.15153V7.76625C64.4785 7.82283 64.5248 7.8687 64.5819 7.8687H65.2022C65.2593 7.8687 65.3056 7.82283 65.3056 7.76625V7.15153C65.3056 7.09494 65.2593 7.04907 65.2022 7.04907Z" fill="black"/>
<path d="M63.7545 33.687H62.7206C62.6635 33.687 62.6172 33.7329 62.6172 33.7895V34.814C62.6172 34.8706 62.6635 34.9165 62.7206 34.9165H63.7545C63.8116 34.9165 63.8579 34.8706 63.8579 34.814V33.7895C63.8579 33.7329 63.8116 33.687 63.7545 33.687Z" fill="black"/>
<path d="M58.1705 22.0073H57.1366C57.0795 22.0073 57.0332 22.0532 57.0332 22.1098V23.1343C57.0332 23.1909 57.0795 23.2368 57.1366 23.2368H58.1705C58.2276 23.2368 58.2739 23.1909 58.2739 23.1343V22.1098C58.2739 22.0532 58.2276 22.0073 58.1705 22.0073Z" fill="black"/>
<path d="M56.7237 20.7778H56.1034C56.0463 20.7778 56 20.8237 56 20.8803V21.495C56 21.5516 56.0463 21.5975 56.1034 21.5975H56.7237C56.7808 21.5975 56.8271 21.5516 56.8271 21.495V20.8803C56.8271 20.8237 56.7808 20.7778 56.7237 20.7778Z" fill="black"/>
<path d="M104.696 20.3679H104.076C104.019 20.3679 103.973 20.4138 103.973 20.4704V21.0851C103.973 21.1417 104.019 21.1875 104.076 21.1875H104.696C104.753 21.1875 104.8 21.1417 104.8 21.0851V20.4704C104.8 20.4138 104.753 20.3679 104.696 20.3679Z" fill="black"/>
<path d="M109.866 20.9827H109.246C109.189 20.9827 109.143 21.0285 109.143 21.0851V21.6998C109.143 21.7564 109.189 21.8023 109.246 21.8023H109.866C109.923 21.8023 109.97 21.7564 109.97 21.6998V21.0851C109.97 21.0285 109.923 20.9827 109.866 20.9827Z" fill="black"/>
<path d="M111.52 30.2036H110.486C110.429 30.2036 110.383 30.2495 110.383 30.3061V31.3306C110.383 31.3872 110.429 31.4331 110.486 31.4331H111.52C111.577 31.4331 111.623 31.3872 111.623 31.3306V30.3061C111.623 30.2495 111.577 30.2036 111.52 30.2036Z" fill="black"/>
<path d="M116.897 10.5325H115.863C115.806 10.5325 115.76 10.5783 115.76 10.6349V11.6595C115.76 11.716 115.806 11.7619 115.863 11.7619H116.897C116.954 11.7619 117 11.716 117 11.6595V10.6349C117 10.5783 116.954 10.5325 116.897 10.5325Z" fill="black"/>
<path d="M92.3205 21.9355L91.0798 23.165C91.0385 23.2059 91.0385 23.2695 91.0798 23.3104L92.3205 24.5399C92.3412 24.5604 92.3681 24.5706 92.3929 24.5706C92.4177 24.5706 92.4467 24.5604 92.4653 24.5399L93.7059 23.3104C93.7473 23.2695 93.7473 23.2059 93.7059 23.165L92.4653 21.9355C92.4239 21.8945 92.3598 21.8945 92.3185 21.9355H92.3205Z" fill="black"/>
<path d="M99.7645 12.6534C99.7852 12.6739 99.8121 12.6841 99.8369 12.6841C99.8617 12.6841 99.8906 12.6739 99.9092 12.6534L100.736 11.8337C100.778 11.7928 100.778 11.7292 100.736 11.6883L99.9092 10.8686C99.8679 10.8276 99.8038 10.8276 99.7624 10.8686L98.9353 11.6883C98.894 11.7292 98.894 11.7928 98.9353 11.8337L99.7624 12.6534H99.7645Z" fill="black"/>
<path d="M65.6153 5H64.1678C64.1107 5 64.0645 5.04587 64.0645 5.10245V6.5368C64.0645 6.59338 64.1107 6.63925 64.1678 6.63925H65.6153C65.6724 6.63925 65.7187 6.59338 65.7187 6.5368V5.10245C65.7187 5.04587 65.6724 5 65.6153 5Z" fill="black"/>
<path d="M110.176 30.9206V29.0764C110.176 29.0191 110.13 28.974 110.072 28.974H109.123C109.005 27.974 108.104 26.7876 107.276 25.6955C106.474 24.6402 105.717 23.6423 105.951 23.1526C106.059 22.9251 106.406 22.796 106.981 22.7674C107.262 22.8698 107.436 23.0071 107.516 23.1854C107.603 23.3821 107.58 23.6362 107.444 23.9599C107.43 23.9947 107.432 24.0316 107.446 24.0644C107.463 24.0972 107.492 24.1218 107.527 24.132C108.046 24.2775 108.515 24.1074 108.811 23.6689C109.171 23.1362 109.162 22.3821 108.792 21.917C108.569 21.6342 108.017 21.2244 106.855 21.6465C106.553 21.7428 106.28 21.8453 106.038 21.9559V21.4928C106.038 21.4355 105.992 21.3904 105.934 21.3904H104.901C104.843 21.3904 104.797 21.4355 104.797 21.4928V22.5174C104.797 22.5747 104.843 22.6198 104.901 22.6198H105.01C104.793 22.8329 104.642 23.0624 104.559 23.3145C104.206 24.3841 105.083 25.5807 106.009 26.8491C106.34 27.3019 106.683 27.7712 106.97 28.2445C107.607 28.974 107.771 29.726 107.419 30.31C107.119 30.8099 106.501 31.0845 105.949 30.9616C105.407 30.8427 105.054 30.3612 104.979 29.642C104.979 29.6317 104.977 29.6235 104.975 29.6174C104.963 29.558 105.091 29.2567 105.153 29.1113C105.324 28.7096 105.403 28.5109 105.267 28.4105C105.155 28.3265 105.014 28.4064 104.828 28.556C103.873 29.017 103.519 30.2219 103.738 31.0743C103.941 31.8632 104.561 32.3037 105.391 32.2586C105.459 32.2648 105.529 32.2689 105.595 32.2689C106.402 32.2689 107.229 31.8037 108.106 30.8571V30.9206C108.106 30.978 108.151 31.023 108.209 31.023H110.07C110.128 31.023 110.173 30.978 110.173 30.9206H110.176Z" fill="black"/>
<path d="M114.829 9.71289H114.002C113.945 9.71289 113.898 9.75876 113.898 9.81534V10.635C113.898 10.6916 113.945 10.7374 114.002 10.7374H114.829C114.886 10.7374 114.932 10.6916 114.932 10.635V9.81534C114.932 9.75876 114.886 9.71289 114.829 9.71289Z" fill="black"/>
<path d="M110.28 31.6379H109.66C109.603 31.6379 109.557 31.6838 109.557 31.7404V32.3551C109.557 32.4117 109.603 32.4576 109.66 32.4576H110.28C110.337 32.4576 110.384 32.4117 110.384 32.3551V31.7404C110.384 31.6838 110.337 31.6379 110.28 31.6379Z" fill="black"/>
<path d="M86.3278 29.4844C82.428 29.4844 79.2539 32.2916 79.2539 35.7422C79.2539 39.1929 82.428 42.0001 86.3278 42.0001C90.2277 42.0001 93.4018 39.1929 93.4018 35.7422C93.4018 32.2916 90.2277 29.4844 86.3278 29.4844ZM91.6752 33.4042C91.7351 33.6132 91.7641 33.8304 91.7641 34.0497C91.7641 35.3672 90.6826 36.441 89.351 36.441C88.7864 36.441 88.2385 36.2422 87.8084 35.8877L91.6731 33.4022L91.6752 33.4042ZM85.0623 31.6994C85.0768 31.1994 85.3167 30.8224 85.7654 30.5991C86.2162 30.3737 86.6649 30.4126 87.0764 30.7036C87.4155 30.9433 87.5933 31.2773 87.6057 31.6912C87.6161 32.0478 87.614 32.4043 87.6181 32.7629C87.6181 32.7711 87.6181 32.7813 87.6161 32.8018C87.5747 32.7485 87.5416 32.7035 87.5044 32.6604C87.3638 32.4924 87.1984 32.3551 87.0019 32.2547C86.9647 32.2363 86.9482 32.2096 86.9482 32.1687C86.9482 32.0027 86.9482 31.8367 86.942 31.6728C86.9275 31.2097 86.4188 30.9331 86.0177 31.1708C85.8274 31.2835 85.724 31.4556 85.722 31.6748C85.722 32.0682 85.7302 32.4617 85.7364 32.8551C85.7406 33.019 85.784 33.1706 85.906 33.2895C86.0714 33.4473 86.2658 33.5005 86.4891 33.4555C86.5553 33.4411 86.5698 33.4493 86.5842 33.5149C86.6215 33.6768 86.6297 33.8427 86.6297 34.0087C86.6297 34.0497 86.6111 34.0681 86.5698 34.0743C86.2141 34.1358 85.8895 34.0579 85.6 33.8489C85.2402 33.5887 85.0644 33.2321 85.0644 32.7895C85.0644 32.4268 85.0479 32.0621 85.0582 31.6994H85.0623ZM85.0355 33.6829C85.0644 33.7198 85.0872 33.7485 85.1099 33.7772C85.2588 33.9595 85.4325 34.1091 85.6413 34.2198C85.6848 34.2423 85.7034 34.271 85.7034 34.3202C85.7034 34.4861 85.7034 34.6521 85.7096 34.816C85.7282 35.2402 86.1686 35.5168 86.5594 35.3447C86.7869 35.2443 86.9234 35.066 86.9254 34.8201C86.9316 34.4124 86.9192 34.0026 86.9089 33.5948C86.9048 33.4657 86.8717 33.3428 86.7848 33.2383C86.6235 33.0436 86.4147 32.978 86.1686 33.0231C86.088 33.0375 86.0797 33.0354 86.0549 32.9555C86.0073 32.7998 86.0011 32.6399 86.0156 32.4781C86.0197 32.435 86.0425 32.4125 86.0838 32.4063C86.4374 32.351 86.7621 32.4186 87.0516 32.6276C87.2894 32.7998 87.4589 33.0252 87.5354 33.312C87.5602 33.4042 87.5727 33.5005 87.5747 33.5948C87.583 33.9309 87.5871 34.2669 87.5892 34.6029C87.5892 34.7238 87.5933 34.8468 87.5727 34.9656C87.4176 35.857 86.3733 36.3385 85.5772 35.775C85.5524 35.7566 85.5255 35.7381 85.4987 35.7217C85.447 35.6705 85.3953 35.6193 85.3436 35.5681C85.296 35.4984 85.2443 35.4287 85.203 35.355C85.0975 35.1726 85.0458 34.9738 85.0437 34.7628C85.0396 34.4165 85.0375 34.0702 85.0334 33.7239C85.0334 33.7157 85.0334 33.7055 85.0334 33.6829H85.0355ZM80.9288 33.4042L84.7935 35.8898C84.3634 36.2442 83.8175 36.443 83.251 36.443C81.9214 36.443 80.8378 35.3713 80.8378 34.0517C80.8378 33.8304 80.8689 33.6153 80.9268 33.4063L80.9288 33.4042ZM86.0383 41.1354C82.7485 41.0042 80.1203 38.6355 80.1203 35.7422C80.1203 35.3037 80.1823 34.8775 80.2961 34.4698C80.5029 35.9062 81.7477 37.0147 83.253 37.0147C83.4205 37.0147 83.588 37.0004 83.7514 36.9717C83.7452 36.9881 83.7369 37.0045 83.7307 37.0229C83.5818 37.4901 83.7452 37.9737 84.1504 38.2564L85.6889 39.3301C85.7964 39.406 85.9163 39.4572 86.0404 39.49V41.1374L86.0383 41.1354ZM86.0197 38.8609L84.4813 37.7872C84.2456 37.6233 84.2228 37.3733 84.2787 37.193C84.3365 37.0147 84.4999 36.8221 84.7894 36.8221H87.8642C88.1537 36.8221 88.3171 37.0126 88.375 37.193C88.4329 37.3712 88.408 37.6212 88.1723 37.7872L86.6339 38.8609C86.4498 38.99 86.2017 38.99 86.0177 38.8609H86.0197ZM86.6173 41.1354V39.4879C86.7414 39.4551 86.8613 39.4039 86.9689 39.3281L88.5073 38.2544C88.9126 37.9716 89.0759 37.488 88.9271 37.0208C88.9229 37.0065 88.9147 36.9942 88.9105 36.9799C89.0573 37.0024 89.2041 37.0126 89.353 37.0126C90.8977 37.0126 92.1735 35.8447 92.3265 34.355C92.4609 34.7976 92.5354 35.2627 92.5354 35.7422C92.5354 38.6355 89.9051 41.0042 86.6173 41.1354Z" fill="black"/>
</g>
<defs>
<linearGradient id="paint0_linear_22019_2899" x1="83.5" y1="0" x2="83.5" y2="47" gradientUnits="userSpaceOnUse">
<stop stop-color="#FFF200"/>
<stop offset="0.995" stop-color="#FFE169"/>
</linearGradient>
<clipPath id="clip0_22019_2899">
<rect width="61" height="37" fill="white" transform="translate(56 5)"/>
</clipPath>
</defs>
</svg>
