<svg width="41" height="41" viewBox="0 0 41 41" fill="none" xmlns="http://www.w3.org/2000/svg">
<mask id="mask0_466_60875" style="mask-type:alpha" maskUnits="userSpaceOnUse" x="0" y="0" width="41" height="41">
<rect width="41" height="41" rx="6" fill="#D9D9D9"/>
</mask>
<g mask="url(#mask0_466_60875)">
<path d="M42 0H0V42H42V0Z" fill="#AB9FF2"/>
<path fill-rule="evenodd" clip-rule="evenodd" d="M18.2574 26.9547C16.6931 29.3515 14.072 32.3848 10.5842 32.3848C8.93547 32.3848 7.3501 31.706 7.3501 28.7576C7.3501 21.2488 17.6021 9.625 27.1142 9.625C32.5256 9.625 34.6818 13.3794 34.6818 17.6429C34.6818 23.1154 31.1305 29.3727 27.6004 29.3727C26.4801 29.3727 25.9305 28.7576 25.9305 27.7819C25.9305 27.5274 25.9728 27.2516 26.0573 26.9547C24.8525 29.0122 22.5273 30.9212 20.35 30.9212C18.7647 30.9212 17.9614 29.9243 17.9614 28.5243C17.9614 28.0152 18.0671 27.4849 18.2574 26.9547ZM26.4512 17.495C26.4512 18.7373 25.7182 19.3585 24.8983 19.3585C24.0659 19.3585 23.3454 18.7373 23.3454 17.495C23.3454 16.2526 24.0659 15.6315 24.8983 15.6315C25.7182 15.6315 26.4512 16.2526 26.4512 17.495ZM31.1096 17.495C31.1096 18.7374 30.3766 19.3586 29.5566 19.3586C28.7243 19.3586 28.0037 18.7374 28.0037 17.495C28.0037 16.2527 28.7243 15.6316 29.5566 15.6316C30.3766 15.6316 31.1096 16.2527 31.1096 17.495Z" fill="#FFFDF8"/>
</g>
</svg>
