<svg width="24" height="24" viewBox="0 0 24 24" fill="none" xmlns="http://www.w3.org/2000/svg">
<path d="M23.5 12C23.5 18.3513 18.3513 23.5 12 23.5C5.64873 23.5 0.5 18.3513 0.5 12C0.5 5.64873 5.64873 0.5 12 0.5C18.3513 0.5 23.5 5.64873 23.5 12Z" fill="#FAAC07" stroke="#EDE4CC" stroke-miterlimit="10"/>
<path fill-rule="evenodd" clip-rule="evenodd" d="M19.4973 12.2984C19.7732 12.1792 19.7732 11.788 19.4973 11.6689L7.6204 6.54018C7.39406 6.44244 7.14163 6.6084 7.14163 6.85495L7.14163 10.805L7.1416 10.805V13.184L7.14163 13.184L7.14163 17.1123C7.14163 17.3588 7.39406 17.5248 7.6204 17.4271L19.4973 12.2984ZM7.14163 10.805L7.14163 13.184L15.4682 11.9945L7.14163 10.805Z" fill="#152226"/>
</svg>
