<svg width="42" height="41" viewBox="0 0 42 41" fill="none" xmlns="http://www.w3.org/2000/svg">
<path d="M20.8952 40.4355H20.805C9.52627 40.4355 0.350098 31.4832 0.350098 20.4796V20.3915C0.350098 9.38791 9.52627 0.435547 20.805 0.435547H20.8952C32.1739 0.435547 41.3501 9.38791 41.3501 20.3915V20.4796C41.3501 31.4832 32.1739 40.4355 20.8952 40.4355ZM20.805 1.78951C10.2909 1.78951 1.73791 10.1339 1.73791 20.3915V20.4796C1.73791 30.7372 10.2909 39.0816 20.805 39.0816H20.8952C31.4092 39.0816 39.9623 30.7372 39.9623 20.4796V20.3915C39.9623 10.1339 31.4092 1.78951 20.8952 1.78951H20.805Z" fill="#FFE61B"/>
<path d="M8.54645 19.7754C8.60196 19.7483 8.6575 19.7226 8.71162 19.6982C9.65256 19.2731 10.606 18.875 11.558 18.477C11.6094 18.477 11.6954 18.4187 11.744 18.3998C11.8175 18.3686 11.8911 18.3389 11.9646 18.3077C12.1062 18.2481 12.2478 18.1899 12.3879 18.1303C12.671 18.0126 12.9527 17.8948 13.2359 17.777C13.8007 17.5414 14.3655 17.3058 14.9304 17.0689C16.06 16.5977 17.1911 16.1251 18.3208 15.6539C19.4505 15.1828 20.5815 14.7102 21.7112 14.2391C22.8409 13.7679 23.9719 13.2954 25.1016 12.8242C26.2313 12.353 27.3624 11.8805 28.4921 11.4093C28.7433 11.3037 29.0153 11.1466 29.2845 11.1006C29.5107 11.0613 29.7313 10.9855 29.9589 10.9436C30.3906 10.8637 30.8666 10.8312 31.2801 11.0058C31.4231 11.0668 31.5549 11.152 31.6646 11.259C32.1892 11.7654 32.1156 12.5967 32.0046 13.3089C31.2316 18.2725 30.4586 23.2375 29.6842 28.2011C29.5787 28.8822 29.4344 29.6295 28.8834 30.0601C28.4171 30.4243 27.7537 30.4649 27.1778 30.3106C26.6018 30.1549 26.0939 29.8286 25.5957 29.5077C23.5292 28.1727 21.4614 26.8376 19.395 25.5026C18.9037 25.1858 18.3569 24.7715 18.3624 24.1961C18.3652 23.8495 18.5775 23.5408 18.794 23.2659C20.5899 20.9804 23.1809 19.4098 25.1086 17.23C25.3806 16.9226 25.5943 16.3675 25.221 16.1901C24.9989 16.0845 24.7436 16.228 24.5409 16.3648C21.9929 18.0911 19.4463 19.8187 16.8983 21.545C16.067 22.1083 15.1955 22.6878 14.1935 22.8259C13.2969 22.9504 12.3949 22.7067 11.5275 22.4576C10.8003 22.2491 10.0744 22.0352 9.35139 21.8145C8.96696 21.698 8.57005 21.5721 8.27306 21.3081C7.97606 21.0441 7.80539 20.6 7.98441 20.248C8.09683 20.0273 8.31472 19.8878 8.54371 19.7741L8.54645 19.7754Z" fill="#FFE61B"/>
</svg>
