<svg width="312" height="83" viewBox="0 0 312 83" fill="none" xmlns="http://www.w3.org/2000/svg">
<g filter="url(#filter0_d_21127_4949)">
<path d="M87.5557 8.04932C87.2795 8.04932 87.0557 8.27317 87.0557 8.54932C87.0557 8.82546 87.2795 9.04932 87.5557 9.04932L87.5557 8.04932ZM87.5557 9.04932L220.07 9.04933L220.07 8.04933L87.5557 8.04932L87.5557 9.04932Z" fill="url(#paint0_linear_21127_4949)"/>
</g>
<g filter="url(#filter1_d_21127_4949)">
<path d="M87.5557 74.7153C87.2795 74.7153 87.0557 74.4915 87.0557 74.2153C87.0557 73.9392 87.2795 73.7153 87.5557 73.7153L87.5557 74.7153ZM87.5557 73.7153L220.07 73.7153L220.07 74.7153L87.5557 74.7153L87.5557 73.7153Z" fill="url(#paint1_linear_21127_4949)"/>
</g>
<g filter="url(#filter2_d_21127_4949)">
<path d="M148.079 69.1775C147.92 68.9513 147.975 68.6396 148.202 68.4812C148.428 68.3228 148.74 68.3779 148.898 68.6041L148.079 69.1775ZM152.453 74.5541L152.043 74.8409L152.453 74.5541ZM152.788 74.5423L153.217 74.7996L152.788 74.5423ZM148.898 68.6041L152.862 74.2674L152.043 74.8409L148.079 69.1775L148.898 68.6041ZM152.359 74.2851L155.75 68.6336L156.608 69.1481L153.217 74.7996L152.359 74.2851ZM152.862 74.2674C152.738 74.0894 152.471 74.0988 152.359 74.2851L153.217 74.7996C152.956 75.2343 152.334 75.2562 152.043 74.8409L152.862 74.2674Z" fill="url(#paint2_linear_21127_4949)"/>
</g>
<path d="M310.943 41.1697C311.067 41.3435 311.067 41.5769 310.943 41.7507L291.543 68.9286C291.449 69.0601 291.298 69.1381 291.136 69.1381L22.3785 69.1381C22.2241 69.1381 22.0784 69.0667 21.9837 68.9448L0.871886 41.7669C0.731688 41.5864 0.731688 41.3339 0.871886 41.1534L21.9837 13.9755C22.0784 13.8535 22.2241 13.7822 22.3785 13.7822L291.136 13.7823C291.298 13.7823 291.449 13.8603 291.543 13.9918L310.943 41.1697Z" stroke="#A18051"/>
<path d="M30.1719 49.3687L40.8204 49.3687M34.313 54.6929L44.3699 54.6929" stroke="url(#paint3_linear_21127_4949)"/>
<path d="M282.777 49.3687L272.129 49.3687M278.636 54.6929L268.579 54.6929" stroke="url(#paint4_linear_21127_4949)"/>
<path d="M289.029 40.787C289.162 40.9645 289.162 41.2083 289.029 41.3858L272.525 63.4575C272.431 63.5838 272.282 63.6581 272.125 63.6581L41.7305 63.6581C41.5801 63.6581 41.4376 63.5904 41.3427 63.4737L23.3829 41.402C23.2333 41.2182 23.2333 40.9546 23.3829 40.7708L41.3427 18.6991C41.4376 18.5824 41.5801 18.5146 41.7305 18.5146L272.125 18.5147C272.282 18.5147 272.431 18.589 272.525 18.7153L289.029 40.787Z" stroke="#AB754D"/>
<path d="M279.504 40.7694C279.655 40.9538 279.655 41.2196 279.504 41.404L264.295 59.9262C264.2 60.0419 264.058 60.1089 263.908 60.1089L49.8382 60.1089C49.6959 60.1089 49.5603 60.0482 49.4654 59.9421L49.0926 60.2752L49.4654 59.9421L32.9146 41.4198C32.745 41.2301 32.745 40.9433 32.9146 40.7535L49.4654 22.2313L49.0926 21.8981L49.4654 22.2313C49.5603 22.1251 49.6959 22.0644 49.8382 22.0644L263.908 22.0645C264.058 22.0645 264.2 22.1315 264.295 22.2472L279.504 40.7694Z" stroke="url(#paint5_linear_21127_4949)"/>
<path d="M268.128 40.4863C268.395 40.842 268.395 41.3314 268.128 41.6871L254.223 60.2093C254.034 60.4609 253.738 60.6089 253.423 60.6089L57.8348 60.6089C57.5346 60.6089 57.2503 60.4741 57.0604 60.2416L41.9282 41.7194C41.6274 41.3512 41.6274 40.8222 41.9282 40.454L57.0604 21.9318C57.2503 21.6993 57.5346 21.5644 57.8348 21.5644L253.423 21.5645C253.738 21.5645 254.034 21.7125 254.223 21.9641L268.128 40.4863Z" fill="url(#paint6_linear_21127_4949)"/>
<path d="M260.811 40.6133C261.22 41.2642 261.22 42.0922 260.811 42.7431L244.207 69.1391C243.841 69.721 243.201 70.0742 242.514 70.0742L68.6174 70.0742C67.9399 70.0742 67.3085 69.7312 66.9397 69.163L49.8089 42.767C49.3791 42.1048 49.3791 41.2517 49.8089 40.5894L66.9397 14.1934C67.3085 13.6252 67.9399 13.2822 68.6174 13.2822L242.514 13.2823C243.201 13.2823 243.841 13.6354 244.207 14.2173L260.811 40.6133Z" fill="url(#paint7_linear_21127_4949)"/>
<g filter="url(#filter3_i_21127_4949)">
<path d="M253.69 40.4883C254.118 41.2239 254.118 42.1325 253.69 42.8681L238.548 68.8977C238.124 69.6261 237.345 70.0742 236.502 70.0742L76.3589 70.0742C75.5278 70.0742 74.7577 69.6382 74.33 68.9256L58.7074 42.896C58.2575 42.1464 58.2575 41.21 58.7074 40.4605L74.33 14.4308C74.7577 13.7182 75.5278 13.2822 76.3589 13.2822L236.502 13.2822C237.345 13.2823 238.124 13.7303 238.548 14.4587L253.69 40.4883Z" fill="url(#paint8_linear_21127_4949)"/>
</g>
<circle cx="46.1441" cy="41.6783" r="1.18317" fill="#F5F3B5"/>
<circle cx="263.847" cy="41.6783" r="1.18317" fill="#F5F3B5"/>
<g filter="url(#filter4_d_21127_4949)">
<path d="M55.2224 18.29C55.0475 18.5037 55.079 18.8187 55.2928 18.9936C55.5065 19.1685 55.8215 19.137 55.9964 18.9232L55.2224 18.29ZM66.2579 5.5918L66.2579 5.0918L66.0209 5.0918L65.8709 5.27518L66.2579 5.5918ZM85.1885 5.5918L85.5421 5.23824L85.3956 5.0918L85.1885 5.0918L85.1885 5.5918ZM55.9964 18.9232L66.6448 5.90842L65.8709 5.27518L55.2224 18.29L55.9964 18.9232ZM66.2579 6.0918L85.1885 6.0918L85.1885 5.0918L66.2579 5.0918L66.2579 6.0918ZM84.835 5.94535L92.5255 13.6359L93.2326 12.9288L85.5421 5.23824L84.835 5.94535Z" fill="url(#paint9_linear_21127_4949)"/>
</g>
<g filter="url(#filter5_d_21127_4949)">
<path d="M55.2224 64.4751C55.0475 64.2614 55.079 63.9464 55.2928 63.7715C55.5065 63.5967 55.8215 63.6282 55.9964 63.8419L55.2224 64.4751ZM66.2579 77.1733L66.2579 77.6733L66.0209 77.6733L65.8709 77.49L66.2579 77.1733ZM85.1885 77.1733L85.5421 77.5269L85.3956 77.6733L85.1885 77.6733L85.1885 77.1733ZM55.9964 63.8419L66.6448 76.8567L65.8709 77.49L55.2224 64.4751L55.9964 63.8419ZM66.2579 76.6733L85.1885 76.6733L85.1885 77.6733L66.2579 77.6733L66.2579 76.6733ZM84.835 76.8198L92.5255 69.1292L93.2326 69.8363L85.5421 77.5269L84.835 76.8198Z" fill="url(#paint10_linear_21127_4949)"/>
</g>
<g filter="url(#filter6_d_21127_4949)">
<path d="M243.141 5L243.141 4.5L243.384 4.5L243.534 4.69185L243.141 5ZM224.21 5L223.856 4.64645L224.003 4.5L224.21 4.5L224.21 5ZM216.873 13.0441C216.678 13.2394 216.361 13.2394 216.166 13.0441C215.971 12.8489 215.971 12.5323 216.166 12.337L216.873 13.0441ZM253.395 18.9146L242.747 5.30815L243.534 4.69185L254.183 18.2983L253.395 18.9146ZM243.141 5.5L224.21 5.5L224.21 4.5L243.141 4.5L243.141 5.5ZM224.563 5.35355L216.873 13.0441L216.166 12.337L223.856 4.64645L224.563 5.35355Z" fill="url(#paint11_linear_21127_4949)"/>
</g>
<g filter="url(#filter7_d_21127_4949)">
<path d="M243.142 77.7646L243.142 78.2646L243.385 78.2646L243.535 78.0728L243.142 77.7646ZM224.211 77.7646L223.857 78.1182L224.004 78.2646L224.211 78.2646L224.211 77.7646ZM216.874 69.7205C216.679 69.5253 216.362 69.5253 216.167 69.7205C215.972 69.9158 215.972 70.2324 216.167 70.4276L216.874 69.7205ZM253.396 63.8501L242.748 77.4565L243.535 78.0728L254.184 64.4664L253.396 63.8501ZM243.142 77.2646L224.211 77.2646L224.211 78.2646L243.142 78.2646L243.142 77.2646ZM224.564 77.4111L216.874 69.7205L216.167 70.4276L223.857 78.1182L224.564 77.4111Z" fill="url(#paint12_linear_21127_4949)"/>
</g>
<g filter="url(#filter8_d_21127_4949)">
<path d="M148.079 13.5871C147.92 13.8133 147.975 14.1251 148.202 14.2835C148.428 14.4418 148.74 14.3868 148.898 14.1606L148.079 13.5871ZM152.453 8.21052L152.043 7.92379L152.453 8.21052ZM152.788 8.22232L153.217 7.96507L152.788 8.22232ZM148.898 14.1606L152.862 8.49725L152.043 7.92379L148.079 13.5871L148.898 14.1606ZM152.359 8.47956L155.75 14.1311L156.608 13.6166L153.217 7.96507L152.359 8.47956ZM152.862 8.49725C152.738 8.67526 152.471 8.66588 152.359 8.47956L153.217 7.96507C152.956 7.53033 152.334 7.50845 152.043 7.92379L152.862 8.49725Z" fill="url(#paint13_linear_21127_4949)"/>
</g>
<g filter="url(#filter9_d_21127_4949)">
<path d="M88.738 13.2822L85.2562 19.0853C85.2151 19.1537 85.2187 19.24 85.2653 19.3049L98.7949 38.1287" stroke="url(#paint14_linear_21127_4949)"/>
</g>
<g filter="url(#filter10_d_21127_4949)">
<path fill-rule="evenodd" clip-rule="evenodd" d="M252.667 42.2732L237.525 68.3028C237.313 68.667 236.924 68.891 236.502 68.891L76.3591 68.891C75.9435 68.891 75.5584 68.673 75.3446 68.3167L66.1213 52.9493L76.3022 52.9493C76.6738 52.9493 77.0149 52.7431 77.1876 52.414L82.5786 42.1428C82.7313 41.8518 82.7313 41.5044 82.5786 41.2134L77.1876 30.9422C77.0149 30.6131 76.6738 30.4069 76.3022 30.4069L66.1214 30.4069L75.3446 15.0397C75.5584 14.6834 75.9435 14.4654 76.3591 14.4654L236.502 14.4654C236.924 14.4654 237.313 14.6895 237.525 15.0537L252.667 41.0833C252.881 41.4511 252.881 41.9054 252.667 42.2732ZM253.69 40.4883C254.118 41.2239 254.118 42.1325 253.69 42.8681L238.548 68.8977C238.124 69.6261 237.345 70.0742 236.502 70.0742L76.3591 70.0742C75.528 70.0742 74.7578 69.6382 74.3301 68.9256L58.7075 42.896C58.2577 42.1465 58.2577 41.21 58.7075 40.4605L74.3301 14.4308C74.7578 13.7182 75.528 13.2822 76.3591 13.2822L236.502 13.2823C237.345 13.2823 238.124 13.7304 238.548 14.4587L253.69 40.4883ZM81.6931 41.6781L76.3022 51.9493L65.6795 51.9493L60.2886 41.6781L65.6795 31.4069L76.3022 31.4069L81.6931 41.6781Z" fill="#FFE5A4"/>
</g>
<g filter="url(#filter11_d_21127_4949)">
<path d="M78.7596 64.5761L82.0536 60.8116C82.1419 60.7106 82.3026 60.7235 82.3737 60.8373L84.8121 64.7388C84.9192 64.9101 84.7337 65.114 84.5531 65.0237L81.7288 63.6115C81.6725 63.5834 81.6062 63.5834 81.5499 63.6115L78.9996 64.8867C78.8034 64.9848 78.6152 64.7412 78.7596 64.5761Z" fill="#FFE169"/>
</g>
<g filter="url(#filter12_d_21127_4949)">
<path d="M232.415 64.5761L229.121 60.8116C229.033 60.7106 228.872 60.7235 228.801 60.8373L226.363 64.7388C226.256 64.9101 226.441 65.114 226.622 65.0237L229.446 63.6115C229.502 63.5834 229.569 63.5834 229.625 63.6115L232.175 64.8867C232.371 64.9848 232.56 64.7412 232.415 64.5761Z" fill="#FFE169"/>
</g>
<g filter="url(#filter13_d_21127_4949)">
<path d="M228.865 58.66L227.642 57.2618C227.554 57.1608 227.393 57.1737 227.322 57.2875L226.362 58.8226C226.255 58.9939 226.441 59.1979 226.621 59.1075L227.671 58.5828C227.727 58.5546 227.794 58.5546 227.85 58.5828L228.625 58.9706C228.822 59.0686 229.01 58.825 228.865 58.66Z" fill="#FFE169"/>
</g>
<g filter="url(#filter14_d_21127_4949)">
<path d="M82.6622 31.0298L83.0965 30.782L82.9526 30.5298L82.6622 30.5298L82.6622 31.0298ZM88.738 41.6783L89.1707 41.9288L89.3147 41.6801L89.1722 41.4305L88.738 41.6783ZM81.7978 52.6678C81.6595 52.9068 81.741 53.2127 81.98 53.3511C82.219 53.4894 82.5249 53.4078 82.6633 53.1689L81.7978 52.6678ZM66.2578 31.5298L82.6622 31.5298L82.6622 30.5298L66.2578 30.5298L66.2578 31.5298ZM82.228 31.2776L88.3037 41.9261L89.1722 41.4305L83.0965 30.782L82.228 31.2776ZM88.3052 41.4278L81.7978 52.6678L82.6633 53.1689L89.1707 41.9288L88.3052 41.4278Z" fill="#FFE5A4"/>
</g>
<g filter="url(#filter15_d_21127_4949)">
<path d="M225.985 13.8735L241.367 38.72" stroke="#FFE5A4"/>
</g>
<defs>
<filter id="filter0_d_21127_4949" x="83.0557" y="4.04932" width="141.015" height="9" filterUnits="userSpaceOnUse" color-interpolation-filters="sRGB">
<feFlood flood-opacity="0" result="BackgroundImageFix"/>
<feColorMatrix in="SourceAlpha" type="matrix" values="0 0 0 0 0 0 0 0 0 0 0 0 0 0 0 0 0 0 127 0" result="hardAlpha"/>
<feOffset/>
<feGaussianBlur stdDeviation="2"/>
<feComposite in2="hardAlpha" operator="out"/>
<feColorMatrix type="matrix" values="0 0 0 0 1 0 0 0 0 0.271605 0 0 0 0 0 0 0 0 1 0"/>
<feBlend mode="normal" in2="BackgroundImageFix" result="effect1_dropShadow_21127_4949"/>
<feBlend mode="normal" in="SourceGraphic" in2="effect1_dropShadow_21127_4949" result="shape"/>
</filter>
<filter id="filter1_d_21127_4949" x="83.0557" y="69.7153" width="141.015" height="9" filterUnits="userSpaceOnUse" color-interpolation-filters="sRGB">
<feFlood flood-opacity="0" result="BackgroundImageFix"/>
<feColorMatrix in="SourceAlpha" type="matrix" values="0 0 0 0 0 0 0 0 0 0 0 0 0 0 0 0 0 0 127 0" result="hardAlpha"/>
<feOffset/>
<feGaussianBlur stdDeviation="2"/>
<feComposite in2="hardAlpha" operator="out"/>
<feColorMatrix type="matrix" values="0 0 0 0 1 0 0 0 0 0.271605 0 0 0 0 0 0 0 0 1 0"/>
<feBlend mode="normal" in2="BackgroundImageFix" result="effect1_dropShadow_21127_4949"/>
<feBlend mode="normal" in="SourceGraphic" in2="effect1_dropShadow_21127_4949" result="shape"/>
</filter>
<filter id="filter2_d_21127_4949" x="143.988" y="64.3906" width="16.6191" height="14.749" filterUnits="userSpaceOnUse" color-interpolation-filters="sRGB">
<feFlood flood-opacity="0" result="BackgroundImageFix"/>
<feColorMatrix in="SourceAlpha" type="matrix" values="0 0 0 0 0 0 0 0 0 0 0 0 0 0 0 0 0 0 127 0" result="hardAlpha"/>
<feOffset/>
<feGaussianBlur stdDeviation="2"/>
<feComposite in2="hardAlpha" operator="out"/>
<feColorMatrix type="matrix" values="0 0 0 0 1 0 0 0 0 0.271605 0 0 0 0 0 0 0 0 1 0"/>
<feBlend mode="normal" in2="BackgroundImageFix" result="effect1_dropShadow_21127_4949"/>
<feBlend mode="normal" in="SourceGraphic" in2="effect1_dropShadow_21127_4949" result="shape"/>
</filter>
<filter id="filter3_i_21127_4949" x="58.3701" y="13.2822" width="195.641" height="60.792" filterUnits="userSpaceOnUse" color-interpolation-filters="sRGB">
<feFlood flood-opacity="0" result="BackgroundImageFix"/>
<feBlend mode="normal" in="SourceGraphic" in2="BackgroundImageFix" result="shape"/>
<feColorMatrix in="SourceAlpha" type="matrix" values="0 0 0 0 0 0 0 0 0 0 0 0 0 0 0 0 0 0 127 0" result="hardAlpha"/>
<feOffset dy="4"/>
<feGaussianBlur stdDeviation="2"/>
<feComposite in2="hardAlpha" operator="arithmetic" k2="-1" k3="1"/>
<feColorMatrix type="matrix" values="0 0 0 0 1 0 0 0 0 0.885502 0 0 0 0 0.593333 0 0 0 1 0"/>
<feBlend mode="normal" in2="shape" result="effect1_innerShadow_21127_4949"/>
</filter>
<filter id="filter4_d_21127_4949" x="51.1094" y="1.0918" width="46.123" height="22.0146" filterUnits="userSpaceOnUse" color-interpolation-filters="sRGB">
<feFlood flood-opacity="0" result="BackgroundImageFix"/>
<feColorMatrix in="SourceAlpha" type="matrix" values="0 0 0 0 0 0 0 0 0 0 0 0 0 0 0 0 0 0 127 0" result="hardAlpha"/>
<feOffset/>
<feGaussianBlur stdDeviation="2"/>
<feComposite in2="hardAlpha" operator="out"/>
<feColorMatrix type="matrix" values="0 0 0 0 1 0 0 0 0 0.271605 0 0 0 0 0 0 0 0 1 0"/>
<feBlend mode="normal" in2="BackgroundImageFix" result="effect1_dropShadow_21127_4949"/>
<feBlend mode="normal" in="SourceGraphic" in2="effect1_dropShadow_21127_4949" result="shape"/>
</filter>
<filter id="filter5_d_21127_4949" x="51.1094" y="59.6587" width="46.123" height="22.0146" filterUnits="userSpaceOnUse" color-interpolation-filters="sRGB">
<feFlood flood-opacity="0" result="BackgroundImageFix"/>
<feColorMatrix in="SourceAlpha" type="matrix" values="0 0 0 0 0 0 0 0 0 0 0 0 0 0 0 0 0 0 127 0" result="hardAlpha"/>
<feOffset/>
<feGaussianBlur stdDeviation="2"/>
<feComposite in2="hardAlpha" operator="out"/>
<feColorMatrix type="matrix" values="0 0 0 0 1 0 0 0 0 0.271605 0 0 0 0 0 0 0 0 1 0"/>
<feBlend mode="normal" in2="BackgroundImageFix" result="effect1_dropShadow_21127_4949"/>
<feBlend mode="normal" in="SourceGraphic" in2="effect1_dropShadow_21127_4949" result="shape"/>
</filter>
<filter id="filter6_d_21127_4949" x="212.02" y="0.5" width="46.1631" height="22.4146" filterUnits="userSpaceOnUse" color-interpolation-filters="sRGB">
<feFlood flood-opacity="0" result="BackgroundImageFix"/>
<feColorMatrix in="SourceAlpha" type="matrix" values="0 0 0 0 0 0 0 0 0 0 0 0 0 0 0 0 0 0 127 0" result="hardAlpha"/>
<feOffset/>
<feGaussianBlur stdDeviation="2"/>
<feComposite in2="hardAlpha" operator="out"/>
<feColorMatrix type="matrix" values="0 0 0 0 1 0 0 0 0 0.271605 0 0 0 0 0 0 0 0 1 0"/>
<feBlend mode="normal" in2="BackgroundImageFix" result="effect1_dropShadow_21127_4949"/>
<feBlend mode="normal" in="SourceGraphic" in2="effect1_dropShadow_21127_4949" result="shape"/>
</filter>
<filter id="filter7_d_21127_4949" x="212.021" y="59.8501" width="46.1631" height="22.4146" filterUnits="userSpaceOnUse" color-interpolation-filters="sRGB">
<feFlood flood-opacity="0" result="BackgroundImageFix"/>
<feColorMatrix in="SourceAlpha" type="matrix" values="0 0 0 0 0 0 0 0 0 0 0 0 0 0 0 0 0 0 127 0" result="hardAlpha"/>
<feOffset/>
<feGaussianBlur stdDeviation="2"/>
<feComposite in2="hardAlpha" operator="out"/>
<feColorMatrix type="matrix" values="0 0 0 0 1 0 0 0 0 0.271605 0 0 0 0 0 0 0 0 1 0"/>
<feBlend mode="normal" in2="BackgroundImageFix" result="effect1_dropShadow_21127_4949"/>
<feBlend mode="normal" in="SourceGraphic" in2="effect1_dropShadow_21127_4949" result="shape"/>
</filter>
<filter id="filter8_d_21127_4949" x="143.988" y="3.625" width="16.6191" height="14.749" filterUnits="userSpaceOnUse" color-interpolation-filters="sRGB">
<feFlood flood-opacity="0" result="BackgroundImageFix"/>
<feColorMatrix in="SourceAlpha" type="matrix" values="0 0 0 0 0 0 0 0 0 0 0 0 0 0 0 0 0 0 127 0" result="hardAlpha"/>
<feOffset/>
<feGaussianBlur stdDeviation="2"/>
<feComposite in2="hardAlpha" operator="out"/>
<feColorMatrix type="matrix" values="0 0 0 0 1 0 0 0 0 0.271605 0 0 0 0 0 0 0 0 1 0"/>
<feBlend mode="normal" in2="BackgroundImageFix" result="effect1_dropShadow_21127_4949"/>
<feBlend mode="normal" in="SourceGraphic" in2="effect1_dropShadow_21127_4949" result="shape"/>
</filter>
<filter id="filter9_d_21127_4949" x="80.7275" y="9.0249" width="22.4736" height="33.3955" filterUnits="userSpaceOnUse" color-interpolation-filters="sRGB">
<feFlood flood-opacity="0" result="BackgroundImageFix"/>
<feColorMatrix in="SourceAlpha" type="matrix" values="0 0 0 0 0 0 0 0 0 0 0 0 0 0 0 0 0 0 127 0" result="hardAlpha"/>
<feOffset/>
<feGaussianBlur stdDeviation="2"/>
<feComposite in2="hardAlpha" operator="out"/>
<feColorMatrix type="matrix" values="0 0 0 0 1 0 0 0 0 0.271605 0 0 0 0 0 0 0 0 1 0"/>
<feBlend mode="normal" in2="BackgroundImageFix" result="effect1_dropShadow_21127_4949"/>
<feBlend mode="normal" in="SourceGraphic" in2="effect1_dropShadow_21127_4949" result="shape"/>
</filter>
<filter id="filter10_d_21127_4949" x="54.3701" y="9.28223" width="203.641" height="64.792" filterUnits="userSpaceOnUse" color-interpolation-filters="sRGB">
<feFlood flood-opacity="0" result="BackgroundImageFix"/>
<feColorMatrix in="SourceAlpha" type="matrix" values="0 0 0 0 0 0 0 0 0 0 0 0 0 0 0 0 0 0 127 0" result="hardAlpha"/>
<feOffset/>
<feGaussianBlur stdDeviation="2"/>
<feComposite in2="hardAlpha" operator="out"/>
<feColorMatrix type="matrix" values="0 0 0 0 1 0 0 0 0 0.271605 0 0 0 0 0 0 0 0 1 0"/>
<feBlend mode="normal" in2="BackgroundImageFix" result="effect1_dropShadow_21127_4949"/>
<feBlend mode="normal" in="SourceGraphic" in2="effect1_dropShadow_21127_4949" result="shape"/>
</filter>
<filter id="filter11_d_21127_4949" x="74.709" y="56.7432" width="14.1348" height="12.3027" filterUnits="userSpaceOnUse" color-interpolation-filters="sRGB">
<feFlood flood-opacity="0" result="BackgroundImageFix"/>
<feColorMatrix in="SourceAlpha" type="matrix" values="0 0 0 0 0 0 0 0 0 0 0 0 0 0 0 0 0 0 127 0" result="hardAlpha"/>
<feOffset/>
<feGaussianBlur stdDeviation="2"/>
<feComposite in2="hardAlpha" operator="out"/>
<feColorMatrix type="matrix" values="0 0 0 0 1 0 0 0 0 0.899726 0 0 0 0 0.6425 0 0 0 1 0"/>
<feBlend mode="normal" in2="BackgroundImageFix" result="effect1_dropShadow_21127_4949"/>
<feBlend mode="normal" in="SourceGraphic" in2="effect1_dropShadow_21127_4949" result="shape"/>
</filter>
<filter id="filter12_d_21127_4949" x="222.331" y="56.7432" width="14.1348" height="12.3027" filterUnits="userSpaceOnUse" color-interpolation-filters="sRGB">
<feFlood flood-opacity="0" result="BackgroundImageFix"/>
<feColorMatrix in="SourceAlpha" type="matrix" values="0 0 0 0 0 0 0 0 0 0 0 0 0 0 0 0 0 0 127 0" result="hardAlpha"/>
<feOffset/>
<feGaussianBlur stdDeviation="2"/>
<feComposite in2="hardAlpha" operator="out"/>
<feColorMatrix type="matrix" values="0 0 0 0 1 0 0 0 0 0.899726 0 0 0 0 0.6425 0 0 0 1 0"/>
<feBlend mode="normal" in2="BackgroundImageFix" result="effect1_dropShadow_21127_4949"/>
<feBlend mode="normal" in="SourceGraphic" in2="effect1_dropShadow_21127_4949" result="shape"/>
</filter>
<filter id="filter13_d_21127_4949" x="222.331" y="53.1934" width="10.585" height="9.93652" filterUnits="userSpaceOnUse" color-interpolation-filters="sRGB">
<feFlood flood-opacity="0" result="BackgroundImageFix"/>
<feColorMatrix in="SourceAlpha" type="matrix" values="0 0 0 0 0 0 0 0 0 0 0 0 0 0 0 0 0 0 127 0" result="hardAlpha"/>
<feOffset/>
<feGaussianBlur stdDeviation="2"/>
<feComposite in2="hardAlpha" operator="out"/>
<feColorMatrix type="matrix" values="0 0 0 0 1 0 0 0 0 0.899726 0 0 0 0 0.6425 0 0 0 1 0"/>
<feBlend mode="normal" in2="BackgroundImageFix" result="effect1_dropShadow_21127_4949"/>
<feBlend mode="normal" in="SourceGraphic" in2="effect1_dropShadow_21127_4949" result="shape"/>
</filter>
<filter id="filter14_d_21127_4949" x="62.2578" y="26.5298" width="31.0566" height="30.8887" filterUnits="userSpaceOnUse" color-interpolation-filters="sRGB">
<feFlood flood-opacity="0" result="BackgroundImageFix"/>
<feColorMatrix in="SourceAlpha" type="matrix" values="0 0 0 0 0 0 0 0 0 0 0 0 0 0 0 0 0 0 127 0" result="hardAlpha"/>
<feOffset/>
<feGaussianBlur stdDeviation="2"/>
<feComposite in2="hardAlpha" operator="out"/>
<feColorMatrix type="matrix" values="0 0 0 0 1 0 0 0 0 0.271605 0 0 0 0 0 0 0 0 1 0"/>
<feBlend mode="normal" in2="BackgroundImageFix" result="effect1_dropShadow_21127_4949"/>
<feBlend mode="normal" in="SourceGraphic" in2="effect1_dropShadow_21127_4949" result="shape"/>
</filter>
<filter id="filter15_d_21127_4949" x="221.561" y="9.61035" width="24.2314" height="33.373" filterUnits="userSpaceOnUse" color-interpolation-filters="sRGB">
<feFlood flood-opacity="0" result="BackgroundImageFix"/>
<feColorMatrix in="SourceAlpha" type="matrix" values="0 0 0 0 0 0 0 0 0 0 0 0 0 0 0 0 0 0 127 0" result="hardAlpha"/>
<feOffset/>
<feGaussianBlur stdDeviation="2"/>
<feComposite in2="hardAlpha" operator="out"/>
<feColorMatrix type="matrix" values="0 0 0 0 1 0 0 0 0 0.271605 0 0 0 0 0 0 0 0 1 0"/>
<feBlend mode="normal" in2="BackgroundImageFix" result="effect1_dropShadow_21127_4949"/>
<feBlend mode="normal" in="SourceGraphic" in2="effect1_dropShadow_21127_4949" result="shape"/>
</filter>
<linearGradient id="paint0_linear_21127_4949" x1="153.813" y1="8.54932" x2="153.813" y2="9.54932" gradientUnits="userSpaceOnUse">
<stop stop-color="#FFAF68"/>
<stop offset="0.684" stop-color="#FFE5A4"/>
</linearGradient>
<linearGradient id="paint1_linear_21127_4949" x1="153.813" y1="74.2153" x2="153.813" y2="73.2153" gradientUnits="userSpaceOnUse">
<stop stop-color="#FFAF68"/>
<stop offset="0.684" stop-color="#FFE5A4"/>
</linearGradient>
<linearGradient id="paint2_linear_21127_4949" x1="152.334" y1="74.8066" x2="152.334" y2="68.8908" gradientUnits="userSpaceOnUse">
<stop stop-color="#FFAF68"/>
<stop offset="0.684" stop-color="#FFE5A4"/>
</linearGradient>
<linearGradient id="paint3_linear_21127_4949" x1="37.2709" y1="49.3687" x2="37.2709" y2="54.6929" gradientUnits="userSpaceOnUse">
<stop stop-color="#FFAF68"/>
<stop offset="1" stop-color="#FFE5A4"/>
</linearGradient>
<linearGradient id="paint4_linear_21127_4949" x1="275.678" y1="49.3687" x2="275.678" y2="54.6929" gradientUnits="userSpaceOnUse">
<stop stop-color="#FFAF68"/>
<stop offset="1" stop-color="#FFE5A4"/>
</linearGradient>
<linearGradient id="paint5_linear_21127_4949" x1="156.179" y1="21.5644" x2="156.179" y2="60.6089" gradientUnits="userSpaceOnUse">
<stop stop-color="#FFD588"/>
<stop offset="1" stop-color="#EF9748"/>
</linearGradient>
<linearGradient id="paint6_linear_21127_4949" x1="154.995" y1="21.5644" x2="154.995" y2="60.6089" gradientUnits="userSpaceOnUse">
<stop stop-color="#FB8849"/>
<stop offset="1" stop-color="#FD9B4C"/>
</linearGradient>
<linearGradient id="paint7_linear_21127_4949" x1="154.996" y1="13.2822" x2="154.996" y2="70.0742" gradientUnits="userSpaceOnUse">
<stop stop-color="#FF8B4D"/>
<stop offset="1" stop-color="#FFD277"/>
</linearGradient>
<linearGradient id="paint8_linear_21127_4949" x1="156.179" y1="13.2822" x2="156.179" y2="70.0742" gradientUnits="userSpaceOnUse">
<stop stop-color="#EB814B"/>
<stop offset="0.485" stop-color="#FFAC61"/>
<stop offset="1" stop-color="#FFDF7E" stop-opacity="0.3"/>
</linearGradient>
<linearGradient id="paint9_linear_21127_4949" x1="74.8358" y1="5.5918" x2="74.8358" y2="17.4235" gradientUnits="userSpaceOnUse">
<stop stop-color="#FFAF68"/>
<stop offset="0.684" stop-color="#FFE5A4"/>
</linearGradient>
<linearGradient id="paint10_linear_21127_4949" x1="74.8358" y1="77.1733" x2="74.8358" y2="65.3417" gradientUnits="userSpaceOnUse">
<stop stop-color="#FFAF68"/>
<stop offset="0.684" stop-color="#FFE5A4"/>
</linearGradient>
<linearGradient id="paint11_linear_21127_4949" x1="234.563" y1="5" x2="234.563" y2="16.8317" gradientUnits="userSpaceOnUse">
<stop stop-color="#FFAF68"/>
<stop offset="0.684" stop-color="#FFE5A4"/>
</linearGradient>
<linearGradient id="paint12_linear_21127_4949" x1="234.564" y1="77.7646" x2="234.564" y2="65.933" gradientUnits="userSpaceOnUse">
<stop stop-color="#FFAF68"/>
<stop offset="0.684" stop-color="#FFE5A4"/>
</linearGradient>
<linearGradient id="paint13_linear_21127_4949" x1="152.334" y1="7.95801" x2="152.334" y2="13.8738" gradientUnits="userSpaceOnUse">
<stop stop-color="#FFAF68"/>
<stop offset="0.684" stop-color="#FFE5A4"/>
</linearGradient>
<linearGradient id="paint14_linear_21127_4949" x1="91.9917" y1="13.2822" x2="91.9917" y2="38.1287" gradientUnits="userSpaceOnUse">
<stop stop-color="#FFAF68"/>
<stop offset="0.684" stop-color="#FFE5A4"/>
</linearGradient>
</defs>
</svg>
