<svg width="312" height="81" viewBox="0 0 312 81" fill="none" xmlns="http://www.w3.org/2000/svg">
<g filter="url(#filter0_d_21130_4979)">
<path d="M87.5557 7.96338C87.2795 7.96338 87.0557 8.18724 87.0557 8.46338C87.0557 8.73952 87.2795 8.96338 87.5557 8.96338L87.5557 7.96338ZM87.5557 8.96338L220.07 8.96339L220.07 7.96339L87.5557 7.96338L87.5557 8.96338Z" fill="url(#paint0_linear_21130_4979)"/>
</g>
<g filter="url(#filter1_d_21130_4979)">
<path d="M87.5557 73.0366C87.2795 73.0366 87.0557 72.8128 87.0557 72.5366C87.0557 72.2605 87.2795 72.0366 87.5557 72.0366L87.5557 73.0366ZM87.5557 72.0366L220.07 72.0366L220.07 73.0366L87.5557 73.0366L87.5557 72.0366Z" fill="url(#paint1_linear_21130_4979)"/>
</g>
<g filter="url(#filter2_d_21130_4979)">
<path d="M148.082 67.6329C147.921 67.4085 147.972 67.0961 148.197 66.9351C148.421 66.7742 148.734 66.8256 148.895 67.05L148.082 67.6329ZM152.454 72.8694L152.86 72.5779L152.454 72.8694ZM152.787 72.8576L153.213 73.1195L152.787 72.8576ZM148.895 67.05L152.86 72.5779L152.048 73.1608L148.082 67.6329L148.895 67.05ZM152.361 72.5957L155.753 67.0795L156.605 67.6033L153.213 73.1195L152.361 72.5957ZM152.86 72.5779C152.735 72.4037 152.473 72.413 152.361 72.5957L153.213 73.1195C152.951 73.5456 152.339 73.5673 152.048 73.1608L152.86 72.5779Z" fill="url(#paint2_linear_21130_4979)"/>
</g>
<path d="M310.929 40.2809C311.058 40.4567 311.058 40.6955 310.929 40.8713L291.547 67.3659C291.453 67.4946 291.303 67.5707 291.143 67.5707L22.3712 67.5707C22.2188 67.5707 22.0749 67.5012 21.98 67.3821L0.887511 40.8875C0.742431 40.7053 0.742431 40.447 0.887511 40.2647L21.98 13.7701C22.0749 13.651 22.2188 13.5815 22.3712 13.5815L291.143 13.5816C291.303 13.5816 291.453 13.6576 291.547 13.7864L310.929 40.2809Z" stroke="#9651A1"/>
<path d="M30.1719 48.293L40.8204 48.293M34.313 53.4881L44.3699 53.4881" stroke="url(#paint3_linear_21130_4979)"/>
<path d="M282.777 48.293L272.129 48.293M278.636 53.4881L268.579 53.4881" stroke="url(#paint4_linear_21130_4979)"/>
<path d="M289.014 39.9073C289.151 40.0867 289.151 40.3361 289.014 40.5156L272.529 62.0277C272.434 62.1512 272.288 62.2236 272.132 62.2236L41.7231 62.2236C41.5748 62.2236 41.4342 62.1578 41.3391 62.0438L23.3996 40.5316C23.2449 40.3462 23.2449 40.0767 23.3996 39.8912L41.3392 18.379C41.4342 18.2651 41.5748 18.1992 41.7232 18.1992L272.132 18.1992C272.288 18.1992 272.434 18.2716 272.529 18.3951L289.014 39.9073Z" stroke="#764199"/>
<path d="M279.487 39.8895C279.643 40.0755 279.643 40.3473 279.487 40.5333L264.298 58.5821C264.203 58.695 264.063 58.7602 263.916 58.7602L49.8309 58.7602C49.6907 58.7602 49.5569 58.7013 49.4622 58.5978L32.9336 40.5491C32.7586 40.358 32.7586 40.0648 32.9336 39.8737L49.4622 21.8249C49.5569 21.7215 49.6907 21.6626 49.8309 21.6626L263.916 21.6626C264.063 21.6626 264.203 21.7278 264.298 21.8407L279.487 39.8895Z" stroke="url(#paint5_linear_21130_4979)"/>
<path d="M268.11 39.6016C268.387 39.9611 268.387 40.4617 268.11 40.8212L254.223 58.8699C254.034 59.116 253.741 59.2602 253.431 59.2602L57.8274 59.2602C57.5315 59.2602 57.2507 59.1291 57.0607 58.9021L41.9488 40.8533C41.6378 40.4819 41.6378 39.9409 41.9488 39.5694L57.0607 21.5206C57.2507 21.2937 57.5315 21.1626 57.8274 21.1626L253.431 21.1626C253.741 21.1626 254.034 21.3068 254.223 21.5528L268.11 39.6016Z" fill="url(#paint6_linear_21130_4979)"/>
<path d="M260.782 39.7052C261.207 40.365 261.207 41.2127 260.782 41.8725L244.209 67.5798C243.841 68.1511 243.208 68.4962 242.528 68.4962L68.6028 68.4962C67.9334 68.4962 67.3083 68.1612 66.9376 67.6038L49.8389 41.8965C49.3927 41.2255 49.3927 40.3522 49.8389 39.6812L66.9375 13.9739C67.3083 13.4165 67.9334 13.0815 68.6028 13.0815L242.528 13.0816C243.208 13.0816 243.841 13.4267 244.209 13.9979L260.782 39.7052Z" fill="url(#paint7_linear_21130_4979)"/>
<g filter="url(#filter3_i_21130_4979)">
<path d="M253.69 39.6279C254.118 40.3456 254.118 41.2322 253.69 41.9499L238.548 67.3483C238.124 68.059 237.345 68.4962 236.502 68.4962L76.3589 68.4962C75.5278 68.4962 74.7577 68.0708 74.33 67.3755L58.7074 41.9771C58.2575 41.2457 58.2575 40.332 58.7074 39.6007L74.33 14.2023C74.7577 13.507 75.5278 13.0815 76.3589 13.0815L236.502 13.0816C237.345 13.0816 238.124 13.5188 238.548 14.2295L253.69 39.6279Z" fill="url(#paint8_linear_21130_4979)"/>
</g>
<ellipse cx="46.1441" cy="40.7887" rx="1.18317" ry="1.15447" fill="#EACCFF"/>
<ellipse cx="263.847" cy="40.7887" rx="1.18317" ry="1.15447" fill="#EACCFF"/>
<g filter="url(#filter4_d_21130_4979)">
<path d="M55.2262 17.9556C55.0488 18.1672 55.0765 18.4825 55.2881 18.66C55.4997 18.8374 55.8151 18.8097 55.9925 18.5981L55.2262 17.9556ZM66.2579 5.57764L66.2579 5.07764L66.0246 5.07764L65.8747 5.25637L66.2579 5.57764ZM85.1885 5.57764L85.5377 5.21977L85.392 5.07764L85.1885 5.07764L85.1885 5.57764ZM55.9925 18.5981L66.641 5.8989L65.8747 5.25637L55.2262 17.9556L55.9925 18.5981ZM66.2579 6.07764L85.1885 6.07764L85.1885 5.07764L66.2579 5.07764L66.2579 6.07764ZM84.8393 5.9355L92.5299 13.4396L93.2283 12.7238L85.5377 5.21977L84.8393 5.9355Z" fill="url(#paint9_linear_21130_4979)"/>
</g>
<g filter="url(#filter5_d_21130_4979)">
<path d="M55.2262 63.0449C55.0488 62.8333 55.0765 62.518 55.2881 62.3405C55.4997 62.1631 55.8151 62.1908 55.9925 62.4024L55.2262 63.0449ZM66.2579 75.4229L66.2579 75.9229L66.0246 75.9229L65.8747 75.7441L66.2579 75.4229ZM85.1885 75.4229L85.5377 75.7807L85.392 75.9229L85.1885 75.9229L85.1885 75.4229ZM55.9925 62.4024L66.641 75.1016L65.8747 75.7441L55.2262 63.0449L55.9925 62.4024ZM66.2579 74.9229L85.1885 74.9229L85.1885 75.9229L66.2579 75.9229L66.2579 74.9229ZM84.8393 75.065L92.5299 67.5609L93.2283 68.2767L85.5377 75.7807L84.8393 75.065Z" fill="url(#paint10_linear_21130_4979)"/>
</g>
<g filter="url(#filter6_d_21130_4979)">
<path d="M243.141 5L243.141 4.5L243.38 4.5L243.531 4.68716L243.141 5ZM224.21 5L223.861 4.64213L224.006 4.5L224.21 4.5L224.21 5ZM216.869 12.8619C216.671 13.0548 216.354 13.0509 216.161 12.8533C215.969 12.6556 215.973 12.3391 216.17 12.1462L216.869 12.8619ZM253.399 18.5893L242.751 5.31284L243.531 4.68716L254.179 17.9636L253.399 18.5893ZM243.141 5.5L224.21 5.5L224.21 4.5L243.141 4.5L243.141 5.5ZM224.559 5.35787L216.869 12.8619L216.17 12.1462L223.861 4.64213L224.559 5.35787Z" fill="url(#paint11_linear_21130_4979)"/>
</g>
<g filter="url(#filter7_d_21130_4979)">
<path d="M243.142 76L243.142 76.5L243.381 76.5L243.532 76.3128L243.142 76ZM224.211 76L223.862 76.3579L224.007 76.5L224.211 76.5L224.211 76ZM216.87 68.1381C216.672 67.9452 216.355 67.9491 216.162 68.1467C215.97 68.3444 215.973 68.6609 216.171 68.8538L216.87 68.1381ZM253.4 62.4107L242.752 75.6872L243.532 76.3128L254.18 63.0364L253.4 62.4107ZM243.142 75.5L224.211 75.5L224.211 76.5L243.142 76.5L243.142 75.5ZM224.56 75.6421L216.87 68.1381L216.171 68.8538L223.862 76.3579L224.56 75.6421Z" fill="url(#paint12_linear_21130_4979)"/>
</g>
<g filter="url(#filter8_d_21130_4979)">
<path d="M148.082 13.3671C147.921 13.5915 147.972 13.9039 148.197 14.0649C148.421 14.2258 148.734 14.1744 148.895 13.95L148.082 13.3671ZM152.454 8.13062L152.86 8.42208L152.454 8.13062ZM152.787 8.14244L153.213 7.88054L152.787 8.14244ZM148.895 13.95L152.86 8.42208L152.048 7.83917L148.082 13.3671L148.895 13.95ZM152.361 8.40435L155.753 13.9205L156.605 13.3967L153.213 7.88054L152.361 8.40435ZM152.86 8.42208C152.735 8.59627 152.473 8.58696 152.361 8.40435L153.213 7.88054C152.951 7.45443 152.339 7.43272 152.048 7.83917L152.86 8.42208Z" fill="url(#paint13_linear_21130_4979)"/>
</g>
<g filter="url(#filter9_d_21130_4979)">
<path d="M88.738 13.0815L85.2591 18.7391C85.2164 18.8085 85.2201 18.8968 85.2684 18.9624L98.7949 37.3254" stroke="url(#paint14_linear_21130_4979)"/>
</g>
<g filter="url(#filter10_d_21130_4979)">
<path fill-rule="evenodd" clip-rule="evenodd" d="M252.667 41.3694L237.525 66.7678C237.313 67.1231 236.924 67.3417 236.502 67.3417L76.3591 67.3417C75.9435 67.3417 75.5584 67.129 75.3446 66.7814L66.1213 51.7867L76.3089 51.7867C76.6769 51.7867 77.0152 51.5845 77.1895 51.2604L82.5674 41.2626C82.7265 40.9668 82.7265 40.6109 82.5674 40.3152L77.1895 30.3173C77.0152 29.9932 76.6769 29.7911 76.3089 29.7911L66.1213 29.7911L75.3446 14.7964C75.5584 14.4487 75.9435 14.236 76.3591 14.236L236.502 14.236C236.924 14.236 237.313 14.4547 237.525 14.81L252.667 40.2084C252.881 40.5672 252.881 41.0105 252.667 41.3694ZM253.69 39.6279C254.118 40.3456 254.118 41.2322 253.69 41.9499L238.548 67.3483C238.124 68.059 237.345 68.4962 236.502 68.4962L76.3591 68.4962C75.528 68.4962 74.7578 68.0708 74.3301 67.3755L58.7075 41.9771C58.2577 41.2458 58.2577 40.332 58.7075 39.6007L74.3301 14.2023C74.7578 13.507 75.528 13.0815 76.3591 13.0815L236.502 13.0816C237.345 13.0816 238.124 13.5188 238.548 14.2295L253.69 39.6279ZM81.6868 40.7889L76.3089 50.7867L65.6724 50.7867L60.2944 40.7889L65.6724 30.7911L76.3089 30.7911L81.6868 40.7889Z" fill="#AB4FEA"/>
</g>
<g filter="url(#filter11_d_21130_4979)">
<path d="M78.7733 63.116L82.0554 59.456C82.1437 59.3576 82.3014 59.3703 82.3727 59.4816L84.8045 63.278C84.9135 63.4482 84.73 63.6543 84.5483 63.5657L81.727 62.1892C81.6717 62.1622 81.607 62.1622 81.5516 62.1892L79.0099 63.4293C78.8125 63.5256 78.6267 63.2795 78.7733 63.116Z" fill="#C24FEA"/>
</g>
<g filter="url(#filter12_d_21130_4979)">
<path d="M232.402 63.116L229.119 59.456C229.031 59.3576 228.873 59.3703 228.802 59.4816L226.37 63.278C226.261 63.4482 226.445 63.6543 226.626 63.5657L229.448 62.1892C229.503 62.1622 229.568 62.1622 229.623 62.1892L232.165 63.4293C232.362 63.5256 232.548 63.2795 232.402 63.116Z" fill="#C24FEA"/>
</g>
<g filter="url(#filter13_d_21130_4979)">
<path d="M228.852 57.3437L227.64 55.9926C227.552 55.8942 227.394 55.9069 227.323 56.0182L226.37 57.5057C226.261 57.6759 226.444 57.882 226.626 57.7933L227.673 57.2827C227.728 57.2557 227.793 57.2557 227.848 57.2827L228.615 57.657C228.812 57.7532 228.998 57.5072 228.852 57.3437Z" fill="#C24FEA"/>
</g>
<g filter="url(#filter14_d_21130_4979)">
<path d="M82.6622 30.3984L83.0939 30.146L82.9491 29.8984L82.6622 29.8984L82.6622 30.3984ZM88.738 40.7887L89.168 41.0438L89.3183 40.7905L89.1696 40.5363L88.738 40.7887ZM81.8005 51.501C81.6596 51.7385 81.7379 52.0453 81.9754 52.1862C82.2129 52.3271 82.5196 52.2488 82.6606 52.0113L81.8005 51.501ZM66.2578 30.8984L82.6622 30.8984L82.6622 29.8984L66.2578 29.8984L66.2578 30.8984ZM82.2306 30.6508L88.3063 41.0411L89.1696 40.5363L83.0939 30.146L82.2306 30.6508ZM88.308 40.5335L81.8005 51.501L82.6606 52.0113L89.168 41.0438L88.308 40.5335Z" fill="#AB4FEA"/>
</g>
<g filter="url(#filter15_d_21130_4979)">
<path d="M225.985 13.6587L241.367 37.9026" stroke="#AB4FEA"/>
</g>
<defs>
<filter id="filter0_d_21130_4979" x="83.0557" y="3.96338" width="141.015" height="9" filterUnits="userSpaceOnUse" color-interpolation-filters="sRGB">
<feFlood flood-opacity="0" result="BackgroundImageFix"/>
<feColorMatrix in="SourceAlpha" type="matrix" values="0 0 0 0 0 0 0 0 0 0 0 0 0 0 0 0 0 0 127 0" result="hardAlpha"/>
<feOffset/>
<feGaussianBlur stdDeviation="2"/>
<feComposite in2="hardAlpha" operator="out"/>
<feColorMatrix type="matrix" values="0 0 0 0 0.948261 0 0 0 0 0.630436 0 0 0 0 1 0 0 0 1 0"/>
<feBlend mode="normal" in2="BackgroundImageFix" result="effect1_dropShadow_21130_4979"/>
<feBlend mode="normal" in="SourceGraphic" in2="effect1_dropShadow_21130_4979" result="shape"/>
</filter>
<filter id="filter1_d_21130_4979" x="83.0557" y="68.0366" width="141.015" height="9" filterUnits="userSpaceOnUse" color-interpolation-filters="sRGB">
<feFlood flood-opacity="0" result="BackgroundImageFix"/>
<feColorMatrix in="SourceAlpha" type="matrix" values="0 0 0 0 0 0 0 0 0 0 0 0 0 0 0 0 0 0 127 0" result="hardAlpha"/>
<feOffset/>
<feGaussianBlur stdDeviation="2"/>
<feComposite in2="hardAlpha" operator="out"/>
<feColorMatrix type="matrix" values="0 0 0 0 0.948261 0 0 0 0 0.630436 0 0 0 0 1 0 0 0 1 0"/>
<feBlend mode="normal" in2="BackgroundImageFix" result="effect1_dropShadow_21130_4979"/>
<feBlend mode="normal" in="SourceGraphic" in2="effect1_dropShadow_21130_4979" result="shape"/>
</filter>
<filter id="filter2_d_21130_4979" x="143.988" y="62.8413" width="16.6162" height="14.6113" filterUnits="userSpaceOnUse" color-interpolation-filters="sRGB">
<feFlood flood-opacity="0" result="BackgroundImageFix"/>
<feColorMatrix in="SourceAlpha" type="matrix" values="0 0 0 0 0 0 0 0 0 0 0 0 0 0 0 0 0 0 127 0" result="hardAlpha"/>
<feOffset/>
<feGaussianBlur stdDeviation="2"/>
<feComposite in2="hardAlpha" operator="out"/>
<feColorMatrix type="matrix" values="0 0 0 0 0.948261 0 0 0 0 0.630436 0 0 0 0 1 0 0 0 1 0"/>
<feBlend mode="normal" in2="BackgroundImageFix" result="effect1_dropShadow_21130_4979"/>
<feBlend mode="normal" in="SourceGraphic" in2="effect1_dropShadow_21130_4979" result="shape"/>
</filter>
<filter id="filter3_i_21130_4979" x="58.3701" y="13.0815" width="195.641" height="59.4146" filterUnits="userSpaceOnUse" color-interpolation-filters="sRGB">
<feFlood flood-opacity="0" result="BackgroundImageFix"/>
<feBlend mode="normal" in="SourceGraphic" in2="BackgroundImageFix" result="shape"/>
<feColorMatrix in="SourceAlpha" type="matrix" values="0 0 0 0 0 0 0 0 0 0 0 0 0 0 0 0 0 0 127 0" result="hardAlpha"/>
<feOffset dy="4"/>
<feGaussianBlur stdDeviation="2"/>
<feComposite in2="hardAlpha" operator="arithmetic" k2="-1" k3="1"/>
<feColorMatrix type="matrix" values="0 0 0 0 0.893673 0 0 0 0 0.591048 0 0 0 0 1 0 0 0 1 0"/>
<feBlend mode="normal" in2="shape" result="effect1_innerShadow_21130_4979"/>
</filter>
<filter id="filter4_d_21130_4979" x="51.1094" y="1.07764" width="46.1191" height="21.6992" filterUnits="userSpaceOnUse" color-interpolation-filters="sRGB">
<feFlood flood-opacity="0" result="BackgroundImageFix"/>
<feColorMatrix in="SourceAlpha" type="matrix" values="0 0 0 0 0 0 0 0 0 0 0 0 0 0 0 0 0 0 127 0" result="hardAlpha"/>
<feOffset/>
<feGaussianBlur stdDeviation="2"/>
<feComposite in2="hardAlpha" operator="out"/>
<feColorMatrix type="matrix" values="0 0 0 0 0.948261 0 0 0 0 0.630436 0 0 0 0 1 0 0 0 1 0"/>
<feBlend mode="normal" in2="BackgroundImageFix" result="effect1_dropShadow_21130_4979"/>
<feBlend mode="normal" in="SourceGraphic" in2="effect1_dropShadow_21130_4979" result="shape"/>
</filter>
<filter id="filter5_d_21130_4979" x="51.1094" y="58.2236" width="46.1191" height="21.6992" filterUnits="userSpaceOnUse" color-interpolation-filters="sRGB">
<feFlood flood-opacity="0" result="BackgroundImageFix"/>
<feColorMatrix in="SourceAlpha" type="matrix" values="0 0 0 0 0 0 0 0 0 0 0 0 0 0 0 0 0 0 127 0" result="hardAlpha"/>
<feOffset/>
<feGaussianBlur stdDeviation="2"/>
<feComposite in2="hardAlpha" operator="out"/>
<feColorMatrix type="matrix" values="0 0 0 0 0.948261 0 0 0 0 0.630436 0 0 0 0 1 0 0 0 1 0"/>
<feBlend mode="normal" in2="BackgroundImageFix" result="effect1_dropShadow_21130_4979"/>
<feBlend mode="normal" in="SourceGraphic" in2="effect1_dropShadow_21130_4979" result="shape"/>
</filter>
<filter id="filter6_d_21130_4979" x="212.02" y="0.5" width="46.1592" height="22.0894" filterUnits="userSpaceOnUse" color-interpolation-filters="sRGB">
<feFlood flood-opacity="0" result="BackgroundImageFix"/>
<feColorMatrix in="SourceAlpha" type="matrix" values="0 0 0 0 0 0 0 0 0 0 0 0 0 0 0 0 0 0 127 0" result="hardAlpha"/>
<feOffset/>
<feGaussianBlur stdDeviation="2"/>
<feComposite in2="hardAlpha" operator="out"/>
<feColorMatrix type="matrix" values="0 0 0 0 0.948261 0 0 0 0 0.630436 0 0 0 0 1 0 0 0 1 0"/>
<feBlend mode="normal" in2="BackgroundImageFix" result="effect1_dropShadow_21130_4979"/>
<feBlend mode="normal" in="SourceGraphic" in2="effect1_dropShadow_21130_4979" result="shape"/>
</filter>
<filter id="filter7_d_21130_4979" x="212.021" y="58.4106" width="46.1592" height="22.0894" filterUnits="userSpaceOnUse" color-interpolation-filters="sRGB">
<feFlood flood-opacity="0" result="BackgroundImageFix"/>
<feColorMatrix in="SourceAlpha" type="matrix" values="0 0 0 0 0 0 0 0 0 0 0 0 0 0 0 0 0 0 127 0" result="hardAlpha"/>
<feOffset/>
<feGaussianBlur stdDeviation="2"/>
<feComposite in2="hardAlpha" operator="out"/>
<feColorMatrix type="matrix" values="0 0 0 0 0.948261 0 0 0 0 0.630436 0 0 0 0 1 0 0 0 1 0"/>
<feBlend mode="normal" in2="BackgroundImageFix" result="effect1_dropShadow_21130_4979"/>
<feBlend mode="normal" in="SourceGraphic" in2="effect1_dropShadow_21130_4979" result="shape"/>
</filter>
<filter id="filter8_d_21130_4979" x="143.988" y="3.54736" width="16.6162" height="14.6113" filterUnits="userSpaceOnUse" color-interpolation-filters="sRGB">
<feFlood flood-opacity="0" result="BackgroundImageFix"/>
<feColorMatrix in="SourceAlpha" type="matrix" values="0 0 0 0 0 0 0 0 0 0 0 0 0 0 0 0 0 0 127 0" result="hardAlpha"/>
<feOffset/>
<feGaussianBlur stdDeviation="2"/>
<feComposite in2="hardAlpha" operator="out"/>
<feColorMatrix type="matrix" values="0 0 0 0 0.948261 0 0 0 0 0.630436 0 0 0 0 1 0 0 0 1 0"/>
<feBlend mode="normal" in2="BackgroundImageFix" result="effect1_dropShadow_21130_4979"/>
<feBlend mode="normal" in="SourceGraphic" in2="effect1_dropShadow_21130_4979" result="shape"/>
</filter>
<filter id="filter9_d_21130_4979" x="80.7295" y="8.81982" width="22.4678" height="32.8022" filterUnits="userSpaceOnUse" color-interpolation-filters="sRGB">
<feFlood flood-opacity="0" result="BackgroundImageFix"/>
<feColorMatrix in="SourceAlpha" type="matrix" values="0 0 0 0 0 0 0 0 0 0 0 0 0 0 0 0 0 0 127 0" result="hardAlpha"/>
<feOffset/>
<feGaussianBlur stdDeviation="2"/>
<feComposite in2="hardAlpha" operator="out"/>
<feColorMatrix type="matrix" values="0 0 0 0 0.948261 0 0 0 0 0.630436 0 0 0 0 1 0 0 0 1 0"/>
<feBlend mode="normal" in2="BackgroundImageFix" result="effect1_dropShadow_21130_4979"/>
<feBlend mode="normal" in="SourceGraphic" in2="effect1_dropShadow_21130_4979" result="shape"/>
</filter>
<filter id="filter10_d_21130_4979" x="54.3701" y="9.08154" width="203.641" height="63.4146" filterUnits="userSpaceOnUse" color-interpolation-filters="sRGB">
<feFlood flood-opacity="0" result="BackgroundImageFix"/>
<feColorMatrix in="SourceAlpha" type="matrix" values="0 0 0 0 0 0 0 0 0 0 0 0 0 0 0 0 0 0 127 0" result="hardAlpha"/>
<feOffset/>
<feGaussianBlur stdDeviation="2"/>
<feComposite in2="hardAlpha" operator="out"/>
<feColorMatrix type="matrix" values="0 0 0 0 0.863428 0 0 0 0 0.474723 0 0 0 0 1 0 0 0 1 0"/>
<feBlend mode="normal" in2="BackgroundImageFix" result="effect1_dropShadow_21130_4979"/>
<feBlend mode="normal" in="SourceGraphic" in2="effect1_dropShadow_21130_4979" result="shape"/>
</filter>
<filter id="filter11_d_21130_4979" x="74.7207" y="55.3896" width="14.1162" height="12.1973" filterUnits="userSpaceOnUse" color-interpolation-filters="sRGB">
<feFlood flood-opacity="0" result="BackgroundImageFix"/>
<feColorMatrix in="SourceAlpha" type="matrix" values="0 0 0 0 0 0 0 0 0 0 0 0 0 0 0 0 0 0 127 0" result="hardAlpha"/>
<feOffset/>
<feGaussianBlur stdDeviation="2"/>
<feComposite in2="hardAlpha" operator="out"/>
<feColorMatrix type="matrix" values="0 0 0 0 1 0 0 0 0 0.899726 0 0 0 0 0.6425 0 0 0 1 0"/>
<feBlend mode="normal" in2="BackgroundImageFix" result="effect1_dropShadow_21130_4979"/>
<feBlend mode="normal" in="SourceGraphic" in2="effect1_dropShadow_21130_4979" result="shape"/>
</filter>
<filter id="filter12_d_21130_4979" x="222.338" y="55.3896" width="14.1162" height="12.1973" filterUnits="userSpaceOnUse" color-interpolation-filters="sRGB">
<feFlood flood-opacity="0" result="BackgroundImageFix"/>
<feColorMatrix in="SourceAlpha" type="matrix" values="0 0 0 0 0 0 0 0 0 0 0 0 0 0 0 0 0 0 127 0" result="hardAlpha"/>
<feOffset/>
<feGaussianBlur stdDeviation="2"/>
<feComposite in2="hardAlpha" operator="out"/>
<feColorMatrix type="matrix" values="0 0 0 0 1 0 0 0 0 0.899726 0 0 0 0 0.6425 0 0 0 1 0"/>
<feBlend mode="normal" in2="BackgroundImageFix" result="effect1_dropShadow_21130_4979"/>
<feBlend mode="normal" in="SourceGraphic" in2="effect1_dropShadow_21130_4979" result="shape"/>
</filter>
<filter id="filter13_d_21130_4979" x="222.337" y="51.9263" width="10.5674" height="9.88818" filterUnits="userSpaceOnUse" color-interpolation-filters="sRGB">
<feFlood flood-opacity="0" result="BackgroundImageFix"/>
<feColorMatrix in="SourceAlpha" type="matrix" values="0 0 0 0 0 0 0 0 0 0 0 0 0 0 0 0 0 0 127 0" result="hardAlpha"/>
<feOffset/>
<feGaussianBlur stdDeviation="2"/>
<feComposite in2="hardAlpha" operator="out"/>
<feColorMatrix type="matrix" values="0 0 0 0 1 0 0 0 0 0.899726 0 0 0 0 0.6425 0 0 0 1 0"/>
<feBlend mode="normal" in2="BackgroundImageFix" result="effect1_dropShadow_21130_4979"/>
<feBlend mode="normal" in="SourceGraphic" in2="effect1_dropShadow_21130_4979" result="shape"/>
</filter>
<filter id="filter14_d_21130_4979" x="62.2578" y="25.8984" width="31.0605" height="30.3579" filterUnits="userSpaceOnUse" color-interpolation-filters="sRGB">
<feFlood flood-opacity="0" result="BackgroundImageFix"/>
<feColorMatrix in="SourceAlpha" type="matrix" values="0 0 0 0 0 0 0 0 0 0 0 0 0 0 0 0 0 0 127 0" result="hardAlpha"/>
<feOffset/>
<feGaussianBlur stdDeviation="2"/>
<feComposite in2="hardAlpha" operator="out"/>
<feColorMatrix type="matrix" values="0 0 0 0 0.948261 0 0 0 0 0.630436 0 0 0 0 1 0 0 0 1 0"/>
<feBlend mode="normal" in2="BackgroundImageFix" result="effect1_dropShadow_21130_4979"/>
<feBlend mode="normal" in="SourceGraphic" in2="effect1_dropShadow_21130_4979" result="shape"/>
</filter>
<filter id="filter15_d_21130_4979" x="221.563" y="9.39062" width="24.2256" height="32.7798" filterUnits="userSpaceOnUse" color-interpolation-filters="sRGB">
<feFlood flood-opacity="0" result="BackgroundImageFix"/>
<feColorMatrix in="SourceAlpha" type="matrix" values="0 0 0 0 0 0 0 0 0 0 0 0 0 0 0 0 0 0 127 0" result="hardAlpha"/>
<feOffset/>
<feGaussianBlur stdDeviation="2"/>
<feComposite in2="hardAlpha" operator="out"/>
<feColorMatrix type="matrix" values="0 0 0 0 0.948261 0 0 0 0 0.630436 0 0 0 0 1 0 0 0 1 0"/>
<feBlend mode="normal" in2="BackgroundImageFix" result="effect1_dropShadow_21130_4979"/>
<feBlend mode="normal" in="SourceGraphic" in2="effect1_dropShadow_21130_4979" result="shape"/>
</filter>
<linearGradient id="paint0_linear_21130_4979" x1="153.813" y1="8.46338" x2="153.813" y2="9.46338" gradientUnits="userSpaceOnUse">
<stop stop-color="#AB4FEA"/>
<stop offset="0.684" stop-color="#C570FF"/>
</linearGradient>
<linearGradient id="paint1_linear_21130_4979" x1="153.813" y1="72.5366" x2="153.813" y2="71.5366" gradientUnits="userSpaceOnUse">
<stop stop-color="#AB4FEA"/>
<stop offset="0.684" stop-color="#C570FF"/>
</linearGradient>
<linearGradient id="paint2_linear_21130_4979" x1="152.334" y1="73.1138" x2="152.334" y2="67.3414" gradientUnits="userSpaceOnUse">
<stop stop-color="#AB4FEA"/>
<stop offset="0.684" stop-color="#C24FEA"/>
</linearGradient>
<linearGradient id="paint3_linear_21130_4979" x1="37.2709" y1="48.293" x2="37.2709" y2="53.4881" gradientUnits="userSpaceOnUse">
<stop stop-color="#AB4FEA"/>
<stop offset="1" stop-color="#C24FEA"/>
</linearGradient>
<linearGradient id="paint4_linear_21130_4979" x1="275.678" y1="48.293" x2="275.678" y2="53.4881" gradientUnits="userSpaceOnUse">
<stop stop-color="#AB4FEA"/>
<stop offset="1" stop-color="#C24FEA"/>
</linearGradient>
<linearGradient id="paint5_linear_21130_4979" x1="156.179" y1="21.1626" x2="156.179" y2="59.2602" gradientUnits="userSpaceOnUse">
<stop stop-color="#9651A1"/>
<stop offset="1" stop-color="#AB4FEA"/>
</linearGradient>
<linearGradient id="paint6_linear_21130_4979" x1="154.995" y1="21.1626" x2="154.995" y2="59.2602" gradientUnits="userSpaceOnUse">
<stop stop-color="#AB4FEA"/>
<stop offset="1" stop-color="#923AA9"/>
</linearGradient>
<linearGradient id="paint7_linear_21130_4979" x1="154.996" y1="13.0815" x2="154.996" y2="68.4962" gradientUnits="userSpaceOnUse">
<stop stop-color="#AB4FEA"/>
<stop offset="1" stop-color="#E699F9"/>
</linearGradient>
<linearGradient id="paint8_linear_21130_4979" x1="156.179" y1="13.0815" x2="156.179" y2="68.4962" gradientUnits="userSpaceOnUse">
<stop stop-color="#AB4FEA"/>
<stop offset="0.485" stop-color="#C24FEA"/>
<stop offset="1" stop-color="#F4B1FF"/>
</linearGradient>
<linearGradient id="paint9_linear_21130_4979" x1="74.8358" y1="5.57764" x2="74.8358" y2="17.1224" gradientUnits="userSpaceOnUse">
<stop stop-color="#A24AE1"/>
<stop offset="0.684" stop-color="#AB4EE9"/>
</linearGradient>
<linearGradient id="paint10_linear_21130_4979" x1="74.8358" y1="75.4229" x2="74.8358" y2="63.8781" gradientUnits="userSpaceOnUse">
<stop stop-color="#AB4FEA"/>
<stop offset="0.684" stop-color="#C24FEA"/>
</linearGradient>
<linearGradient id="paint11_linear_21130_4979" x1="234.563" y1="5" x2="234.563" y2="16.5447" gradientUnits="userSpaceOnUse">
<stop stop-color="#AB4EE9"/>
<stop offset="0.684" stop-color="#B44DC9"/>
</linearGradient>
<linearGradient id="paint12_linear_21130_4979" x1="234.564" y1="76" x2="234.564" y2="64.4553" gradientUnits="userSpaceOnUse">
<stop stop-color="#AB4FEA"/>
<stop offset="0.684" stop-color="#CB4FEA"/>
</linearGradient>
<linearGradient id="paint13_linear_21130_4979" x1="152.334" y1="7.88623" x2="152.334" y2="13.6586" gradientUnits="userSpaceOnUse">
<stop stop-color="#AB4FEA"/>
<stop offset="0.684" stop-color="#C24FEA"/>
</linearGradient>
<linearGradient id="paint14_linear_21130_4979" x1="91.9917" y1="13.0815" x2="91.9917" y2="37.3254" gradientUnits="userSpaceOnUse">
<stop stop-color="#AB4FEA"/>
<stop offset="0.684" stop-color="#CB4FEA"/>
</linearGradient>
</defs>
</svg>
