<svg width="42" height="41" viewBox="0 0 42 41" fill="none" xmlns="http://www.w3.org/2000/svg">
<path d="M20.8952 40.4355H20.805C9.52629 40.4355 0.350098 31.4832 0.350098 20.4796V20.3915C0.350098 9.38791 9.52629 0.435547 20.805 0.435547H20.8952C32.1739 0.435547 41.3501 9.38791 41.3501 20.3915V20.4796C41.3501 31.4832 32.1739 40.4355 20.8952 40.4355ZM20.805 1.78951C10.291 1.78951 1.73791 10.1339 1.73791 20.3915V20.4796C1.73791 30.7372 10.291 39.0816 20.805 39.0816H20.8952C31.4092 39.0816 39.9623 30.7372 39.9623 20.4796V20.3915C39.9623 10.1339 31.4092 1.78951 20.8952 1.78951H20.805Z" fill="#FFE61B"/>
<path d="M9.07815 9.86133L18.2127 21.7762L9.02124 31.4638H11.0905L19.1384 22.9826L25.6402 31.4638H32.6806L23.0325 18.8787L31.5884 9.86133H29.5192L22.1083 17.6723L16.1199 9.86133H9.07952H9.07815ZM12.1202 11.348H15.3538L29.6357 29.9771H26.4021L12.1202 11.348Z" fill="#FFE61B"/>
</svg>
