<svg width="32" height="32" viewBox="0 0 32 32" fill="none" xmlns="http://www.w3.org/2000/svg">
<path d="M16 32C24.8366 32 32 24.8366 32 16C32 7.16345 24.8366 0 16 0C7.16345 0 0 7.16345 0 16C0 24.8366 7.16345 32 16 32Z" fill="#FAAC07"/>
<path d="M24.0523 23.2677H8.60737C5.60936 23.2677 2.97985 20.8201 2.92525 17.8221C2.87066 14.8105 3.98525 11.9353 6.0461 9.74705L6.06429 9.7243C6.06429 9.7243 6.38275 9.34671 6.98326 8.85538C8.17973 7.84088 9.54453 7.09024 11.0367 6.63076C13.9801 5.61626 17.2875 5.54802 20.8542 6.43514L20.9543 6.46243C21.0498 6.48518 21.1499 6.51248 21.2454 6.53977C21.3091 6.55797 21.3682 6.57616 21.4274 6.58981L21.5138 6.61256C21.5593 6.62621 21.6048 6.63986 21.6503 6.6535C22.6466 6.95376 23.4746 7.32681 24.1024 7.75899C27.5508 9.82894 29.6981 13.6049 29.6981 17.6265C29.6981 20.7473 27.1686 23.2722 24.0523 23.2722V23.2677ZM6.87407 10.161L6.7285 10.3203C4.83142 12.3174 3.79418 14.9378 3.81237 17.6902C3.83057 20.2924 5.96876 22.3805 8.57098 22.3805H24.0523C26.6728 22.3805 28.8064 20.2606 28.8109 17.6401C28.8155 13.9233 26.832 10.4249 23.6384 8.51418L23.6156 8.50053C23.0606 8.11839 22.3145 7.78629 21.3955 7.50423C21.3546 7.49058 21.3136 7.48148 21.2773 7.46783L21.2045 7.44964C21.1317 7.42689 21.0771 7.41324 21.0179 7.39504C20.927 7.3723 20.836 7.345 20.745 7.32225L20.6449 7.29496C17.2465 6.45333 14.1075 6.51247 11.3188 7.47693C9.92667 7.90457 8.66651 8.59607 7.56102 9.53778C7.23347 9.80619 7.00601 10.0291 6.87862 10.161H6.87407Z" fill="#41545C"/>
<path d="M29.2567 17.6174C29.2567 13.5821 27.0958 10.0564 23.8657 8.12748C23.2971 7.73624 22.5282 7.37684 21.5228 7.07203C21.4591 7.05384 21.3955 7.03564 21.3318 7.01744C21.2681 6.99924 21.2044 6.98105 21.1361 6.96285C21.0406 6.93556 20.9451 6.91281 20.8495 6.89006C20.8177 6.88096 20.7858 6.87186 20.754 6.86277C16.6823 5.85281 13.4978 6.25315 11.1731 7.05384C9.72187 7.49967 8.39802 8.23666 7.26978 9.19657C6.69202 9.6697 6.4054 10.0109 6.4054 10.0109C4.52653 11.9944 3.36646 14.674 3.36646 17.6219C3.36646 20.4971 5.69571 22.8264 8.57089 22.8264H24.0523C26.9274 22.8264 29.2567 20.4971 29.2567 17.6219V17.6174Z" fill="#EDE4CC"/>
<path d="M22.3006 19.9107H10.6316C10.5088 19.9107 10.4087 19.8106 10.4087 19.6878C10.4087 19.5649 10.5088 19.4648 10.6316 19.4648H22.3006C22.4235 19.4648 22.5236 19.5649 22.5236 19.6878C22.5236 19.8106 22.4235 19.9107 22.3006 19.9107Z" fill="url(#paint0_radial_19889_4991)"/>
<defs>
<radialGradient id="paint0_radial_19889_4991" cx="0" cy="0" r="1" gradientUnits="userSpaceOnUse" gradientTransform="translate(16.4639 19.6878) scale(4.28547 4.28545)">
<stop stop-color="#211D17"/>
<stop offset="1" stop-color="#151D21"/>
</radialGradient>
</defs>
</svg>
