<svg width="345" height="31" viewBox="0 0 345 31" fill="none" xmlns="http://www.w3.org/2000/svg">
<path d="M267.124 16.5196L267.274 16.69H267.5H326.648L344.5 30.6636L344.5 304.339L329.006 317.5H116.88H15.9937L0.5 304.339L0.500244 30.6636L18.3527 16.69H77.0002H77.218L77.3663 16.5305L92.278 0.5H224.21H253.084L267.124 16.5196Z" fill="#152226" stroke="#EDE4CC"/>
<path d="M218.74 5.83008H212L219.61 14.2801H226.35L218.74 5.83008Z" fill="#FAAC07"/>
<path d="M228.56 5.83008H221.82L229.43 14.2801H236.17L228.56 5.83008Z" fill="#FAAC07"/>
<path d="M238.37 5.83008H231.63L239.24 14.2801H245.98L238.37 5.83008Z" fill="#FAAC07"/>
<path d="M248.19 5.83008H241.45L249.06 14.2801H255.8L248.19 5.83008Z" fill="#FAAC07"/>
<path d="M126.06 5.83008H132.8L125.19 14.2801H118.45L126.06 5.83008Z" fill="#FAAC07"/>
<path d="M116.24 5.83008H122.98L115.37 14.2801H108.63L116.24 5.83008Z" fill="#FAAC07"/>
<path d="M106.43 5.83008H113.17L105.56 14.2801H98.8203L106.43 5.83008Z" fill="#FAAC07"/>
<path d="M96.61 5.83008H103.35L95.74 14.2801H89L96.61 5.83008Z" fill="#FAAC07"/>
<path d="M164.46 15.4701H163.36V15.3401H164.34V14.3701H164.46V15.4701Z" fill="#FAAC07" stroke="#FAAC07" stroke-width="0.3"/>
<path d="M164.46 6.1H164.34V5.13H163.36V5H164.46V6.1Z" fill="#FAAC07" stroke="#FAAC07" stroke-width="0.3"/>
<path d="M154.12 6.1H154V5H155.1V5.13H154.12V6.1Z" fill="#FAAC07" stroke="#FAAC07" stroke-width="0.3"/>
<path d="M155.1 15.4701H154V14.3701H154.12V15.3401H155.1V15.4701Z" fill="#FAAC07" stroke="#FAAC07" stroke-width="0.3"/>
<path d="M162.68 13.755H156V7.08496H162.68V13.755ZM156.13 13.635H162.55V7.20496H156.13V13.635Z" fill="#FAAC07" stroke="#FAAC07" stroke-width="0.3"/>
<path d="M155.085 6.00011L155 6.08496L163.485 14.5702L163.57 14.4854L155.085 6.00011Z" fill="#FAAC07" stroke="#FAAC07" stroke-width="0.3"/>
<path d="M163.485 6.00011L163.57 6.08496L155.085 14.5702L155 14.4854L163.485 6.00011Z" fill="#FAAC07" stroke="#FAAC07" stroke-width="0.3"/>
<path d="M177.92 15.4701H176.82V15.3401H177.8V14.3701H177.92V15.4701Z" fill="#FAAC07" stroke="#FAAC07" stroke-width="0.3"/>
<path d="M177.92 6.1H177.8V5.13H176.82V5H177.92V6.1Z" fill="#FAAC07" stroke="#FAAC07" stroke-width="0.3"/>
<path d="M167.58 6.1H167.46V5H168.56V5.13H167.58V6.1Z" fill="#FAAC07" stroke="#FAAC07" stroke-width="0.3"/>
<path d="M168.56 15.4701H167.46V14.3701H167.58V15.3401H168.56V15.4701Z" fill="#FAAC07" stroke="#FAAC07" stroke-width="0.3"/>
<path d="M176.14 13.755H169.46V7.08496H176.14V13.755ZM169.59 13.635H176.01V7.20496H169.59V13.635Z" fill="#FAAC07" stroke="#FAAC07" stroke-width="0.3"/>
<path d="M168.545 6.00011L168.46 6.08496L176.945 14.5702L177.03 14.4854L168.545 6.00011Z" fill="#FAAC07" stroke="#FAAC07" stroke-width="0.3"/>
<path d="M176.945 6.00011L177.03 6.08496L168.545 14.5702L168.46 14.4854L176.945 6.00011Z" fill="#FAAC07" stroke="#FAAC07" stroke-width="0.3"/>
<path d="M191.38 15.4701H190.28V15.3401H191.26V14.3701H191.38V15.4701Z" fill="#FAAC07" stroke="#FAAC07" stroke-width="0.3"/>
<path d="M191.38 6.1H191.26V5.13H190.28V5H191.38V6.1Z" fill="#FAAC07" stroke="#FAAC07" stroke-width="0.3"/>
<path d="M181.04 6.1H180.92V5H182.02V5.13H181.04V6.1Z" fill="#FAAC07" stroke="#FAAC07" stroke-width="0.3"/>
<path d="M182.02 15.4701H180.92V14.3701H181.04V15.3401H182.02V15.4701Z" fill="#FAAC07" stroke="#FAAC07" stroke-width="0.3"/>
<path d="M189.6 13.755H182.92V7.08496H189.6V13.755ZM183.05 13.635H189.47V7.20496H183.05V13.635Z" fill="#FAAC07" stroke="#FAAC07" stroke-width="0.3"/>
<path d="M182.005 6.00011L181.92 6.08496L190.405 14.5702L190.49 14.4854L182.005 6.00011Z" fill="#FAAC07" stroke="#FAAC07" stroke-width="0.3"/>
<path d="M190.405 6.00011L190.49 6.08496L182.005 14.5702L181.92 14.4854L190.405 6.00011Z" fill="#FAAC07" stroke="#FAAC07" stroke-width="0.3"/>
</svg>
