<svg width="34" height="597" viewBox="0 0 34 597" fill="none" xmlns="http://www.w3.org/2000/svg">
<g clip-path="url(#clip0_595_62806)">
<path d="M1.62234 595.527L32.6748 592.991L32.6748 573.324L1.62234 595.527Z" stroke="#FAAC07" stroke-width="0.920417"/>
<path d="M0.460197 590.412L32.6748 567.378L32.6748 547.524L0.460198 570.558L0.460197 590.412Z" stroke="#FAAC07" stroke-width="0.920417"/>
<path d="M0.460197 564.613L32.6748 541.58L32.6748 521.726L0.460198 544.759L0.460197 564.613Z" stroke="#FAAC07" stroke-width="0.920417"/>
<path d="M0.460197 538.812L32.6748 515.779L32.6748 495.925L0.460198 518.958L0.460197 538.812Z" stroke="#FAAC07" stroke-width="0.920417"/>
<path d="M0.460197 513.013L32.6748 489.98L32.6748 470.126L0.460198 493.159L0.460197 513.013Z" stroke="#FAAC07" stroke-width="0.920417"/>
<path d="M0.460197 487.213L32.6748 464.179L32.6748 444.325L0.460198 467.359L0.460197 487.213Z" stroke="#FAAC07" stroke-width="0.920417"/>
<path d="M0.460197 461.414L32.6748 438.38L32.6748 418.526L0.460198 441.56L0.460197 461.414Z" stroke="#FAAC07" stroke-width="0.920417"/>
<path d="M0.460197 435.613L32.6748 412.58L32.6748 392.726L0.460198 415.759L0.460197 435.613Z" stroke="#FAAC07" stroke-width="0.920417"/>
<path d="M0.460197 409.812L32.6748 386.779L32.6748 366.925L0.460198 389.958L0.460197 409.812Z" stroke="#FAAC07" stroke-width="0.920417"/>
<path d="M0.460197 384.013L32.6748 360.98L32.6748 341.126L0.460198 364.159L0.460197 384.013Z" stroke="#FAAC07" stroke-width="0.920417"/>
<path d="M0.460197 358.213L32.6748 335.179L32.6748 315.325L0.460198 338.359L0.460197 358.213Z" stroke="#FAAC07" stroke-width="0.920417"/>
<path d="M0.460197 332.414L32.6748 309.38L32.6748 289.526L0.460198 312.56L0.460197 332.414Z" stroke="#FAAC07" stroke-width="0.920417"/>
<path d="M0.460197 306.613L32.6748 283.58L32.6748 263.726L0.460198 286.759L0.460197 306.613Z" stroke="#FAAC07" stroke-width="0.920417"/>
<path d="M0.460197 280.814L32.6748 257.781L32.6748 237.927L0.460198 260.96L0.460197 280.814Z" stroke="#FAAC07" stroke-width="0.920417"/>
<path d="M0.460197 255.013L32.6748 231.98L32.6748 212.126L0.460198 235.159L0.460197 255.013Z" stroke="#FAAC07" stroke-width="0.920417"/>
<path d="M0.460197 229.215L32.6748 206.181L32.6748 186.327L0.460198 209.361L0.460197 229.215Z" stroke="#FAAC07" stroke-width="0.920417"/>
<path d="M0.460197 203.414L32.6748 180.38L32.6748 160.526L0.460198 183.56L0.460197 203.414Z" stroke="#FAAC07" stroke-width="0.920417"/>
<path d="M0.460197 177.615L32.6748 154.582L32.6748 134.728L0.460198 157.761L0.460197 177.615Z" stroke="#FAAC07" stroke-width="0.920417"/>
<path d="M0.460197 151.814L32.6748 128.781L32.6748 108.927L0.460198 131.96L0.460197 151.814Z" stroke="#FAAC07" stroke-width="0.920417"/>
<path d="M0.460197 126.015L32.6748 102.982L32.6748 83.1279L0.460198 106.161L0.460197 126.015Z" stroke="#FAAC07" stroke-width="0.920417"/>
<path d="M0.460197 100.215L32.6748 77.1811L32.6748 57.3271L0.460198 80.3606L0.460197 100.215Z" stroke="#FAAC07" stroke-width="0.920417"/>
<path d="M0.460197 74.4158L32.6748 51.3823L32.6748 31.5283L0.460198 54.5617L0.460197 74.4158Z" stroke="#FAAC07" stroke-width="0.920417"/>
<path d="M0.460197 48.6148L32.6748 25.5724L32.6748 5.71828L0.460198 28.7517L0.460197 48.6148Z" stroke="#FAAC07" stroke-width="0.920417"/>
<path d="M31.5133 0.594608L0.460198 3.13058L0.460197 22.8062L31.5133 0.594608Z" stroke="#FAAC07" stroke-width="0.920417"/>
</g>
<defs>
<clipPath id="clip0_595_62806">
<rect width="596.121" height="33.135" fill="white" transform="matrix(4.37114e-08 -1 -1 -4.37114e-08 33.135 596.121)"/>
</clipPath>
</defs>
</svg>
