<svg width="507" height="1443" viewBox="0 0 507 1443" fill="none" xmlns="http://www.w3.org/2000/svg">
<mask id="mask0_456_43372" style="mask-type:luminance" maskUnits="userSpaceOnUse" x="-3" y="0" width="510" height="1443">
<path d="M-3.00006 -0.000732422L-3 1442.48L506.584 1442.48L506.584 -0.000754697L-3.00006 -0.000732422Z" fill="white"/>
</mask>
<g mask="url(#mask0_456_43372)">
<g style="mix-blend-mode:multiply">
<path d="M-121.267 729.012L-121.267 -9.25964L75.8316 -9.25965L214.864 129.626L270.43 129.626L360.168 219.27L360.168 266.603L290.737 335.961L290.737 406.509L372.514 488.201L401.842 488.201L514.833 601.073L514.833 729.012L-121.267 729.012Z" fill="#5B6668"/>
</g>
<path d="M506.584 720.762L506.584 604.489L398.425 496.443L369.097 496.443L282.488 409.926L282.488 332.55L351.919 263.192L351.919 222.686L267.013 137.869L211.447 137.869L72.4145 -1.01716L-113.019 -1.01715L-113.019 720.762L506.584 720.762Z" fill="url(#paint0_radial_456_43372)"/>
<g style="mix-blend-mode:multiply">
<path d="M-82.7612 713.434L-82.7613 15.7464L66.3917 15.7464L161.039 110.308L161.039 149.427L128.962 149.427L128.962 162.244L184.62 162.244L219.446 197.035L283.064 197.035L283.064 232.61L224.945 290.667L191.271 290.667L82.6792 399.145L82.6792 493.484L127.797 538.554L178.702 538.554L227.944 489.364L227.944 461.898L248.106 441.756L272.865 466.476L272.865 519.995L199.532 593.25L199.532 634.449L120.465 713.434L-82.7612 713.434Z" fill="#BDC9C9"/>
</g>
<path d="M-15.857 705.195L117.048 705.195L191.284 631.037L191.284 589.838L264.617 516.583L264.617 469.891L248.12 453.411L236.192 465.313L236.192 492.779L182.119 546.795L124.38 546.795L74.4308 496.899L74.4308 395.733L187.854 282.416L221.528 282.416L274.803 229.197L274.803 205.289L216.029 205.289L181.202 170.486L120.714 170.486L120.714 141.189L152.791 141.189L152.791 113.723L62.9615 23.9877L-74.5127 23.9877L-74.5127 705.195L-15.857 705.195Z" fill="url(#paint1_radial_456_43372)"/>
<g style="mix-blend-mode:multiply">
<path d="M223.61 627.989L244.454 627.989L244.454 592.519L290.881 546.128L290.88 490.032L330.656 490.032L388.042 547.357L388.042 563.837L417.435 593.186L454.095 593.186L481.538 620.6L481.538 713.435L182.014 713.435L135.81 715.697L223.61 627.989Z" fill="#BDC9C9"/>
</g>
<path d="M181.818 705.196L473.276 705.196L473.276 624.015L450.678 601.427L414.005 601.427L379.794 567.252L379.794 550.772L327.239 498.273L299.129 498.273L299.129 549.543L252.702 595.934L252.702 636.231L227.027 636.231L156.758 706.426L181.818 705.196Z" fill="url(#paint2_radial_456_43372)"/>
<path style="mix-blend-mode:overlay" d="M369.097 496.442L282.488 409.924L282.488 332.562L351.919 263.204L351.919 222.685L267.026 137.881L211.46 137.881L72.4276 -1.00544L-113.019 -1.00543L-113.019 720.773L506.584 720.773L506.584 604.488L398.425 496.442L369.097 496.442ZM503.494 717.674L-109.916 717.674L-109.916 2.08136L71.1445 2.08135L210.177 140.967L265.743 140.967L348.829 223.967L348.829 261.922L279.398 331.28L279.398 411.206L367.827 499.542L397.155 499.542L503.494 605.77L503.494 717.687L503.494 717.674Z" fill="url(#paint3_radial_456_43372)"/>
<path style="mix-blend-mode:overlay" d="M181.202 170.486L120.714 170.486L120.714 141.189L152.791 141.189L152.791 113.723L62.9615 23.9877L-74.5127 23.9877L-74.5127 705.195L117.048 705.195L191.284 631.037L191.284 589.838L264.604 516.596L264.604 469.904L248.107 453.424L236.192 465.326L236.192 492.792L182.119 546.808L124.38 546.808L74.4308 496.912L74.4308 395.733L187.854 282.429L221.541 282.429L274.816 229.21L274.816 205.289L216.042 205.289L181.216 170.499L181.202 170.486ZM271.713 227.929L220.245 279.342L186.557 279.342L71.3147 394.464L71.3147 498.194L123.084 549.908L183.389 549.908L239.282 494.074L239.282 466.608L248.107 457.793L261.514 471.185L261.514 515.327L188.194 588.57L188.194 629.769L115.765 702.122L-15.857 702.122L-71.4228 702.122L-71.4228 27.1004L61.6915 27.1004L149.701 115.018L149.701 138.115L117.624 138.115L117.624 173.599L179.932 173.599L214.759 208.389L271.726 208.389L271.726 227.942L271.713 227.929Z" fill="url(#paint4_radial_456_43372)"/>
<path style="mix-blend-mode:overlay" d="M414.005 601.426L379.781 567.238L379.781 550.758L327.226 498.259L299.116 498.259L299.116 549.529L252.676 595.92L252.676 636.203L227.014 636.203L156.745 706.398L181.792 705.182L473.263 705.182L473.263 624.001L450.652 601.413L413.992 601.413L414.005 601.426ZM470.186 702.108L181.739 702.108L181.661 702.108L164.614 702.932L228.31 639.303L255.792 639.303L255.792 597.202L302.232 550.81L302.232 501.346L325.969 501.346L376.704 552.027L376.704 568.506L412.735 604.5L449.395 604.5L470.186 625.269L470.186 702.082L470.186 702.108Z" fill="url(#paint5_radial_456_43372)"/>
<path d="M494.329 716.836L494.329 614.584L410.719 531.062C411.557 529.584 411.36 527.687 410.103 526.419C408.585 524.902 406.136 524.902 404.618 526.419C403.099 527.936 403.099 530.382 404.618 531.899C405.874 533.154 407.786 533.351 409.266 532.513L492.274 615.434L492.274 716.836C490.637 717.294 489.433 718.772 489.433 720.551C489.433 722.695 491.174 724.422 493.308 724.422C495.442 724.422 497.184 722.682 497.184 720.551C497.184 718.772 495.979 717.294 494.342 716.836L494.329 716.836Z" fill="url(#paint6_radial_456_43372)"/>
<path d="M99.3204 492.779C101.468 492.779 103.196 491.04 103.196 488.908C103.196 487.129 101.991 485.651 100.355 485.193L100.355 413.861L194.282 320.032C195.762 320.869 197.66 320.672 198.93 319.417C200.449 317.9 200.449 315.454 198.93 313.937C197.411 312.42 194.963 312.42 193.444 313.937C192.187 315.192 191.991 317.102 192.829 318.58L98.2991 413.01L98.2991 485.193C96.6625 485.651 95.458 487.129 95.458 488.908C95.458 491.053 97.1993 492.779 99.3335 492.779L99.3204 492.779Z" fill="url(#paint7_radial_456_43372)"/>
<path d="M261.199 186.298C259.419 186.298 257.939 187.502 257.481 189.136L227.472 189.136L192.986 154.686L149.4 154.686C148.942 153.051 147.462 151.848 145.682 151.848C143.534 151.848 141.806 153.588 141.806 155.72C141.806 157.851 143.547 159.591 145.682 159.591C147.462 159.591 148.942 158.388 149.4 156.753L192.135 156.753L226.621 191.203L257.494 191.203C257.952 192.838 259.432 194.041 261.212 194.041C263.36 194.041 265.088 192.301 265.088 190.17C265.088 188.038 263.346 186.298 261.212 186.298L261.199 186.298Z" fill="url(#paint8_radial_456_43372)"/>
<path d="M456.74 725.533L456.74 644.339L434.6 622.222L399.315 622.222L361.425 584.371L361.425 556.448L330.748 525.804C331.586 524.326 331.39 522.429 330.133 521.161C328.614 519.643 326.166 519.643 324.647 521.161C323.128 522.678 323.128 525.123 324.647 526.641C325.904 527.896 327.815 528.092 329.295 527.255L359.369 557.298L359.369 585.222L398.464 624.276L433.749 624.276L454.684 645.189L454.684 725.533C453.048 725.991 451.843 727.469 451.843 729.248C451.843 731.393 453.585 733.119 455.719 733.119C457.853 733.119 459.594 731.38 459.594 729.248C459.594 727.469 458.39 725.991 456.753 725.533L456.74 725.533Z" fill="url(#paint9_radial_456_43372)"/>
<path d="M236.219 508.657C234.962 509.913 234.765 511.822 235.603 513.3L166.735 582.096L166.735 612.622L106.233 673.06L73.2396 673.06L73.2396 725.102C71.603 725.559 70.3984 727.037 70.3984 728.816C70.3984 730.961 72.1398 732.687 74.2739 732.687C76.408 732.687 78.1494 730.948 78.1494 728.816C78.1494 727.037 76.9448 725.559 75.3082 725.102L75.3082 675.127L107.084 675.127L168.791 613.485L168.791 582.959L237.056 514.765C238.536 515.602 240.434 515.406 241.704 514.15C243.223 512.633 243.223 510.187 241.704 508.67C240.186 507.153 237.737 507.153 236.219 508.67L236.219 508.657Z" fill="url(#paint10_radial_456_43372)"/>
<g style="mix-blend-mode:overlay">
<path d="M104.989 732.531L221.044 616.612L221.044 588.688L278.325 531.454L278.325 457.767L246.247 425.723L246.247 321.784L320.025 248.084L320.025 219.716L257.73 157.473L213.044 157.473L23.539 -31.8331L25.5029 -33.808L214.196 154.7L258.882 154.7L322.814 218.565L322.814 249.235L249.036 322.935L249.036 424.572L281.113 456.616L281.113 532.605L223.819 589.839L223.819 617.763L106.966 734.506L104.989 732.531Z" fill="#C8C8C8"/>
<path d="M162.283 731.159L237.331 656.177L280.616 656.177L280.616 615.893L363.375 615.893L406.922 659.381L429.167 659.381L429.167 736.338L426.391 736.338L426.391 662.167L405.757 662.167L362.223 618.679L283.405 618.679L283.405 658.962L238.483 658.962L164.247 733.134L162.283 731.159Z" fill="#C8C8C8"/>
<path d="M-15.8571 557.757L42.7724 557.757L42.7724 367.104L150.46 259.529L150.46 209.894L88.5971 209.894L88.5971 119.453L-40.2752 -9.28369L-38.3113 -11.2587L91.3859 118.302L91.3859 207.122L153.249 207.122L153.249 260.68L45.548 368.255L45.5481 560.543L-15.8571 560.543L-15.8571 557.757Z" fill="#C8C8C8"/>
</g>
<g style="mix-blend-mode:multiply">
<path d="M106.966 734.507L223.819 617.764L223.819 589.84L281.113 532.606L281.113 456.617L249.036 424.573L249.036 322.936L322.814 249.236L322.814 218.566L258.882 154.701L214.196 154.701L25.5029 -33.8069L27.4668 -35.7688L215.348 151.915L260.034 151.915L325.603 217.415L325.603 250.387L251.812 324.087L251.812 423.422L283.889 455.466L283.889 533.757L226.608 590.991L226.608 618.915L108.93 736.469L106.966 734.507Z" fill="#596B70"/>
<path d="M164.247 733.134L238.483 658.962L283.405 658.962L283.405 618.679L362.223 618.679L405.757 662.167L426.391 662.167L426.391 736.338L423.602 736.338L423.602 664.953L404.604 664.953L361.071 621.465L286.18 621.465L286.18 661.748L239.648 661.748L166.211 735.095L164.247 733.134Z" fill="#596B70"/>
<path d="M-15.8572 560.542L45.548 560.542L45.548 368.254L153.249 260.679L153.249 207.12L91.3858 207.12L91.3858 118.301L-38.3113 -11.2599L-36.3474 -13.2218L94.1615 117.15L94.1615 204.335L156.038 204.335L156.038 261.83L48.3367 369.418L48.3368 563.314L-15.8572 563.314L-15.8572 560.542Z" fill="#596B70"/>
</g>
<g style="mix-blend-mode:multiply">
<path d="M91.268 351.879L91.268 362.787L94.7638 359.295L94.7638 348.387L83.8444 348.387L80.3486 351.879L91.268 351.879Z" fill="#B1B1B1"/>
<path d="M98.2202 344.946L98.2202 355.854L101.716 352.361L101.716 341.454L90.7966 341.454L87.3008 344.946L98.2202 344.946Z" fill="#B1B1B1"/>
<path d="M105.159 338.002L105.159 348.91L108.655 345.418L108.655 334.51L97.7358 334.51L94.24 338.002L105.159 338.002Z" fill="#B1B1B1"/>
<path d="M112.112 331.071L112.112 341.979L115.608 338.486L115.608 327.579L104.688 327.579L101.192 331.071L112.112 331.071Z" fill="#B1B1B1"/>
<path d="M119.051 324.139L119.051 335.047L122.546 331.555L122.546 320.647L111.627 320.647L108.131 324.139L119.051 324.139Z" fill="#B1B1B1"/>
<path d="M126.003 317.194L126.003 328.102L129.499 324.609L129.499 313.702L118.566 313.702L115.071 317.194L126.003 317.194Z" fill="#B1B1B1"/>
<path d="M132.942 310.262L132.942 321.17L136.438 317.678L136.438 306.77L125.519 306.77L122.023 310.262L132.942 310.262Z" fill="#B1B1B1"/>
<path d="M139.881 303.315L139.881 314.223L143.377 310.731L143.377 299.836L132.458 299.823L128.962 303.315L139.881 303.315Z" fill="#B1B1B1"/>
<path d="M146.833 296.385L146.833 307.293L150.329 303.801L150.329 292.893L139.41 292.893L135.914 296.385L146.833 296.385Z" fill="#B1B1B1"/>
</g>
<g style="mix-blend-mode:overlay">
<path d="M326.022 477.672L336.941 477.672L333.445 474.18L322.526 474.18L322.526 485.088L326.022 488.58L326.022 477.672Z" fill="#D4D5DA"/>
<path d="M319.083 470.739L330.002 470.739L326.506 467.246L315.587 467.246L315.587 478.154L319.083 481.646L319.083 470.739Z" fill="#D4D5DA"/>
<path d="M312.131 463.797L323.05 463.797L319.554 460.305L308.635 460.305L308.635 471.213L312.131 474.705L312.131 463.797Z" fill="#D4D5DA"/>
<path d="M305.191 456.864L316.11 456.864L312.615 453.371L301.695 453.371L301.695 464.279L305.191 467.771L305.191 456.864Z" fill="#D4D5DA"/>
<path d="M298.239 449.918L309.158 449.918L305.663 446.426L294.743 446.426L294.743 457.334L298.239 460.826L298.239 449.918Z" fill="#D4D5DA"/>
<path d="M291.3 442.987L302.219 442.987L298.723 439.495L287.804 439.495L287.804 450.402L291.3 453.895L291.3 442.987Z" fill="#D4D5DA"/>
<path d="M284.36 436.041L295.28 436.041L291.784 432.549L280.865 432.549L280.865 443.457L284.36 446.949L284.36 436.041Z" fill="#D4D5DA"/>
<path d="M277.408 429.11L288.327 429.11L284.831 425.618L273.912 425.618L273.912 436.525L277.408 440.018L277.408 429.11Z" fill="#D4D5DA"/>
<path d="M270.469 422.166L281.388 422.166L277.893 418.674L266.973 418.674L266.973 429.582L270.469 433.074L270.469 422.166Z" fill="#D4D5DA"/>
</g>
<g style="mix-blend-mode:overlay">
<path d="M96.5576 658.334L96.5576 669.242L100.053 665.75L100.053 654.842L89.134 654.842L85.6382 658.334L96.5576 658.334Z" fill="#D4D5DA"/>
<path d="M103.497 651.401L103.497 662.309L106.992 658.817L106.992 647.909L96.0729 647.909L92.5771 651.401L103.497 651.401Z" fill="#D4D5DA"/>
<path d="M110.449 644.457L110.449 655.365L113.944 651.873L113.944 640.965L103.025 640.965L99.5293 644.457L110.449 644.457Z" fill="#D4D5DA"/>
<path d="M117.388 637.526L117.388 648.434L120.884 644.942L120.884 634.034L109.965 634.034L106.469 637.526L117.388 637.526Z" fill="#D4D5DA"/>
<path d="M124.34 630.58L124.34 641.488L127.836 637.996L127.836 627.088L116.917 627.088L113.421 630.58L124.34 630.58Z" fill="#D4D5DA"/>
<path d="M131.28 623.649L131.28 634.557L134.775 631.064L134.775 620.157L123.856 620.157L120.36 623.649L131.28 623.649Z" fill="#D4D5DA"/>
<path d="M138.232 616.717L138.232 627.625L141.728 624.133L141.728 613.225L130.808 613.225L127.312 616.717L138.232 616.717Z" fill="#D4D5DA"/>
<path d="M145.171 609.77L145.171 620.678L148.667 617.186L148.667 606.278L137.748 606.278L134.252 609.77L145.171 609.77Z" fill="#D4D5DA"/>
<path d="M152.123 602.84L152.123 613.748L155.619 610.256L155.619 599.348L144.7 599.348L141.204 602.84L152.123 602.84Z" fill="#D4D5DA"/>
</g>
<path d="M35.3096 126.764C31.8531 126.764 29.0513 123.952 29.0513 120.512C29.0513 117.072 31.8662 114.26 35.3096 114.26L57.934 114.26C61.3905 114.26 64.1923 117.072 64.1923 120.512C64.1923 123.952 61.3774 126.764 57.934 126.764L35.3096 126.764Z" fill="url(#paint11_linear_456_43372)"/>
<path d="M57.9338 125.115L35.3095 125.115C32.7564 125.115 30.6877 123.049 30.6877 120.498C30.6877 117.948 32.7564 115.881 35.3095 115.881L57.9338 115.881C60.4869 115.881 62.5556 117.948 62.5556 120.498C62.5556 123.049 60.4869 125.115 57.9338 125.115Z" fill="url(#paint12_linear_456_43372)"/>
<g style="mix-blend-mode:multiply">
<path d="M57.9338 123.481L35.3095 123.481C33.0445 123.481 31.1591 121.846 30.7663 119.688C30.7139 119.95 30.6877 120.224 30.6877 120.512C30.6877 123.062 32.7564 125.129 35.3095 125.129L57.9338 125.129C60.4869 125.129 62.5556 123.062 62.5556 120.512C62.5556 120.237 62.5163 119.963 62.477 119.688C62.0842 121.846 60.212 123.481 57.9338 123.481Z" fill="#A39886"/>
</g>
<path d="M35.3096 149.967C31.8531 149.967 29.0513 147.155 29.0513 143.715C29.0513 140.275 31.8662 137.463 35.3096 137.463L57.934 137.463C61.3905 137.463 64.1923 140.275 64.1923 143.715C64.1923 147.155 61.3774 149.967 57.934 149.967L35.3096 149.967Z" fill="url(#paint13_linear_456_43372)"/>
<path d="M57.9338 148.316L35.3095 148.316C32.7564 148.316 30.6877 146.25 30.6877 143.7C30.6877 141.149 32.7564 139.083 35.3095 139.083L57.9338 139.083C60.4869 139.083 62.5556 141.149 62.5556 143.7C62.5556 146.25 60.4869 148.316 57.9338 148.316Z" fill="url(#paint14_linear_456_43372)"/>
<g style="mix-blend-mode:multiply">
<path d="M57.9338 146.684L35.3095 146.684C33.0445 146.684 31.1591 145.049 30.7663 142.891C30.7139 143.153 30.6877 143.427 30.6877 143.715C30.6877 146.266 32.7564 148.332 35.3095 148.332L57.9338 148.332C60.4869 148.332 62.5556 146.266 62.5556 143.715C62.5556 143.44 62.5163 143.166 62.477 142.891C62.0842 145.049 60.212 146.684 57.9338 146.684Z" fill="#A39886"/>
</g>
<path d="M35.3096 173.166C31.8531 173.166 29.0513 170.354 29.0513 166.914C29.0513 163.475 31.8662 160.662 35.3096 160.662L57.934 160.662C61.3905 160.662 64.1923 163.475 64.1923 166.914C64.1923 170.354 61.3774 173.166 57.934 173.166L35.3096 173.166Z" fill="url(#paint15_linear_456_43372)"/>
<path d="M57.9338 171.52L35.3095 171.52C32.7564 171.52 30.6877 169.453 30.6877 166.903C30.6877 164.352 32.7564 162.286 35.3095 162.286L57.9338 162.286C60.4869 162.286 62.5556 164.352 62.5556 166.903C62.5556 169.453 60.4869 171.52 57.9338 171.52Z" fill="url(#paint16_linear_456_43372)"/>
<g style="mix-blend-mode:multiply">
<path d="M57.9338 169.883L35.3095 169.883C33.0445 169.883 31.1591 168.248 30.7663 166.09C30.7139 166.352 30.6877 166.627 30.6877 166.914C30.6877 169.465 32.7564 171.531 35.3095 171.531L57.9338 171.531C60.4869 171.531 62.5556 169.465 62.5556 166.914C62.5556 166.64 62.5163 166.365 62.477 166.09C62.0842 168.248 60.212 169.883 57.9338 169.883Z" fill="#A39886"/>
</g>
<path d="M35.3096 196.369C31.8531 196.369 29.0513 193.557 29.0513 190.117C29.0513 186.678 31.8662 183.866 35.3096 183.866L57.934 183.866C61.3905 183.866 64.1923 186.678 64.1923 190.117C64.1923 193.557 61.3774 196.369 57.934 196.369L35.3096 196.369Z" fill="url(#paint17_linear_456_43372)"/>
<path d="M57.9338 194.721L35.3095 194.721C32.7564 194.721 30.6877 192.654 30.6877 190.104C30.6877 187.553 32.7564 185.487 35.3095 185.487L57.9338 185.487C60.4869 185.487 62.5556 187.553 62.5556 190.104C62.5556 192.654 60.4869 194.721 57.9338 194.721Z" fill="url(#paint18_linear_456_43372)"/>
<g style="mix-blend-mode:multiply">
<path d="M57.9338 193.086L35.3095 193.086C33.0445 193.086 31.1591 191.452 30.7663 189.294C30.7139 189.555 30.6877 189.83 30.6877 190.118C30.6877 192.668 32.7564 194.734 35.3095 194.734L57.9338 194.734C60.4869 194.734 62.5556 192.668 62.5556 190.118C62.5556 189.843 62.5163 189.568 62.477 189.294C62.0842 191.452 60.212 193.086 57.9338 193.086Z" fill="#A39886"/>
</g>
<path d="M25.6342 575.557L25.6211 674.16L47.1456 652.671L47.1456 597.059L25.6342 575.557Z" fill="url(#paint19_linear_456_43372)"/>
<g style="mix-blend-mode:screen" opacity="0.77">
<path d="M47.1454 652.669L47.1454 597.057L41.3191 591.237L41.3191 658.477L47.1454 652.669Z" fill="#243035"/>
</g>
<g style="mix-blend-mode:multiply">
<path d="M-121.542 712.861L-121.542 1451.13L75.5568 1451.13L214.589 1312.25L270.155 1312.25L359.88 1222.6L359.88 1175.27L290.449 1105.91L290.449 1035.36L372.239 953.672L401.567 953.672L514.558 840.8L514.558 712.861L-121.542 712.861Z" fill="#5B6668"/>
</g>
<path d="M506.309 721.112L506.309 837.384L398.15 945.43L368.822 945.43L282.2 1031.95L282.2 1109.32L351.631 1178.68L351.631 1219.19L266.738 1304L211.172 1304L72.1396 1442.89L-113.293 1442.89L-113.293 721.112L506.309 721.112Z" fill="url(#paint20_radial_456_43372)"/>
<g style="mix-blend-mode:multiply">
<path d="M-83.0493 728.436L-83.0493 1426.12L66.1037 1426.12L160.764 1331.56L160.764 1292.44L128.674 1292.44L128.674 1279.62L184.345 1279.62L219.171 1244.83L282.776 1244.83L282.776 1209.26L224.67 1151.22L190.983 1151.22L82.3911 1042.72L82.3911 948.386L127.509 903.315L178.427 903.315L227.669 952.506L227.669 979.972L247.831 1000.11L272.577 975.394L272.577 921.875L199.257 848.619L199.257 807.42L120.177 728.436L-83.0493 728.436Z" fill="#BDC9C9"/>
</g>
<path d="M-16.132 736.677L116.76 736.677L191.009 810.835L191.009 852.034L264.328 925.29L264.328 971.982L247.832 988.461L235.917 976.559L235.917 949.093L181.844 895.077L124.092 895.077L74.1427 944.974L74.1427 1046.14L187.566 1159.46L221.253 1159.46L274.528 1212.67L274.528 1236.6L215.754 1236.6L180.927 1271.39L120.426 1271.39L120.426 1300.68L152.516 1300.68L152.516 1328.15L62.6866 1417.88L-74.8008 1417.88L-74.8008 736.677L-16.132 736.677Z" fill="url(#paint21_radial_456_43372)"/>
<g style="mix-blend-mode:multiply">
<path d="M223.335 813.882L244.165 813.882L244.165 849.353L290.606 895.744L290.606 951.84L330.381 951.84L387.767 894.514L387.767 878.035L417.147 848.686L453.807 848.686L481.25 821.272L481.25 728.437L181.739 728.437L135.535 726.174L223.335 813.882Z" fill="#BDC9C9"/>
</g>
<path d="M181.53 736.676L473.001 736.676L473.001 817.858L450.39 840.445L413.73 840.445L379.506 874.621L379.506 891.1L326.964 943.6L298.854 943.6L298.854 892.33L252.414 845.939L252.414 805.642L226.752 805.642L156.483 735.447L181.53 736.676Z" fill="url(#paint22_radial_456_43372)"/>
<path style="mix-blend-mode:overlay" d="M398.15 945.43L506.309 837.384L506.309 721.099L-113.293 721.099L-113.293 1442.89L72.1396 1442.89L211.172 1304L266.738 1304L351.631 1219.2L351.631 1178.68L282.2 1109.32L282.2 1031.96L368.809 945.443L398.137 945.443L398.15 945.43ZM503.206 836.103L396.867 942.33L367.539 942.33L279.11 1030.67L279.11 1110.59L348.541 1179.95L348.541 1217.91L265.455 1300.9L209.889 1300.9L70.8565 1439.79L-110.204 1439.79L-110.204 724.199L503.206 724.199L503.206 836.116L503.206 836.103Z" fill="url(#paint23_radial_456_43372)"/>
<path style="mix-blend-mode:overlay" d="M215.754 1236.6L274.528 1236.6L274.528 1212.67L221.253 1159.46L187.566 1159.46L74.1427 1046.15L74.1427 944.974L124.092 895.077L181.831 895.077L235.904 949.093L235.904 976.559L247.818 988.461L264.315 971.982L264.315 925.29L190.996 852.047L190.996 810.848L116.76 736.69L-16.1451 736.69L-74.8008 736.69L-74.8008 1417.88L62.6866 1417.88L152.516 1328.15L152.516 1300.68L120.439 1300.68L120.439 1271.39L180.927 1271.39L215.754 1236.6ZM271.438 1233.5L214.471 1233.5L179.644 1268.29L117.336 1268.29L117.336 1303.77L149.413 1303.77L149.413 1326.87L61.4034 1414.79L-71.7109 1414.79L-71.7109 739.764L-16.1451 739.764L115.477 739.764L187.906 812.117L187.906 853.316L261.225 926.558L261.225 970.7L247.818 984.093L238.994 975.278L238.994 947.812L183.101 891.977L122.795 891.977L71.0266 943.692L71.0266 1047.42L186.269 1162.54L219.957 1162.54L271.425 1213.96L271.425 1233.51L271.438 1233.5Z" fill="url(#paint24_radial_456_43372)"/>
<path style="mix-blend-mode:overlay" d="M450.39 840.445L473.001 817.858L473.001 736.676L181.53 736.676L156.483 735.46L226.752 805.655L252.414 805.655L252.414 845.939L298.854 892.33L298.854 943.6L326.964 943.6L379.519 891.1L379.519 874.621L413.743 840.432L450.403 840.432L450.39 840.445ZM469.911 816.576L449.12 837.346L412.46 837.346L376.429 873.339L376.429 889.819L325.694 940.5L301.957 940.5L301.957 891.035L255.517 844.644L255.517 802.542L228.035 802.542L164.339 738.913L181.386 739.737L181.464 739.737L469.911 739.737L469.911 816.55L469.911 816.576Z" fill="url(#paint25_radial_456_43372)"/>
<path d="M494.041 725.036L494.041 827.288L410.431 910.811C411.269 912.289 411.072 914.185 409.815 915.454C408.297 916.971 405.848 916.971 404.33 915.454C402.811 913.937 402.811 911.491 404.33 909.974C405.586 908.718 407.498 908.522 408.977 909.359L491.986 826.438L491.986 725.036C490.349 724.579 489.145 723.101 489.145 721.322C489.145 719.177 490.886 717.451 493.02 717.451C495.167 717.451 496.895 719.19 496.895 721.322C496.895 723.101 495.691 724.579 494.054 725.036L494.041 725.036Z" fill="url(#paint26_radial_456_43372)"/>
<path d="M99.045 949.094C101.192 949.094 102.92 950.833 102.92 952.965C102.92 954.744 101.716 956.222 100.079 956.68L100.079 1028.01L194.007 1121.84C195.486 1121 197.385 1121.2 198.655 1122.46C200.174 1123.97 200.174 1126.42 198.655 1127.94C197.136 1129.45 194.688 1129.45 193.169 1127.94C191.912 1126.68 191.716 1124.77 192.554 1123.29L98.0237 1028.86L98.0237 956.68C96.3871 956.222 95.1826 954.744 95.1826 952.965C95.1826 950.82 96.924 949.094 99.0581 949.094L99.045 949.094Z" fill="url(#paint27_radial_456_43372)"/>
<path d="M260.912 1255.58C259.131 1255.58 257.652 1254.37 257.193 1252.74L227.185 1252.74L192.698 1287.19L149.112 1287.19C148.654 1288.82 147.175 1290.03 145.394 1290.03C143.247 1290.03 141.519 1288.29 141.519 1286.15C141.519 1284.02 143.26 1282.28 145.394 1282.28C147.175 1282.28 148.654 1283.49 149.112 1285.12L191.847 1285.12L226.334 1250.67L257.206 1250.67C257.665 1249.04 259.144 1247.83 260.925 1247.83C263.072 1247.83 264.8 1249.57 264.8 1251.7C264.8 1253.84 263.059 1255.58 260.925 1255.58L260.912 1255.58Z" fill="url(#paint28_radial_456_43372)"/>
<path d="M456.465 716.341L456.465 797.535L434.325 819.652L399.04 819.652L361.15 857.503L361.15 885.427L330.473 916.071C331.311 917.549 331.115 919.445 329.858 920.714C328.339 922.231 325.891 922.231 324.372 920.714C322.853 919.197 322.853 916.751 324.372 915.234C325.629 913.978 327.54 913.782 329.02 914.619L359.094 884.576L359.094 856.653L398.189 817.599L433.474 817.599L454.41 796.685L454.41 716.341C452.773 715.883 451.568 714.405 451.568 712.627C451.568 710.482 453.31 708.755 455.444 708.755C457.578 708.755 459.319 710.495 459.319 712.627C459.319 714.405 458.115 715.883 456.478 716.341L456.465 716.341Z" fill="url(#paint29_radial_456_43372)"/>
<path d="M235.93 933.215C234.673 931.959 234.477 930.05 235.315 928.572L166.447 859.776L166.447 829.25L105.945 768.812L72.9512 768.812L72.9512 716.77C71.3146 716.313 70.1101 714.835 70.1101 713.056C70.1101 710.911 71.8514 709.185 73.9856 709.185C76.1328 709.185 77.861 710.924 77.861 713.056C77.861 714.835 76.6565 716.313 75.0199 716.77L75.0199 766.745L106.796 766.745L168.502 828.387L168.502 858.913L236.768 927.107C238.248 926.27 240.146 926.466 241.416 927.722C242.935 929.239 242.935 931.685 241.416 933.202C239.897 934.719 237.449 934.719 235.93 933.202L235.93 933.215Z" fill="url(#paint30_radial_456_43372)"/>
<g style="mix-blend-mode:overlay">
<path d="M104.714 709.343L220.756 825.262L220.756 853.186L278.05 910.42L278.05 984.107L245.959 1016.15L245.959 1120.09L319.75 1193.79L319.75 1222.16L257.455 1284.4L212.769 1284.4L23.251 1473.71L25.228 1475.68L213.921 1287.17L258.607 1287.17L322.526 1223.31L322.526 1192.64L248.748 1118.94L248.748 1017.3L280.825 985.258L280.825 909.269L223.544 852.035L223.544 824.111L106.678 707.381L104.714 709.343Z" fill="#C8C8C8"/>
<path d="M161.995 710.715L237.056 785.697L280.341 785.697L280.341 825.98L363.1 825.98L406.634 782.493L428.892 782.493L428.892 705.536L426.103 705.536L426.103 779.707L405.482 779.707L361.948 823.195L283.116 823.195L283.116 782.911L238.208 782.911L163.972 708.753L161.995 710.715Z" fill="#C8C8C8"/>
<path d="M-16.1321 884.117L42.4843 884.117L42.4843 1074.77L150.186 1182.34L150.186 1231.98L88.3221 1231.98L88.3221 1322.42L-40.5632 1451.16L-38.5993 1453.13L91.0978 1323.57L91.0978 1234.77L152.974 1234.77L152.974 1181.19L45.273 1073.62L45.273 881.331L-16.1321 881.331L-16.1321 884.117Z" fill="#C8C8C8"/>
</g>
<g style="mix-blend-mode:multiply">
<path d="M106.678 707.38L223.545 824.11L223.545 852.034L280.826 909.268L280.826 985.257L248.748 1017.3L248.748 1118.94L322.526 1192.64L322.526 1223.31L258.607 1287.17L213.921 1287.17L25.2283 1475.68L27.1922 1477.64L215.074 1289.96L259.759 1289.96L325.315 1224.47L325.315 1191.49L251.537 1117.79L251.537 1018.45L283.614 986.408L283.614 908.117L226.333 850.883L226.333 822.959L108.655 705.405L106.678 707.38Z" fill="#596B70"/>
<path d="M163.972 708.752L238.208 782.91L283.117 782.91L283.117 823.193L361.948 823.193L405.482 779.706L426.103 779.706L426.103 705.534L423.314 705.534L423.314 776.92L404.33 776.92L360.796 820.421L285.906 820.421L285.906 780.124L239.361 780.124L165.936 706.777L163.972 708.752Z" fill="#596B70"/>
<path d="M-16.1319 881.33L45.2732 881.33L45.2732 1073.62L152.974 1181.19L152.974 1234.76L91.098 1234.76L91.098 1323.57L-38.5991 1453.13L-36.6221 1455.09L93.8867 1324.72L93.8867 1237.54L155.75 1237.54L155.75 1180.04L48.062 1072.47L48.062 878.557L-16.1319 878.557L-16.1319 881.33Z" fill="#596B70"/>
</g>
<g style="mix-blend-mode:multiply">
<path d="M90.9931 1089.99L90.9931 1079.09L94.4889 1082.58L94.4889 1093.49L83.5695 1093.49L80.0737 1089.99L90.9931 1089.99Z" fill="#B1B1B1"/>
<path d="M97.9321 1096.92L97.9321 1086.02L101.428 1089.51L101.428 1100.42L90.5085 1100.42L87.0127 1096.92L97.9321 1096.92Z" fill="#B1B1B1"/>
<path d="M104.884 1103.87L104.884 1092.96L108.38 1096.46L108.38 1107.36L97.4609 1107.36L93.9651 1103.87L104.884 1103.87Z" fill="#B1B1B1"/>
<path d="M111.824 1110.8L111.824 1099.89L115.319 1103.39L115.319 1114.29L104.4 1114.29L100.904 1110.8L111.824 1110.8Z" fill="#B1B1B1"/>
<path d="M118.776 1117.73L118.776 1106.83L122.272 1110.32L122.272 1121.23L111.352 1121.23L107.856 1117.73L118.776 1117.73Z" fill="#B1B1B1"/>
<path d="M125.715 1124.68L125.715 1113.77L129.211 1117.26L129.211 1128.17L118.292 1128.17L114.796 1124.68L125.715 1124.68Z" fill="#B1B1B1"/>
<path d="M132.667 1131.61L132.667 1120.7L136.163 1124.2L136.163 1135.1L125.231 1135.1L121.735 1131.61L132.667 1131.61Z" fill="#B1B1B1"/>
<path d="M139.607 1138.55L139.607 1127.65L143.103 1131.14L143.103 1142.05L132.183 1142.05L128.687 1138.55L139.607 1138.55Z" fill="#B1B1B1"/>
<path d="M146.546 1145.49L146.546 1134.58L150.042 1138.07L150.042 1148.98L139.122 1148.98L135.626 1145.49L146.546 1145.49Z" fill="#B1B1B1"/>
</g>
<g style="mix-blend-mode:overlay">
<path d="M325.747 964.199L336.653 964.199L333.17 967.691L322.251 967.691L322.251 956.784L325.734 953.291L325.747 964.199Z" fill="#D4D5DA"/>
<path d="M318.795 971.129L329.714 971.129L326.218 974.621L315.299 974.621L315.299 963.713L318.795 960.221L318.795 971.129Z" fill="#D4D5DA"/>
<path d="M311.856 978.074L322.775 978.074L319.279 981.566L308.36 981.566L308.36 970.659L311.856 967.166L311.856 978.074Z" fill="#D4D5DA"/>
<path d="M304.903 985.008L315.823 985.008L312.327 988.5L301.407 988.5L301.407 977.592L304.903 974.1L304.903 985.008Z" fill="#D4D5DA"/>
<path d="M297.964 991.951L308.883 991.951L305.388 995.443L294.468 995.443L294.468 984.535L297.964 981.043L297.964 991.951Z" fill="#D4D5DA"/>
<path d="M291.025 998.883L301.931 998.883L298.449 1002.37L287.529 1002.38L287.529 991.467L291.012 987.975L291.025 998.883Z" fill="#D4D5DA"/>
<path d="M284.073 1005.83L294.992 1005.83L291.497 1009.32L280.577 1009.32L280.577 998.412L284.073 994.92L284.073 1005.83Z" fill="#D4D5DA"/>
<path d="M277.133 1012.76L288.053 1012.76L284.557 1016.25L273.638 1016.25L273.638 1005.34L277.133 1001.85L277.133 1012.76Z" fill="#D4D5DA"/>
<path d="M270.181 1019.71L281.101 1019.71L277.605 1023.2L266.686 1023.2L266.686 1012.29L270.181 1008.8L270.181 1019.71Z" fill="#D4D5DA"/>
</g>
<g style="mix-blend-mode:overlay">
<path d="M96.2695 783.539L96.2695 772.631L99.7652 776.123L99.7652 787.031L88.8459 787.031L85.3501 783.539L96.2695 783.539Z" fill="#D4D5DA"/>
<path d="M103.222 790.469L103.222 779.561L106.718 783.053L106.718 793.961L95.7985 793.961L92.3027 790.469L103.222 790.469Z" fill="#D4D5DA"/>
<path d="M110.161 797.416L110.161 786.508L113.656 790L113.656 800.908L102.737 800.908L99.2412 797.416L110.161 797.416Z" fill="#D4D5DA"/>
<path d="M117.113 804.348L117.113 793.44L120.609 796.932L120.609 807.84L109.69 807.84L106.194 804.348L117.113 804.348Z" fill="#D4D5DA"/>
<path d="M124.052 811.291L124.052 800.383L127.548 803.875L127.548 814.783L116.629 814.783L113.133 811.291L124.052 811.291Z" fill="#D4D5DA"/>
<path d="M131.005 818.225L131.005 807.317L134.5 810.809L134.5 821.717L123.581 821.717L120.085 818.225L131.005 818.225Z" fill="#D4D5DA"/>
<path d="M137.944 825.156L137.944 814.248L141.44 817.741L141.44 828.648L130.52 828.648L127.024 825.156L137.944 825.156Z" fill="#D4D5DA"/>
<path d="M144.896 832.1L144.896 821.192L148.392 824.684L148.392 835.592L137.472 835.592L133.977 832.1L144.896 832.1Z" fill="#D4D5DA"/>
<path d="M151.835 839.033L151.835 828.125L155.331 831.617L155.331 842.525L144.412 842.525L140.916 839.033L151.835 839.033Z" fill="#D4D5DA"/>
</g>
<path d="M35.0347 1315.11C31.5782 1315.11 28.7764 1317.92 28.7764 1321.36C28.7764 1324.81 31.5913 1327.61 35.0347 1327.61L57.659 1327.61C61.1155 1327.61 63.9174 1324.8 63.9174 1321.36C63.9174 1317.91 61.1025 1315.11 57.659 1315.11L35.0347 1315.11Z" fill="url(#paint31_linear_456_43372)"/>
<path d="M57.646 1316.76L35.0217 1316.76C32.4686 1316.76 30.3999 1318.82 30.3999 1321.38C30.3999 1323.93 32.4686 1325.99 35.0217 1325.99L57.646 1325.99C60.1991 1325.99 62.2677 1323.93 62.2677 1321.38C62.2677 1318.82 60.1991 1316.76 57.646 1316.76Z" fill="url(#paint32_linear_456_43372)"/>
<g style="mix-blend-mode:multiply">
<path d="M57.6457 1318.39L35.0214 1318.39C32.7564 1318.39 30.871 1320.03 30.4782 1322.19C30.4258 1321.92 30.3997 1321.65 30.3997 1321.36C30.3997 1318.81 32.4683 1316.74 35.0214 1316.74L57.6457 1316.74C60.1988 1316.74 62.2675 1318.81 62.2675 1321.36C62.2675 1321.64 62.2282 1321.91 62.1889 1322.19C61.7962 1320.03 59.9239 1318.39 57.6457 1318.39Z" fill="#A39886"/>
</g>
<path d="M35.0347 1291.91C31.5782 1291.91 28.7764 1294.72 28.7764 1298.16C28.7764 1301.61 31.5913 1304.41 35.0347 1304.41L57.659 1304.41C61.1155 1304.41 63.9174 1301.6 63.9174 1298.16C63.9174 1294.72 61.1025 1291.91 57.659 1291.91L35.0347 1291.91Z" fill="url(#paint33_linear_456_43372)"/>
<path d="M57.6457 1293.56L35.0214 1293.56C32.4683 1293.56 30.3997 1295.62 30.3997 1298.17C30.3997 1300.72 32.4683 1302.79 35.0214 1302.79L57.6457 1302.79C60.1988 1302.79 62.2675 1300.72 62.2675 1298.17C62.2675 1295.62 60.1988 1293.56 57.6457 1293.56Z" fill="url(#paint34_linear_456_43372)"/>
<g style="mix-blend-mode:multiply">
<path d="M57.6457 1295.19L35.0214 1295.19C32.7564 1295.19 30.871 1296.83 30.4782 1298.98C30.4258 1298.72 30.3997 1298.45 30.3997 1298.16C30.3997 1295.61 32.4683 1293.54 35.0214 1293.54L57.6457 1293.54C60.1988 1293.54 62.2675 1295.61 62.2675 1298.16C62.2675 1298.44 62.2282 1298.71 62.1889 1298.98C61.7962 1296.83 59.9239 1295.19 57.6457 1295.19Z" fill="#A39886"/>
</g>
<path d="M35.0347 1268.71C31.5782 1268.71 28.7764 1271.52 28.7764 1274.96C28.7764 1278.4 31.5913 1281.21 35.0347 1281.21L57.659 1281.21C61.1155 1281.21 63.9174 1278.4 63.9174 1274.96C63.9174 1271.52 61.1025 1268.71 57.659 1268.71L35.0347 1268.71Z" fill="url(#paint35_linear_456_43372)"/>
<path d="M57.6457 1270.35L35.0214 1270.35C32.4683 1270.35 30.3997 1272.42 30.3997 1274.97C30.3997 1277.52 32.4683 1279.59 35.0214 1279.59L57.6457 1279.59C60.1988 1279.59 62.2675 1277.52 62.2675 1274.97C62.2675 1272.42 60.1988 1270.35 57.6457 1270.35Z" fill="url(#paint36_linear_456_43372)"/>
<g style="mix-blend-mode:multiply">
<path d="M57.6457 1271.99L35.0214 1271.99C32.7564 1271.99 30.871 1273.62 30.4782 1275.78C30.4258 1275.52 30.3997 1275.25 30.3997 1274.96C30.3997 1272.41 32.4683 1270.34 35.0214 1270.34L57.6457 1270.34C60.1988 1270.34 62.2675 1272.41 62.2675 1274.96C62.2675 1275.23 62.2282 1275.51 62.1889 1275.78C61.7962 1273.62 59.9239 1271.99 57.6457 1271.99Z" fill="#A39886"/>
</g>
<path d="M35.0347 1245.5C31.5782 1245.5 28.7764 1248.32 28.7764 1251.76C28.7764 1255.2 31.5913 1258.01 35.0347 1258.01L57.659 1258.01C61.1155 1258.01 63.9174 1255.2 63.9174 1251.76C63.9174 1248.3 61.1025 1245.5 57.659 1245.5L35.0347 1245.5Z" fill="url(#paint37_linear_456_43372)"/>
<path d="M57.6457 1247.15L35.0214 1247.15C32.4683 1247.15 30.3997 1249.22 30.3997 1251.77C30.3997 1254.32 32.4683 1256.38 35.0214 1256.38L57.6457 1256.38C60.1988 1256.38 62.2675 1254.32 62.2675 1251.77C62.2675 1249.22 60.1988 1247.15 57.6457 1247.15Z" fill="url(#paint38_linear_456_43372)"/>
<g style="mix-blend-mode:multiply">
<path d="M57.6457 1248.79L35.0214 1248.79C32.7564 1248.79 30.871 1250.42 30.4782 1252.58C30.4258 1252.32 30.3997 1252.04 30.3997 1251.75C30.3997 1249.2 32.4683 1247.14 35.0214 1247.14L57.6457 1247.14C60.1988 1247.14 62.2675 1249.2 62.2675 1251.75C62.2675 1252.03 62.2282 1252.3 62.1889 1252.58C61.7962 1250.42 59.9239 1248.79 57.6457 1248.79Z" fill="#A39886"/>
</g>
<path d="M25.3457 866.316L25.3457 767.714L46.8702 789.203L46.8702 844.814L25.3457 866.316Z" fill="url(#paint39_linear_456_43372)"/>
<g style="mix-blend-mode:screen" opacity="0.77">
<path d="M46.8705 789.203L46.8705 844.815L41.0442 850.635L41.0442 783.396L46.8705 789.203Z" fill="#243035"/>
</g>
</g>
<path d="M238.928 187.75C238.928 56.7505 247.452 59.811 291.326 55.1025C247.465 50.3941 243.642 46.5881 238.928 2.76025C234.215 46.575 230.405 50.3941 186.531 55.1025C230.392 59.811 238.928 56.7505 238.928 187.75Z" fill="#FAAC07"/>
<path d="M238.929 1251.57C238.929 1382.57 230.405 1379.51 186.531 1384.22C230.392 1388.93 234.215 1392.73 238.929 1436.56C243.642 1392.75 247.452 1388.93 291.326 1384.22C247.465 1379.51 238.929 1382.57 238.929 1251.57Z" fill="#FAAC07"/>
<defs>
<radialGradient id="paint0_radial_456_43372" cx="0" cy="0" r="1" gradientUnits="userSpaceOnUse" gradientTransform="translate(462.593 171.417) scale(613.41 612.765)">
<stop stop-color="#243035"/>
<stop offset="1" stop-color="#12181E"/>
</radialGradient>
<radialGradient id="paint1_radial_456_43372" cx="0" cy="0" r="1" gradientUnits="userSpaceOnUse" gradientTransform="translate(412.788 97.8581) scale(533.871 533.31)">
<stop stop-color="#3E5055"/>
<stop offset="1" stop-color="#1B2429"/>
</radialGradient>
<radialGradient id="paint2_radial_456_43372" cx="0" cy="0" r="1" gradientUnits="userSpaceOnUse" gradientTransform="translate(443.333 459.219) scale(376.575 376.179)">
<stop stop-color="#2C3B41"/>
<stop offset="1" stop-color="#12181E"/>
</radialGradient>
<radialGradient id="paint3_radial_456_43372" cx="0" cy="0" r="1" gradientUnits="userSpaceOnUse" gradientTransform="translate(407.59 180.571) scale(574.878 574.274)">
<stop stop-color="#D4D5DA"/>
<stop offset="0.09" stop-color="#C4C7CC"/>
<stop offset="0.48" stop-color="#818C91"/>
<stop offset="0.77" stop-color="#57676C"/>
<stop offset="0.92" stop-color="#47595E"/>
</radialGradient>
<radialGradient id="paint4_radial_456_43372" cx="0" cy="0" r="1" gradientUnits="userSpaceOnUse" gradientTransform="translate(392.926 172.33) scale(572.665 572.063)">
<stop stop-color="#D4D5DA"/>
<stop offset="0.09" stop-color="#C4C7CC"/>
<stop offset="0.48" stop-color="#818C91"/>
<stop offset="0.77" stop-color="#57676C"/>
<stop offset="0.92" stop-color="#47595E"/>
</radialGradient>
<radialGradient id="paint5_radial_456_43372" cx="0" cy="0" r="1" gradientUnits="userSpaceOnUse" gradientTransform="translate(383.761 499.201) scale(308.322 307.998)">
<stop stop-color="#D4D5DA"/>
<stop offset="0.09" stop-color="#C4C7CC"/>
<stop offset="0.48" stop-color="#818C91"/>
<stop offset="0.77" stop-color="#57676C"/>
<stop offset="0.92" stop-color="#47595E"/>
</radialGradient>
<radialGradient id="paint6_radial_456_43372" cx="0" cy="0" r="1" gradientUnits="userSpaceOnUse" gradientTransform="translate(399.341 500.718) scale(210.833 210.611)">
<stop stop-color="#FBEA98"/>
<stop offset="0.19" stop-color="#F0D35F"/>
<stop offset="0.36" stop-color="#E8C236"/>
<stop offset="0.45" stop-color="#E5BC26"/>
<stop offset="1" stop-color="#A86A07"/>
</radialGradient>
<radialGradient id="paint7_radial_456_43372" cx="0" cy="0" r="1" gradientUnits="userSpaceOnUse" gradientTransform="translate(235.59 287.086) scale(223.284 223.05)">
<stop stop-color="#FBEA98"/>
<stop offset="0.19" stop-color="#F0D35F"/>
<stop offset="0.36" stop-color="#E8C236"/>
<stop offset="0.45" stop-color="#E5BC26"/>
<stop offset="1" stop-color="#A86A07"/>
</radialGradient>
<radialGradient id="paint8_radial_456_43372" cx="0" cy="0" r="1" gradientUnits="userSpaceOnUse" gradientTransform="translate(333.354 183.316) scale(295.583 295.272)">
<stop stop-color="#FBEA98"/>
<stop offset="0.19" stop-color="#F0D35F"/>
<stop offset="0.36" stop-color="#E8C236"/>
<stop offset="0.45" stop-color="#E5BC26"/>
<stop offset="1" stop-color="#A86A07"/>
</radialGradient>
<radialGradient id="paint9_radial_456_43372" cx="0" cy="0" r="1" gradientUnits="userSpaceOnUse" gradientTransform="translate(340.686 493.394) scale(193.603 193.399)">
<stop stop-color="#FBEA98"/>
<stop offset="0.19" stop-color="#F0D35F"/>
<stop offset="0.36" stop-color="#E8C236"/>
<stop offset="0.45" stop-color="#E5BC26"/>
<stop offset="1" stop-color="#A86A07"/>
</radialGradient>
<radialGradient id="paint10_radial_456_43372" cx="0" cy="0" r="1" gradientUnits="userSpaceOnUse" gradientTransform="translate(310.127 467.759) scale(223.376 223.141)">
<stop stop-color="#FBEA98"/>
<stop offset="0.19" stop-color="#F0D35F"/>
<stop offset="0.36" stop-color="#E8C236"/>
<stop offset="0.45" stop-color="#E5BC26"/>
<stop offset="1" stop-color="#A86A07"/>
</radialGradient>
<linearGradient id="paint11_linear_456_43372" x1="46.6218" y1="111.827" x2="46.6218" y2="124.697" gradientUnits="userSpaceOnUse">
<stop stop-color="#D4D5DA"/>
<stop offset="0.11" stop-color="#929CA1"/>
<stop offset="0.19" stop-color="#69787D"/>
<stop offset="0.24" stop-color="#596B70"/>
<stop offset="1" stop-color="#12181E"/>
</linearGradient>
<linearGradient id="paint12_linear_456_43372" x1="46.6217" y1="114.103" x2="46.6217" y2="123.598" gradientUnits="userSpaceOnUse">
<stop stop-color="#FBEA98"/>
<stop offset="0.19" stop-color="#F0D35F"/>
<stop offset="0.36" stop-color="#E8C236"/>
<stop offset="0.45" stop-color="#E5BC26"/>
<stop offset="1" stop-color="#A86A07"/>
</linearGradient>
<linearGradient id="paint13_linear_456_43372" x1="131.686" y1="135.03" x2="132.992" y2="147.901" gradientUnits="userSpaceOnUse">
<stop stop-color="#D4D5DA"/>
<stop offset="0.11" stop-color="#929CA1"/>
<stop offset="0.19" stop-color="#69787D"/>
<stop offset="0.24" stop-color="#596B70"/>
<stop offset="1" stop-color="#12181E"/>
</linearGradient>
<linearGradient id="paint14_linear_456_43372" x1="131.685" y1="137.304" x2="132.992" y2="146.8" gradientUnits="userSpaceOnUse">
<stop stop-color="#FBEA98"/>
<stop offset="0.19" stop-color="#F0D35F"/>
<stop offset="0.36" stop-color="#E8C236"/>
<stop offset="0.45" stop-color="#E5BC26"/>
<stop offset="1" stop-color="#A86A07"/>
</linearGradient>
<linearGradient id="paint15_linear_456_43372" x1="131.686" y1="158.23" x2="132.992" y2="171.1" gradientUnits="userSpaceOnUse">
<stop stop-color="#D4D5DA"/>
<stop offset="0.11" stop-color="#929CA1"/>
<stop offset="0.19" stop-color="#69787D"/>
<stop offset="0.24" stop-color="#596B70"/>
<stop offset="1" stop-color="#12181E"/>
</linearGradient>
<linearGradient id="paint16_linear_456_43372" x1="131.685" y1="160.507" x2="132.992" y2="170.003" gradientUnits="userSpaceOnUse">
<stop stop-color="#FBEA98"/>
<stop offset="0.19" stop-color="#F0D35F"/>
<stop offset="0.36" stop-color="#E8C236"/>
<stop offset="0.45" stop-color="#E5BC26"/>
<stop offset="1" stop-color="#A86A07"/>
</linearGradient>
<linearGradient id="paint17_linear_456_43372" x1="131.686" y1="181.433" x2="132.992" y2="194.303" gradientUnits="userSpaceOnUse">
<stop stop-color="#D4D5DA"/>
<stop offset="0.11" stop-color="#929CA1"/>
<stop offset="0.19" stop-color="#69787D"/>
<stop offset="0.24" stop-color="#596B70"/>
<stop offset="1" stop-color="#12181E"/>
</linearGradient>
<linearGradient id="paint18_linear_456_43372" x1="131.685" y1="183.708" x2="132.992" y2="193.204" gradientUnits="userSpaceOnUse">
<stop stop-color="#FBEA98"/>
<stop offset="0.19" stop-color="#F0D35F"/>
<stop offset="0.36" stop-color="#E8C236"/>
<stop offset="0.45" stop-color="#E5BC26"/>
<stop offset="1" stop-color="#A86A07"/>
</linearGradient>
<linearGradient id="paint19_linear_456_43372" x1="-1.73432" y1="624.784" x2="39.5378" y2="624.784" gradientUnits="userSpaceOnUse">
<stop stop-color="#1B2429"/>
<stop offset="0.99" stop-color="#0A0E11"/>
</linearGradient>
<radialGradient id="paint20_radial_456_43372" cx="0" cy="0" r="1" gradientUnits="userSpaceOnUse" gradientTransform="translate(462.305 1270.46) scale(613.41 612.765)">
<stop stop-color="#243035"/>
<stop offset="1" stop-color="#12181E"/>
</radialGradient>
<radialGradient id="paint21_radial_456_43372" cx="0" cy="0" r="1" gradientUnits="userSpaceOnUse" gradientTransform="translate(412.513 1344.01) scale(533.871 533.31)">
<stop stop-color="#3E5055"/>
<stop offset="1" stop-color="#1B2429"/>
</radialGradient>
<radialGradient id="paint22_radial_456_43372" cx="0" cy="0" r="1" gradientUnits="userSpaceOnUse" gradientTransform="translate(443.058 982.654) scale(376.575 376.179)">
<stop stop-color="#2C3B41"/>
<stop offset="1" stop-color="#12181E"/>
</radialGradient>
<radialGradient id="paint23_radial_456_43372" cx="0" cy="0" r="1" gradientUnits="userSpaceOnUse" gradientTransform="translate(407.315 1261.3) scale(574.878 574.274)">
<stop stop-color="#D4D5DA"/>
<stop offset="0.09" stop-color="#C4C7CC"/>
<stop offset="0.48" stop-color="#818C91"/>
<stop offset="0.77" stop-color="#57676C"/>
<stop offset="0.92" stop-color="#47595E"/>
</radialGradient>
<radialGradient id="paint24_radial_456_43372" cx="0" cy="0" r="1" gradientUnits="userSpaceOnUse" gradientTransform="translate(392.651 1269.54) scale(572.665 572.063)">
<stop stop-color="#D4D5DA"/>
<stop offset="0.09" stop-color="#C4C7CC"/>
<stop offset="0.48" stop-color="#818C91"/>
<stop offset="0.77" stop-color="#57676C"/>
<stop offset="0.92" stop-color="#47595E"/>
</radialGradient>
<radialGradient id="paint25_radial_456_43372" cx="0" cy="0" r="1" gradientUnits="userSpaceOnUse" gradientTransform="translate(383.486 942.671) scale(308.322 307.998)">
<stop stop-color="#D4D5DA"/>
<stop offset="0.09" stop-color="#C4C7CC"/>
<stop offset="0.48" stop-color="#818C91"/>
<stop offset="0.77" stop-color="#57676C"/>
<stop offset="0.92" stop-color="#47595E"/>
</radialGradient>
<radialGradient id="paint26_radial_456_43372" cx="0" cy="0" r="1" gradientUnits="userSpaceOnUse" gradientTransform="translate(399.066 941.154) scale(210.833 210.611)">
<stop stop-color="#FBEA98"/>
<stop offset="0.19" stop-color="#F0D35F"/>
<stop offset="0.36" stop-color="#E8C236"/>
<stop offset="0.45" stop-color="#E5BC26"/>
<stop offset="1" stop-color="#A86A07"/>
</radialGradient>
<radialGradient id="paint27_radial_456_43372" cx="0" cy="0" r="1" gradientUnits="userSpaceOnUse" gradientTransform="translate(235.302 1154.79) scale(223.284 223.05)">
<stop stop-color="#FBEA98"/>
<stop offset="0.19" stop-color="#F0D35F"/>
<stop offset="0.36" stop-color="#E8C236"/>
<stop offset="0.45" stop-color="#E5BC26"/>
<stop offset="1" stop-color="#A86A07"/>
</radialGradient>
<radialGradient id="paint28_radial_456_43372" cx="0" cy="0" r="1" gradientUnits="userSpaceOnUse" gradientTransform="translate(333.066 1258.56) scale(295.583 295.272)">
<stop stop-color="#FBEA98"/>
<stop offset="0.19" stop-color="#F0D35F"/>
<stop offset="0.36" stop-color="#E8C236"/>
<stop offset="0.45" stop-color="#E5BC26"/>
<stop offset="1" stop-color="#A86A07"/>
</radialGradient>
<radialGradient id="paint29_radial_456_43372" cx="0" cy="0" r="1" gradientUnits="userSpaceOnUse" gradientTransform="translate(340.398 948.48) scale(193.603 193.399)">
<stop stop-color="#FBEA98"/>
<stop offset="0.19" stop-color="#F0D35F"/>
<stop offset="0.36" stop-color="#E8C236"/>
<stop offset="0.45" stop-color="#E5BC26"/>
<stop offset="1" stop-color="#A86A07"/>
</radialGradient>
<radialGradient id="paint30_radial_456_43372" cx="0" cy="0" r="1" gradientUnits="userSpaceOnUse" gradientTransform="translate(309.852 974.113) scale(223.376 223.141)">
<stop stop-color="#FBEA98"/>
<stop offset="0.19" stop-color="#F0D35F"/>
<stop offset="0.36" stop-color="#E8C236"/>
<stop offset="0.45" stop-color="#E5BC26"/>
<stop offset="1" stop-color="#A86A07"/>
</radialGradient>
<linearGradient id="paint31_linear_456_43372" x1="46.3338" y1="1330.04" x2="46.3338" y2="1317.17" gradientUnits="userSpaceOnUse">
<stop stop-color="#D4D5DA"/>
<stop offset="0.11" stop-color="#929CA1"/>
<stop offset="0.19" stop-color="#69787D"/>
<stop offset="0.24" stop-color="#596B70"/>
<stop offset="1" stop-color="#12181E"/>
</linearGradient>
<linearGradient id="paint32_linear_456_43372" x1="46.3338" y1="1327.77" x2="46.3338" y2="1318.28" gradientUnits="userSpaceOnUse">
<stop stop-color="#FBEA98"/>
<stop offset="0.19" stop-color="#F0D35F"/>
<stop offset="0.36" stop-color="#E8C236"/>
<stop offset="0.45" stop-color="#E5BC26"/>
<stop offset="1" stop-color="#A86A07"/>
</linearGradient>
<linearGradient id="paint33_linear_456_43372" x1="46.3338" y1="1306.84" x2="46.3338" y2="1293.98" gradientUnits="userSpaceOnUse">
<stop stop-color="#D4D5DA"/>
<stop offset="0.11" stop-color="#929CA1"/>
<stop offset="0.19" stop-color="#69787D"/>
<stop offset="0.24" stop-color="#596B70"/>
<stop offset="1" stop-color="#12181E"/>
</linearGradient>
<linearGradient id="paint34_linear_456_43372" x1="46.3336" y1="1304.57" x2="46.3336" y2="1295.07" gradientUnits="userSpaceOnUse">
<stop stop-color="#FBEA98"/>
<stop offset="0.19" stop-color="#F0D35F"/>
<stop offset="0.36" stop-color="#E8C236"/>
<stop offset="0.45" stop-color="#E5BC26"/>
<stop offset="1" stop-color="#A86A07"/>
</linearGradient>
<linearGradient id="paint35_linear_456_43372" x1="46.3338" y1="1283.64" x2="46.3338" y2="1270.77" gradientUnits="userSpaceOnUse">
<stop stop-color="#D4D5DA"/>
<stop offset="0.11" stop-color="#929CA1"/>
<stop offset="0.19" stop-color="#69787D"/>
<stop offset="0.24" stop-color="#596B70"/>
<stop offset="1" stop-color="#12181E"/>
</linearGradient>
<linearGradient id="paint36_linear_456_43372" x1="46.3336" y1="1281.37" x2="46.3336" y2="1271.87" gradientUnits="userSpaceOnUse">
<stop stop-color="#FBEA98"/>
<stop offset="0.19" stop-color="#F0D35F"/>
<stop offset="0.36" stop-color="#E8C236"/>
<stop offset="0.45" stop-color="#E5BC26"/>
<stop offset="1" stop-color="#A86A07"/>
</linearGradient>
<linearGradient id="paint37_linear_456_43372" x1="46.3338" y1="1260.44" x2="46.3338" y2="1247.57" gradientUnits="userSpaceOnUse">
<stop stop-color="#D4D5DA"/>
<stop offset="0.11" stop-color="#929CA1"/>
<stop offset="0.19" stop-color="#69787D"/>
<stop offset="0.24" stop-color="#596B70"/>
<stop offset="1" stop-color="#12181E"/>
</linearGradient>
<linearGradient id="paint38_linear_456_43372" x1="46.3336" y1="1258.16" x2="46.3336" y2="1248.67" gradientUnits="userSpaceOnUse">
<stop stop-color="#FBEA98"/>
<stop offset="0.19" stop-color="#F0D35F"/>
<stop offset="0.36" stop-color="#E8C236"/>
<stop offset="0.45" stop-color="#E5BC26"/>
<stop offset="1" stop-color="#A86A07"/>
</linearGradient>
<linearGradient id="paint39_linear_456_43372" x1="-2.01251" y1="816.889" x2="39.2596" y2="816.889" gradientUnits="userSpaceOnUse">
<stop stop-color="#1B2429"/>
<stop offset="0.99" stop-color="#0A0E11"/>
</linearGradient>
</defs>
</svg>
