<svg width="1440" height="510" viewBox="0 0 1440 510" fill="none" xmlns="http://www.w3.org/2000/svg">
<mask id="mask0_19018_28454" style="mask-type:luminance" maskUnits="userSpaceOnUse" x="0" y="0" width="1443" height="510">
<path d="M1442.49 0H0V509.584H1442.49V0Z" fill="white"/>
</mask>
<g mask="url(#mask0_19018_28454)">
<g style="mix-blend-mode:multiply">
<path d="M713.473 -118.267H1451.74V78.8317L1312.86 217.864V273.43L1223.21 363.168H1175.88L1106.52 293.737H1035.98L954.284 375.514V404.842L841.412 517.833H713.473V-118.267Z" fill="#5B6668"/>
</g>
<path d="M721.723 509.584H837.995L946.041 401.425V372.097L1032.56 285.488H1109.93L1179.29 354.919H1219.8L1304.62 270.013V214.447L1443.5 75.4146V-110.019H721.723V509.584Z" fill="url(#paint0_radial_19018_28454)"/>
<g style="mix-blend-mode:multiply">
<path d="M729.051 -79.7612H1426.74V69.3918L1332.18 164.04H1293.06V131.962H1280.24V187.62L1245.45 222.446V286.064H1209.87L1151.82 227.945V194.271L1043.34 85.6792H949.001L903.93 130.797V181.702L953.121 230.944H980.586L1000.73 251.107L976.009 275.865H922.49L849.234 202.532H808.035L729.051 123.465V-79.7612Z" fill="#BDC9C9"/>
</g>
<path d="M737.289 -12.857V120.048L811.447 194.284H852.646L925.902 267.617H972.594L989.073 251.12L977.171 239.192H949.705L895.689 185.119V127.38L945.586 77.4308H1046.75L1160.07 190.854V224.528L1213.29 277.803H1237.2V219.029L1272 184.202V123.714H1301.3V155.791H1328.76L1418.5 65.9615V-71.5127H737.289V-12.857Z" fill="url(#paint1_radial_19018_28454)"/>
<g style="mix-blend-mode:multiply">
<path d="M814.495 226.61V247.454H849.965L896.357 293.881H952.452V333.656L895.127 391.042H878.648L849.298 420.435V457.095L821.885 484.538H729.05V185.014L726.787 138.81L814.495 226.61Z" fill="#BDC9C9"/>
</g>
<path d="M737.288 184.818V476.276H818.47L841.057 453.678V417.005L875.232 382.794H891.712L944.211 330.239V302.129H892.941L846.55 255.702H806.254V230.027L736.059 159.758L737.288 184.818Z" fill="url(#paint2_radial_19018_28454)"/>
<path style="mix-blend-mode:overlay" d="M946.042 372.097L1032.56 285.488H1109.92L1179.28 354.919H1219.8L1304.6 270.026V214.46L1443.49 75.4276V-110.019H721.711V509.584H837.996L946.042 401.425V372.097ZM724.811 506.494V-106.916H1440.4V74.1445L1301.52 213.177V268.743L1218.52 351.829H1180.56L1111.2 282.398H1031.28L942.943 370.827V400.155L836.715 506.494H724.798H724.811Z" fill="url(#paint3_radial_19018_28454)"/>
<path style="mix-blend-mode:overlay" d="M1272 184.202V123.714H1301.3V155.791H1328.76L1418.5 65.9615V-71.5127H737.289V120.048L811.447 194.284H852.646L925.889 267.604H972.581L989.06 251.107L977.158 239.192H949.692L895.676 185.119V127.38L945.572 77.4308H1046.75L1160.06 190.854V224.541L1213.27 277.816H1237.2V219.042L1271.99 184.216L1272 184.202ZM1214.56 274.713L1163.14 223.245V189.557L1048.02 74.3147H944.291L892.576 126.084V186.389L948.411 242.282H975.877L984.692 251.107L971.299 264.514H927.157L853.915 191.194H812.716L740.363 118.765V-12.857V-68.4228H1415.38V64.6915L1327.47 152.701H1304.37V120.624H1268.89V182.932L1234.1 217.759V274.726H1214.54L1214.56 274.713Z" fill="url(#paint4_radial_19018_28454)"/>
<path style="mix-blend-mode:overlay" d="M841.058 417.005L875.247 382.781H891.726L944.225 330.226V302.116H892.956L846.564 255.676H806.281V230.014L736.086 159.745L737.302 184.792V476.263H818.484L841.071 453.652V416.992L841.058 417.005ZM740.376 473.186V184.739V184.661L739.552 167.614L803.181 231.31V258.792H845.283L891.674 305.232H941.139V328.969L890.458 379.704H873.978L837.985 415.735V452.395L817.215 473.186H740.402H740.376Z" fill="url(#paint5_radial_19018_28454)"/>
<path d="M725.648 497.329H827.9L911.423 413.719C912.901 414.557 914.797 414.36 916.066 413.103C917.583 411.585 917.583 409.136 916.066 407.618C914.549 406.099 912.103 406.099 910.586 407.618C909.33 408.874 909.134 410.786 909.971 412.266L827.05 495.274H725.648C725.191 493.637 723.713 492.433 721.934 492.433C719.789 492.433 718.062 494.174 718.062 496.308C718.062 498.442 719.802 500.184 721.934 500.184C723.713 500.184 725.191 498.979 725.648 497.342V497.329Z" fill="url(#paint6_radial_19018_28454)"/>
<path d="M949.705 102.32C949.705 104.468 951.445 106.196 953.576 106.196C955.355 106.196 956.833 104.991 957.291 103.355H1028.62L1122.45 197.282C1121.62 198.762 1121.81 200.66 1123.07 201.93C1124.58 203.449 1127.03 203.449 1128.55 201.93C1130.06 200.412 1130.06 197.963 1128.55 196.444C1127.29 195.187 1125.38 194.991 1123.9 195.829L1029.47 101.299H957.291C956.833 99.6625 955.355 98.458 953.576 98.458C951.431 98.458 949.705 100.199 949.705 102.333V102.32Z" fill="url(#paint7_radial_19018_28454)"/>
<path d="M1256.19 264.199C1256.19 262.419 1254.98 260.939 1253.35 260.481V230.472L1287.8 195.986V152.4C1289.43 151.942 1290.64 150.462 1290.64 148.682C1290.64 146.534 1288.9 144.806 1286.76 144.806C1284.63 144.806 1282.89 146.548 1282.89 148.682C1282.89 150.462 1284.1 151.942 1285.73 152.4V195.135L1251.28 229.621V260.494C1249.65 260.952 1248.44 262.432 1248.44 264.212C1248.44 266.36 1250.18 268.088 1252.31 268.088C1254.45 268.088 1256.19 266.346 1256.19 264.212V264.199Z" fill="url(#paint8_radial_19018_28454)"/>
<path d="M716.951 459.74H798.146L820.262 437.6V402.315L858.113 364.425H886.037L916.681 333.748C918.159 334.586 920.055 334.39 921.324 333.133C922.841 331.614 922.841 329.166 921.324 327.647C919.807 326.128 917.361 326.128 915.844 327.647C914.588 328.904 914.392 330.815 915.229 332.295L885.186 362.369H857.263L818.209 401.464V436.749L797.295 457.684H716.951C716.493 456.048 715.015 454.843 713.237 454.843C711.092 454.843 709.365 456.585 709.365 458.719C709.365 460.853 711.105 462.594 713.237 462.594C715.015 462.594 716.493 461.39 716.951 459.753V459.74Z" fill="url(#paint9_radial_19018_28454)"/>
<path d="M933.827 239.219C932.572 237.962 930.662 237.765 929.184 238.603L860.389 169.735H829.862L769.424 109.233V76.2396H717.383C716.925 74.603 715.447 73.3984 713.668 73.3984C711.523 73.3984 709.797 75.1398 709.797 77.2739C709.797 79.408 711.536 81.1494 713.668 81.1494C715.447 81.1494 716.925 79.9448 717.383 78.3082H767.358V110.084L828.999 171.791H859.525L927.719 240.056C926.882 241.536 927.079 243.434 928.334 244.704C929.851 246.223 932.297 246.223 933.814 244.704C935.331 243.186 935.331 240.737 933.814 239.219H933.827Z" fill="url(#paint10_radial_19018_28454)"/>
<g style="mix-blend-mode:overlay">
<path d="M709.953 107.989L825.873 224.044H853.796L911.03 281.325H984.717L1016.76 249.247H1120.7L1194.4 323.025H1222.77L1285.01 260.73V216.044L1474.32 26.5391L1476.29 28.503L1287.78 217.196V261.882L1223.92 325.814H1193.25L1119.55 252.036H1017.91L985.868 284.113H909.879L852.646 226.819H824.722L707.979 109.966L709.953 107.989Z" fill="#C8C8C8"/>
<path d="M711.326 165.283L786.308 240.331V283.616H826.591V366.375L783.103 409.922V432.167H706.146V429.391H780.318V408.757L823.805 365.223V286.405H783.522V241.483L709.351 167.247L711.326 165.283Z" fill="#C8C8C8"/>
<path d="M884.727 -12.8573V45.7721H1075.38L1182.95 153.46H1232.59V91.5969H1323.03L1451.77 -37.2754L1453.74 -35.3115L1324.18 94.3857H1235.36V156.249H1181.8L1074.23 48.5478H881.941V-12.8573H884.727Z" fill="#C8C8C8"/>
</g>
<g style="mix-blend-mode:multiply">
<path d="M707.977 109.966L824.721 226.819H852.644L909.878 284.113H985.867L1017.91 252.036H1119.55L1193.25 325.814H1223.92L1287.78 261.882V217.196L1476.29 28.5029L1478.25 30.4668L1290.57 218.348V263.034L1225.07 328.603H1192.1L1118.4 254.812H1019.06L987.018 286.889H908.727L851.494 229.608H823.57L706.016 111.93L707.977 109.966Z" fill="#596B70"/>
<path d="M709.351 167.247L783.522 241.483V286.405H823.805V365.223L780.318 408.757V429.391H706.146V426.602H777.532V407.604L821.02 364.071V289.18H780.736V242.648L707.389 169.211L709.351 167.247Z" fill="#596B70"/>
<path d="M881.943 -12.8574V48.5478H1074.23L1181.81 156.249H1235.36V94.3856H1324.18L1453.74 -35.3115L1455.71 -33.3476L1325.33 97.1613H1238.15V159.038H1180.65L1073.07 51.3365H879.17V-12.8574H881.943Z" fill="#596B70"/>
</g>
<g style="mix-blend-mode:multiply">
<path d="M1090.61 94.268H1079.7L1083.19 97.7638H1094.1V86.8444L1090.61 83.3486V94.268Z" fill="#B1B1B1"/>
<path d="M1097.54 101.22H1086.63L1090.12 104.716H1101.03V93.7966L1097.54 90.3008V101.22Z" fill="#B1B1B1"/>
<path d="M1104.48 108.16H1093.57L1097.07 111.655H1107.97V100.736L1104.48 97.2402V108.16Z" fill="#B1B1B1"/>
<path d="M1111.41 115.112H1100.51L1104 118.608H1114.91V107.688L1111.41 104.192V115.112Z" fill="#B1B1B1"/>
<path d="M1118.35 122.051H1107.44L1110.93 125.546H1121.84V114.627L1118.35 111.131V122.051Z" fill="#B1B1B1"/>
<path d="M1125.29 129.003H1114.38L1117.87 132.499H1128.78V121.567L1125.29 118.071V129.003Z" fill="#B1B1B1"/>
<path d="M1132.22 135.942H1121.31L1124.81 139.438H1135.71V128.519L1132.22 125.023V135.942Z" fill="#B1B1B1"/>
<path d="M1139.17 142.881H1128.26L1131.75 146.377H1142.65L1142.66 135.458L1139.17 131.962V142.881Z" fill="#B1B1B1"/>
<path d="M1146.1 149.833H1135.19L1138.68 153.329H1149.59V142.41L1146.1 138.914V149.833Z" fill="#B1B1B1"/>
</g>
<g style="mix-blend-mode:overlay">
<path d="M964.812 329.022V339.941L968.304 336.445V325.526H957.396L953.904 329.022H964.812Z" fill="#D4D5DA"/>
<path d="M971.746 322.083V333.002L975.238 329.506V318.587H964.33L960.838 322.083H971.746Z" fill="#D4D5DA"/>
<path d="M978.687 315.131V326.05L982.179 322.554V311.635H971.271L967.779 315.131H978.687Z" fill="#D4D5DA"/>
<path d="M985.621 308.191V319.11L989.113 315.615V304.695H978.205L974.713 308.191H985.621Z" fill="#D4D5DA"/>
<path d="M992.566 301.239V312.158L996.058 308.663V297.743H985.15L981.658 301.239H992.566Z" fill="#D4D5DA"/>
<path d="M999.498 294.3V305.219L1002.99 301.723V290.804H992.082L988.59 294.3H999.498Z" fill="#D4D5DA"/>
<path d="M1006.44 287.36V298.28L1009.94 294.784V283.865H999.027L995.535 287.36H1006.44Z" fill="#D4D5DA"/>
<path d="M1013.37 280.408V291.327L1016.87 287.831V276.912H1005.96L1002.47 280.408H1013.37Z" fill="#D4D5DA"/>
<path d="M1020.32 273.469V284.388L1023.81 280.893V269.973H1012.9L1009.41 273.469H1020.32Z" fill="#D4D5DA"/>
</g>
<g style="mix-blend-mode:overlay">
<path d="M784.15 99.5576H773.242L776.734 103.053H787.642V92.134L784.15 88.6382V99.5576Z" fill="#D4D5DA"/>
<path d="M791.084 106.497H780.176L783.668 109.992H794.576V99.0729L791.084 95.5771V106.497Z" fill="#D4D5DA"/>
<path d="M798.027 113.449H787.119L790.611 116.944H801.519V106.025L798.027 102.529V113.449Z" fill="#D4D5DA"/>
<path d="M804.959 120.388H794.051L797.543 123.884H808.451V112.965L804.959 109.469V120.388Z" fill="#D4D5DA"/>
<path d="M811.904 127.34H800.996L804.488 130.836H815.396V119.917L811.904 116.421V127.34Z" fill="#D4D5DA"/>
<path d="M818.836 134.28H807.928L811.42 137.776H822.328V126.856L818.836 123.36V134.28Z" fill="#D4D5DA"/>
<path d="M825.767 141.232H814.859L818.352 144.728H829.259V133.808L825.767 130.312V141.232Z" fill="#D4D5DA"/>
<path d="M832.715 148.171H821.807L825.299 151.667H836.207V140.748L832.715 137.252V148.171Z" fill="#D4D5DA"/>
<path d="M839.644 155.123H828.736L832.228 158.619H843.136V147.7L839.644 144.204V155.123Z" fill="#D4D5DA"/>
</g>
<path d="M1315.72 38.3096C1315.72 34.8531 1318.53 32.0513 1321.97 32.0513C1325.41 32.0513 1328.22 34.8662 1328.22 38.3096V60.934C1328.22 64.3905 1325.41 67.1923 1321.97 67.1923C1318.53 67.1923 1315.72 64.3774 1315.72 60.934V38.3096Z" fill="url(#paint11_linear_19018_28454)"/>
<path d="M1317.37 60.9341V38.3097C1317.37 35.7567 1319.44 33.688 1321.99 33.688C1324.54 33.688 1326.6 35.7567 1326.6 38.3097V60.9341C1326.6 63.4872 1324.54 65.5558 1321.99 65.5558C1319.44 65.5558 1317.37 63.4872 1317.37 60.9341Z" fill="url(#paint12_linear_19018_28454)"/>
<g style="mix-blend-mode:multiply">
<path d="M1319 60.9341V38.3097C1319 36.0447 1320.64 34.1593 1322.8 33.7666C1322.53 33.7142 1322.26 33.688 1321.97 33.688C1319.42 33.688 1317.36 35.7567 1317.36 38.3097V60.9341C1317.36 63.4872 1319.42 65.5558 1321.97 65.5558C1322.25 65.5558 1322.52 65.5166 1322.8 65.4773C1320.64 65.0845 1319 63.2122 1319 60.9341Z" fill="#A39886"/>
</g>
<path d="M1292.52 38.3096C1292.52 34.8531 1295.33 32.0513 1298.77 32.0513C1302.21 32.0513 1305.02 34.8662 1305.02 38.3096V60.934C1305.02 64.3905 1302.21 67.1923 1298.77 67.1923C1295.33 67.1923 1292.52 64.3774 1292.52 60.934V38.3096Z" fill="url(#paint13_linear_19018_28454)"/>
<path d="M1294.17 60.9341V38.3097C1294.17 35.7567 1296.23 33.688 1298.78 33.688C1301.34 33.688 1303.4 35.7567 1303.4 38.3097V60.9341C1303.4 63.4872 1301.34 65.5558 1298.78 65.5558C1296.23 65.5558 1294.17 63.4872 1294.17 60.9341Z" fill="url(#paint14_linear_19018_28454)"/>
<g style="mix-blend-mode:multiply">
<path d="M1295.8 60.9341V38.3097C1295.8 36.0447 1297.44 34.1593 1299.59 33.7666C1299.33 33.7142 1299.06 33.688 1298.77 33.688C1296.22 33.688 1294.15 35.7567 1294.15 38.3097V60.9341C1294.15 63.4872 1296.22 65.5558 1298.77 65.5558C1299.04 65.5558 1299.32 65.5166 1299.59 65.4773C1297.44 65.0845 1295.8 63.2122 1295.8 60.9341Z" fill="#A39886"/>
</g>
<path d="M1269.32 38.3096C1269.32 34.8531 1272.13 32.0513 1275.57 32.0513C1279.01 32.0513 1281.82 34.8662 1281.82 38.3096V60.934C1281.82 64.3905 1279.01 67.1923 1275.57 67.1923C1272.13 67.1923 1269.32 64.3774 1269.32 60.934V38.3096Z" fill="url(#paint15_linear_19018_28454)"/>
<path d="M1270.96 60.9341V38.3097C1270.96 35.7567 1273.03 33.688 1275.58 33.688C1278.13 33.688 1280.2 35.7567 1280.2 38.3097V60.9341C1280.2 63.4872 1278.13 65.5558 1275.58 65.5558C1273.03 65.5558 1270.96 63.4872 1270.96 60.9341Z" fill="url(#paint16_linear_19018_28454)"/>
<g style="mix-blend-mode:multiply">
<path d="M1272.6 60.9341V38.3097C1272.6 36.0447 1274.24 34.1593 1276.39 33.7666C1276.13 33.7142 1275.86 33.688 1275.57 33.688C1273.02 33.688 1270.95 35.7567 1270.95 38.3097V60.9341C1270.95 63.4872 1273.02 65.5558 1275.57 65.5558C1275.84 65.5558 1276.12 65.5166 1276.39 65.4773C1274.24 65.0845 1272.6 63.2122 1272.6 60.9341Z" fill="#A39886"/>
</g>
<path d="M1246.12 38.3096C1246.12 34.8531 1248.93 32.0513 1252.37 32.0513C1255.81 32.0513 1258.62 34.8662 1258.62 38.3096V60.934C1258.62 64.3905 1255.81 67.1923 1252.37 67.1923C1248.93 67.1923 1246.12 64.3774 1246.12 60.934V38.3096Z" fill="url(#paint17_linear_19018_28454)"/>
<path d="M1247.76 60.9341V38.3097C1247.76 35.7567 1249.83 33.688 1252.38 33.688C1254.93 33.688 1257 35.7567 1257 38.3097V60.9341C1257 63.4872 1254.93 65.5558 1252.38 65.5558C1249.83 65.5558 1247.76 63.4872 1247.76 60.9341Z" fill="url(#paint18_linear_19018_28454)"/>
<g style="mix-blend-mode:multiply">
<path d="M1249.4 60.9341V38.3097C1249.4 36.0447 1251.03 34.1593 1253.19 33.7666C1252.93 33.7142 1252.65 33.688 1252.37 33.688C1249.82 33.688 1247.75 35.7567 1247.75 38.3097V60.9341C1247.75 63.4872 1249.82 65.5558 1252.37 65.5558C1252.64 65.5558 1252.92 65.5166 1253.19 65.4773C1251.03 65.0845 1249.4 63.2122 1249.4 60.9341Z" fill="#A39886"/>
</g>
<path d="M866.927 28.6342L768.324 28.6211L789.813 50.1456H845.425L866.927 28.6342Z" fill="url(#paint19_linear_19018_28454)"/>
<g style="mix-blend-mode:screen" opacity="0.77">
<path d="M789.815 50.1456H845.427L851.247 44.3193H784.008L789.815 50.1456Z" fill="#243035"/>
</g>
<g style="mix-blend-mode:multiply">
<path d="M729.623 -118.542H-8.64844V78.5568L130.238 217.589V273.155L219.881 362.88H267.214L336.572 293.449H407.121L488.812 375.239V404.567L601.684 517.558H729.623V-118.542Z" fill="#5B6668"/>
</g>
<path d="M721.372 509.309H605.1L497.054 401.15V371.822L410.537 285.2H333.161L263.803 354.631H223.297L138.48 269.738V214.172L-0.40625 75.1396V-110.293H721.372V509.309Z" fill="url(#paint20_radial_19018_28454)"/>
<g style="mix-blend-mode:multiply">
<path d="M714.049 -80.0493H16.3613V69.1037L110.923 163.764H150.042V131.674H162.859V187.345L197.65 222.171V285.776H233.225L291.269 227.67V193.983L399.76 85.3911H494.099L539.169 130.509V181.427L489.979 230.669H462.513L442.371 250.832L467.09 275.577H520.61L593.865 202.257H635.064L714.049 123.177V-80.0493Z" fill="#BDC9C9"/>
</g>
<path d="M705.807 -13.132V119.76L631.649 194.009H590.45L517.195 267.328H470.503L454.023 250.832L465.925 238.917H493.391L547.407 184.844V127.092L497.511 77.1427H396.345L283.028 190.566V224.253L229.809 277.528H205.888V218.754L171.098 183.927V123.426H141.801V155.516H114.335L24.5996 65.6866V-71.8008H705.807V-13.132Z" fill="url(#paint21_radial_19018_28454)"/>
<g style="mix-blend-mode:multiply">
<path d="M628.602 226.335V247.165H593.132L546.74 293.606H490.645V333.381L547.97 390.767H564.449L593.799 420.147V456.807L621.212 484.25H714.047V184.739L716.31 138.535L628.602 226.335Z" fill="#BDC9C9"/>
</g>
<path d="M705.808 184.53V476.001H624.626L602.039 453.39V416.73L567.863 382.506H551.384L498.885 329.965V301.854H550.154L596.546 255.414H636.842V229.752L707.037 159.483L705.808 184.53Z" fill="url(#paint22_radial_19018_28454)"/>
<path style="mix-blend-mode:overlay" d="M497.054 401.15L605.1 509.309H721.386V-110.293H-0.40625V75.1396L138.48 214.172V269.738L223.284 354.631H263.803L333.161 285.2H410.523L497.041 371.809V401.137L497.054 401.15ZM606.382 506.206L500.154 399.867V370.539L411.818 282.11H331.892L262.534 351.541H224.579L141.58 268.455V212.889L2.69348 73.8565V-107.204H718.286V506.206H606.369H606.382Z" fill="url(#paint23_radial_19018_28454)"/>
<path style="mix-blend-mode:overlay" d="M205.888 218.754V277.528H229.809L283.028 224.253V190.566L396.332 77.1427H497.511L547.407 127.092V184.831L493.391 238.904H465.925L454.023 250.818L470.503 267.315H517.195L590.437 193.996H631.636L705.794 119.76V-13.1451V-71.8008H24.5996V65.6866L114.335 155.516H141.801V123.439H171.098V183.927L205.888 218.754ZM208.988 274.438V217.471L174.197 182.644V120.336H138.714V152.413H115.617L27.6993 64.4034V-68.7109H702.721V-13.1451V118.477L630.367 190.906H589.169L515.926 264.225H471.784L458.391 250.818L467.207 241.994H494.673L550.507 186.101V125.796L498.793 74.0267H395.063L279.941 189.269V222.957L228.528 274.425H208.975L208.988 274.438Z" fill="url(#paint24_radial_19018_28454)"/>
<path style="mix-blend-mode:overlay" d="M602.039 453.39L624.626 476.001H705.808V184.53L707.024 159.483L636.829 229.752V255.414H596.546L550.154 301.854H498.885V329.965L551.384 382.519H567.863L602.052 416.744V453.403L602.039 453.39ZM625.908 472.912L605.139 452.12V415.46L569.145 379.429H552.666L501.984 328.695V304.957H551.449L597.841 258.517H639.942V231.035L703.571 167.339L702.747 184.386V184.464V472.912H625.934H625.908Z" fill="url(#paint25_radial_19018_28454)"/>
<path d="M717.448 497.041H615.196L531.674 413.431C530.196 414.269 528.299 414.072 527.03 412.815C525.513 411.297 525.513 408.848 527.03 407.33C528.548 405.811 530.993 405.811 532.511 407.33C533.766 408.586 533.962 410.498 533.125 411.977L616.046 494.986H717.448C717.906 493.349 719.384 492.145 721.162 492.145C723.307 492.145 725.034 493.886 725.034 496.02C725.034 498.167 723.294 499.896 721.162 499.896C719.384 499.896 717.906 498.691 717.448 497.054V497.041Z" fill="url(#paint26_radial_19018_28454)"/>
<path d="M493.391 102.045C493.391 104.192 491.651 105.92 489.519 105.92C487.74 105.92 486.262 104.716 485.805 103.079H414.472L320.643 197.007C321.48 198.486 321.284 200.385 320.028 201.655C318.511 203.174 316.065 203.174 314.548 201.655C313.031 200.136 313.031 197.688 314.548 196.169C315.804 194.912 317.713 194.716 319.191 195.554L413.622 101.024H485.805C486.262 99.3872 487.74 98.1826 489.519 98.1826C491.664 98.1826 493.391 99.924 493.391 102.058V102.045Z" fill="url(#paint27_radial_19018_28454)"/>
<path d="M186.909 263.912C186.909 262.131 188.112 260.652 189.747 260.193V230.185L155.297 195.698V152.112C153.662 151.654 152.459 150.175 152.459 148.394C152.459 146.247 154.199 144.519 156.33 144.519C158.462 144.519 160.202 146.26 160.202 148.394C160.202 150.175 158.998 151.654 157.364 152.112V194.847L191.814 229.334V260.206C193.449 260.665 194.652 262.144 194.652 263.925C194.652 266.072 192.912 267.8 190.781 267.8C188.649 267.8 186.909 266.059 186.909 263.925V263.912Z" fill="url(#paint28_radial_19018_28454)"/>
<path d="M726.143 459.465H644.949L622.832 437.325V402.04L584.982 364.15H557.058L526.414 333.473C524.936 334.311 523.039 334.115 521.771 332.858C520.254 331.339 520.254 328.891 521.771 327.372C523.288 325.853 525.734 325.853 527.251 327.372C528.506 328.629 528.703 330.54 527.866 332.02L557.908 362.094H585.832L624.886 401.189V436.474L645.799 457.41H726.143C726.601 455.773 728.079 454.568 729.858 454.568C732.003 454.568 733.729 456.31 733.729 458.444C733.729 460.578 731.99 462.319 729.858 462.319C728.079 462.319 726.601 461.115 726.143 459.478V459.465Z" fill="url(#paint29_radial_19018_28454)"/>
<path d="M509.269 238.93C510.525 237.674 512.434 237.477 513.912 238.315L582.708 169.447H613.234L673.673 108.945V75.9515H725.714C726.172 74.3149 727.65 73.1104 729.428 73.1104C731.573 73.1104 733.3 74.8517 733.3 76.9858C733.3 79.133 731.56 80.8613 729.428 80.8613C727.65 80.8613 726.172 79.6567 725.714 78.0201H675.739V109.796L614.098 171.503H583.571L515.377 239.768C516.214 241.248 516.018 243.146 514.763 244.416C513.245 245.935 510.8 245.935 509.282 244.416C507.765 242.898 507.765 240.449 509.282 238.93H509.269Z" fill="url(#paint30_radial_19018_28454)"/>
<g style="mix-blend-mode:overlay">
<path d="M733.142 107.715L617.222 223.756H589.299L532.065 281.05H458.378L426.334 248.96H322.395L248.695 322.751H220.326L158.083 260.455V215.77L-31.2223 26.2515L-33.1973 28.2285L155.311 216.922V261.607L219.175 325.526H249.846L323.546 251.748H425.183L457.227 283.826H533.216L590.45 226.545H618.373L735.104 109.679L733.142 107.715Z" fill="#C8C8C8"/>
<path d="M731.769 164.996L656.787 240.057V283.341H616.504V366.101L659.992 409.634V431.892H736.949V429.103H662.777V408.482L619.29 364.949V286.117H659.573V241.209L733.731 166.973L731.769 164.996Z" fill="#C8C8C8"/>
<path d="M558.367 -13.1319V45.4845H367.715L260.14 153.186H210.505V91.3224H120.063L-8.67351 -37.563L-10.6484 -35.5991L118.912 94.098H207.719V155.975H261.291L368.865 48.2733H561.153V-13.1319H558.367Z" fill="#C8C8C8"/>
</g>
<g style="mix-blend-mode:multiply">
<path d="M735.104 109.678L618.374 226.544H590.451L533.217 283.825H457.228L425.184 251.748H323.547L249.847 325.526H219.176L155.312 261.607V216.921L-33.1964 28.228L-35.1582 30.1919L152.526 218.073V262.759L218.012 328.315H250.998L324.698 254.537H424.033L456.077 286.614H534.368L591.601 229.333H619.525L737.079 111.655L735.104 109.678Z" fill="#596B70"/>
<path d="M733.732 166.972L659.574 241.208V286.117H619.291V364.948L662.779 408.482V429.103H736.95V426.314H665.565V407.329L622.064 363.796V288.905H662.36V242.36L735.707 168.936L733.732 166.972Z" fill="#596B70"/>
<path d="M561.154 -13.1319V48.2732H368.866L261.291 155.974H207.72V94.098H118.913L-10.6475 -35.5991L-12.6094 -33.6221L117.762 96.8867H204.947V158.75H262.442L370.017 51.062H563.927V-13.1319H561.154Z" fill="#596B70"/>
</g>
<g style="mix-blend-mode:multiply">
<path d="M352.49 93.9931H363.398L359.906 97.4889H348.998V86.5695L352.49 83.0737V93.9931Z" fill="#B1B1B1"/>
<path d="M345.56 100.932H356.468L352.976 104.428H342.068V93.5085L345.56 90.0127V100.932Z" fill="#B1B1B1"/>
<path d="M338.613 107.885H349.521L346.029 111.38H335.121V100.461L338.613 96.9653V107.885Z" fill="#B1B1B1"/>
<path d="M331.682 114.824H342.589L339.097 118.319H328.189V107.4L331.682 103.904V114.824Z" fill="#B1B1B1"/>
<path d="M324.75 121.776H335.658L332.166 125.272H321.258V114.352L324.75 110.856V121.776Z" fill="#B1B1B1"/>
<path d="M317.805 128.715H328.712L325.22 132.211H314.312V121.292L317.805 117.796V128.715Z" fill="#B1B1B1"/>
<path d="M310.873 135.667H321.781L318.289 139.163H307.381V128.231L310.873 124.735V135.667Z" fill="#B1B1B1"/>
<path d="M303.93 142.607H314.838L311.345 146.103H300.438V135.183L303.93 131.688V142.607Z" fill="#B1B1B1"/>
<path d="M296.996 149.546H307.904L304.412 153.042H293.504V142.122L296.996 138.626V149.546Z" fill="#B1B1B1"/>
</g>
<g style="mix-blend-mode:overlay">
<path d="M478.285 328.747V339.653L474.793 336.17V325.251H485.701L489.193 328.734L478.285 328.747Z" fill="#D4D5DA"/>
<path d="M471.355 321.795V332.714L467.863 329.218V318.299H478.771L482.263 321.795H471.355Z" fill="#D4D5DA"/>
<path d="M464.41 314.856V325.775L460.918 322.279V311.36H471.826L475.318 314.856H464.41Z" fill="#D4D5DA"/>
<path d="M457.476 307.903V318.823L453.984 315.327V304.408H464.892L468.384 307.903H457.476Z" fill="#D4D5DA"/>
<path d="M450.533 300.964V311.883L447.041 308.388V297.468H457.949L461.441 300.964H450.533Z" fill="#D4D5DA"/>
<path d="M443.601 294.025V304.931L440.109 301.449V290.529H451.017L454.509 294.012L443.601 294.025Z" fill="#D4D5DA"/>
<path d="M436.656 287.073V297.992L433.164 294.497V283.577H444.072L447.564 287.073H436.656Z" fill="#D4D5DA"/>
<path d="M429.725 280.133V291.053L426.232 287.557V276.638H437.14L440.632 280.133H429.725Z" fill="#D4D5DA"/>
<path d="M422.779 273.181V284.101L419.287 280.605V269.686H430.195L433.687 273.181H422.779Z" fill="#D4D5DA"/>
</g>
<g style="mix-blend-mode:overlay">
<path d="M658.945 99.2695H669.853L666.361 102.765H655.453V91.8459L658.945 88.3501V99.2695Z" fill="#D4D5DA"/>
<path d="M652.016 106.222H662.923L659.431 109.718H648.523V98.7985L652.016 95.3027V106.222Z" fill="#D4D5DA"/>
<path d="M645.068 113.161H655.976L652.484 116.656H641.576V105.737L645.068 102.241V113.161Z" fill="#D4D5DA"/>
<path d="M638.137 120.113H649.045L645.552 123.609H634.645V112.69L638.137 109.194V120.113Z" fill="#D4D5DA"/>
<path d="M631.193 127.052H642.101L638.609 130.548H627.701V119.629L631.193 116.133V127.052Z" fill="#D4D5DA"/>
<path d="M624.26 134.005H635.168L631.675 137.501H620.768V126.581L624.26 123.085V134.005Z" fill="#D4D5DA"/>
<path d="M617.328 140.944H628.236L624.744 144.44H613.836V133.52L617.328 130.024V140.944Z" fill="#D4D5DA"/>
<path d="M610.385 147.896H621.293L617.8 151.392H606.893V140.472L610.385 136.977V147.896Z" fill="#D4D5DA"/>
<path d="M603.451 154.835H614.359L610.867 158.331H599.959V147.412L603.451 143.916V154.835Z" fill="#D4D5DA"/>
</g>
<path d="M127.377 38.0347C127.377 34.5782 124.565 31.7764 121.125 31.7764C117.672 31.7764 114.873 34.5913 114.873 38.0347V60.659C114.873 64.1155 117.685 66.9174 121.125 66.9174C124.578 66.9174 127.377 64.1025 127.377 60.659V38.0347Z" fill="url(#paint31_linear_19018_28454)"/>
<path d="M125.726 60.646V38.0217C125.726 35.4686 123.659 33.3999 121.109 33.3999C118.559 33.3999 116.492 35.4686 116.492 38.0217V60.646C116.492 63.1991 118.559 65.2677 121.109 65.2677C123.659 65.2677 125.726 63.1991 125.726 60.646Z" fill="url(#paint32_linear_19018_28454)"/>
<g style="mix-blend-mode:multiply">
<path d="M124.092 60.646V38.0217C124.092 35.7566 122.457 33.8712 120.299 33.4785C120.56 33.4261 120.835 33.3999 121.123 33.3999C123.673 33.3999 125.74 35.4686 125.74 38.0217V60.646C125.74 63.1991 123.673 65.2677 121.123 65.2677C120.848 65.2677 120.573 65.2285 120.299 65.1892C122.457 64.7964 124.092 62.9241 124.092 60.646Z" fill="#A39886"/>
</g>
<path d="M150.576 38.0347C150.576 34.5782 147.764 31.7764 144.324 31.7764C140.871 31.7764 138.072 34.5913 138.072 38.0347V60.659C138.072 64.1155 140.884 66.9174 144.324 66.9174C147.764 66.9174 150.576 64.1025 150.576 60.659V38.0347Z" fill="url(#paint33_linear_19018_28454)"/>
<path d="M148.929 60.646V38.0217C148.929 35.4686 146.863 33.3999 144.312 33.3999C141.762 33.3999 139.695 35.4686 139.695 38.0217V60.646C139.695 63.1991 141.762 65.2677 144.312 65.2677C146.863 65.2677 148.929 63.1991 148.929 60.646Z" fill="url(#paint34_linear_19018_28454)"/>
<g style="mix-blend-mode:multiply">
<path d="M147.293 60.646V38.0217C147.293 35.7566 145.658 33.8712 143.5 33.4785C143.762 33.4261 144.036 33.3999 144.324 33.3999C146.874 33.3999 148.941 35.4686 148.941 38.0217V60.646C148.941 63.1991 146.874 65.2677 144.324 65.2677C144.049 65.2677 143.775 65.2285 143.5 65.1892C145.658 64.7964 147.293 62.9241 147.293 60.646Z" fill="#A39886"/>
</g>
<path d="M173.779 38.0347C173.779 34.5782 170.967 31.7764 167.527 31.7764C164.087 31.7764 161.275 34.5913 161.275 38.0347V60.659C161.275 64.1155 164.087 66.9174 167.527 66.9174C170.967 66.9174 173.779 64.1025 173.779 60.659V38.0347Z" fill="url(#paint35_linear_19018_28454)"/>
<path d="M172.13 60.646V38.0217C172.13 35.4686 170.064 33.3999 167.513 33.3999C164.963 33.3999 162.896 35.4686 162.896 38.0217V60.646C162.896 63.1991 164.963 65.2677 167.513 65.2677C170.064 65.2677 172.13 63.1991 172.13 60.646Z" fill="url(#paint36_linear_19018_28454)"/>
<g style="mix-blend-mode:multiply">
<path d="M170.496 60.646V38.0217C170.496 35.7566 168.861 33.8712 166.703 33.4785C166.965 33.4261 167.239 33.3999 167.527 33.3999C170.078 33.3999 172.144 35.4686 172.144 38.0217V60.646C172.144 63.1991 170.078 65.2677 167.527 65.2677C167.252 65.2677 166.978 65.2285 166.703 65.1892C168.861 64.7964 170.496 62.9241 170.496 60.646Z" fill="#A39886"/>
</g>
<path d="M196.98 38.0347C196.98 34.5782 194.168 31.7764 190.728 31.7764C187.289 31.7764 184.477 34.5913 184.477 38.0347V60.659C184.477 64.1155 187.289 66.9174 190.728 66.9174C194.181 66.9174 196.98 64.1025 196.98 60.659V38.0347Z" fill="url(#paint37_linear_19018_28454)"/>
<path d="M195.333 60.646V38.0217C195.333 35.4686 193.267 33.3999 190.717 33.3999C188.166 33.3999 186.1 35.4686 186.1 38.0217V60.646C186.1 63.1991 188.166 65.2677 190.717 65.2677C193.267 65.2677 195.333 63.1991 195.333 60.646Z" fill="url(#paint38_linear_19018_28454)"/>
<g style="mix-blend-mode:multiply">
<path d="M193.699 60.646V38.0217C193.699 35.7566 192.064 33.8712 189.906 33.4785C190.168 33.4261 190.442 33.3999 190.73 33.3999C193.281 33.3999 195.347 35.4686 195.347 38.0217V60.646C195.347 63.1991 193.281 65.2677 190.73 65.2677C190.456 65.2677 190.181 65.2285 189.906 65.1892C192.064 64.7964 193.699 62.9241 193.699 60.646Z" fill="#A39886"/>
</g>
<path d="M576.168 28.3457H674.771L653.282 49.8702H597.67L576.168 28.3457Z" fill="url(#paint39_linear_19018_28454)"/>
<g style="mix-blend-mode:screen" opacity="0.77">
<path d="M653.282 49.8707H597.67L591.85 44.0444H659.089L653.282 49.8707Z" fill="#243035"/>
</g>
</g>
<path d="M1254.73 241.929C1385.73 241.929 1382.67 250.452 1387.38 294.326C1392.09 250.465 1395.9 246.642 1439.72 241.929C1395.91 237.215 1392.09 233.405 1387.38 189.531C1382.67 233.392 1385.73 241.929 1254.73 241.929Z" fill="url(#paint40_radial_19018_28454)"/>
<path d="M190.913 241.929C59.914 241.929 62.9745 233.405 58.2661 189.531C53.5576 233.392 49.7516 237.215 5.92383 241.929C49.7385 246.642 53.5576 250.452 58.2661 294.326C62.9745 250.465 59.914 241.929 190.913 241.929Z" fill="url(#paint41_radial_19018_28454)"/>
<defs>
<radialGradient id="paint0_radial_19018_28454" cx="0" cy="0" r="1" gradientUnits="userSpaceOnUse" gradientTransform="translate(1271.07 465.593) rotate(90) scale(613.41 612.765)">
<stop stop-color="#243035"/>
<stop offset="1" stop-color="#12181E"/>
</radialGradient>
<radialGradient id="paint1_radial_19018_28454" cx="0" cy="0" r="1" gradientUnits="userSpaceOnUse" gradientTransform="translate(1344.63 415.788) rotate(90) scale(533.871 533.31)">
<stop stop-color="#3E5055"/>
<stop offset="1" stop-color="#1B2429"/>
</radialGradient>
<radialGradient id="paint2_radial_19018_28454" cx="0" cy="0" r="1" gradientUnits="userSpaceOnUse" gradientTransform="translate(983.265 446.333) rotate(90) scale(376.575 376.179)">
<stop stop-color="#2C3B41"/>
<stop offset="1" stop-color="#12181E"/>
</radialGradient>
<radialGradient id="paint3_radial_19018_28454" cx="0" cy="0" r="1" gradientUnits="userSpaceOnUse" gradientTransform="translate(1261.91 410.59) rotate(90) scale(574.878 574.274)">
<stop stop-color="#D4D5DA"/>
<stop offset="0.09" stop-color="#C4C7CC"/>
<stop offset="0.48" stop-color="#818C91"/>
<stop offset="0.77" stop-color="#57676C"/>
<stop offset="0.92" stop-color="#47595E"/>
</radialGradient>
<radialGradient id="paint4_radial_19018_28454" cx="0" cy="0" r="1" gradientUnits="userSpaceOnUse" gradientTransform="translate(1270.15 395.926) rotate(90) scale(572.665 572.063)">
<stop stop-color="#D4D5DA"/>
<stop offset="0.09" stop-color="#C4C7CC"/>
<stop offset="0.48" stop-color="#818C91"/>
<stop offset="0.77" stop-color="#57676C"/>
<stop offset="0.92" stop-color="#47595E"/>
</radialGradient>
<radialGradient id="paint5_radial_19018_28454" cx="0" cy="0" r="1" gradientUnits="userSpaceOnUse" gradientTransform="translate(943.284 386.761) rotate(90) scale(308.322 307.998)">
<stop stop-color="#D4D5DA"/>
<stop offset="0.09" stop-color="#C4C7CC"/>
<stop offset="0.48" stop-color="#818C91"/>
<stop offset="0.77" stop-color="#57676C"/>
<stop offset="0.92" stop-color="#47595E"/>
</radialGradient>
<radialGradient id="paint6_radial_19018_28454" cx="0" cy="0" r="1" gradientUnits="userSpaceOnUse" gradientTransform="translate(941.766 402.341) rotate(90) scale(210.833 210.611)">
<stop stop-color="#FBEA98"/>
<stop offset="0.19" stop-color="#F0D35F"/>
<stop offset="0.36" stop-color="#E8C236"/>
<stop offset="0.45" stop-color="#E5BC26"/>
<stop offset="1" stop-color="#A86A07"/>
</radialGradient>
<radialGradient id="paint7_radial_19018_28454" cx="0" cy="0" r="1" gradientUnits="userSpaceOnUse" gradientTransform="translate(1155.4 238.59) rotate(90) scale(223.284 223.05)">
<stop stop-color="#FBEA98"/>
<stop offset="0.19" stop-color="#F0D35F"/>
<stop offset="0.36" stop-color="#E8C236"/>
<stop offset="0.45" stop-color="#E5BC26"/>
<stop offset="1" stop-color="#A86A07"/>
</radialGradient>
<radialGradient id="paint8_radial_19018_28454" cx="0" cy="0" r="1" gradientUnits="userSpaceOnUse" gradientTransform="translate(1259.17 336.354) rotate(90) scale(295.583 295.272)">
<stop stop-color="#FBEA98"/>
<stop offset="0.19" stop-color="#F0D35F"/>
<stop offset="0.36" stop-color="#E8C236"/>
<stop offset="0.45" stop-color="#E5BC26"/>
<stop offset="1" stop-color="#A86A07"/>
</radialGradient>
<radialGradient id="paint9_radial_19018_28454" cx="0" cy="0" r="1" gradientUnits="userSpaceOnUse" gradientTransform="translate(949.091 343.686) rotate(90) scale(193.603 193.399)">
<stop stop-color="#FBEA98"/>
<stop offset="0.19" stop-color="#F0D35F"/>
<stop offset="0.36" stop-color="#E8C236"/>
<stop offset="0.45" stop-color="#E5BC26"/>
<stop offset="1" stop-color="#A86A07"/>
</radialGradient>
<radialGradient id="paint10_radial_19018_28454" cx="0" cy="0" r="1" gradientUnits="userSpaceOnUse" gradientTransform="translate(974.725 313.127) rotate(90) scale(223.376 223.141)">
<stop stop-color="#FBEA98"/>
<stop offset="0.19" stop-color="#F0D35F"/>
<stop offset="0.36" stop-color="#E8C236"/>
<stop offset="0.45" stop-color="#E5BC26"/>
<stop offset="1" stop-color="#A86A07"/>
</radialGradient>
<linearGradient id="paint11_linear_19018_28454" x1="1330.66" y1="49.6218" x2="1317.79" y2="49.6218" gradientUnits="userSpaceOnUse">
<stop stop-color="#D4D5DA"/>
<stop offset="0.11" stop-color="#929CA1"/>
<stop offset="0.19" stop-color="#69787D"/>
<stop offset="0.24" stop-color="#596B70"/>
<stop offset="1" stop-color="#12181E"/>
</linearGradient>
<linearGradient id="paint12_linear_19018_28454" x1="1328.38" y1="49.6219" x2="1318.89" y2="49.6219" gradientUnits="userSpaceOnUse">
<stop stop-color="#FBEA98"/>
<stop offset="0.19" stop-color="#F0D35F"/>
<stop offset="0.36" stop-color="#E8C236"/>
<stop offset="0.45" stop-color="#E5BC26"/>
<stop offset="1" stop-color="#A86A07"/>
</linearGradient>
<linearGradient id="paint13_linear_19018_28454" x1="1307.45" y1="134.686" x2="1294.58" y2="135.992" gradientUnits="userSpaceOnUse">
<stop stop-color="#D4D5DA"/>
<stop offset="0.11" stop-color="#929CA1"/>
<stop offset="0.19" stop-color="#69787D"/>
<stop offset="0.24" stop-color="#596B70"/>
<stop offset="1" stop-color="#12181E"/>
</linearGradient>
<linearGradient id="paint14_linear_19018_28454" x1="1305.18" y1="134.686" x2="1295.68" y2="135.992" gradientUnits="userSpaceOnUse">
<stop stop-color="#FBEA98"/>
<stop offset="0.19" stop-color="#F0D35F"/>
<stop offset="0.36" stop-color="#E8C236"/>
<stop offset="0.45" stop-color="#E5BC26"/>
<stop offset="1" stop-color="#A86A07"/>
</linearGradient>
<linearGradient id="paint15_linear_19018_28454" x1="1284.25" y1="134.686" x2="1271.38" y2="135.992" gradientUnits="userSpaceOnUse">
<stop stop-color="#D4D5DA"/>
<stop offset="0.11" stop-color="#929CA1"/>
<stop offset="0.19" stop-color="#69787D"/>
<stop offset="0.24" stop-color="#596B70"/>
<stop offset="1" stop-color="#12181E"/>
</linearGradient>
<linearGradient id="paint16_linear_19018_28454" x1="1281.98" y1="134.686" x2="1272.48" y2="135.992" gradientUnits="userSpaceOnUse">
<stop stop-color="#FBEA98"/>
<stop offset="0.19" stop-color="#F0D35F"/>
<stop offset="0.36" stop-color="#E8C236"/>
<stop offset="0.45" stop-color="#E5BC26"/>
<stop offset="1" stop-color="#A86A07"/>
</linearGradient>
<linearGradient id="paint17_linear_19018_28454" x1="1261.05" y1="134.686" x2="1248.18" y2="135.992" gradientUnits="userSpaceOnUse">
<stop stop-color="#D4D5DA"/>
<stop offset="0.11" stop-color="#929CA1"/>
<stop offset="0.19" stop-color="#69787D"/>
<stop offset="0.24" stop-color="#596B70"/>
<stop offset="1" stop-color="#12181E"/>
</linearGradient>
<linearGradient id="paint18_linear_19018_28454" x1="1258.78" y1="134.686" x2="1249.28" y2="135.992" gradientUnits="userSpaceOnUse">
<stop stop-color="#FBEA98"/>
<stop offset="0.19" stop-color="#F0D35F"/>
<stop offset="0.36" stop-color="#E8C236"/>
<stop offset="0.45" stop-color="#E5BC26"/>
<stop offset="1" stop-color="#A86A07"/>
</linearGradient>
<linearGradient id="paint19_linear_19018_28454" x1="817.7" y1="1.26569" x2="817.7" y2="42.5378" gradientUnits="userSpaceOnUse">
<stop stop-color="#1B2429"/>
<stop offset="0.99" stop-color="#0A0E11"/>
</linearGradient>
<radialGradient id="paint20_radial_19018_28454" cx="0" cy="0" r="1" gradientUnits="userSpaceOnUse" gradientTransform="translate(172.028 465.305) rotate(90) scale(613.41 612.765)">
<stop stop-color="#243035"/>
<stop offset="1" stop-color="#12181E"/>
</radialGradient>
<radialGradient id="paint21_radial_19018_28454" cx="0" cy="0" r="1" gradientUnits="userSpaceOnUse" gradientTransform="translate(98.4699 415.513) rotate(90) scale(533.871 533.31)">
<stop stop-color="#3E5055"/>
<stop offset="1" stop-color="#1B2429"/>
</radialGradient>
<radialGradient id="paint22_radial_19018_28454" cx="0" cy="0" r="1" gradientUnits="userSpaceOnUse" gradientTransform="translate(459.831 446.058) rotate(90) scale(376.575 376.179)">
<stop stop-color="#2C3B41"/>
<stop offset="1" stop-color="#12181E"/>
</radialGradient>
<radialGradient id="paint23_radial_19018_28454" cx="0" cy="0" r="1" gradientUnits="userSpaceOnUse" gradientTransform="translate(181.183 410.315) rotate(90) scale(574.878 574.274)">
<stop stop-color="#D4D5DA"/>
<stop offset="0.09" stop-color="#C4C7CC"/>
<stop offset="0.48" stop-color="#818C91"/>
<stop offset="0.77" stop-color="#57676C"/>
<stop offset="0.92" stop-color="#47595E"/>
</radialGradient>
<radialGradient id="paint24_radial_19018_28454" cx="0" cy="0" r="1" gradientUnits="userSpaceOnUse" gradientTransform="translate(172.942 395.651) rotate(90) scale(572.665 572.063)">
<stop stop-color="#D4D5DA"/>
<stop offset="0.09" stop-color="#C4C7CC"/>
<stop offset="0.48" stop-color="#818C91"/>
<stop offset="0.77" stop-color="#57676C"/>
<stop offset="0.92" stop-color="#47595E"/>
</radialGradient>
<radialGradient id="paint25_radial_19018_28454" cx="0" cy="0" r="1" gradientUnits="userSpaceOnUse" gradientTransform="translate(499.813 386.486) rotate(90) scale(308.322 307.998)">
<stop stop-color="#D4D5DA"/>
<stop offset="0.09" stop-color="#C4C7CC"/>
<stop offset="0.48" stop-color="#818C91"/>
<stop offset="0.77" stop-color="#57676C"/>
<stop offset="0.92" stop-color="#47595E"/>
</radialGradient>
<radialGradient id="paint26_radial_19018_28454" cx="0" cy="0" r="1" gradientUnits="userSpaceOnUse" gradientTransform="translate(501.33 402.066) rotate(90) scale(210.833 210.611)">
<stop stop-color="#FBEA98"/>
<stop offset="0.19" stop-color="#F0D35F"/>
<stop offset="0.36" stop-color="#E8C236"/>
<stop offset="0.45" stop-color="#E5BC26"/>
<stop offset="1" stop-color="#A86A07"/>
</radialGradient>
<radialGradient id="paint27_radial_19018_28454" cx="0" cy="0" r="1" gradientUnits="userSpaceOnUse" gradientTransform="translate(287.697 238.302) rotate(90) scale(223.284 223.05)">
<stop stop-color="#FBEA98"/>
<stop offset="0.19" stop-color="#F0D35F"/>
<stop offset="0.36" stop-color="#E8C236"/>
<stop offset="0.45" stop-color="#E5BC26"/>
<stop offset="1" stop-color="#A86A07"/>
</radialGradient>
<radialGradient id="paint28_radial_19018_28454" cx="0" cy="0" r="1" gradientUnits="userSpaceOnUse" gradientTransform="translate(183.927 336.066) rotate(90) scale(295.583 295.272)">
<stop stop-color="#FBEA98"/>
<stop offset="0.19" stop-color="#F0D35F"/>
<stop offset="0.36" stop-color="#E8C236"/>
<stop offset="0.45" stop-color="#E5BC26"/>
<stop offset="1" stop-color="#A86A07"/>
</radialGradient>
<radialGradient id="paint29_radial_19018_28454" cx="0" cy="0" r="1" gradientUnits="userSpaceOnUse" gradientTransform="translate(494.004 343.398) rotate(90) scale(193.603 193.399)">
<stop stop-color="#FBEA98"/>
<stop offset="0.19" stop-color="#F0D35F"/>
<stop offset="0.36" stop-color="#E8C236"/>
<stop offset="0.45" stop-color="#E5BC26"/>
<stop offset="1" stop-color="#A86A07"/>
</radialGradient>
<radialGradient id="paint30_radial_19018_28454" cx="0" cy="0" r="1" gradientUnits="userSpaceOnUse" gradientTransform="translate(468.371 312.852) rotate(90) scale(223.376 223.141)">
<stop stop-color="#FBEA98"/>
<stop offset="0.19" stop-color="#F0D35F"/>
<stop offset="0.36" stop-color="#E8C236"/>
<stop offset="0.45" stop-color="#E5BC26"/>
<stop offset="1" stop-color="#A86A07"/>
</radialGradient>
<linearGradient id="paint31_linear_19018_28454" x1="112.44" y1="49.3338" x2="125.31" y2="49.3338" gradientUnits="userSpaceOnUse">
<stop stop-color="#D4D5DA"/>
<stop offset="0.11" stop-color="#929CA1"/>
<stop offset="0.19" stop-color="#69787D"/>
<stop offset="0.24" stop-color="#596B70"/>
<stop offset="1" stop-color="#12181E"/>
</linearGradient>
<linearGradient id="paint32_linear_19018_28454" x1="114.713" y1="49.3338" x2="124.209" y2="49.3338" gradientUnits="userSpaceOnUse">
<stop stop-color="#FBEA98"/>
<stop offset="0.19" stop-color="#F0D35F"/>
<stop offset="0.36" stop-color="#E8C236"/>
<stop offset="0.45" stop-color="#E5BC26"/>
<stop offset="1" stop-color="#A86A07"/>
</linearGradient>
<linearGradient id="paint33_linear_19018_28454" x1="135.64" y1="49.3338" x2="148.509" y2="49.3338" gradientUnits="userSpaceOnUse">
<stop stop-color="#D4D5DA"/>
<stop offset="0.11" stop-color="#929CA1"/>
<stop offset="0.19" stop-color="#69787D"/>
<stop offset="0.24" stop-color="#596B70"/>
<stop offset="1" stop-color="#12181E"/>
</linearGradient>
<linearGradient id="paint34_linear_19018_28454" x1="137.917" y1="49.3338" x2="147.412" y2="49.3338" gradientUnits="userSpaceOnUse">
<stop stop-color="#FBEA98"/>
<stop offset="0.19" stop-color="#F0D35F"/>
<stop offset="0.36" stop-color="#E8C236"/>
<stop offset="0.45" stop-color="#E5BC26"/>
<stop offset="1" stop-color="#A86A07"/>
</linearGradient>
<linearGradient id="paint35_linear_19018_28454" x1="158.843" y1="49.3338" x2="171.712" y2="49.3338" gradientUnits="userSpaceOnUse">
<stop stop-color="#D4D5DA"/>
<stop offset="0.11" stop-color="#929CA1"/>
<stop offset="0.19" stop-color="#69787D"/>
<stop offset="0.24" stop-color="#596B70"/>
<stop offset="1" stop-color="#12181E"/>
</linearGradient>
<linearGradient id="paint36_linear_19018_28454" x1="161.118" y1="49.3338" x2="170.613" y2="49.3338" gradientUnits="userSpaceOnUse">
<stop stop-color="#FBEA98"/>
<stop offset="0.19" stop-color="#F0D35F"/>
<stop offset="0.36" stop-color="#E8C236"/>
<stop offset="0.45" stop-color="#E5BC26"/>
<stop offset="1" stop-color="#A86A07"/>
</linearGradient>
<linearGradient id="paint37_linear_19018_28454" x1="182.044" y1="49.3338" x2="194.914" y2="49.3338" gradientUnits="userSpaceOnUse">
<stop stop-color="#D4D5DA"/>
<stop offset="0.11" stop-color="#929CA1"/>
<stop offset="0.19" stop-color="#69787D"/>
<stop offset="0.24" stop-color="#596B70"/>
<stop offset="1" stop-color="#12181E"/>
</linearGradient>
<linearGradient id="paint38_linear_19018_28454" x1="184.321" y1="49.3338" x2="193.816" y2="49.3338" gradientUnits="userSpaceOnUse">
<stop stop-color="#FBEA98"/>
<stop offset="0.19" stop-color="#F0D35F"/>
<stop offset="0.36" stop-color="#E8C236"/>
<stop offset="0.45" stop-color="#E5BC26"/>
<stop offset="1" stop-color="#A86A07"/>
</linearGradient>
<linearGradient id="paint39_linear_19018_28454" x1="625.596" y1="0.987491" x2="625.596" y2="42.2596" gradientUnits="userSpaceOnUse">
<stop stop-color="#1B2429"/>
<stop offset="0.99" stop-color="#0A0E11"/>
</linearGradient>
<radialGradient id="paint40_radial_19018_28454" cx="0" cy="0" r="1" gradientUnits="userSpaceOnUse" gradientTransform="translate(1347.24 241.915) scale(75.1521 75.2311)">
<stop stop-color="#243035"/>
<stop offset="1" stop-color="#12181E"/>
</radialGradient>
<radialGradient id="paint41_radial_19018_28454" cx="0" cy="0" r="1" gradientUnits="userSpaceOnUse" gradientTransform="translate(98.4186 241.929) rotate(180) scale(75.152 75.2311)">
<stop stop-color="#243035"/>
<stop offset="1" stop-color="#12181E"/>
</radialGradient>
</defs>
</svg>
