<svg width="520" height="200" viewBox="0 0 520 200" fill="none" xmlns="http://www.w3.org/2000/svg">
<rect width="520" height="200" rx="20" fill="white"/>
<g clip-path="url(#clip0_16357_29127)">
<path d="M115.274 40H96.7522V63.9219L104.841 71.8499V107.905L74.8296 40H58.6518L33.7189 64.2666V105.216L37.0969 109.606V124.427L33.7189 128.656V139.272L55.2968 160H70.7851V134.217H65.7296V128.656L69.1076 124.427V109.606L65.7296 105.216V80.4443L67.591 84.6496L69.2685 88.3723L101.463 160H136.691V60.8885L115.274 40Z" fill="#152226"/>
<path d="M212.639 71.8496H166.381L147.055 90.8539V102.344H178.169V100.046L181.524 96.6908H197.495L200.85 100.046V105.446L199.678 106.94L197.84 107.123H161.348L145.262 122.75V142.099L162.75 159.081H197.036L202.941 152.348L204.619 159.081H212.524L232.034 140.076V90.8079L212.639 71.8496ZM200.85 127.667L192.624 135.572H177.825L176.308 133.895V128.357L178.169 126.335H200.85V127.667Z" fill="#152226"/>
<path d="M230.126 147.867C229.276 147.867 228.449 148.372 227.254 149.544L222.221 154.577C219.349 157.449 220.038 159.173 224.06 159.173H232.149V151.773C232.149 149.199 231.298 147.867 230.126 147.867Z" fill="#152226"/>
<path d="M276.362 96.8975H310.394V72.1943H277.533L272.363 77.2039V72.1943H241.34V109.559L244.673 114.408V129.092L241.34 133.918V139.916L260.529 158.782H277.373V133.251H272.869L275.695 129.758V114.408L272.363 109.559V100.23L276.362 96.8975Z" fill="#152226"/>
<path d="M357.457 72.1943L352.286 77.2039V72.1943H321.264V109.559L324.596 114.408V129.092L321.264 133.918V139.916L340.452 158.782H357.296V133.251H352.792L355.619 129.758V114.408L352.286 109.559V100.23L356.285 96.8975H390.318V72.1943H357.457Z" fill="#152226"/>
<path d="M403.209 83.1098C404.037 83.1098 404.887 82.6043 406.059 81.4324L411.115 76.3997C413.964 73.5272 413.298 71.8037 409.253 71.8037H401.187V79.2034C401.187 81.7771 402.015 83.1098 403.209 83.1098Z" fill="#152226"/>
<path d="M466.771 71.8496H420.513L401.187 90.8539V102.344H432.302V100.046L435.657 96.6908H451.628L454.983 100.046V105.446L453.811 106.94L451.972 107.123H415.481L399.395 122.75V142.099L416.882 159.081H451.168L457.074 152.348L458.751 159.081H466.656L486.166 140.076V90.8079L466.771 71.8496ZM454.983 127.667L446.756 135.572H431.888L430.372 133.895V128.357L432.233 126.335H454.914L454.983 127.667Z" fill="#152226"/>
<path d="M484.259 147.867C483.409 147.867 482.581 148.372 481.386 149.544L476.354 154.577C473.481 157.449 474.056 159.173 478.192 159.173H486.281V151.773C486.281 149.199 485.431 147.867 484.259 147.867Z" fill="#152226"/>
<path d="M33.7189 49.9274V40H44.0368C44.4347 39.9979 44.824 40.1161 45.1537 40.3389C45.4835 40.5617 45.7383 40.8786 45.8848 41.2486C46.0313 41.6186 46.0627 42.0243 45.9749 42.4124C45.887 42.8006 45.6841 43.1531 45.3925 43.424L37.0739 51.3751C36.7897 51.6375 36.4355 51.8117 36.0542 51.8767C35.673 51.9418 35.281 51.8947 34.9259 51.7415C34.5708 51.5883 34.2677 51.3353 34.0535 51.0133C33.8392 50.6913 33.723 50.3142 33.7189 49.9274Z" fill="#152226"/>
<path d="M147.055 81.777V71.8496H157.373C157.767 71.8543 158.152 71.9757 158.478 72.1986C158.804 72.4214 159.056 72.7359 159.204 73.1021C159.351 73.4683 159.387 73.8697 159.306 74.2561C159.226 74.6426 159.033 74.9967 158.751 75.2736L150.41 83.2247C150.126 83.487 149.771 83.6612 149.39 83.7263C149.009 83.7913 148.617 83.7443 148.262 83.5911C147.907 83.4378 147.604 83.1849 147.389 82.8629C147.175 82.5409 147.059 82.1637 147.055 81.777Z" fill="#152226"/>
<path d="M232.149 149.2V159.127H221.808C221.431 159.107 221.067 158.98 220.76 158.76C220.453 158.541 220.215 158.238 220.075 157.887C219.935 157.537 219.898 157.153 219.969 156.782C220.04 156.412 220.215 156.069 220.475 155.795L228.794 147.844C229.072 147.586 229.418 147.413 229.791 147.344C230.165 147.275 230.55 147.314 230.901 147.456C231.253 147.599 231.557 147.838 231.778 148.147C231.999 148.455 232.128 148.821 232.149 149.2Z" fill="#152226"/>
<path d="M401.187 81.777V71.8496H411.505C411.9 71.8543 412.284 71.9757 412.61 72.1986C412.936 72.4214 413.189 72.7359 413.336 73.1021C413.484 73.4683 413.519 73.8697 413.439 74.2561C413.358 74.6426 413.165 74.9967 412.884 75.2736L404.542 83.2247C404.258 83.487 403.904 83.6612 403.523 83.7263C403.141 83.7913 402.749 83.7443 402.394 83.5911C402.039 83.4378 401.736 83.1849 401.522 82.8629C401.308 82.5409 401.191 82.1637 401.187 81.777Z" fill="#152226"/>
<path d="M486.281 149.199V159.126H475.94C475.542 159.129 475.153 159.011 474.823 158.788C474.494 158.565 474.239 158.248 474.092 157.878C473.946 157.508 473.914 157.102 474.002 156.714C474.09 156.326 474.293 155.973 474.584 155.703L482.903 147.752C483.186 147.482 483.543 147.301 483.928 147.232C484.313 147.163 484.71 147.208 485.069 147.362C485.429 147.516 485.735 147.772 485.951 148.099C486.166 148.426 486.281 148.808 486.281 149.199Z" fill="#152226"/>
</g>
<defs>
<clipPath id="clip0_16357_29127">
<rect width="452.562" height="120" fill="white" transform="translate(33.7189 40)"/>
</clipPath>
</defs>
</svg>
