<svg width="296" height="462" viewBox="0 0 296 462" fill="none" xmlns="http://www.w3.org/2000/svg">
<path d="M81.8332 198.386H14.4796V195.471L22.756 187.199H88.0601V192.17L81.8332 198.394V198.386ZM14.8501 198.016H81.6755L87.6818 192.012V187.569H22.9057L14.8501 195.621V198.008V198.016ZM143.307 110.795H27.9898L0 138.771L44.2429 182.992H77.7265V177.288L69.1507 168.716H50.1546L20.1864 138.763L33.9014 125.055H152.245V119.721L143.299 110.779L143.307 110.795ZM216.785 76.8946V107.013H188.346L139.405 155.93H100.585L89.5499 166.959V170.205H145.317L194.257 121.289H231.059V67.8896H225.786L216.777 76.8946H216.785ZM228.663 178.517H89.5499V181.834L100.514 192.792H234.567V184.426L228.663 178.525V178.517ZM217.1 170.449H173.291V164.974L182.584 155.686H210.983L259.924 106.769H288.371L295.851 114.246V121.533H266.048L217.108 170.449H217.1ZM173.779 169.953H216.895L265.836 121.037H295.355V114.443L288.166 107.258H260.129L211.188 156.174H182.789L173.787 165.171V169.953H173.779ZM284.122 158.931H260.428L238.737 180.612L242.26 184.134H255.4L266.34 173.199H292.533V167.338L284.122 158.931ZM126.234 149.139H68.2837V142.623L77.8448 133.067H136.575V138.802L126.234 149.139ZM68.7802 148.65H126.037L136.094 138.597V133.563H78.0655L68.7881 142.836V148.65H68.7802Z" fill="#1F2D32"/>
<g clip-path="url(#clip0_19779_5426)">
<g style="mix-blend-mode:multiply">
<path d="M312.632 227.75L312.632 462.102L250.154 462.102L206.088 418.013L188.475 418.013L160.033 389.56L160.033 374.529L182.037 352.517L182.037 330.119L156.114 304.187L146.816 304.187L111.003 268.36L111.003 227.75L312.632 227.75Z" fill="#5B6668"/>
</g>
<path d="M113.618 230.365L113.618 267.276L147.9 301.571L157.198 301.571L184.651 329.035L184.651 353.601L162.647 375.613L162.647 388.476L189.558 415.398L207.172 415.398L251.237 459.48L310.018 459.48L310.018 230.365L113.618 230.365Z" fill="url(#paint0_radial_19779_5426)"/>
<g style="mix-blend-mode:multiply">
<path d="M300.43 232.691L300.43 454.162L253.152 454.162L223.147 424.146L223.147 411.724L233.315 411.724L233.315 407.66L215.676 407.66L204.633 396.612L184.468 396.612L184.468 385.319L202.888 366.892L213.566 366.892L247.986 332.458L247.986 302.511L233.686 288.206L217.547 288.206L201.937 303.822L201.937 312.538L195.549 318.934L187.706 311.088L187.706 294.098L210.945 270.844L210.945 257.767L236.011 232.691L300.43 232.691Z" fill="#BDC9C9"/>
</g>
<path d="M279.22 235.307L237.095 235.307L213.56 258.851L213.56 271.927L190.321 295.175L190.321 310.004L195.55 315.235L199.323 311.454L199.323 302.738L216.464 285.59L234.77 285.59L250.601 301.427L250.601 333.542L214.65 369.514L203.972 369.514L187.089 386.403L187.089 393.997L205.717 393.997L216.76 405.044L235.93 405.044L235.93 414.34L225.762 414.34L225.762 423.062L254.236 451.547L297.816 451.547L297.816 235.307L279.22 235.307Z" fill="url(#paint1_radial_19779_5426)"/>
<g style="mix-blend-mode:multiply">
<path d="M203.316 259.815L196.708 259.815L196.708 271.07L181.992 285.798L181.992 303.607L169.381 303.607L151.194 285.413L151.194 280.177L141.877 270.862L130.254 270.862L121.561 262.159L121.561 232.691L216.501 232.691L231.141 231.973L203.316 259.815Z" fill="#BDC9C9"/>
</g>
<path d="M216.565 235.306L124.176 235.306L124.176 261.075L131.339 268.246L142.961 268.246L153.809 279.098L153.809 284.329L170.465 300.991L179.373 300.991L179.373 284.713L194.095 269.986L194.095 257.199L202.234 257.199L224.502 234.915L216.565 235.306Z" fill="url(#paint2_radial_19779_5426)"/>
<path style="mix-blend-mode:overlay" d="M147.9 301.571L113.618 267.276L113.618 230.365L310.018 230.365L310.018 459.486L251.237 459.486L207.166 415.398L189.552 415.398L162.641 388.476L162.641 375.613L184.651 353.594L184.651 329.035L157.198 301.571L147.9 301.571ZM114.6 266.873L148.309 300.595L157.607 300.595L185.634 328.632L185.634 354.004L163.623 376.023L163.623 388.072L189.962 414.421L207.575 414.421L251.646 458.51L309.035 458.51L309.035 231.348L114.6 231.348L114.6 266.873Z" fill="url(#paint3_radial_19779_5426)"/>
<path style="mix-blend-mode:overlay" d="M205.717 393.997L187.089 393.997L187.089 386.403L203.978 369.507L214.656 369.507L250.607 333.542L250.607 301.427L234.77 285.584L216.464 285.584L199.323 302.732L199.323 311.454L195.543 315.235L190.315 310.004L190.315 295.182L213.56 271.927L213.56 258.851L237.095 235.307L279.22 235.307L297.816 235.307L297.816 451.547L254.236 451.547L225.762 423.062L225.762 414.34L235.93 414.34L235.93 405.038L216.754 405.038L205.711 393.991L205.717 393.997ZM188.066 393.014L206.12 393.014L217.163 404.061L236.912 404.061L236.912 415.323L226.745 415.323L226.745 422.652L254.645 450.563L296.84 450.563L296.84 236.29L279.226 236.29L237.504 236.29L214.543 259.254L214.543 272.331L191.297 295.585L191.297 309.594L195.55 313.848L198.347 311.05L198.347 302.328L216.061 284.607L235.174 284.607L251.584 301.024L251.584 333.952L215.059 370.49L204.382 370.49L188.066 386.813L188.066 393.02L188.066 393.014Z" fill="url(#paint4_radial_19779_5426)"/>
<path style="mix-blend-mode:overlay" d="M131.338 268.247L124.169 261.075L124.169 235.306L216.558 235.306L224.502 234.922L202.227 257.206L194.094 257.206L194.094 269.992L179.372 284.72L179.372 300.998L170.465 300.998L153.809 284.336L153.809 279.105L142.961 268.253L131.338 268.253L131.338 268.247ZM125.152 260.672L131.741 267.264L143.364 267.264L154.785 278.689L154.785 283.92L170.868 300.009L178.389 300.009L178.389 284.304L193.111 269.576L193.111 256.216L201.824 256.216L222.014 236.018L216.609 236.283L216.583 236.283L125.152 236.283L125.152 260.665L125.152 260.672Z" fill="url(#paint5_radial_19779_5426)"/>
<path d="M117.505 231.613L117.505 264.075L144.007 290.587C143.742 291.054 143.805 291.659 144.202 292.062C144.681 292.541 145.462 292.541 145.941 292.062C146.42 291.583 146.42 290.802 145.941 290.323C145.544 289.926 144.939 289.863 144.467 290.127L118.16 263.798L118.16 231.613C118.677 231.468 119.061 230.996 119.061 230.435C119.061 229.754 118.513 229.206 117.832 229.206C117.152 229.206 116.604 229.754 116.604 230.435C116.604 231.002 116.988 231.468 117.505 231.613Z" fill="url(#paint6_radial_19779_5426)"/>
<path d="M242.714 302.738C242.034 302.738 241.486 303.286 241.486 303.967C241.486 304.534 241.87 305 242.386 305.145L242.386 327.788L212.615 357.571C212.149 357.307 211.544 357.37 211.141 357.767C210.662 358.246 210.662 359.027 211.141 359.506C211.62 359.985 212.401 359.985 212.879 359.506C213.276 359.109 213.339 358.504 213.075 358.031L243.042 328.053L243.042 305.139C243.558 304.994 243.942 304.521 243.942 303.96C243.942 303.28 243.394 302.731 242.714 302.731L242.714 302.738Z" fill="url(#paint7_radial_19779_5426)"/>
<path d="M191.404 400.021C191.971 400.021 192.437 399.637 192.582 399.12L202.094 399.12L213.024 410.054L226.839 410.054C226.983 410.571 227.456 410.955 228.017 410.955C228.697 410.955 229.245 410.407 229.245 409.726C229.245 409.046 228.697 408.497 228.017 408.497C227.45 408.497 226.983 408.882 226.839 409.399L213.295 409.399L202.365 398.465L192.582 398.465C192.437 397.948 191.964 397.563 191.404 397.563C190.723 397.563 190.175 398.112 190.175 398.792C190.175 399.473 190.723 400.021 191.404 400.021Z" fill="url(#paint8_radial_19779_5426)"/>
<path d="M129.417 228.853L129.417 254.628L136.435 261.648L147.623 261.648L159.636 273.666L159.636 282.533L169.363 292.263C169.098 292.73 169.161 293.335 169.558 293.738C170.037 294.217 170.818 294.217 171.297 293.738C171.775 293.259 171.775 292.477 171.297 291.999C170.9 291.602 170.295 291.538 169.823 291.803L160.291 282.268L160.291 273.401L147.9 261.005L136.712 261.005L130.079 254.369L130.079 228.853C130.595 228.708 130.98 228.235 130.98 227.674C130.98 226.994 130.432 226.445 129.751 226.445C129.071 226.445 128.523 226.994 128.523 227.674C128.523 228.241 128.907 228.708 129.424 228.853L129.417 228.853Z" fill="url(#paint9_radial_19779_5426)"/>
<path d="M199.322 297.696C199.719 297.299 199.782 296.694 199.518 296.221L221.345 274.385L221.345 264.699L240.521 245.516L250.978 245.516L250.978 228.998C251.495 228.853 251.879 228.381 251.879 227.82C251.879 227.139 251.331 226.591 250.651 226.591C249.97 226.591 249.422 227.139 249.422 227.82C249.422 228.387 249.807 228.853 250.323 228.998L250.323 244.86L240.25 244.86L220.69 264.428L220.69 274.114L199.051 295.761C198.585 295.497 197.981 295.56 197.577 295.957C197.099 296.436 197.099 297.217 197.577 297.696C198.056 298.175 198.837 298.175 199.316 297.696L199.322 297.696Z" fill="url(#paint10_radial_19779_5426)"/>
<g style="mix-blend-mode:overlay">
<path d="M240.912 226.628L204.129 263.425L204.129 272.292L185.974 290.454L185.974 313.847L196.142 324.019L196.142 357.016L172.752 380.409L172.752 389.414L192.501 409.171L206.662 409.171L266.734 469.267L266.11 469.891L206.297 410.053L192.135 410.053L171.87 389.78L171.87 380.043L195.26 356.65L195.26 324.39L185.086 314.213L185.086 290.089L203.248 271.926L203.248 263.06L240.289 226.004L240.912 226.628Z" fill="#C8C8C8"/>
<path d="M222.757 227.062L198.964 250.865L185.244 250.865L185.244 263.652L159.013 263.652L145.21 249.85L138.155 249.85L138.155 225.424L139.043 225.424L139.043 248.962L145.576 248.962L159.378 262.769L184.362 262.769L184.362 249.983L198.599 249.983L222.134 226.438L222.757 227.062Z" fill="#C8C8C8"/>
<path d="M279.22 282.111L260.637 282.111L260.637 342.629L226.5 376.779L226.5 392.534L246.11 392.534L246.11 421.24L286.962 462.108L286.339 462.732L245.228 421.605L245.228 393.416L225.618 393.416L225.618 376.414L259.755 342.263L259.755 281.229L279.22 281.229L279.22 282.111Z" fill="#C8C8C8"/>
</g>
<g style="mix-blend-mode:multiply">
<path d="M240.289 226.005L203.248 263.06L203.248 271.927L185.086 290.09L185.086 314.214L195.26 324.391L195.26 356.651L171.87 380.044L171.87 389.781L192.135 410.054L206.297 410.054L266.111 469.892L265.487 470.515L205.931 410.936L191.77 410.936L170.988 390.146L170.988 379.679L194.378 356.286L194.378 324.757L184.204 314.579L184.204 289.724L202.366 271.562L202.366 262.695L239.665 225.381L240.289 226.005Z" fill="#596B70"/>
<path d="M222.133 226.439L198.598 249.984L184.361 249.984L184.361 262.77L159.377 262.77L145.575 248.963L139.042 248.963L139.042 225.425L139.924 225.425L139.924 248.08L145.94 248.08L159.743 261.888L183.479 261.888L183.479 249.101L198.233 249.101L221.51 225.816L222.133 226.439Z" fill="#596B70"/>
<path d="M279.219 281.229L259.754 281.229L259.754 342.264L225.617 376.414L225.617 393.417L245.227 393.417L245.227 421.606L286.338 462.732L285.714 463.356L244.345 421.977L244.345 394.299L224.735 394.299L224.735 376.049L258.872 341.898L258.872 280.347L279.219 280.347L279.219 281.229Z" fill="#596B70"/>
</g>
<g style="mix-blend-mode:multiply">
<path d="M245.264 347.462L245.264 343.996L244.156 345.105L244.156 348.571L247.614 348.571L248.723 347.462L245.264 347.462Z" fill="#B1B1B1"/>
<path d="M243.059 349.661L243.059 346.201L241.951 347.31L241.951 350.77L245.415 350.77L246.524 349.661L243.059 349.661Z" fill="#B1B1B1"/>
<path d="M240.861 351.866L240.861 348.4L239.752 349.51L239.752 352.976L243.211 352.976L244.32 351.866L240.861 351.866Z" fill="#B1B1B1"/>
<path d="M238.656 354.066L238.656 350.606L237.547 351.716L237.547 355.175L241.012 355.175L242.121 354.066L238.656 354.066Z" fill="#B1B1B1"/>
<path d="M236.458 356.273L236.458 352.807L235.349 353.916L235.349 357.376L238.808 357.376L239.916 356.273L236.458 356.273Z" fill="#B1B1B1"/>
<path d="M234.253 358.472L234.253 355.012L233.151 356.115L233.151 359.581L236.609 359.581L237.718 358.472L234.253 358.472Z" fill="#B1B1B1"/>
<path d="M232.055 360.671L232.055 357.211L230.946 358.32L230.946 361.78L234.411 361.78L235.513 360.671L232.055 360.671Z" fill="#B1B1B1"/>
<path d="M229.85 362.876L229.85 359.41L228.748 360.519L228.748 363.985L232.206 363.985L233.315 362.876L229.85 362.876Z" fill="#B1B1B1"/>
<path d="M227.651 365.076L227.651 361.616L226.542 362.725L226.542 366.185L230.007 366.185L231.116 365.076L227.651 365.076Z" fill="#B1B1B1"/>
</g>
<g style="mix-blend-mode:overlay">
<path d="M170.855 307.533L167.39 307.533L168.499 308.636L171.957 308.636L171.964 305.177L170.855 304.067L170.855 307.533Z" fill="#D4D5DA"/>
<path d="M173.054 309.733L169.595 309.733L170.698 310.842L174.162 310.842L174.162 307.376L173.054 306.273L173.054 309.733Z" fill="#D4D5DA"/>
<path d="M175.252 311.938L171.793 311.938L172.902 313.041L176.361 313.041L176.361 309.581L175.252 308.472L175.252 311.938Z" fill="#D4D5DA"/>
<path d="M177.456 314.138L173.992 314.138L175.1 315.247L178.565 315.247L178.565 311.781L177.456 310.672L177.456 314.138Z" fill="#D4D5DA"/>
<path d="M179.655 316.338L176.197 316.338L177.305 317.447L180.764 317.447L180.764 313.987L179.655 312.878L179.655 316.338Z" fill="#D4D5DA"/>
<path d="M181.86 318.543L178.395 318.543L179.504 319.652L182.968 319.652L182.968 316.186L181.86 315.077L181.86 318.543Z" fill="#D4D5DA"/>
<path d="M184.059 320.742L180.6 320.742L181.709 321.851L185.167 321.851L185.167 318.391L184.059 317.282L184.059 320.742Z" fill="#D4D5DA"/>
<path d="M186.263 322.948L182.798 322.948L183.907 324.057L187.365 324.057L187.365 320.591L186.263 319.481L186.263 322.948Z" fill="#D4D5DA"/>
<path d="M188.462 325.147L185.003 325.147L186.106 326.256L189.571 326.256L189.571 322.797L188.462 321.688L188.462 325.147Z" fill="#D4D5DA"/>
</g>
<g style="mix-blend-mode:overlay">
<path d="M243.589 250.185L243.589 246.719L242.48 247.828L242.48 251.288L245.938 251.288L247.047 250.185L243.589 250.185Z" fill="#D4D5DA"/>
<path d="M241.384 252.384L241.384 248.924L240.275 250.027L240.275 253.493L243.74 253.493L244.848 252.384L241.384 252.384Z" fill="#D4D5DA"/>
<path d="M239.185 254.583L239.185 251.123L238.077 252.232L238.077 255.692L241.541 255.692L242.644 254.583L239.185 254.583Z" fill="#D4D5DA"/>
<path d="M236.98 256.789L236.98 253.323L235.877 254.432L235.877 257.898L239.336 257.898L240.445 256.789L236.98 256.789Z" fill="#D4D5DA"/>
<path d="M234.782 258.989L234.782 255.529L233.673 256.638L233.673 260.098L237.138 260.098L238.24 258.989L234.782 258.989Z" fill="#D4D5DA"/>
<path d="M232.578 261.195L232.578 257.729L231.475 258.838L231.475 262.304L234.934 262.304L236.042 261.195L232.578 261.195Z" fill="#D4D5DA"/>
<path d="M230.379 263.393L230.379 259.934L229.27 261.043L229.27 264.503L232.735 264.503L233.837 263.393L230.379 263.393Z" fill="#D4D5DA"/>
<path d="M228.18 265.599L228.18 262.133L227.072 263.242L227.072 266.702L230.53 266.702L231.639 265.599L228.18 265.599Z" fill="#D4D5DA"/>
<path d="M225.975 267.799L225.975 264.339L224.867 265.442L224.867 268.908L228.331 268.908L229.44 267.799L225.975 267.799Z" fill="#D4D5DA"/>
</g>
<path d="M262.998 418.92C264.095 418.92 264.983 419.809 264.983 420.905C264.983 422.002 264.095 422.89 262.998 422.89L255.83 422.89C254.733 422.89 253.845 422.002 253.845 420.905C253.845 419.809 254.733 418.92 255.83 418.92L262.998 418.92Z" fill="url(#paint11_linear_19779_5426)"/>
<path d="M255.83 419.444L262.998 419.444C263.805 419.444 264.466 420.1 264.466 420.913C264.466 421.719 263.811 422.381 262.998 422.381L255.83 422.381C255.023 422.381 254.362 421.726 254.362 420.913C254.362 420.1 255.017 419.444 255.83 419.444Z" fill="url(#paint12_linear_19779_5426)"/>
<g style="mix-blend-mode:multiply">
<path d="M255.829 419.967L262.998 419.967C263.716 419.967 264.315 420.49 264.434 421.171C264.447 421.089 264.459 421.001 264.459 420.913C264.459 420.106 263.804 419.444 262.992 419.444L255.823 419.444C255.016 419.444 254.355 420.1 254.355 420.913C254.355 421.001 254.368 421.089 254.38 421.171C254.506 420.484 255.098 419.967 255.816 419.967L255.829 419.967Z" fill="#A39886"/>
</g>
<path d="M262.998 411.561C264.095 411.561 264.983 412.449 264.983 413.546C264.983 414.642 264.095 415.531 262.998 415.531L255.83 415.531C254.733 415.531 253.845 414.642 253.845 413.546C253.845 412.449 254.733 411.561 255.83 411.561L262.998 411.561Z" fill="url(#paint13_linear_19779_5426)"/>
<path d="M255.83 412.076L262.998 412.076C263.805 412.076 264.466 412.732 264.466 413.545C264.466 414.351 263.811 415.013 262.998 415.013L255.83 415.013C255.023 415.013 254.362 414.357 254.362 413.545C254.362 412.738 255.017 412.076 255.83 412.076Z" fill="url(#paint14_linear_19779_5426)"/>
<g style="mix-blend-mode:multiply">
<path d="M255.829 412.6L262.998 412.6C263.716 412.6 264.315 413.123 264.434 413.804C264.447 413.722 264.459 413.634 264.459 413.546C264.459 412.739 263.804 412.077 262.992 412.077L255.823 412.077C255.016 412.077 254.355 412.733 254.355 413.546C254.355 413.634 254.368 413.722 254.38 413.804C254.506 413.117 255.098 412.6 255.816 412.6L255.829 412.6Z" fill="#A39886"/>
</g>
<path d="M262.998 404.192C264.095 404.192 264.983 405.081 264.983 406.178C264.983 407.274 264.095 408.163 262.998 408.163L255.83 408.163C254.733 408.163 253.845 407.274 253.845 406.178C253.845 405.081 254.733 404.192 255.83 404.192L262.998 404.192Z" fill="url(#paint15_linear_19779_5426)"/>
<path d="M255.83 404.717L262.998 404.717C263.805 404.717 264.466 405.372 264.466 406.185C264.466 406.998 263.811 407.654 262.998 407.654L255.83 407.654C255.023 407.654 254.362 406.998 254.362 406.185C254.362 405.372 255.017 404.717 255.83 404.717Z" fill="url(#paint16_linear_19779_5426)"/>
<g style="mix-blend-mode:multiply">
<path d="M255.829 405.233L262.998 405.233C263.716 405.233 264.315 405.756 264.434 406.437C264.447 406.355 264.459 406.267 264.459 406.178C264.459 405.372 263.804 404.71 262.992 404.71L255.823 404.71C255.016 404.71 254.355 405.365 254.355 406.178C254.355 406.267 254.368 406.355 254.38 406.437C254.506 405.75 255.098 405.233 255.816 405.233L255.829 405.233Z" fill="#A39886"/>
</g>
<path d="M262.998 396.826C264.095 396.826 264.983 397.715 264.983 398.811C264.983 399.908 264.095 400.796 262.998 400.796L255.83 400.796C254.733 400.796 253.845 399.908 253.845 398.811C253.845 397.715 254.733 396.826 255.83 396.826L262.998 396.826Z" fill="url(#paint17_linear_19779_5426)"/>
<path d="M255.83 397.349L262.998 397.349C263.805 397.349 264.466 398.004 264.466 398.817C264.466 399.63 263.811 400.285 262.998 400.285L255.83 400.285C255.023 400.285 254.362 399.63 254.362 398.817C254.362 398.01 255.017 397.349 255.83 397.349Z" fill="url(#paint18_linear_19779_5426)"/>
<g style="mix-blend-mode:multiply">
<path d="M255.829 397.866L262.998 397.866C263.716 397.866 264.315 398.389 264.434 399.07C264.447 398.988 264.459 398.899 264.459 398.811C264.459 398.004 263.804 397.343 262.992 397.343L255.823 397.343C255.016 397.343 254.355 397.998 254.355 398.811C254.355 398.899 254.368 398.988 254.38 399.07C254.506 398.383 255.098 397.866 255.816 397.866L255.829 397.866Z" fill="#A39886"/>
</g>
<path d="M266.072 276.459L266.072 245.157L259.25 251.982L259.25 269.634L266.072 276.459Z" fill="url(#paint19_linear_19779_5426)"/>
<g style="mix-blend-mode:screen" opacity="0.77">
<path d="M259.25 251.981L259.25 269.633L261.095 271.48L261.095 250.135L259.25 251.981Z" fill="#243035"/>
</g>
<g style="mix-blend-mode:multiply">
<path d="M312.632 231.808L312.632 -2.54423L250.154 -2.54423L206.088 41.5444L188.475 41.5444L160.033 69.9979L160.033 85.0281L182.037 107.041L182.037 129.438L156.114 155.371L146.816 155.371L111.003 191.198L111.003 231.808L312.632 231.808Z" fill="#5B6668"/>
</g>
<path d="M113.618 229.192L113.618 192.282L147.9 157.986L157.198 157.986L184.651 130.522L184.651 105.957L162.647 83.9443L162.647 71.0819L189.558 44.1599L207.172 44.1599L251.237 0.0774781L310.018 0.0774755L310.018 229.192L113.618 229.192Z" fill="url(#paint20_radial_19779_5426)"/>
<g style="mix-blend-mode:multiply">
<path d="M300.43 226.867L300.43 5.39657L253.152 5.39657L223.147 35.4129L223.147 47.8341L233.315 47.8341L233.315 51.8989L215.676 51.8989L204.633 62.9463L184.468 62.9463L184.468 74.2395L202.888 92.6664L213.566 92.6664L247.986 127.1L247.986 157.048L233.686 171.353L217.547 171.353L201.937 155.737L201.937 147.021L195.549 140.625L187.706 148.471L187.706 165.461L210.945 188.715L210.945 201.792L236.011 226.867L300.43 226.867Z" fill="#BDC9C9"/>
</g>
<path d="M279.22 224.252L237.095 224.252L213.56 200.708L213.56 187.631L190.321 164.383L190.321 149.555L195.55 144.324L199.323 148.105L199.323 156.821L216.464 173.968L234.77 173.968L250.601 158.132L250.601 126.017L214.65 90.0449L203.972 90.0449L187.089 73.1556L187.089 65.5617L205.717 65.5617L216.76 54.5143L235.93 54.5143L235.93 45.2189L225.762 45.2189L225.762 36.497L254.236 8.01199L297.816 8.01199L297.816 224.252L279.22 224.252Z" fill="url(#paint21_radial_19779_5426)"/>
<g style="mix-blend-mode:multiply">
<path d="M203.316 199.743L196.708 199.743L196.708 188.487L181.992 173.76L181.992 155.95L169.381 155.95L151.194 174.144L151.194 179.381L141.877 188.695L130.254 188.695L121.561 197.398L121.561 226.867L216.501 226.867L231.141 227.585L203.316 199.743Z" fill="#BDC9C9"/>
</g>
<path d="M216.565 224.252L124.176 224.252L124.176 198.483L131.339 191.311L142.961 191.311L153.809 180.459L153.809 175.229L170.465 158.566L179.373 158.566L179.373 174.844L194.095 189.572L194.095 202.359L202.234 202.359L224.502 224.643L216.565 224.252Z" fill="url(#paint22_radial_19779_5426)"/>
<path style="mix-blend-mode:overlay" d="M147.9 157.986L113.618 192.282L113.618 229.192L310.018 229.192L310.018 0.0711889L251.237 0.0711915L207.166 44.1599L189.552 44.1599L162.641 71.082L162.641 83.9443L184.651 105.963L184.651 130.522L157.198 157.986L147.9 157.986ZM114.6 192.685L148.309 158.963L157.607 158.963L185.634 130.926L185.634 105.554L163.623 83.5347L163.623 71.4853L189.962 45.1367L207.575 45.1367L251.646 1.04801L309.035 1.04801L309.035 228.209L114.6 228.209L114.6 192.685Z" fill="url(#paint23_radial_19779_5426)"/>
<path style="mix-blend-mode:overlay" d="M205.717 65.5617L187.089 65.5617L187.089 73.1556L203.978 90.0512L214.656 90.0512L250.607 126.017L250.607 158.132L234.77 173.975L216.464 173.975L199.323 156.827L199.323 148.105L195.543 144.324L190.315 149.555L190.315 164.377L213.56 187.631L213.56 200.708L237.095 224.252L279.22 224.252L297.816 224.252L297.816 8.01199L254.236 8.01199L225.762 36.497L225.762 45.2189L235.93 45.2189L235.93 54.5206L216.754 54.5206L205.711 65.568L205.717 65.5617ZM188.066 66.5448L206.12 66.5448L217.163 55.4974L236.912 55.4974L236.912 44.2358L226.745 44.2358L226.745 36.9066L254.645 8.9951L296.84 8.9951L296.84 223.269L279.226 223.269L237.504 223.269L214.543 200.304L214.543 187.228L191.297 163.973L191.297 149.964L195.55 145.71L198.347 148.508L198.347 157.23L216.061 174.952L235.174 174.952L251.584 158.535L251.584 125.607L215.059 89.0681L204.382 89.0681L188.066 72.746L188.066 66.5385L188.066 66.5448Z" fill="url(#paint24_radial_19779_5426)"/>
<path style="mix-blend-mode:overlay" d="M131.338 191.312L124.169 198.483L124.169 224.252L216.558 224.252L224.502 224.637L202.227 202.353L194.094 202.353L194.094 189.566L179.372 174.838L179.372 158.56L170.465 158.56L153.809 175.223L153.809 180.454L142.961 191.306L131.338 191.306L131.338 191.312ZM125.152 198.887L131.741 192.295L143.364 192.295L154.785 180.869L154.785 175.639L170.868 159.55L178.389 159.55L178.389 175.254L193.111 189.982L193.111 203.342L201.824 203.342L222.014 223.54L216.609 223.275L216.583 223.275L125.152 223.275L125.152 198.893L125.152 198.887Z" fill="url(#paint25_radial_19779_5426)"/>
<path d="M117.505 227.944L117.505 195.483L144.007 168.97C143.742 168.504 143.805 167.899 144.202 167.496C144.681 167.017 145.462 167.017 145.941 167.496C146.42 167.975 146.42 168.756 145.941 169.235C145.544 169.632 144.939 169.695 144.467 169.43L118.16 195.76L118.16 227.944C118.677 228.089 119.061 228.562 119.061 229.123C119.061 229.803 118.513 230.352 117.832 230.352C117.152 230.352 116.604 229.803 116.604 229.123C116.604 228.555 116.988 228.089 117.505 227.944Z" fill="url(#paint26_radial_19779_5426)"/>
<path d="M242.714 156.821C242.034 156.821 241.486 156.273 241.486 155.592C241.486 155.025 241.87 154.558 242.386 154.413L242.386 131.77L212.615 101.987C212.149 102.252 211.544 102.189 211.141 101.792C210.662 101.313 210.662 100.532 211.141 100.053C211.62 99.5736 212.401 99.5736 212.879 100.053C213.276 100.45 213.339 101.055 213.075 101.527L243.042 131.506L243.042 154.42C243.558 154.565 243.942 155.037 243.942 155.598C243.942 156.279 243.394 156.827 242.714 156.827L242.714 156.821Z" fill="url(#paint27_radial_19779_5426)"/>
<path d="M191.404 59.5373C191.971 59.5373 192.437 59.9218 192.582 60.4385L202.094 60.4385L213.024 49.5046L226.839 49.5046C226.983 48.9878 227.456 48.6034 228.017 48.6034C228.697 48.6034 229.245 49.1517 229.245 49.8323C229.245 50.5129 228.697 51.0612 228.017 51.0612C227.45 51.0612 226.983 50.6768 226.839 50.16L213.295 50.16L202.365 61.0939L192.582 61.0939C192.437 61.6107 191.964 61.9951 191.404 61.9951C190.723 61.9951 190.175 61.4468 190.175 60.7662C190.175 60.0856 190.723 59.5373 191.404 59.5373Z" fill="url(#paint28_radial_19779_5426)"/>
<path d="M129.417 230.705L129.417 204.93L136.435 197.909L147.623 197.909L159.636 185.892L159.636 177.025L169.363 167.294C169.098 166.828 169.161 166.223 169.558 165.82C170.037 165.341 170.818 165.341 171.297 165.82C171.775 166.299 171.775 167.08 171.297 167.559C170.9 167.956 170.295 168.019 169.823 167.754L160.291 177.289L160.291 186.156L147.9 198.552L136.712 198.552L130.079 205.188L130.079 230.705C130.595 230.85 130.98 231.323 130.98 231.883C130.98 232.564 130.432 233.112 129.751 233.112C129.071 233.112 128.523 232.564 128.523 231.883C128.523 231.316 128.907 230.85 129.424 230.705L129.417 230.705Z" fill="url(#paint29_radial_19779_5426)"/>
<path d="M199.322 161.862C199.719 162.26 199.782 162.865 199.518 163.337L221.345 185.174L221.345 194.86L240.521 214.043L250.978 214.043L250.978 230.56C251.495 230.705 251.879 231.178 251.879 231.739C251.879 232.419 251.331 232.968 250.651 232.968C249.97 232.968 249.422 232.419 249.422 231.739C249.422 231.172 249.807 230.705 250.323 230.56L250.323 214.698L240.25 214.698L220.69 195.131L220.69 185.445L199.051 163.797C198.585 164.062 197.981 163.999 197.577 163.602C197.099 163.123 197.099 162.341 197.577 161.862C198.056 161.384 198.837 161.384 199.316 161.862L199.322 161.862Z" fill="url(#paint30_radial_19779_5426)"/>
<g style="mix-blend-mode:overlay">
<path d="M240.912 232.93L204.129 196.133L204.129 187.266L185.974 169.103L185.974 145.71L196.142 135.539L196.142 102.542L172.752 79.1488L172.752 70.1433L192.501 50.3866L206.662 50.3866L266.734 -9.70914L266.11 -10.333L206.297 49.5043L192.135 49.5043L171.87 69.7778L171.87 79.5143L195.26 102.907L195.26 135.167L185.086 145.345L185.086 169.469L203.248 187.631L203.248 196.498L240.289 233.554L240.912 232.93Z" fill="#C8C8C8"/>
<path d="M222.757 232.495L198.964 208.693L185.244 208.693L185.244 195.906L159.013 195.906L145.21 209.707L138.155 209.707L138.155 234.134L139.043 234.134L139.043 210.596L145.576 210.596L159.378 196.788L184.362 196.788L184.362 209.575L198.599 209.575L222.134 233.119L222.757 232.495Z" fill="#C8C8C8"/>
<path d="M279.22 177.447L260.637 177.447L260.637 116.929L226.5 82.7784L226.5 67.0235L246.11 67.0235L246.11 38.3179L286.962 -2.55043L286.339 -3.17432L245.228 37.9524L245.228 66.1412L225.618 66.1412L225.618 83.1439L259.755 117.294L259.755 178.329L279.22 178.329L279.22 177.447Z" fill="#C8C8C8"/>
</g>
<g style="mix-blend-mode:multiply">
<path d="M240.289 233.554L203.248 196.498L203.248 187.631L185.086 169.469L185.086 145.345L195.26 135.167L195.26 102.907L171.87 79.5145L171.87 69.7779L192.135 49.5044L206.297 49.5044L266.111 -10.3329L265.487 -10.9568L205.931 48.6221L191.77 48.6221L170.988 69.4124L170.988 79.88L194.378 103.273L194.378 134.802L184.204 144.979L184.204 169.834L202.366 187.997L202.366 196.864L239.665 234.178L240.289 233.554Z" fill="#596B70"/>
<path d="M222.133 233.119L198.598 209.575L184.361 209.575L184.361 196.788L159.377 196.788L145.575 210.596L139.042 210.596L139.042 234.134L139.924 234.134L139.924 211.478L145.94 211.478L159.743 197.671L183.479 197.671L183.479 210.457L198.233 210.457L221.51 233.743L222.133 233.119Z" fill="#596B70"/>
<path d="M279.219 178.33L259.754 178.33L259.754 117.295L225.617 83.1445L225.617 66.1417L245.227 66.1417L245.227 37.9529L286.338 -3.17382L285.714 -3.7977L244.345 37.5811L244.345 65.2594L224.735 65.2594L224.735 83.51L258.872 117.66L258.872 179.212L279.219 179.212L279.219 178.33Z" fill="#596B70"/>
</g>
<g style="mix-blend-mode:multiply">
<path d="M245.265 112.095L245.265 115.562L244.157 114.452L244.157 110.986L247.615 110.986L248.724 112.095L245.265 112.095Z" fill="#B1B1B1"/>
<path d="M243.06 109.897L243.06 113.356L241.952 112.247L241.952 108.788L245.416 108.788L246.525 109.897L243.06 109.897Z" fill="#B1B1B1"/>
<path d="M240.862 107.691L240.862 111.157L239.753 110.048L239.753 106.582L243.212 106.582L244.321 107.691L240.862 107.691Z" fill="#B1B1B1"/>
<path d="M238.657 105.491L238.657 108.951L237.548 107.842L237.548 104.382L241.013 104.382L242.122 105.491L238.657 105.491Z" fill="#B1B1B1"/>
<path d="M236.459 103.285L236.459 106.751L235.35 105.642L235.35 102.182L238.809 102.182L239.917 103.285L236.459 103.285Z" fill="#B1B1B1"/>
<path d="M234.254 101.086L234.254 104.546L233.152 103.443L233.152 99.977L236.61 99.977L237.719 101.086L234.254 101.086Z" fill="#B1B1B1"/>
<path d="M232.055 98.8869L232.055 102.347L230.947 101.238L230.947 97.7777L234.412 97.7777L235.514 98.8869L232.055 98.8869Z" fill="#B1B1B1"/>
<path d="M229.851 96.6814L229.851 100.147L228.749 99.0383L228.749 95.5722L232.207 95.5722L233.316 96.6814L229.851 96.6814Z" fill="#B1B1B1"/>
<path d="M227.652 94.4816L227.652 97.9414L226.543 96.8323L226.543 93.3725L230.008 93.3725L231.117 94.4816L227.652 94.4816Z" fill="#B1B1B1"/>
</g>
<g style="mix-blend-mode:overlay">
<path d="M170.855 152.025L167.39 152.025L168.499 150.922L171.957 150.922L171.964 154.382L170.855 155.491L170.855 152.025Z" fill="#D4D5DA"/>
<path d="M173.054 149.825L169.595 149.825L170.698 148.716L174.162 148.716L174.162 152.182L173.054 153.285L173.054 149.825Z" fill="#D4D5DA"/>
<path d="M175.252 147.621L171.793 147.621L172.902 146.518L176.361 146.518L176.361 149.978L175.252 151.087L175.252 147.621Z" fill="#D4D5DA"/>
<path d="M177.456 145.421L173.992 145.421L175.1 144.311L178.565 144.311L178.565 147.778L177.456 148.887L177.456 145.421Z" fill="#D4D5DA"/>
<path d="M179.655 143.221L176.197 143.221L177.305 142.112L180.764 142.112L180.764 145.572L179.655 146.681L179.655 143.221Z" fill="#D4D5DA"/>
<path d="M181.861 141.015L178.396 141.015L179.505 139.906L182.969 139.906L182.969 143.372L181.861 144.481L181.861 141.015Z" fill="#D4D5DA"/>
<path d="M184.059 138.817L180.6 138.817L181.709 137.707L185.167 137.707L185.167 141.167L184.059 142.276L184.059 138.817Z" fill="#D4D5DA"/>
<path d="M186.264 136.61L182.799 136.61L183.908 135.501L187.366 135.501L187.366 138.967L186.264 140.076L186.264 136.61Z" fill="#D4D5DA"/>
<path d="M188.463 134.41L185.004 134.41L186.107 133.301L189.572 133.301L189.572 136.761L188.463 137.87L188.463 134.41Z" fill="#D4D5DA"/>
</g>
<g style="mix-blend-mode:overlay">
<path d="M243.59 209.373L243.59 212.839L242.481 211.73L242.481 208.27L245.939 208.27L247.048 209.373L243.59 209.373Z" fill="#D4D5DA"/>
<path d="M241.385 207.174L241.385 210.634L240.276 209.531L240.276 206.065L243.741 206.065L244.849 207.174L241.385 207.174Z" fill="#D4D5DA"/>
<path d="M239.186 204.975L239.186 208.435L238.078 207.325L238.078 203.866L241.542 203.866L242.645 204.975L239.186 204.975Z" fill="#D4D5DA"/>
<path d="M236.981 202.768L236.981 206.234L235.878 205.125L235.878 201.659L239.337 201.659L240.446 202.768L236.981 202.768Z" fill="#D4D5DA"/>
<path d="M234.783 200.569L234.783 204.028L233.674 202.919L233.674 199.459L237.139 199.459L238.241 200.569L234.783 200.569Z" fill="#D4D5DA"/>
<path d="M232.578 198.363L232.578 201.829L231.476 200.72L231.476 197.254L234.935 197.254L236.043 198.363L232.578 198.363Z" fill="#D4D5DA"/>
<path d="M230.38 196.164L230.38 199.624L229.271 198.515L229.271 195.055L232.736 195.055L233.838 196.164L230.38 196.164Z" fill="#D4D5DA"/>
<path d="M228.181 193.959L228.181 197.425L227.073 196.316L227.073 192.856L230.531 192.856L231.64 193.959L228.181 193.959Z" fill="#D4D5DA"/>
<path d="M225.976 191.759L225.976 195.219L224.868 194.116L224.868 190.65L228.332 190.65L229.441 191.759L225.976 191.759Z" fill="#D4D5DA"/>
</g>
<path d="M262.998 40.6367C264.095 40.6367 264.983 39.7481 264.983 38.6516C264.983 37.555 264.095 36.6665 262.998 36.6665L255.83 36.6665C254.733 36.6665 253.845 37.555 253.845 38.6516C253.845 39.7481 254.733 40.6367 255.83 40.6367L262.998 40.6367Z" fill="url(#paint31_linear_19779_5426)"/>
<path d="M255.83 40.1143L262.998 40.1143C263.805 40.1143 264.466 39.4589 264.466 38.6459C264.466 37.8392 263.811 37.1775 262.998 37.1775L255.83 37.1775C255.023 37.1775 254.362 37.8329 254.362 38.6459C254.362 39.4589 255.017 40.1143 255.83 40.1143Z" fill="url(#paint32_linear_19779_5426)"/>
<g style="mix-blend-mode:multiply">
<path d="M255.829 39.5912L262.998 39.5912C263.716 39.5912 264.315 39.0681 264.434 38.3875C264.447 38.4694 264.459 38.5577 264.459 38.6459C264.459 39.4526 263.804 40.1143 262.992 40.1143L255.823 40.1143C255.016 40.1143 254.355 39.4589 254.355 38.6459C254.355 38.5577 254.368 38.4694 254.38 38.3875C254.506 39.0744 255.098 39.5912 255.816 39.5912L255.829 39.5912Z" fill="#A39886"/>
</g>
<path d="M262.998 47.9971C264.095 47.9971 264.983 47.1085 264.983 46.0119C264.983 44.9154 264.095 44.0268 262.998 44.0268L255.83 44.0268C254.733 44.0268 253.845 44.9154 253.845 46.0119C253.845 47.1085 254.733 47.9971 255.83 47.9971L262.998 47.9971Z" fill="url(#paint33_linear_19779_5426)"/>
<path d="M255.83 47.4814L262.998 47.4814C263.805 47.4814 264.466 46.826 264.466 46.0131C264.466 45.2064 263.811 44.5447 262.998 44.5447L255.83 44.5447C255.023 44.5447 254.362 45.2001 254.362 46.0131C254.362 46.8197 255.017 47.4814 255.83 47.4814Z" fill="url(#paint34_linear_19779_5426)"/>
<g style="mix-blend-mode:multiply">
<path d="M255.829 46.9584L262.998 46.9584C263.716 46.9584 264.315 46.4353 264.434 45.7547C264.447 45.8366 264.459 45.9249 264.459 46.0131C264.459 46.8197 263.804 47.4814 262.992 47.4814L255.823 47.4814C255.016 47.4814 254.355 46.826 254.355 46.0131C254.355 45.9249 254.368 45.8366 254.38 45.7547C254.506 46.4416 255.098 46.9584 255.816 46.9584L255.829 46.9584Z" fill="#A39886"/>
</g>
<path d="M262.998 55.3652C264.095 55.3652 264.983 54.4766 264.983 53.3801C264.983 52.2835 264.095 51.395 262.998 51.395L255.83 51.395C254.733 51.395 253.845 52.2835 253.845 53.3801C253.845 54.4766 254.733 55.3652 255.83 55.3652L262.998 55.3652Z" fill="url(#paint35_linear_19779_5426)"/>
<path d="M255.83 54.8418L262.998 54.8418C263.805 54.8418 264.466 54.1864 264.466 53.3734C264.466 52.5605 263.811 51.9051 262.998 51.9051L255.83 51.9051C255.023 51.9051 254.362 52.5605 254.362 53.3734C254.362 54.1864 255.017 54.8418 255.83 54.8418Z" fill="url(#paint36_linear_19779_5426)"/>
<g style="mix-blend-mode:multiply">
<path d="M255.829 54.3246L262.998 54.3246C263.716 54.3246 264.315 53.8015 264.434 53.1209C264.447 53.2028 264.459 53.2911 264.459 53.3793C264.459 54.1859 263.804 54.8477 262.992 54.8477L255.823 54.8477C255.016 54.8477 254.355 54.1922 254.355 53.3793C254.355 53.2911 254.368 53.2028 254.38 53.1209C254.506 53.8078 255.098 54.3246 255.816 54.3246L255.829 54.3246Z" fill="#A39886"/>
</g>
<path d="M262.998 62.7314C264.095 62.7314 264.983 61.8428 264.983 60.7463C264.983 59.6498 264.095 58.7612 262.998 58.7612L255.83 58.7612C254.733 58.7612 253.845 59.6498 253.845 60.7463C253.845 61.8429 254.733 62.7314 255.83 62.7314L262.998 62.7314Z" fill="url(#paint37_linear_19779_5426)"/>
<path d="M255.83 62.209L262.998 62.209C263.805 62.209 264.466 61.5536 264.466 60.7406C264.466 59.9277 263.811 59.2723 262.998 59.2723L255.83 59.2723C255.023 59.2723 254.362 59.9277 254.362 60.7406C254.362 61.5473 255.017 62.209 255.83 62.209Z" fill="url(#paint38_linear_19779_5426)"/>
<g style="mix-blend-mode:multiply">
<path d="M255.829 61.6918L262.998 61.6918C263.716 61.6918 264.315 61.1687 264.434 60.4881C264.447 60.57 264.459 60.6582 264.459 60.7465C264.459 61.5531 263.804 62.2148 262.992 62.2148L255.823 62.2148C255.016 62.2148 254.355 61.5594 254.355 60.7465C254.355 60.6582 254.368 60.57 254.38 60.4881C254.506 61.175 255.098 61.6918 255.816 61.6918L255.829 61.6918Z" fill="#A39886"/>
</g>
<path d="M266.072 183.099L266.072 214.401L259.25 207.576L259.25 189.924L266.072 183.099Z" fill="url(#paint39_linear_19779_5426)"/>
<g style="mix-blend-mode:screen" opacity="0.77">
<path d="M259.25 207.576L259.25 189.925L261.095 188.078L261.095 209.423L259.25 207.576Z" fill="#243035"/>
</g>
<path d="M116.623 180.224C116.623 139.081 119.299 140.038 133.056 138.56C119.299 137.082 118.101 135.883 116.623 122.121C115.146 135.883 113.948 137.082 100.191 138.56C113.948 140.038 116.623 139.075 116.623 180.224Z" fill="#A9700B"/>
</g>
<defs>
<radialGradient id="paint0_radial_19779_5426" cx="0" cy="0" r="1" gradientUnits="userSpaceOnUse" gradientTransform="translate(127.565 404.747) rotate(-180) scale(194.435 194.511)">
<stop stop-color="#243035"/>
<stop offset="1" stop-color="#12181E"/>
</radialGradient>
<radialGradient id="paint1_radial_19779_5426" cx="0" cy="0" r="1" gradientUnits="userSpaceOnUse" gradientTransform="translate(143.352 428.097) rotate(-180) scale(169.224 169.29)">
<stop stop-color="#3E5055"/>
<stop offset="1" stop-color="#1B2429"/>
</radialGradient>
<radialGradient id="paint2_radial_19779_5426" cx="0" cy="0" r="1" gradientUnits="userSpaceOnUse" gradientTransform="translate(133.67 313.387) rotate(-180) scale(119.37 119.416)">
<stop stop-color="#2C3B41"/>
<stop offset="1" stop-color="#12181E"/>
</radialGradient>
<radialGradient id="paint3_radial_19779_5426" cx="0" cy="0" r="1" gradientUnits="userSpaceOnUse" gradientTransform="translate(144.996 401.842) rotate(-180) scale(182.22 182.291)">
<stop stop-color="#D4D5DA"/>
<stop offset="0.09" stop-color="#C4C7CC"/>
<stop offset="0.48" stop-color="#818C91"/>
<stop offset="0.77" stop-color="#57676C"/>
<stop offset="0.92" stop-color="#47595E"/>
</radialGradient>
<radialGradient id="paint4_radial_19779_5426" cx="0" cy="0" r="1" gradientUnits="userSpaceOnUse" gradientTransform="translate(149.645 404.458) rotate(-180) scale(181.527 181.598)">
<stop stop-color="#D4D5DA"/>
<stop offset="0.09" stop-color="#C4C7CC"/>
<stop offset="0.48" stop-color="#818C91"/>
<stop offset="0.77" stop-color="#57676C"/>
<stop offset="0.92" stop-color="#47595E"/>
</radialGradient>
<radialGradient id="paint5_radial_19779_5426" cx="0" cy="0" r="1" gradientUnits="userSpaceOnUse" gradientTransform="translate(152.549 300.702) rotate(-180) scale(97.7308 97.769)">
<stop stop-color="#D4D5DA"/>
<stop offset="0.09" stop-color="#C4C7CC"/>
<stop offset="0.48" stop-color="#818C91"/>
<stop offset="0.77" stop-color="#57676C"/>
<stop offset="0.92" stop-color="#47595E"/>
</radialGradient>
<radialGradient id="paint6_radial_19779_5426" cx="0" cy="0" r="1" gradientUnits="userSpaceOnUse" gradientTransform="translate(147.61 300.217) rotate(-180) scale(66.8253 66.8514)">
<stop stop-color="#FBEA98"/>
<stop offset="0.19" stop-color="#F0D35F"/>
<stop offset="0.36" stop-color="#E8C236"/>
<stop offset="0.45" stop-color="#E5BC26"/>
<stop offset="1" stop-color="#A86A07"/>
</radialGradient>
<radialGradient id="paint7_radial_19779_5426" cx="0" cy="0" r="1" gradientUnits="userSpaceOnUse" gradientTransform="translate(199.518 368.033) rotate(-180) scale(70.7751 70.8028)">
<stop stop-color="#FBEA98"/>
<stop offset="0.19" stop-color="#F0D35F"/>
<stop offset="0.36" stop-color="#E8C236"/>
<stop offset="0.45" stop-color="#E5BC26"/>
<stop offset="1" stop-color="#A86A07"/>
</radialGradient>
<radialGradient id="paint8_radial_19779_5426" cx="0" cy="0" r="1" gradientUnits="userSpaceOnUse" gradientTransform="translate(168.53 400.973) rotate(-180) scale(93.6928 93.7294)">
<stop stop-color="#FBEA98"/>
<stop offset="0.19" stop-color="#F0D35F"/>
<stop offset="0.36" stop-color="#E8C236"/>
<stop offset="0.45" stop-color="#E5BC26"/>
<stop offset="1" stop-color="#A86A07"/>
</radialGradient>
<radialGradient id="paint9_radial_19779_5426" cx="0" cy="0" r="1" gradientUnits="userSpaceOnUse" gradientTransform="translate(166.207 302.542) rotate(-180) scale(61.3699 61.3939)">
<stop stop-color="#FBEA98"/>
<stop offset="0.19" stop-color="#F0D35F"/>
<stop offset="0.36" stop-color="#E8C236"/>
<stop offset="0.45" stop-color="#E5BC26"/>
<stop offset="1" stop-color="#A86A07"/>
</radialGradient>
<radialGradient id="paint10_radial_19779_5426" cx="0" cy="0" r="1" gradientUnits="userSpaceOnUse" gradientTransform="translate(175.888 310.678) rotate(-180) scale(70.8066 70.8343)">
<stop stop-color="#FBEA98"/>
<stop offset="0.19" stop-color="#F0D35F"/>
<stop offset="0.36" stop-color="#E8C236"/>
<stop offset="0.45" stop-color="#E5BC26"/>
<stop offset="1" stop-color="#A86A07"/>
</radialGradient>
<linearGradient id="paint11_linear_19779_5426" x1="259.42" y1="423.665" x2="259.42" y2="419.575" gradientUnits="userSpaceOnUse">
<stop stop-color="#D4D5DA"/>
<stop offset="0.11" stop-color="#929CA1"/>
<stop offset="0.19" stop-color="#69787D"/>
<stop offset="0.24" stop-color="#596B70"/>
<stop offset="1" stop-color="#12181E"/>
</linearGradient>
<linearGradient id="paint12_linear_19779_5426" x1="259.42" y1="422.942" x2="259.42" y2="419.93" gradientUnits="userSpaceOnUse">
<stop stop-color="#FBEA98"/>
<stop offset="0.19" stop-color="#F0D35F"/>
<stop offset="0.36" stop-color="#E8C236"/>
<stop offset="0.45" stop-color="#E5BC26"/>
<stop offset="1" stop-color="#A86A07"/>
</linearGradient>
<linearGradient id="paint13_linear_19779_5426" x1="259.42" y1="416.3" x2="259.42" y2="412.216" gradientUnits="userSpaceOnUse">
<stop stop-color="#D4D5DA"/>
<stop offset="0.11" stop-color="#929CA1"/>
<stop offset="0.19" stop-color="#69787D"/>
<stop offset="0.24" stop-color="#596B70"/>
<stop offset="1" stop-color="#12181E"/>
</linearGradient>
<linearGradient id="paint14_linear_19779_5426" x1="259.42" y1="415.574" x2="259.42" y2="412.561" gradientUnits="userSpaceOnUse">
<stop stop-color="#FBEA98"/>
<stop offset="0.19" stop-color="#F0D35F"/>
<stop offset="0.36" stop-color="#E8C236"/>
<stop offset="0.45" stop-color="#E5BC26"/>
<stop offset="1" stop-color="#A86A07"/>
</linearGradient>
<linearGradient id="paint15_linear_19779_5426" x1="259.42" y1="408.931" x2="259.42" y2="404.848" gradientUnits="userSpaceOnUse">
<stop stop-color="#D4D5DA"/>
<stop offset="0.11" stop-color="#929CA1"/>
<stop offset="0.19" stop-color="#69787D"/>
<stop offset="0.24" stop-color="#596B70"/>
<stop offset="1" stop-color="#12181E"/>
</linearGradient>
<linearGradient id="paint16_linear_19779_5426" x1="259.42" y1="408.214" x2="259.42" y2="405.196" gradientUnits="userSpaceOnUse">
<stop stop-color="#FBEA98"/>
<stop offset="0.19" stop-color="#F0D35F"/>
<stop offset="0.36" stop-color="#E8C236"/>
<stop offset="0.45" stop-color="#E5BC26"/>
<stop offset="1" stop-color="#A86A07"/>
</linearGradient>
<linearGradient id="paint17_linear_19779_5426" x1="259.42" y1="401.572" x2="259.42" y2="397.482" gradientUnits="userSpaceOnUse">
<stop stop-color="#D4D5DA"/>
<stop offset="0.11" stop-color="#929CA1"/>
<stop offset="0.19" stop-color="#69787D"/>
<stop offset="0.24" stop-color="#596B70"/>
<stop offset="1" stop-color="#12181E"/>
</linearGradient>
<linearGradient id="paint18_linear_19779_5426" x1="259.42" y1="400.846" x2="259.42" y2="397.834" gradientUnits="userSpaceOnUse">
<stop stop-color="#FBEA98"/>
<stop offset="0.19" stop-color="#F0D35F"/>
<stop offset="0.36" stop-color="#E8C236"/>
<stop offset="0.45" stop-color="#E5BC26"/>
<stop offset="1" stop-color="#A86A07"/>
</linearGradient>
<linearGradient id="paint19_linear_19779_5426" x1="274.785" y1="260.777" x2="261.707" y2="260.777" gradientUnits="userSpaceOnUse">
<stop stop-color="#1B2429"/>
<stop offset="0.99" stop-color="#0A0E11"/>
</linearGradient>
<radialGradient id="paint20_radial_19779_5426" cx="0" cy="0" r="1" gradientUnits="userSpaceOnUse" gradientTransform="translate(127.565 54.8102) rotate(180) scale(194.435 194.511)">
<stop stop-color="#243035"/>
<stop offset="1" stop-color="#12181E"/>
</radialGradient>
<radialGradient id="paint21_radial_19779_5426" cx="0" cy="0" r="1" gradientUnits="userSpaceOnUse" gradientTransform="translate(143.352 31.4617) rotate(180) scale(169.224 169.29)">
<stop stop-color="#3E5055"/>
<stop offset="1" stop-color="#1B2429"/>
</radialGradient>
<radialGradient id="paint22_radial_19779_5426" cx="0" cy="0" r="1" gradientUnits="userSpaceOnUse" gradientTransform="translate(133.67 146.17) rotate(180) scale(119.37 119.416)">
<stop stop-color="#2C3B41"/>
<stop offset="1" stop-color="#12181E"/>
</radialGradient>
<radialGradient id="paint23_radial_19779_5426" cx="0" cy="0" r="1" gradientUnits="userSpaceOnUse" gradientTransform="translate(144.996 57.7154) rotate(180) scale(182.22 182.291)">
<stop stop-color="#D4D5DA"/>
<stop offset="0.09" stop-color="#C4C7CC"/>
<stop offset="0.48" stop-color="#818C91"/>
<stop offset="0.77" stop-color="#57676C"/>
<stop offset="0.92" stop-color="#47595E"/>
</radialGradient>
<radialGradient id="paint24_radial_19779_5426" cx="0" cy="0" r="1" gradientUnits="userSpaceOnUse" gradientTransform="translate(149.645 55.1004) rotate(180) scale(181.527 181.598)">
<stop stop-color="#D4D5DA"/>
<stop offset="0.09" stop-color="#C4C7CC"/>
<stop offset="0.48" stop-color="#818C91"/>
<stop offset="0.77" stop-color="#57676C"/>
<stop offset="0.92" stop-color="#47595E"/>
</radialGradient>
<radialGradient id="paint25_radial_19779_5426" cx="0" cy="0" r="1" gradientUnits="userSpaceOnUse" gradientTransform="translate(152.549 158.857) rotate(180) scale(97.7308 97.769)">
<stop stop-color="#D4D5DA"/>
<stop offset="0.09" stop-color="#C4C7CC"/>
<stop offset="0.48" stop-color="#818C91"/>
<stop offset="0.77" stop-color="#57676C"/>
<stop offset="0.92" stop-color="#47595E"/>
</radialGradient>
<radialGradient id="paint26_radial_19779_5426" cx="0" cy="0" r="1" gradientUnits="userSpaceOnUse" gradientTransform="translate(147.61 159.341) rotate(180) scale(66.8253 66.8514)">
<stop stop-color="#FBEA98"/>
<stop offset="0.19" stop-color="#F0D35F"/>
<stop offset="0.36" stop-color="#E8C236"/>
<stop offset="0.45" stop-color="#E5BC26"/>
<stop offset="1" stop-color="#A86A07"/>
</radialGradient>
<radialGradient id="paint27_radial_19779_5426" cx="0" cy="0" r="1" gradientUnits="userSpaceOnUse" gradientTransform="translate(199.518 91.526) rotate(180) scale(70.7751 70.8028)">
<stop stop-color="#FBEA98"/>
<stop offset="0.19" stop-color="#F0D35F"/>
<stop offset="0.36" stop-color="#E8C236"/>
<stop offset="0.45" stop-color="#E5BC26"/>
<stop offset="1" stop-color="#A86A07"/>
</radialGradient>
<radialGradient id="paint28_radial_19779_5426" cx="0" cy="0" r="1" gradientUnits="userSpaceOnUse" gradientTransform="translate(168.53 58.5857) rotate(180) scale(93.6928 93.7294)">
<stop stop-color="#FBEA98"/>
<stop offset="0.19" stop-color="#F0D35F"/>
<stop offset="0.36" stop-color="#E8C236"/>
<stop offset="0.45" stop-color="#E5BC26"/>
<stop offset="1" stop-color="#A86A07"/>
</radialGradient>
<radialGradient id="paint29_radial_19779_5426" cx="0" cy="0" r="1" gradientUnits="userSpaceOnUse" gradientTransform="translate(166.207 157.016) rotate(180) scale(61.3699 61.3939)">
<stop stop-color="#FBEA98"/>
<stop offset="0.19" stop-color="#F0D35F"/>
<stop offset="0.36" stop-color="#E8C236"/>
<stop offset="0.45" stop-color="#E5BC26"/>
<stop offset="1" stop-color="#A86A07"/>
</radialGradient>
<radialGradient id="paint30_radial_19779_5426" cx="0" cy="0" r="1" gradientUnits="userSpaceOnUse" gradientTransform="translate(175.888 148.88) rotate(180) scale(70.8066 70.8343)">
<stop stop-color="#FBEA98"/>
<stop offset="0.19" stop-color="#F0D35F"/>
<stop offset="0.36" stop-color="#E8C236"/>
<stop offset="0.45" stop-color="#E5BC26"/>
<stop offset="1" stop-color="#A86A07"/>
</radialGradient>
<linearGradient id="paint31_linear_19779_5426" x1="259.42" y1="35.8913" x2="259.42" y2="39.9813" gradientUnits="userSpaceOnUse">
<stop stop-color="#D4D5DA"/>
<stop offset="0.11" stop-color="#929CA1"/>
<stop offset="0.19" stop-color="#69787D"/>
<stop offset="0.24" stop-color="#596B70"/>
<stop offset="1" stop-color="#12181E"/>
</linearGradient>
<linearGradient id="paint32_linear_19779_5426" x1="259.42" y1="36.6167" x2="259.42" y2="39.629" gradientUnits="userSpaceOnUse">
<stop stop-color="#FBEA98"/>
<stop offset="0.19" stop-color="#F0D35F"/>
<stop offset="0.36" stop-color="#E8C236"/>
<stop offset="0.45" stop-color="#E5BC26"/>
<stop offset="1" stop-color="#A86A07"/>
</linearGradient>
<linearGradient id="paint33_linear_19779_5426" x1="259.42" y1="43.258" x2="259.42" y2="47.3417" gradientUnits="userSpaceOnUse">
<stop stop-color="#D4D5DA"/>
<stop offset="0.11" stop-color="#929CA1"/>
<stop offset="0.19" stop-color="#69787D"/>
<stop offset="0.24" stop-color="#596B70"/>
<stop offset="1" stop-color="#12181E"/>
</linearGradient>
<linearGradient id="paint34_linear_19779_5426" x1="259.42" y1="43.9838" x2="259.42" y2="46.9962" gradientUnits="userSpaceOnUse">
<stop stop-color="#FBEA98"/>
<stop offset="0.19" stop-color="#F0D35F"/>
<stop offset="0.36" stop-color="#E8C236"/>
<stop offset="0.45" stop-color="#E5BC26"/>
<stop offset="1" stop-color="#A86A07"/>
</linearGradient>
<linearGradient id="paint35_linear_19779_5426" x1="259.42" y1="50.6261" x2="259.42" y2="54.7098" gradientUnits="userSpaceOnUse">
<stop stop-color="#D4D5DA"/>
<stop offset="0.11" stop-color="#929CA1"/>
<stop offset="0.19" stop-color="#69787D"/>
<stop offset="0.24" stop-color="#596B70"/>
<stop offset="1" stop-color="#12181E"/>
</linearGradient>
<linearGradient id="paint36_linear_19779_5426" x1="259.42" y1="51.3442" x2="259.42" y2="54.3628" gradientUnits="userSpaceOnUse">
<stop stop-color="#FBEA98"/>
<stop offset="0.19" stop-color="#F0D35F"/>
<stop offset="0.36" stop-color="#E8C236"/>
<stop offset="0.45" stop-color="#E5BC26"/>
<stop offset="1" stop-color="#A86A07"/>
</linearGradient>
<linearGradient id="paint37_linear_19779_5426" x1="259.42" y1="57.986" x2="259.42" y2="62.076" gradientUnits="userSpaceOnUse">
<stop stop-color="#D4D5DA"/>
<stop offset="0.11" stop-color="#929CA1"/>
<stop offset="0.19" stop-color="#69787D"/>
<stop offset="0.24" stop-color="#596B70"/>
<stop offset="1" stop-color="#12181E"/>
</linearGradient>
<linearGradient id="paint38_linear_19779_5426" x1="259.42" y1="58.7114" x2="259.42" y2="61.7237" gradientUnits="userSpaceOnUse">
<stop stop-color="#FBEA98"/>
<stop offset="0.19" stop-color="#F0D35F"/>
<stop offset="0.36" stop-color="#E8C236"/>
<stop offset="0.45" stop-color="#E5BC26"/>
<stop offset="1" stop-color="#A86A07"/>
</linearGradient>
<linearGradient id="paint39_linear_19779_5426" x1="274.785" y1="198.782" x2="261.707" y2="198.782" gradientUnits="userSpaceOnUse">
<stop stop-color="#1B2429"/>
<stop offset="0.99" stop-color="#0A0E11"/>
</linearGradient>
<clipPath id="clip0_19779_5426">
<rect width="461.965" height="198.261" fill="white" transform="matrix(-4.37114e-08 1 1 4.37114e-08 95.9653 0)"/>
</clipPath>
</defs>
</svg>
