<svg width="644" height="32" viewBox="0 0 644 32" fill="none" xmlns="http://www.w3.org/2000/svg">
<path d="M458.794 16.5196L458.943 16.69H459.17H625.648L643.5 30.6636V249.339L628.006 262.5H415.88H15.9937L0.5 249.339V30.6636L18.3524 16.69H184.83H185.048L185.196 16.5305L200.108 0.5H415.88H444.753L458.794 16.5196Z" fill="#152226" stroke="#EDE4CC"/>
<path d="M368 5.33008H361.26L368.87 13.7801H375.61L368 5.33008Z" fill="#FAAC07"/>
<path d="M377.82 5.33008H371.08L378.69 13.7801H385.43L377.82 5.33008Z" fill="#FAAC07"/>
<path d="M387.63 5.33008H380.89L388.5 13.7801H395.24L387.63 5.33008Z" fill="#FAAC07"/>
<path d="M407.26 5.33008H400.52L408.13 13.7801H414.87L407.26 5.33008Z" fill="#FAAC07"/>
<path d="M397.45 5.33008H390.71L398.32 13.7801H405.06L397.45 5.33008Z" fill="#FAAC07"/>
<path d="M426.89 5.33008H420.15L427.77 13.7801H434.51L426.89 5.33008Z" fill="#FAAC07"/>
<path d="M417.08 5.33008H410.34L417.95 13.7801H424.69L417.08 5.33008Z" fill="#FAAC07"/>
<path d="M436.71 5.33008H429.97L437.58 13.7801H444.32L436.71 5.33008Z" fill="#FAAC07"/>
<path d="M275.32 5.33008H282.06L274.45 13.7801H267.71L275.32 5.33008Z" fill="#FAAC07"/>
<path d="M265.5 5.33008H272.24L264.63 13.7801H257.89L265.5 5.33008Z" fill="#FAAC07"/>
<path d="M255.69 5.33008H262.43L254.82 13.7801H248.08L255.69 5.33008Z" fill="#FAAC07"/>
<path d="M236.06 5.33008H242.8L235.19 13.7801H228.45L236.06 5.33008Z" fill="#FAAC07"/>
<path d="M245.87 5.33008H252.61L245 13.7801H238.26L245.87 5.33008Z" fill="#FAAC07"/>
<path d="M216.43 5.33008H223.17L215.56 13.7801H208.82L216.43 5.33008Z" fill="#FAAC07"/>
<path d="M226.24 5.33008H232.98L225.37 13.7801H218.63L226.24 5.33008Z" fill="#FAAC07"/>
<path d="M206.61 5.33008H213.35L205.74 13.7801H199L206.61 5.33008Z" fill="#FAAC07"/>
<path d="M313.46 14.4701H312.36V14.3401H313.34V13.3701H313.46V14.4701Z" fill="#FAAC07" stroke="#FAAC07" stroke-width="0.3"/>
<path d="M313.46 5.1H313.34V4.13H312.36V4H313.46V5.1Z" fill="#FAAC07" stroke="#FAAC07" stroke-width="0.3"/>
<path d="M303.12 5.1H303V4H304.1V4.13H303.12V5.1Z" fill="#FAAC07" stroke="#FAAC07" stroke-width="0.3"/>
<path d="M304.1 14.4701H303V13.3701H303.12V14.3401H304.1V14.4701Z" fill="#FAAC07" stroke="#FAAC07" stroke-width="0.3"/>
<path d="M311.68 12.755H305V6.08496H311.68V12.755ZM305.13 12.635H311.55V6.20496H305.13V12.635Z" fill="#FAAC07" stroke="#FAAC07" stroke-width="0.3"/>
<path d="M304.085 5.00011L304 5.08496L312.485 13.5702L312.57 13.4854L304.085 5.00011Z" fill="#FAAC07" stroke="#FAAC07" stroke-width="0.3"/>
<path d="M312.485 5.00011L312.57 5.08496L304.085 13.5702L304 13.4854L312.485 5.00011Z" fill="#FAAC07" stroke="#FAAC07" stroke-width="0.3"/>
<path d="M326.92 14.4701H325.82V14.3401H326.8V13.3701H326.92V14.4701Z" fill="#FAAC07" stroke="#FAAC07" stroke-width="0.3"/>
<path d="M326.92 5.1H326.8V4.13H325.82V4H326.92V5.1Z" fill="#FAAC07" stroke="#FAAC07" stroke-width="0.3"/>
<path d="M316.58 5.1H316.46V4H317.56V4.13H316.58V5.1Z" fill="#FAAC07" stroke="#FAAC07" stroke-width="0.3"/>
<path d="M317.56 14.4701H316.46V13.3701H316.58V14.3401H317.56V14.4701Z" fill="#FAAC07" stroke="#FAAC07" stroke-width="0.3"/>
<path d="M325.14 12.755H318.46V6.08496H325.14V12.755ZM318.59 12.635H325.01V6.20496H318.59V12.635Z" fill="#FAAC07" stroke="#FAAC07" stroke-width="0.3"/>
<path d="M317.545 5.00011L317.46 5.08496L325.945 13.5702L326.03 13.4854L317.545 5.00011Z" fill="#FAAC07" stroke="#FAAC07" stroke-width="0.3"/>
<path d="M325.945 5.00011L326.03 5.08496L317.545 13.5702L317.46 13.4854L325.945 5.00011Z" fill="#FAAC07" stroke="#FAAC07" stroke-width="0.3"/>
<path d="M340.38 14.4701H339.28V14.3401H340.26V13.3701H340.38V14.4701Z" fill="#FAAC07" stroke="#FAAC07" stroke-width="0.3"/>
<path d="M340.38 5.1H340.26V4.13H339.28V4H340.38V5.1Z" fill="#FAAC07" stroke="#FAAC07" stroke-width="0.3"/>
<path d="M330.04 5.1H329.92V4H331.02V4.13H330.04V5.1Z" fill="#FAAC07" stroke="#FAAC07" stroke-width="0.3"/>
<path d="M331.02 14.4701H329.92V13.3701H330.04V14.3401H331.02V14.4701Z" fill="#FAAC07" stroke="#FAAC07" stroke-width="0.3"/>
<path d="M338.6 12.755H331.92V6.08496H338.6V12.755ZM332.05 12.635H338.47V6.20496H332.05V12.635Z" fill="#FAAC07" stroke="#FAAC07" stroke-width="0.3"/>
<path d="M331.005 5.00011L330.92 5.08496L339.405 13.5702L339.49 13.4854L331.005 5.00011Z" fill="#FAAC07" stroke="#FAAC07" stroke-width="0.3"/>
<path d="M339.405 5.00011L339.49 5.08496L331.005 13.5702L330.92 13.4854L339.405 5.00011Z" fill="#FAAC07" stroke="#FAAC07" stroke-width="0.3"/>
</svg>
