<svg width="520" height="200" viewBox="0 0 520 200" fill="none" xmlns="http://www.w3.org/2000/svg">
<rect width="520" height="200" rx="20" fill="#343435"/>
<g clip-path="url(#clip0_16357_29106)">
<path d="M275.429 109.398L278.808 114.086V127.254L277.107 129.597V114.569L273.728 109.904V101.057H275.429V109.398Z" fill="#FAAC07"/>
<path d="M113.238 40H94.43V63.9219L102.634 71.8499V107.928L72.1955 40H55.7877L30.5 64.2666V105.216L33.9261 109.606V124.427L30.5 128.656V139.272L52.3849 160H68.0935V134.217H62.9661V128.656L66.3922 124.427V109.606L62.9661 105.216V80.4443L64.8539 84.6496V104.711L68.28 109.1V123.095L69.9814 121.394V108.594L66.5553 104.205V88.3723L99.2078 160H134.937V60.8885L113.238 40Z" fill="#EDE4CC"/>
<path d="M30.5 49.9272V40H40.9647C42.7826 40 43.6682 42.1831 42.3631 43.424L33.9261 51.375C32.6209 52.5699 30.5 51.6737 30.5 49.9272Z" fill="#FAAC07"/>
<path d="M64.8539 84.6494V104.711L68.2799 109.1V123.094L69.9813 121.394V108.594L66.5553 104.205V88.3721L64.8539 84.6494Z" fill="#FAAC07"/>
<path d="M97.3433 75.0442V92.5777L99.2078 96.6221V74.2169L93.9172 68.9775H89.6288V70.678H92.8917L97.3433 75.0442Z" fill="#FAAC07"/>
<path d="M211.965 72.7002H165.072L145.471 91.7044V103.148H177.029V100.965L180.431 97.6102H196.629L200.032 100.965V106.342L198.843 107.859V101.632L195.767 98.7822H183.648V100.46H194.742L196.956 102.482V108.02H159.945L143.747 123.669V142.995L161.483 159.977H196.28L202.246 153.244L203.948 159.977H211.965L231.752 140.973V91.7044L211.965 72.7002ZM200.032 128.518L191.665 136.423H176.656L175.117 134.745V129.207L177.005 127.185H200.032V128.541V128.518Z" fill="#EDE4CC"/>
<path d="M229.701 148.694C228.839 148.694 228 149.2 226.811 150.372L221.684 155.427C218.794 158.277 219.47 159.977 223.572 159.977H231.752V152.578C231.752 150.05 230.89 148.717 229.701 148.717V148.694Z" fill="#EDE4CC"/>
<path d="M145.448 82.6274V72.7002H155.913C157.731 72.7002 158.616 74.8833 157.311 76.1242L148.874 84.0751C147.592 85.2931 145.471 84.3739 145.471 82.6274H145.448Z" fill="#FAAC07"/>
<path d="M231.752 150.027V159.954H221.288C219.47 159.954 218.584 157.771 219.889 156.53L228.326 148.579C229.608 147.361 231.729 148.28 231.729 150.027H231.752Z" fill="#FAAC07"/>
<path d="M196.956 107.997V102.459L194.742 100.436H183.648V98.7588H195.767L198.843 101.608V107.836L196.956 107.997Z" fill="#FAAC07"/>
<path d="M276.594 97.7251H311.111V73.0449H277.783L272.539 78.0545V73.0449H241.075V110.41L244.455 115.236V129.92L241.075 134.768V140.766L260.536 159.609H277.62V134.102H273.052L275.918 130.586V115.236L272.539 110.41V101.057L276.594 97.7251Z" fill="#EDE4CC"/>
<path d="M358.843 73.0449L353.599 78.0545V73.0449H322.135V110.41L325.515 115.236V129.92L322.135 134.768V140.766L341.596 159.609H358.68V134.102H354.112L356.979 130.586V115.236L353.599 110.41V101.057L357.655 97.7251H392.172V73.0449H358.843Z" fill="#EDE4CC"/>
<path d="M356.466 101.057H354.788V109.904L358.167 114.569V129.597L359.869 127.254V114.086L356.466 109.398V101.057Z" fill="#FAAC07"/>
<path d="M405.247 83.9598C406.109 83.9598 406.948 83.4542 408.137 82.2823L413.264 77.2267C416.154 74.3773 415.478 72.6768 411.376 72.6768H403.196V80.0762C403.196 82.604 404.058 83.9368 405.247 83.9368V83.9598Z" fill="#EDE4CC"/>
<path d="M469.713 72.7002H422.82L403.219 91.7044V103.148H434.776V100.965L438.179 97.6102H454.377L457.78 100.965V106.342L456.591 107.859V101.632L453.515 98.7822H441.395V100.46H452.489L454.703 102.482V108.02H417.692L401.494 123.669V142.995L419.231 159.977H454.027L459.994 153.244L461.695 159.977H469.713L489.5 140.973V91.7044L469.713 72.7002ZM457.78 128.518L449.413 136.423H434.403L432.865 134.745V129.207L434.753 127.185H457.78V128.541V128.518Z" fill="#EDE4CC"/>
<path d="M487.449 148.694C486.587 148.694 485.748 149.2 484.559 150.372L479.432 155.427C476.541 158.277 477.217 159.977 481.319 159.977H489.5V152.578C489.5 150.05 488.638 148.717 487.449 148.717V148.694Z" fill="#EDE4CC"/>
<path d="M403.196 82.6274V72.7002H413.66C415.478 72.7002 416.364 74.8833 415.059 76.1242L406.622 84.0751C405.34 85.2931 403.219 84.3739 403.219 82.6274H403.196Z" fill="#FAAC07"/>
<path d="M489.5 150.027V159.954H479.035C477.217 159.954 476.332 157.771 477.637 156.53L486.074 148.579C487.356 147.361 489.477 148.28 489.477 150.027H489.5Z" fill="#FAAC07"/>
<path d="M454.703 107.997V102.459L452.489 100.436H441.395V98.7588H453.515L456.591 101.608V107.836L454.703 107.997Z" fill="#FAAC07"/>
</g>
<defs>
<clipPath id="clip0_16357_29106">
<rect width="459" height="120" fill="white" transform="translate(30.5 40)"/>
</clipPath>
</defs>
</svg>
