<svg width="520" height="200" viewBox="0 0 520 200" fill="none" xmlns="http://www.w3.org/2000/svg">
<rect width="520" height="200" rx="20" fill="white"/>
<g clip-path="url(#clip0_16357_29115)">
<path d="M290.069 40H271.547V63.9219L279.636 71.8499V107.905L249.625 40H233.447L208.514 64.2666V105.216L211.892 109.606V124.427L208.514 128.656V139.272L230.092 160H245.58V134.217H240.525V128.656L243.903 124.427V109.606L240.525 105.216V80.4443L242.386 84.6496L244.064 88.3723L276.258 160H311.486V60.8885L290.069 40Z" fill="#152226"/>
<path d="M208.606 49.9272V39.9998H218.924C219.324 39.993 219.716 40.1076 220.05 40.3286C220.383 40.5496 220.641 40.8667 220.791 41.2377C220.94 41.6087 220.974 42.0163 220.886 42.4066C220.799 42.797 220.596 43.1516 220.303 43.4238L211.984 51.3749C211.701 51.6448 211.344 51.8254 210.959 51.8947C210.574 51.964 210.177 51.9187 209.818 51.7646C209.458 51.6104 209.151 51.3543 208.936 51.0276C208.721 50.701 208.606 50.3184 208.606 49.9272Z" fill="#152226"/>
</g>
<defs>
<clipPath id="clip0_16357_29115">
<rect width="102.972" height="120" fill="white" transform="translate(208.514 40)"/>
</clipPath>
</defs>
</svg>
