<svg width="843" height="123" viewBox="0 0 843 123" fill="none" xmlns="http://www.w3.org/2000/svg">
<path d="M190.3 94H175.3V40.5H150.4V27H215.2V40.5H190.3V94ZM233.578 94H218.578V27H233.578V59.2H234.378C235.978 50.7 241.878 42.9 254.678 42.9C268.178 42.9 274.778 51.7 274.778 63.3V94H259.778V67.8C259.778 59.4 256.178 56.4 246.778 56.4C236.678 56.4 233.578 60.5 233.578 68.9V94ZM306.948 95C290.248 95 278.848 86.8 278.848 69C278.848 53 290.148 42.9 306.648 42.9C323.048 42.9 333.948 51.5 333.948 67.2C333.948 69 333.748 70.3 333.548 72H292.748C293.148 79.7 296.748 83 306.448 83C315.348 83 318.448 80.7 318.448 76.4V75.4H333.448V76.5C333.448 87.4 322.848 95 306.948 95ZM306.348 54.6C297.448 54.6 293.648 57.6 292.948 64.1H319.548C319.148 57.5 315.148 54.6 306.348 54.6ZM366.738 94H351.738V27H366.738V53.6H401.738V27H416.738V94H401.738V67.1H366.738V94ZM449.485 95C432.385 95 420.885 84.8 420.885 69C420.885 53 432.385 42.9 449.485 42.9C466.585 42.9 478.085 53 478.085 69C478.085 84.8 466.585 95 449.485 95ZM449.485 81.7C459.585 81.7 463.185 77.8 463.185 69C463.185 60.2 459.585 56.1 449.485 56.1C439.285 56.1 435.785 60.2 435.785 69C435.785 77.8 439.285 81.7 449.485 81.7ZM497.211 94H482.211V43.9H496.111V59.3H497.011C498.311 50.9 504.311 42.9 517.411 42.9C531.111 42.9 537.611 51.7 537.611 62.8V94H522.611V67.8C522.611 59.8 519.311 56.4 510.111 56.4C500.611 56.4 497.211 60.2 497.211 68.7V94ZM569.799 95C553.099 95 541.699 86.8 541.699 69C541.699 53 552.999 42.9 569.499 42.9C585.899 42.9 596.799 51.5 596.799 67.2C596.799 69 596.599 70.3 596.399 72H555.599C555.999 79.7 559.599 83 569.299 83C578.199 83 581.299 80.7 581.299 76.4V75.4H596.299V76.5C596.299 87.4 585.699 95 569.799 95ZM569.199 54.6C560.299 54.6 556.499 57.6 555.799 64.1H582.399C581.999 57.5 577.999 54.6 569.199 54.6ZM610.76 111H602.56V97.4H614.86C618.56 97.4 620.16 96.4 621.16 94.2L596.66 43.9H613.66L624.26 66.8L628.46 78.6H629.46L633.46 66.7L642.96 43.9H659.66L634.86 97.6C630.06 108.1 623.36 111 610.76 111ZM701.999 95C680.299 95 672.199 84.5 672.199 66.8V63.9H688.099V66.8C688.099 76.7 690.099 80.4 701.999 80.4C713.799 80.4 716.099 76.9 716.099 67.5V27H731.999V67.5C731.999 84.7 723.799 95 701.999 95ZM752.943 95C742.143 95 735.643 90 735.643 81.6C735.643 74.2 741.143 69.6 751.843 68.5L773.343 66.3V64.4C773.343 57.9 770.443 56.1 762.443 56.1C754.843 56.1 751.743 58.1 751.743 63.8V64.2H736.643V63.9C736.643 51.5 747.043 42.9 763.543 42.9C780.243 42.9 788.143 51.5 788.143 64.6V94H774.143V82.5H773.343C771.043 90.3 764.043 95 752.943 95ZM750.743 80.6C750.743 83.3 752.843 84.4 757.243 84.4C767.443 84.4 772.943 82 773.343 74.9L755.943 76.9C752.343 77.2 750.743 78.2 750.743 80.6ZM808.746 94H793.746V43.9H807.646V57.2H808.546C809.946 49.1 815.246 42.9 825.346 42.9C836.546 42.9 841.146 50.6 841.146 60.4V68.7H826.146V63.5C826.146 58 823.946 55.6 817.846 55.6C811.146 55.6 808.746 58.7 808.746 65V94Z" fill="#181818"/>
<path fill-rule="evenodd" clip-rule="evenodd" d="M57.4805 4.00247C57.8968 3.98903 58.0982 4.02936 58.0982 4.15036C58.0982 4.24447 57.7491 4.37891 57.212 4.47302C56.7286 4.55369 56.1244 4.59402 55.8693 4.54024C55.6142 4.48647 55.386 4.36547 55.3591 4.2848C55.3322 4.1638 55.5471 4.09658 56.0842 4.06969C56.5138 4.0428 57.1449 4.01591 57.4805 4.00247ZM54.3387 4.4058C54.4326 4.39236 54.5132 4.44613 54.5132 4.51335C54.5132 4.59402 54.5266 4.68813 54.5401 4.72846C54.5669 4.7688 53.1571 5.15868 51.425 5.60234C49.693 6.03256 48.1489 6.39556 48.0012 6.39556C47.8535 6.39556 47.4104 6.26112 47.021 6.08634C46.6316 5.92501 46.3228 5.76367 46.3228 5.72334C46.3228 5.68301 47.0344 5.45446 47.8937 5.21246C48.7665 4.98391 50.0823 4.71502 50.8208 4.6478C51.5593 4.56713 52.62 4.49991 53.1705 4.47302C53.721 4.44613 54.2581 4.41924 54.3387 4.4058ZM63.8315 4.5268C64.8251 4.57161 65.747 4.71502 66.5974 4.95702C67.2956 5.14524 68.3563 5.48134 68.9471 5.69645C69.5379 5.91156 70.6389 6.36867 71.3908 6.71822C72.1562 7.05433 73.0692 7.49799 73.4451 7.7131C73.8077 7.91476 74.1299 8.12987 74.1702 8.21054C74.197 8.2912 73.66 8.38531 72.7872 8.43909C72.0085 8.49287 70.6926 8.62731 69.887 8.73486C69.0814 8.85586 68.1684 8.97686 67.873 9.00375C67.5776 9.04408 67.0674 9.1113 66.7317 9.15164C66.1543 9.2323 66.0738 9.19197 65.0533 8.46598C64.4625 8.03576 63.6166 7.48455 63.1736 7.2291C62.7305 6.97366 61.7906 6.47622 61.0924 6.12667C60.3942 5.77712 59.5886 5.42757 59.3066 5.3469C59.0381 5.25279 58.7964 5.1049 58.783 4.99735C58.7695 4.86291 59.1589 4.7688 60.3673 4.6478C61.2401 4.56713 62.0457 4.48647 62.1531 4.47302C62.2471 4.45958 63.0124 4.48647 63.8315 4.5268ZM70.169 5.11835C70.6792 5.21246 71.364 5.36035 71.6996 5.45446C72.0353 5.54857 72.3978 5.62923 72.5053 5.65612C72.6127 5.68301 73.2437 5.85778 73.9151 6.05945C74.5864 6.24767 75.7009 6.59722 76.3991 6.82578C77.0973 7.05433 77.9163 7.33666 78.2117 7.4711C78.5071 7.60554 79.2724 7.92821 79.9169 8.19709C80.5748 8.46598 81.0985 8.73486 81.0985 8.81553C81.0985 8.8962 80.8971 8.92309 80.6554 8.8962C80.4271 8.85586 79.4067 8.76175 78.4131 8.68109C77.4195 8.58698 76.5065 8.47942 76.3991 8.42565C76.2916 8.37187 75.862 8.12987 75.4592 7.91476C75.0564 7.68621 74.2373 7.25599 73.6465 6.96022C73.0558 6.66444 72.183 6.27456 71.6996 6.08634C71.2163 5.89812 70.4778 5.62923 70.0616 5.49479C69.6319 5.36034 69.2828 5.18557 69.2694 5.1049C69.2559 4.9839 69.4976 4.99735 70.169 5.11835ZM56.2856 5.33346C56.4198 5.32001 56.8495 5.44101 57.2254 5.5889C57.6148 5.72334 58.4204 6.08634 59.0112 6.36867C59.602 6.66444 60.4479 7.12155 60.891 7.40388C61.3341 7.68621 62.1665 8.25087 62.7439 8.66764C63.3213 9.08442 63.7912 9.4743 63.7912 9.55497C63.7912 9.63563 63.5495 9.75663 63.281 9.85074C62.999 9.93141 62.3814 10.0793 61.898 10.1734C61.4146 10.2675 60.3271 10.5095 59.4812 10.7112C58.6353 10.9128 57.2657 11.2758 56.4601 11.5044C55.6545 11.7329 54.7952 11.9749 54.5803 12.0422C54.3521 12.1094 54.0567 12.2035 53.909 12.2438C53.6942 12.311 53.5196 12.1766 53.0362 11.4775C52.7006 11.0204 51.6936 9.87763 50.794 8.94997C49.8809 8.02232 49.1424 7.2291 49.1424 7.17532C49.1424 7.1081 49.3439 7.014 49.5721 6.94677C49.8138 6.86611 50.4986 6.67789 51.0893 6.53C51.6801 6.36867 52.2843 6.20734 52.432 6.18045C52.5797 6.15356 53.09 6.046 53.5733 5.92501C54.0567 5.80401 54.8086 5.62923 55.2517 5.53512C55.6948 5.42757 56.1647 5.3469 56.2856 5.33346ZM44.6713 6.27456C44.913 6.26111 45.3292 6.36867 45.5843 6.50311C45.8529 6.62411 46.0543 6.81233 46.0543 6.90644C46.0543 6.9871 45.92 7.12155 45.7454 7.18877C45.5843 7.25599 44.725 7.56521 43.8388 7.87443C42.9526 8.18365 41.7979 8.60042 41.2877 8.78864C40.7641 8.97686 40.2941 9.17853 40.2136 9.24575C40.1464 9.29953 39.9719 9.3533 39.8108 9.3533C39.5691 9.3533 39.5556 9.29952 39.6362 8.78864C39.6899 8.46598 39.851 8.10298 39.9719 7.96854C40.1061 7.8341 40.9386 7.4711 41.8248 7.16188C42.711 6.83922 43.6106 6.51655 43.8388 6.43589C44.0537 6.35522 44.443 6.288 44.6713 6.27456ZM47.1955 7.63243L48.2428 8.73486C48.8202 9.32641 49.7735 10.4826 50.3509 11.3027C50.9417 12.1228 51.4116 12.8219 51.425 12.8892C51.425 12.9429 50.9282 13.1446 50.3106 13.3328C49.7064 13.5345 48.1757 14.0723 46.927 14.5294C45.6649 14.9999 43.8791 15.6856 42.9258 16.062C41.9859 16.4384 41.1803 16.7477 41.1132 16.7477C41.0595 16.7477 40.8849 16.1561 40.7104 15.4436C40.5358 14.7176 40.2538 13.4269 40.0659 12.5799C39.8913 11.7329 39.7436 10.8994 39.7436 10.7381C39.7436 10.5095 39.8913 10.3616 40.3076 10.1734C40.6298 10.039 42.0262 9.50119 43.436 8.9903C44.8458 8.46598 46.2557 7.95509 46.5913 7.84754L47.1955 7.63243ZM38.2129 8.81553C38.3204 8.80209 38.3472 9.00375 38.3069 9.38019C38.2667 9.68941 38.1727 10.0255 38.0787 10.1196C37.9981 10.2137 37.8639 10.2944 37.7967 10.2944C37.7296 10.281 36.5614 10.8322 35.2053 11.4909C33.8626 12.1632 32.7348 12.7009 32.6945 12.7009C32.6542 12.7009 32.6274 12.6337 32.6274 12.5396C32.6408 12.4455 32.8288 12.1497 33.0704 11.8808C33.3121 11.5985 33.8626 11.1548 34.3057 10.8725C34.7488 10.5902 35.7827 10.0121 36.5883 9.58186C37.3939 9.16508 38.1324 8.81553 38.2129 8.81553ZM75.3249 9.89107C76.9496 9.87763 77.0167 9.89108 77.5672 10.2541C77.8626 10.4557 78.5608 10.9532 79.1113 11.3699C79.6484 11.7733 80.8434 12.8219 81.7698 13.6689C82.6963 14.5294 83.851 15.6452 84.3343 16.1561C84.8177 16.6536 85.4622 17.3795 85.7845 17.7425C86.0933 18.119 86.3484 18.4416 86.335 18.482C86.335 18.5223 85.1131 18.6299 83.6227 18.724C82.1189 18.8181 80.266 18.9929 79.4872 19.1004C78.7085 19.208 77.8626 19.3155 77.6075 19.3424C77.3524 19.3693 76.8019 19.4365 75.6606 19.571L74.5864 18.119C74.0091 17.3258 72.8006 15.8335 71.901 14.7982C71.0149 13.7765 69.7662 12.4186 69.1082 11.8136C68.4638 11.1952 67.9804 10.6574 68.0341 10.6305C68.1012 10.6036 68.5309 10.5364 69.0143 10.4961C69.4976 10.4423 70.7329 10.2944 71.7668 10.16C72.8006 10.0121 74.3984 9.90452 75.3249 9.89107ZM80.4808 9.93141C81.085 9.97174 82.1726 10.1196 82.9111 10.2541C83.6496 10.3885 84.5895 10.6574 84.9923 10.8591C85.3951 11.0473 86.2141 11.5313 86.8049 11.9212C87.3957 12.3245 88.5101 13.1177 89.2889 13.7093C90.0676 14.2874 90.7256 14.7982 90.7658 14.852C90.8061 14.8924 91.2492 15.2822 91.7729 15.7259C92.2965 16.1696 93.2364 17.0166 93.8943 17.6081C94.5388 18.1997 95.1967 18.8584 95.6667 19.4769L94.9953 19.3828C94.6194 19.3424 93.9077 19.208 93.3841 19.1004C92.8604 18.9929 91.5983 18.8719 88.6847 18.7509L87.8925 17.8367C87.4494 17.3392 86.3887 16.2368 85.5428 15.3763C84.6834 14.5294 83.2871 13.2521 82.4412 12.553C81.5953 11.8539 80.5211 11.0204 80.0512 10.7112C79.5409 10.3616 79.259 10.0927 79.3127 9.99863C79.3798 9.89107 79.7424 9.86418 80.4808 9.93141ZM65.5904 11.1011C65.6575 11.0876 66.2752 11.6523 66.9465 12.3379C67.6313 13.0236 68.8129 14.3277 69.5648 15.2553C70.3301 16.183 71.4311 17.6081 72.0085 18.4148C72.5858 19.2349 73.0558 19.9609 73.0692 20.0281C73.0692 20.1087 72.8812 20.2029 72.6261 20.2432C72.371 20.2835 71.4177 20.4852 70.4912 20.6734C69.5648 20.8751 67.7521 21.3053 66.4631 21.6279C65.1742 21.9641 63.6569 22.3539 63.1064 22.5018C62.5559 22.6632 61.6966 22.9052 60.2868 23.3219L59.79 22.4212C59.5214 21.9237 58.9844 20.9288 58.5816 20.2297C58.1922 19.5306 57.8699 18.9391 57.8699 18.9256C57.8699 18.8988 57.588 18.4148 57.2389 17.8501C56.9032 17.272 56.4735 16.5594 56.2856 16.2637C56.0976 15.9679 55.6679 15.3226 55.3322 14.8117C54.9294 14.2336 54.7683 13.8571 54.8489 13.7765C54.916 13.7227 55.3457 13.5748 55.7888 13.4538C56.2319 13.3463 57.1986 13.0908 57.9371 12.8892C58.6755 12.6875 60.6762 12.2169 62.3679 11.8271C64.0597 11.4237 65.5233 11.1011 65.5904 11.1011ZM37.9578 11.2355C38.0742 11.2265 38.1503 11.5492 38.1861 12.2035C38.2264 12.7413 38.3741 13.8706 38.5218 14.7176C38.6695 15.5646 38.8172 16.5998 38.9649 17.7425L37.7027 18.2803C37.018 18.5761 34.9234 19.5844 33.0704 20.5255C30.7476 21.7086 29.6466 22.1926 29.6063 22.0851C29.566 21.9909 29.66 21.0633 29.8077 20.0281C29.9554 18.9929 30.1837 17.8098 30.3045 17.4064C30.4254 17.0031 30.6939 16.183 31.2847 14.5159L32.869 13.6555C33.7284 13.1849 35.1919 12.4455 36.1184 12.0153C37.0448 11.5985 37.8773 11.2355 37.9578 11.2355ZM30.9221 13.1043C30.9759 13.1043 31.0161 13.1849 31.0161 13.279C31.0161 13.3732 30.8819 13.5748 30.7207 13.7227C30.5462 13.884 30.0897 14.1932 29.7137 14.4352C29.3243 14.6638 28.9752 14.8117 28.935 14.7579C28.9081 14.7041 29.3109 14.3008 29.848 13.884C30.3716 13.4538 30.855 13.1177 30.9221 13.1043ZM52.1635 14.5966C52.3381 14.5831 52.5529 14.7848 52.7811 15.1612C52.9825 15.4705 53.6136 16.5729 54.191 17.6081C54.7549 18.6433 55.7351 20.4852 56.3527 21.7086C56.9703 22.932 57.4806 23.9941 57.4671 24.0614C57.4671 24.142 57.1046 24.3034 56.6615 24.4378C56.2184 24.5588 55.5874 24.6664 55.2517 24.6664C54.916 24.6664 54.2715 24.7605 53.815 24.868C53.3451 24.9756 52.7274 25.1638 52.432 25.2848C52.1366 25.4058 51.7204 25.6344 51.4922 25.7822C51.0893 26.0511 51.0893 26.0511 50.7537 25.7822C50.5657 25.6344 50.2032 25.4058 49.9481 25.2714C49.693 25.1369 49.1424 24.9487 48.7396 24.8546C48.2831 24.747 47.115 24.6798 43.3689 24.6664L42.9527 23.295C42.7378 22.5287 42.429 21.5473 42.2813 21.1036C42.1336 20.66 41.9053 19.934 41.7711 19.4903C41.5831 18.8853 41.5563 18.6433 41.6771 18.5358C41.7577 18.4685 42.335 18.1862 42.9661 17.9173C43.5971 17.6484 44.7787 17.1779 45.5843 16.8552C46.3899 16.546 48.1489 15.9141 49.4781 15.4436C50.8074 14.9865 52.0158 14.5966 52.1635 14.5966ZM29.4855 15.6721C29.4989 15.6587 29.4855 15.7931 29.4586 15.9679C29.4318 16.1292 29.3512 16.3847 29.2841 16.5326C29.2169 16.6804 29.0021 17.2586 28.8276 17.8098C28.653 18.361 28.371 19.3962 28.2099 20.0953C28.0488 20.7944 27.8742 21.8296 27.7265 23.3757L25.0412 24.989L24.3027 24.8277C23.8999 24.747 23.0943 24.6664 22.5303 24.6664C21.7784 24.6664 21.483 24.626 21.483 24.505C21.483 24.4109 21.6173 24.0614 21.765 23.7253C21.9127 23.3892 22.1544 22.9052 22.2887 22.6497C22.4229 22.3943 22.7183 21.8162 22.96 21.3725C23.2017 20.9288 23.6313 20.2029 23.9267 19.7592C24.2624 19.2752 24.7861 18.724 25.2963 18.361C25.7394 18.0249 26.7195 17.3392 27.458 16.8418C28.2099 16.3309 28.9618 15.8603 29.1364 15.7931C29.3243 15.7259 29.4855 15.6721 29.4855 15.6721ZM94.136 16.5057C94.2568 16.5998 94.955 17.1644 95.6801 17.7694C96.4186 18.3744 97.345 19.1945 97.7478 19.5979C98.2312 20.0819 98.4326 20.3642 98.3252 20.418C98.2312 20.4583 97.9895 20.4314 97.7881 20.3373C97.6001 20.2432 96.5931 19.329 95.5727 18.3207C94.5522 17.2989 93.76 16.4384 93.8137 16.3981C93.854 16.3578 94.0017 16.4116 94.136 16.5057ZM39.3274 19.4769C39.3677 19.5037 39.4617 19.7592 39.5154 20.0415C39.5825 20.3373 39.8376 21.3187 40.0793 22.2464C40.321 23.174 40.5627 24.1151 40.6029 24.3303C40.6969 24.7336 40.6835 24.7336 39.851 24.9756C39.3811 25.11 38.7635 25.352 37.931 25.8495L37.3268 25.4596C36.9911 25.2445 36.3198 24.9756 35.823 24.868C35.1785 24.7336 34.1177 24.6664 32.2246 24.6664C30.5193 24.6664 29.5392 24.626 29.5392 24.5319C29.5392 24.4647 29.7406 24.2765 29.9823 24.1286C30.2105 23.9807 31.3518 23.3623 32.4931 22.7573C33.6344 22.1523 35.5947 21.1843 36.8568 20.6062C38.119 20.0281 39.1663 19.5306 39.1931 19.4903C39.22 19.4634 39.2737 19.45 39.3274 19.4769ZM91.7326 20.8482C92.4173 20.8885 93.3975 20.9826 93.9212 21.0498C94.4448 21.1171 95.4921 21.3053 96.2709 21.4666C97.5867 21.7355 97.721 21.7893 98.2043 22.3002C98.4997 22.6094 99.1442 23.4026 99.6276 24.0614C100.124 24.7336 100.97 25.9705 101.534 26.8174C102.085 27.6644 102.917 29.0358 103.387 29.8424C103.857 30.6625 104.622 32.0742 105.079 33.0018C105.549 33.9295 105.885 34.7361 105.831 34.7899C105.777 34.8571 104.918 34.7496 103.924 34.5614C102.931 34.3866 101.87 34.1984 101.574 34.158C101.279 34.1177 100.796 34.0774 100.5 34.0639C100.205 34.0639 99.4933 34.037 97.8821 33.9429L97.5867 33.2438C97.4256 32.8539 96.9422 31.8322 96.526 30.9852C96.1097 30.1382 95.3176 28.6593 94.767 27.6913C94.2165 26.7368 93.2901 25.2176 92.7127 24.3303C92.1354 23.4429 91.3969 22.3539 91.0747 21.9103C90.7524 21.4666 90.4839 21.0364 90.4839 20.9423C90.4839 20.8347 90.8195 20.8078 91.7326 20.8482ZM22.3558 21.023C22.4498 21.1171 22.2887 21.4935 21.8724 22.2061C21.5233 22.7842 21.0937 23.5774 20.5432 24.6664H19.8718C19.5093 24.6664 19.2005 24.6126 19.2005 24.5319C19.2005 24.4647 19.3884 24.1151 19.6301 23.7656C19.8718 23.416 20.5432 22.6228 21.1339 22.0044C21.859 21.265 22.2484 20.9423 22.3558 21.023ZM86.5364 20.9288C88.0402 20.9154 88.3087 20.9423 88.443 21.144C88.537 21.265 88.8458 21.7086 89.1143 22.1119C89.3829 22.5153 89.6514 22.8783 89.7051 22.9186C89.7588 22.9589 90.1079 23.4698 90.4704 24.0614C90.8464 24.6529 91.5177 25.7419 91.9474 26.4813C92.3905 27.2208 93.1021 28.4577 93.5183 29.2374C93.9346 30.0172 94.5925 31.3482 94.9953 32.1952C95.4518 33.19 95.6532 33.795 95.5727 33.8757C95.5055 33.9564 94.324 34.0505 92.941 34.1043C91.558 34.158 89.5306 34.3194 88.4161 34.4673C87.3151 34.6286 85.9456 34.8168 85.3951 34.8975C84.8446 34.9781 84.3075 35.0722 84.2269 35.0991C84.1329 35.1395 83.945 34.8975 83.7973 34.5883C83.663 34.2656 83.3273 33.4993 83.0454 32.8674C82.7634 32.2355 82.0652 30.7835 81.4878 29.6407C80.9105 28.498 80.1586 27.046 79.8095 26.4141C79.4738 25.7822 78.883 24.7605 78.5205 24.1286C78.1445 23.4967 77.688 22.7842 77.4866 22.5422C77.1912 22.1523 77.1644 22.0716 77.3389 21.9775C77.4464 21.9103 78.0237 21.7893 78.6145 21.7086C79.2053 21.6279 79.9303 21.5204 80.2257 21.4935C80.5211 21.4666 81.6758 21.3187 82.7768 21.1843C83.8913 21.0498 85.5831 20.9288 86.5364 20.9288ZM74.4522 22.3943C74.6536 22.3808 74.9087 22.6766 75.4726 23.6177C75.8888 24.3034 76.7213 25.7822 77.3121 26.8847C77.9029 28.0005 78.789 29.7214 79.259 30.7163C79.7423 31.7112 80.4137 33.1632 80.7628 33.9429C81.0985 34.7227 81.367 35.4218 81.3267 35.489C81.2999 35.5697 80.6151 35.7579 79.8095 35.9192C79.0039 36.0806 77.7686 36.336 77.0704 36.4973C76.3722 36.6452 75.1101 36.941 72.7738 37.5057L72.3307 36.8469C72.1024 36.4973 71.8205 36.1612 71.7265 36.1075C71.5788 36.0402 71.5922 35.9327 71.7533 35.489C71.8608 35.1932 72.0085 34.642 72.089 34.2521C72.2367 33.5396 72.2367 33.5396 72.9483 33.3514C73.3243 33.2438 73.8882 32.9749 74.1836 32.7598C74.479 32.5447 74.8818 32.1279 75.0832 31.8456C75.2846 31.5633 75.5666 31.0524 75.7143 30.7163C75.8486 30.3802 76.0365 29.7483 76.1305 29.3046C76.2514 28.6728 76.2514 28.3232 76.1171 27.6241C76.0007 27.0415 75.8038 26.571 75.5263 26.2125C75.298 25.9167 74.8684 25.5268 74.573 25.352C74.291 25.1638 73.754 24.9487 73.378 24.8411C72.9081 24.7201 71.6459 24.6664 69.2962 24.6664C66.6108 24.6664 65.8858 24.626 65.9395 24.505C65.9798 24.4109 66.678 24.1689 67.4836 23.9673C68.2892 23.7656 69.793 23.416 70.8269 23.1875C71.8608 22.9589 73.0423 22.69 73.4451 22.5959C73.8479 22.4884 74.3045 22.4077 74.4522 22.3943ZM100.406 22.9724C100.608 23.0799 101.118 23.4564 101.534 23.8059C101.95 24.1689 102.649 24.8949 103.078 25.4058C103.521 25.9301 104.569 27.3418 105.428 28.5652C106.274 29.7886 107.361 31.3885 107.845 32.1279C108.328 32.8674 108.986 33.9833 109.335 34.6151C109.671 35.247 110.101 36.0671 110.275 36.4301C110.463 36.8066 110.597 37.1561 110.557 37.2099C110.53 37.2637 110.154 37.0754 109.738 36.7931C109.308 36.5108 108.624 36.1209 108.221 35.9327C107.523 35.6235 107.455 35.5428 107.012 34.6017C106.757 34.0639 106.099 32.7598 105.549 31.7246C104.998 30.6894 104.032 29.0223 103.387 28.0274C102.756 27.0326 101.709 25.4999 101.064 24.6395C100.42 23.7656 99.923 22.9993 99.9767 22.9186C100.017 22.8379 100.178 22.8514 100.406 22.9724ZM14.3265 27.9333C23.7925 27.9602 23.8865 27.9602 24.2624 28.2425C24.4638 28.4039 24.6921 28.7265 24.7592 28.982C24.8666 29.3584 24.8129 29.6676 24.4772 30.6491C24.249 31.3213 23.7522 32.7061 23.3762 33.7413C23.0003 34.7765 22.5303 35.8655 22.3155 36.1612C22.1141 36.457 21.6844 36.8872 20.7848 37.5057L15.9109 37.5863L14.8502 40.5037C14.2594 42.1171 13.5477 44.053 13.2389 44.8328C12.8093 45.9756 12.581 46.3655 12.0842 46.8495C11.6948 47.2393 11.2517 47.5217 10.8758 47.6292C10.4327 47.7637 9.34512 47.7906 3.11504 47.7233L2.76594 47.3872C2.48398 47.1183 2.41684 46.9301 2.41684 46.4461C2.41684 46.0159 2.80622 44.7656 3.7461 42.2112C4.47116 40.2214 5.1425 38.4199 5.22306 38.2182C5.30362 38.0166 5.37076 37.788 5.37076 37.7073C5.37076 37.6267 4.47116 37.5594 0.644489 37.5057L0.322245 37.1427C0.107414 36.9007 0 36.6049 0 36.2957C0 36.0402 0.21483 35.2336 0.456514 34.521C0.711625 33.795 1.19499 32.4506 1.53067 31.523C1.86634 30.5953 2.33628 29.6004 2.55111 29.3181C2.77937 29.0223 3.15532 28.6593 3.397 28.5114C3.62526 28.3635 4.0415 28.1619 4.29661 28.0678C4.65913 27.9468 6.96856 27.9064 14.3265 27.9333ZM31.5935 27.9064C34.0775 27.893 35.0173 27.9468 35.353 28.0812C35.5813 28.1753 35.8767 28.3635 35.9841 28.498C36.1049 28.6459 36.1721 28.982 36.1721 29.3584C36.1586 29.7617 35.7558 31.039 35.0039 33.069C34.3729 34.7765 33.8224 36.2688 33.7821 36.4032C33.7149 36.6183 33.8224 36.6318 36.1855 36.6318L36.4675 35.7982C36.6286 35.3277 37.0985 34.0101 37.5148 32.8674C37.931 31.7246 38.4412 30.434 38.6426 29.9903C38.8574 29.5332 39.22 29.0223 39.5422 28.7534C39.8376 28.498 40.3478 28.2022 40.6835 28.0947C41.1534 27.9333 42.0128 27.893 44.5504 27.893C47.1418 27.893 47.8937 27.9333 48.2697 28.0947C48.5248 28.2022 48.8471 28.4711 48.9679 28.6728C49.1156 28.9148 49.1693 29.1971 49.1156 29.5063C49.0753 29.7617 48.4577 31.6171 47.7326 33.6068C47.021 35.61 46.1214 38.0569 45.7589 39.0518C45.3963 40.0466 44.7653 41.781 44.3625 42.8834C43.9597 43.9993 43.53 45.1689 43.4092 45.505C43.2749 45.8815 42.9258 46.3789 42.4827 46.8226C42.0262 47.2528 41.5697 47.5755 41.2609 47.6561C40.9789 47.7368 39.1931 47.7906 37.2999 47.7906C34.6145 47.7906 33.7552 47.7502 33.4733 47.6023C33.2584 47.5082 33.0167 47.2662 32.9362 47.0646C32.8422 46.8763 32.7616 46.5806 32.7616 46.4192C32.7616 46.2445 33.0033 45.4513 33.2853 44.6312C33.5672 43.8245 34.1043 42.2918 34.4937 41.2432C34.8697 40.1811 35.1785 39.2938 35.1785 39.2534C35.1785 39.2131 34.6414 39.1862 32.7616 39.1862L32.2246 40.7054C31.9426 41.539 31.4324 42.9372 31.1101 43.8245C30.7879 44.7118 30.4119 45.6798 30.2642 45.9621C30.13 46.2579 29.7406 46.7285 29.4049 47.0108C29.0692 47.3066 28.559 47.6023 28.2636 47.6696C27.9414 47.7637 26.2899 47.7906 20.5163 47.7233L20.1941 47.3603C19.9792 47.1049 19.8718 46.8226 19.8718 46.4865C19.8718 46.1907 20.2746 44.8597 20.8251 43.3539C21.3353 41.9154 22.0604 39.9122 22.4229 38.9173C22.7854 37.9224 23.5105 35.9192 24.0341 34.4807C24.5578 33.0422 25.1486 31.402 25.35 30.8507C25.538 30.2995 25.8871 29.6139 26.1153 29.3181C26.3301 29.0358 26.6658 28.6862 26.8538 28.5383C27.0418 28.4039 27.4312 28.2022 27.7265 28.0947C28.1428 27.9468 29.0558 27.9064 31.5935 27.9064ZM63.6435 27.9064C70.7866 27.893 72.7469 27.9333 72.8812 28.0678C72.9752 28.1484 73.0423 28.3501 73.0423 28.498C73.0423 28.6459 72.8946 29.0761 72.7335 29.4391C72.4918 29.9634 72.3173 30.1516 71.9548 30.2861C71.6191 30.4071 70.3032 30.4474 62.3679 30.4474L61.992 31.4154C61.7772 31.9532 61.5892 32.5044 61.5489 32.6388C61.4952 32.8539 61.7235 32.8674 64.9862 32.8674C67.0405 32.8674 68.5846 32.9212 68.7457 33.0018C68.8934 33.0825 69.0143 33.2573 69.0143 33.4052C69.0143 33.553 68.9068 33.9295 68.7591 34.2521C68.6249 34.5614 68.3832 34.9378 68.2086 35.0857C67.9267 35.3411 67.6984 35.3546 60.4882 35.4352L60.0451 36.6721C59.8168 37.3578 59.6154 37.9628 59.6154 38.0166C59.6154 38.0703 61.7503 38.1241 69.1217 38.1779L69.4708 38.514C69.6722 38.7022 69.8601 39.0383 69.9004 39.2534C69.9676 39.5492 69.7393 40.3559 69.0411 42.3456C68.5175 43.8245 67.9938 45.2765 67.873 45.5723C67.7387 45.868 67.4702 46.3251 67.2688 46.5806C67.0808 46.836 66.584 47.2259 65.4561 47.7906H56.3661C48.9008 47.7906 47.1955 47.7637 46.9002 47.6023C46.6853 47.5082 46.4436 47.2662 46.3631 47.0646C46.2691 46.8763 46.1885 46.6075 46.1885 46.4865C46.1885 46.352 46.3362 45.7874 46.5108 45.2361C46.6988 44.6849 47.2761 43.0447 47.7998 41.6062C48.3368 40.1676 49.0485 38.1644 49.411 37.1696C49.7735 36.1747 50.4986 34.1715 51.0222 32.7329C51.5459 31.2944 52.1232 29.8559 52.2978 29.5466C52.4857 29.224 52.8348 28.8206 53.0765 28.6459C53.3048 28.4577 53.7479 28.2291 54.0433 28.1081C54.4998 27.9468 55.9902 27.9064 63.6435 27.9064ZM97.0093 36.7662L97.1705 37.2771C97.251 37.546 97.6807 38.8098 98.1238 40.0601C98.5669 41.3239 99.1711 43.2195 99.4665 44.295C99.7619 45.3706 100.165 46.8226 100.353 47.5217C100.527 48.2208 100.715 49.0543 100.755 49.377C100.823 49.861 100.796 49.9551 100.567 50.0089C100.42 50.0492 100.098 49.9685 99.8693 49.8206C99.6276 49.6862 99.1039 49.498 98.728 49.4173C98.2849 49.3232 96.2977 49.2694 88.9532 49.2829L88.6712 48.3014C88.5101 47.7637 88.161 46.6209 87.9059 45.7739C87.6374 44.9269 87.1271 43.3539 86.7646 42.2784C86.4021 41.2029 85.9053 39.8315 85.677 39.2265C85.3682 38.4064 85.3011 38.0972 85.4354 38.0434C85.5159 38.0165 86.3887 37.8552 87.342 37.7073C88.3087 37.5594 89.4231 37.3981 89.826 37.3712C90.2288 37.3443 91.1149 37.2502 91.7729 37.1696C92.4442 37.0889 93.5586 36.9679 94.2568 36.9141C94.955 36.8603 95.8681 36.7931 97.0093 36.7662ZM100.232 36.8335C100.823 36.8738 101.977 37.0082 102.783 37.1158C103.602 37.2368 104.448 37.3578 104.663 37.3847C104.891 37.425 105.428 37.546 105.871 37.667C106.314 37.788 106.824 37.909 107.012 37.9359C107.267 37.9897 107.402 38.1375 107.563 38.635C107.684 38.9711 108.113 40.2886 108.516 41.539C108.932 42.8027 109.362 44.1875 109.47 44.6312C109.59 45.0748 109.832 46.0428 110.02 46.7822C110.195 47.5217 110.396 48.4224 110.571 49.4173L110.101 49.3501C109.845 49.3098 108.073 49.2694 102.716 49.2694L102.313 47.562C102.098 46.6209 101.762 45.263 101.561 44.5639C101.373 43.8648 100.796 42.023 100.272 40.4634C99.7619 38.9173 99.2516 37.4922 99.1442 37.304C99.0502 37.1158 99.0099 36.9141 99.0637 36.8603C99.1174 36.7931 99.641 36.7797 100.232 36.8335ZM82.4814 38.5543C82.5486 38.5678 82.75 38.9711 82.938 39.4551C83.1125 39.9391 83.7301 41.7272 84.3075 43.4212C84.8849 45.1286 85.5159 47.0242 85.7173 47.6561C85.9053 48.288 86.0664 48.9064 86.0664 49.0409C86.0664 49.256 85.8247 49.2694 83.0185 49.2829C80.9105 49.2829 79.7289 49.3367 79.2187 49.4576C78.8159 49.5652 78.3057 49.7131 78.0774 49.8072C77.8626 49.8879 77.3926 50.1702 77.0435 50.4256C76.681 50.6811 76.3588 50.8827 76.3051 50.8827C76.2379 50.8827 75.9291 50.708 75.5934 50.4929C75.2578 50.2778 74.5998 49.982 74.1165 49.8341C73.6331 49.6728 72.7604 49.4711 71.0954 49.1888L70.8403 48.4628C70.6255 47.8578 70.5986 47.6427 70.7195 47.2528C70.8 46.9973 71.0954 46.1772 71.364 45.4378C71.6459 44.6984 72.1159 43.3405 73.002 40.7323L75.5397 40.1004C76.9361 39.7509 78.5339 39.361 79.0844 39.24C79.6349 39.1324 80.6017 38.9173 81.2327 38.7829C81.8638 38.6484 82.4277 38.5409 82.4814 38.5543ZM108.852 38.6484C108.879 38.6484 109.147 38.7829 109.47 38.9442C109.778 39.0921 110.369 39.4551 110.772 39.724C111.175 39.9929 111.779 40.5172 112.115 40.8936C112.611 41.4314 112.84 41.8885 113.363 43.3002C113.712 44.2547 113.994 45.1286 113.994 45.2361C113.994 45.3437 114.048 45.505 114.102 45.5723C114.169 45.6529 114.384 46.3117 114.585 47.0511C114.787 47.7906 115.015 48.5434 115.095 48.7317C115.176 48.9199 115.189 49.1753 115.149 49.3098C115.109 49.4308 114.961 49.5383 114.84 49.5383C114.706 49.5383 114.357 49.6324 114.062 49.7534C113.766 49.8744 113.363 50.0895 113.162 50.224C112.786 50.4794 112.786 50.4794 112.423 50.2105C112.101 49.9954 111.994 49.7131 111.672 48.3687C111.457 47.4948 111.108 46.1235 110.879 45.3034C110.665 44.4967 110.114 42.6683 109.644 41.2432C109.188 39.8181 108.838 38.6484 108.852 38.6484ZM6.84772 52.5364C10.2447 52.5633 10.4327 52.5767 10.8758 52.8591C11.1309 53.0204 11.4666 53.3565 11.6143 53.5985C11.856 54.0153 11.8828 54.311 11.9499 61.2349H14.3668V57.7797C14.3668 54.3917 14.3668 54.2976 14.6756 53.7061C14.8501 53.3699 15.1992 52.9801 15.4544 52.8322C15.8706 52.5902 16.1928 52.5633 19.469 52.5229C22.9466 52.4826 23.0406 52.4961 23.6313 52.7918C24.0744 53.0204 24.3161 53.2624 24.8398 54.311L24.8129 62.6734C24.7726 70.9551 24.7726 71.0357 24.4907 71.4122C24.3295 71.6139 24.0341 71.9096 23.8462 72.0575C23.4971 72.313 23.2688 72.3264 19.6033 72.3264C15.9109 72.3264 15.7095 72.313 15.3469 72.0575C15.1455 71.8962 14.8367 71.5063 14.6622 71.1836C14.3802 70.6055 14.3668 70.4442 14.3668 63.7893H11.9499L11.9231 67.3251C11.8828 70.5786 11.856 70.8879 11.6143 71.3046C11.4666 71.5601 11.1712 71.8962 10.9698 72.0441C10.6073 72.313 10.4461 72.3264 6.71345 72.3264C3.04791 72.3264 2.81965 72.313 2.47055 72.0575C2.28257 71.9096 1.98718 71.6139 1.82606 71.4122C1.54409 71.0357 1.54409 70.982 1.54409 53.9077L1.85291 53.464C2.02746 53.2086 2.43027 52.8859 2.72566 52.7515C3.23588 52.5229 3.59841 52.4961 6.84772 52.5364ZM38.5755 52.5095C42.8989 52.4961 44.1074 52.5364 44.9533 52.7112C45.5172 52.8187 46.3631 53.1011 46.833 53.3162C47.2895 53.5313 47.9475 53.9749 48.31 54.2976C48.6591 54.6203 49.1693 55.2925 49.4378 55.8034C49.7198 56.3142 50.0286 57.1612 50.136 57.6721C50.2972 58.3981 50.3509 59.5274 50.3509 62.4448C50.3509 65.3085 50.2972 66.5185 50.1495 67.2176C50.0421 67.7419 49.7735 68.5217 49.5587 68.9653C49.3438 69.409 48.8739 70.0812 48.5114 70.4442C48.1489 70.8206 47.5447 71.2777 47.1821 71.4794C46.8196 71.6811 46.0408 71.9769 45.4501 72.1247C44.443 72.3802 43.9999 72.3936 38.6695 72.3936C35.3262 72.3936 32.7079 72.3264 32.3588 72.2592C32.0232 72.1785 31.3384 71.95 30.8282 71.7483C30.2239 71.5197 29.6466 71.1433 29.1498 70.6996C28.7336 70.3232 28.2099 69.6779 27.9682 69.2208C27.74 68.7906 27.4312 68.0646 27.2969 67.6209C27.0821 66.9084 27.0552 66.3168 27.0552 58.0755L27.4177 56.9999C27.6191 56.4084 28.0085 55.6017 28.2905 55.1984C28.5724 54.795 29.1095 54.2304 29.472 53.948C29.848 53.6657 30.4791 53.3162 30.8819 53.1548C31.2847 53.0069 31.9829 52.7918 32.426 52.6977C33.0167 52.5633 34.6683 52.523 38.5755 52.5095ZM37.4476 62.4448C37.461 68.2662 37.4879 69.2746 37.6625 69.5434C37.7699 69.7048 38.025 69.8795 38.2398 69.9199C38.4412 69.9602 38.8037 69.9602 39.0454 69.9199C39.2737 69.8795 39.5691 69.7451 39.6765 69.6375C39.851 69.4628 39.8779 68.4813 39.8779 62.4852C39.8913 55.9781 39.8645 55.5076 39.6496 55.2925C39.4751 55.1311 39.1797 55.0639 38.6426 55.0505C38.0115 55.0505 37.837 55.1043 37.6625 55.3463C37.461 55.6151 37.4342 56.3411 37.4476 62.4448ZM64.1134 52.5095C70.1421 52.5095 71.9145 52.5364 72.4381 52.6843C72.8141 52.7784 73.3243 52.9532 73.5794 53.0607C73.8345 53.1817 74.291 53.5044 74.573 53.7867C74.8684 54.0825 75.2578 54.6472 75.7948 55.7899V63.4128C75.7948 70.9685 75.7948 71.0357 75.5129 71.4122C75.3518 71.6139 75.0564 71.9096 74.8684 72.0575C74.5193 72.313 74.291 72.3264 70.6255 72.3264C66.8928 72.3264 66.7317 72.313 66.3692 72.0441C66.1678 71.8962 65.8724 71.5601 65.7247 71.3046C65.4696 70.861 65.4561 70.5786 65.4159 63.1843C65.389 56.1529 65.3621 55.5076 65.1473 55.279C64.9862 55.1177 64.7177 55.037 64.1806 55.037C63.6569 55.037 63.3884 55.1043 63.2407 55.2656C63.0661 55.4673 63.0259 56.6235 62.9722 63.2649C62.905 70.9148 62.905 71.0357 62.6231 71.4122C62.4619 71.6139 62.1665 71.9096 61.9786 72.0575C61.6295 72.313 61.4012 72.3264 57.7357 72.3264C54.0433 72.3264 53.8419 72.313 53.4793 72.0575C53.2779 71.8962 52.9691 71.5063 52.4857 70.5786L52.526 63.3187C52.5663 56.4487 52.5797 56.0185 52.8348 55.3328C52.9825 54.9429 53.3451 54.3379 53.6539 53.9884C53.9493 53.6523 54.4326 53.2624 54.728 53.1145C55.01 52.9666 55.5202 52.7784 55.8559 52.6843C56.299 52.5633 58.4473 52.523 64.1134 52.5095ZM89.0875 52.5095C97.9358 52.4961 98.0835 52.4961 98.3923 52.765C98.6206 52.9801 98.6877 53.1817 98.6877 53.7464C98.6877 54.1363 98.634 54.5127 98.5803 54.5934C98.5266 54.674 98.352 54.8085 98.1909 54.9026C97.9761 55.0101 96.4723 55.0505 88.6175 55.0505V57.4705H92.2159C95.1833 57.4705 95.8546 57.5108 96.1097 57.6721C96.3514 57.8469 96.4051 57.9948 96.4051 58.6536C96.4051 59.1107 96.338 59.5274 96.2172 59.6888C96.0292 59.9442 95.8546 59.9577 88.6175 60.0249V62.7137L98.2312 62.781L98.728 63.1171C98.9965 63.3053 99.3053 63.6683 99.4262 63.9237C99.6007 64.327 99.6276 64.9186 99.6007 67.7553C99.5605 70.9148 99.547 71.1433 99.2785 71.5198C99.1174 71.7483 98.7817 72.0306 98.4997 72.1651C98.0566 72.3802 97.345 72.3936 88.7652 72.3667C79.5947 72.3264 79.5007 72.3264 79.1247 72.0441C78.9233 71.8962 78.6279 71.5601 78.4802 71.3046C78.2251 70.861 78.2117 70.5786 78.1714 62.9154C78.1446 57.8738 78.1848 54.7278 78.2788 54.2842C78.3728 53.8136 78.5339 53.4506 78.789 53.2086C78.9904 53.0069 79.3798 52.7649 79.6349 52.6843C79.9572 52.5767 82.7097 52.523 89.0875 52.5095ZM106.408 52.5095C109.631 52.4961 109.792 52.5095 110.369 52.8053C110.732 52.9801 111.081 53.2893 111.242 53.5716C111.497 54.0153 111.51 54.311 111.551 58.8149C111.564 61.4365 111.604 63.7086 111.631 63.8565C111.672 64.0044 111.886 64.2195 112.141 64.3136C112.423 64.4346 112.786 64.4749 113.122 64.4212C113.417 64.3808 113.726 64.2733 113.793 64.1926C113.874 64.0985 113.954 62.0953 113.994 59.0434C114.062 54.2035 114.075 54.0287 114.357 53.5716C114.518 53.3162 114.854 52.9801 115.095 52.8322C115.498 52.5902 115.82 52.5633 119.097 52.5229C122.574 52.4826 122.668 52.4961 123.259 52.7918C123.702 53.0204 123.944 53.2624 124.172 53.7061C124.454 54.2842 124.467 54.4589 124.467 57.4436C124.467 59.6484 124.414 60.8719 124.266 61.6113C124.159 62.176 123.877 63.0364 123.635 63.5204C123.393 64.0178 122.923 64.69 122.52 65.0665C122.144 65.4429 121.513 65.9 121.111 66.1017C120.708 66.3034 120.01 66.5588 119.567 66.6798C119.123 66.7874 118.533 66.8815 117.754 66.8815L117.727 68.9519C117.687 70.7938 117.66 71.0761 117.418 71.3987C117.271 71.6004 116.975 71.8827 116.774 72.0441C116.411 72.313 116.25 72.3264 112.786 72.3264C109.389 72.3264 109.161 72.313 108.812 72.0575C108.624 71.9096 108.328 71.6139 108.167 71.4122C107.912 71.0626 107.885 70.8341 107.818 66.8815H107.321C107.039 66.8815 106.462 66.8008 106.046 66.6798C105.616 66.5722 104.891 66.2899 104.434 66.0614C103.964 65.8194 103.307 65.3219 102.944 64.9455C102.581 64.569 102.125 63.8968 101.91 63.4532C101.695 63.0095 101.427 62.176 101.306 61.6113C101.158 60.845 101.105 59.7291 101.105 57.4436C101.105 54.7009 101.145 54.2438 101.36 53.7733C101.494 53.4775 101.709 53.1414 101.843 53.0338C101.991 52.9263 102.313 52.765 102.582 52.6708C102.89 52.5633 104.152 52.5095 106.408 52.5095ZM50.1226 73.3616L50.9417 74.101C51.3847 74.5178 51.9084 74.9346 52.0964 75.0287C52.2843 75.1228 52.8348 75.2976 53.3451 75.4051C54.0164 75.5665 54.9563 75.6203 57.1315 75.6203C59.7094 75.6203 60.0451 75.6471 60.2331 75.8623C60.3539 75.9833 60.421 76.1849 60.3808 76.2925C60.3405 76.4 60.0585 77.1664 59.7631 77.973C59.4543 78.7931 58.9978 80.03 58.7293 80.7291C58.4741 81.4282 58.2325 82.0332 58.1922 82.0735C58.1519 82.1139 57.8162 82.0601 57.4268 81.9525C56.9301 81.8046 55.6545 81.724 49.223 81.603L48.5517 80.5274C48.1891 79.9359 47.4238 78.6318 46.8465 77.6369C46.2691 76.642 45.7723 75.7278 45.7186 75.6203C45.6649 75.4724 45.8394 75.3648 46.5242 75.19C47.0076 75.0556 47.7729 74.7733 48.2428 74.5582C48.6994 74.3565 49.3036 73.9935 49.599 73.7649L50.1226 73.3616ZM28.6664 74.4103C28.7067 74.4103 29.0827 74.5582 29.5123 74.7329C29.9286 74.9077 30.7342 75.1497 31.2847 75.2842C31.8352 75.4186 32.869 75.553 33.5672 75.6068C34.2923 75.6606 34.8428 75.7547 34.8294 75.8219C34.8294 75.9026 33.9432 76.5882 32.8825 77.3411C31.0161 78.6721 30.949 78.7124 30.7476 78.457C30.6402 78.3091 30.4254 77.9596 30.2777 77.6772C30.13 77.3949 29.7003 76.6286 29.3109 75.9564C28.9215 75.2976 28.5993 74.6792 28.5993 74.585C28.5993 74.4909 28.6261 74.4103 28.6664 74.4103ZM25.981 74.5716C26.0616 74.5582 26.4778 75.2304 26.9209 76.0639C27.364 76.884 28.0488 78.1075 28.4382 78.7797C28.8275 79.4519 29.1498 80.0569 29.1364 80.1241C29.1364 80.2048 28.5187 80.7829 27.7803 81.4013C27.0418 82.0332 25.8468 83.1625 25.1352 83.9019C24.4235 84.6414 23.5642 85.5959 23.2285 86.0127C22.8929 86.4295 22.584 86.779 22.5303 86.779C22.4766 86.779 22.141 86.3488 21.8053 85.811C21.4562 85.2733 21.0802 84.6817 20.9594 84.4935C20.8251 84.3187 20.2746 83.3776 19.7107 82.4096C19.1602 81.4551 18.6097 80.4871 18.5023 80.2585C18.3948 80.0434 18.1397 79.5594 17.9518 79.183C17.7638 78.82 17.3341 77.9461 16.9985 77.2336C16.6628 76.5345 16.3808 75.8891 16.3808 75.795C16.3808 75.6606 17.1461 75.6203 19.7375 75.6203C22.2081 75.6203 23.3359 75.5799 24.0073 75.432C24.5041 75.311 25.1217 75.0825 25.3768 74.8943C25.6319 74.7195 25.9139 74.5716 25.981 74.5716ZM13.3732 74.6792C13.4135 74.6792 13.6686 74.827 13.9505 74.9884C14.3802 75.2304 14.5682 75.4724 14.9307 76.2925C15.1724 76.8571 15.8035 78.1881 16.3271 79.2502C16.8508 80.3258 17.6832 81.8987 18.1532 82.7457C18.6231 83.6062 19.5764 85.1657 21.483 88.1235L21.2279 88.5671C21.0802 88.8091 20.6909 89.5486 20.3552 90.2073C20.0329 90.8795 19.657 91.8206 19.5227 92.2912C19.4019 92.7752 19.2407 93.2323 19.187 93.2995C19.1065 93.3936 18.9991 93.3398 18.8648 93.1651C18.7574 93.0172 18.2203 92.2374 17.6832 91.4173C17.1327 90.6107 16.2063 89.0914 15.6155 88.0562C15.0247 87.021 14.3265 85.7573 14.0714 85.2329C13.8028 84.722 13.3061 83.6331 12.957 82.813C12.6079 82.0063 12.1916 81.0652 12.0439 80.7291C11.8828 80.393 11.7485 79.8014 11.7351 79.3847C11.7217 78.941 11.8291 78.2688 12.0171 77.6369C12.1916 77.0857 12.487 76.2656 12.6884 75.8219C12.8898 75.3783 13.1047 74.948 13.1852 74.8539C13.2658 74.7598 13.3463 74.6792 13.3732 74.6792ZM41.9591 75.674C42.7512 75.6875 42.9124 75.7413 43.0332 75.9698C43.1138 76.1177 43.6106 77.005 44.1476 77.9192C44.6981 78.8334 45.2084 79.7073 45.2889 79.8552C45.3829 80.0031 45.6783 80.4736 45.9603 80.9039C46.2288 81.3206 46.4571 81.724 46.4571 81.7777C46.4571 81.8315 46.5511 81.966 46.6585 82.0735C46.7793 82.1945 46.8733 82.3424 46.8599 82.4096C46.8599 82.4903 46.5511 82.7592 46.1885 83.0146C45.8126 83.2835 45.2889 83.7944 45.007 84.1574C44.7116 84.5338 44.3356 85.1388 44.1476 85.5018C43.9731 85.8783 43.4763 87.142 43.0601 88.3251C42.6438 89.5082 42.2142 90.9064 42.1068 91.4173C41.9993 91.9416 41.8919 92.5332 41.8651 92.7348C41.8516 92.95 41.7711 93.1247 41.7039 93.1382C41.6234 93.1516 40.8581 92.3181 39.9719 91.2829C39.0991 90.2477 37.5282 88.2579 36.4675 86.8462C35.4202 85.448 34.3729 84.0229 34.158 83.6868C33.9298 83.3642 33.4867 82.7054 33.1644 82.2483C32.7885 81.7105 32.6139 81.361 32.6945 81.2937C32.7751 81.2265 33.339 80.7963 33.9701 80.3258C34.6011 79.8687 36.2258 78.7528 37.5953 77.852C38.9649 76.9512 40.2941 76.0908 40.5492 75.9295C40.9252 75.7009 41.2072 75.6471 41.9591 75.674ZM69.0545 76.037C71.1357 76.037 72.7872 76.0908 72.9752 76.158C73.1632 76.2387 73.4049 76.4807 73.5123 76.6958C73.6197 76.9244 73.7137 77.2605 73.7137 77.4352C73.7137 77.6235 73.5123 78.336 73.2706 79.0217C73.0155 79.7073 72.1696 82.0466 71.3774 84.2246C70.5852 86.416 69.7259 88.7688 69.4708 89.4679C69.2157 90.1804 68.8531 91.1081 68.6652 91.5518C68.4906 91.9954 68.0475 92.7617 67.6984 93.2323C67.2822 93.8104 66.7585 94.3213 66.1946 94.6977C65.7112 95.0069 64.9056 95.4103 64.382 95.5716C63.4689 95.8539 63.2944 95.8539 47.3298 95.8539L46.5376 95.4506C45.8931 95.1279 45.6649 94.9263 45.4098 94.4423C45.1412 93.9179 45.101 93.7163 45.1547 92.829C45.2084 92.0492 45.3963 91.3501 46.0274 89.6023C46.4705 88.3923 46.9539 87.142 47.1016 86.8462C47.2493 86.5505 47.5446 86.1471 47.7595 85.932C47.9609 85.7169 48.3771 85.4211 48.6725 85.2598C49.1693 84.9909 49.4513 84.964 52.432 84.9237C54.2044 84.8968 55.8962 84.9103 56.1916 84.9506C56.5272 85.0044 56.8898 85.1792 57.1315 85.4077C57.494 85.7573 57.5208 85.8245 57.4403 86.5774C57.4 87.021 57.2389 87.6932 57.0912 88.0562C56.9301 88.4327 56.5004 89.5754 56.1244 90.6107C55.7082 91.74 55.4531 92.6676 55.4799 92.8962C55.5202 93.2995 55.5471 93.313 56.3258 93.3533C57.024 93.3936 57.1717 93.3533 57.4537 93.0844C57.6148 92.9096 57.8834 92.466 58.0311 92.0895C58.1653 91.7265 58.5547 90.6644 58.8904 89.7368C59.226 88.8226 59.5751 87.8546 59.6826 87.5857C59.7766 87.3302 60.5016 85.3405 61.2938 83.1491C62.0726 80.9711 62.8513 78.8603 63.0124 78.4436C63.1736 78.0402 63.5495 77.4487 63.8449 77.1126C64.1403 76.7899 64.6237 76.4135 64.9191 76.279C65.4024 76.0639 65.8589 76.037 69.0545 76.037ZM89.1546 76.0774C95.1296 76.1042 95.2907 76.1043 96.0023 76.4C96.4051 76.5614 96.9825 76.8975 97.2645 77.1395C97.5598 77.3815 97.9492 77.8789 98.1372 78.2419C98.446 78.8334 98.4863 79.0754 98.4729 80.1913C98.4729 81.0114 98.3789 81.7643 98.2312 82.2752C98.0969 82.7188 97.3853 84.7489 96.6468 86.779C95.9218 88.8226 95.1027 91.0543 94.8476 91.7534C94.5925 92.466 94.2165 93.3936 94.0151 93.8238C93.8272 94.2541 93.4378 94.8053 93.1827 95.0473C92.9276 95.2758 92.4173 95.5716 92.0414 95.706C91.464 95.9077 90.9001 95.9346 87.9193 95.8943C84.6566 95.8674 84.4552 95.8405 84.0927 95.5716C83.8913 95.4237 83.663 95.0876 83.5959 94.8322C83.5019 94.4826 83.5422 94.1734 83.7838 93.434C83.945 92.9231 84.4418 91.5518 84.8714 90.3821C85.3145 89.2124 85.6636 88.2041 85.6636 88.1235C85.6636 88.0562 85.1802 87.989 84.4552 87.989C83.7973 87.989 83.2468 88.0159 83.2468 88.0293C83.2468 88.0428 82.7903 89.3334 82.2398 90.8795C81.6758 92.4391 81.0716 93.9717 80.8971 94.2809C80.7091 94.5902 80.3734 94.9935 80.1317 95.1683C79.89 95.3565 79.4067 95.5985 79.0576 95.706C78.5339 95.8808 77.7954 95.9212 75.1906 95.9212C72.8409 95.9212 71.8473 95.8808 71.5385 95.7464C71.2968 95.6523 70.988 95.4237 70.8672 95.2489C70.7329 95.0607 70.6255 94.7381 70.6255 94.5095C70.6255 94.2944 71.082 92.8424 71.6459 91.2829C72.1964 89.7368 72.9886 87.5588 73.378 86.4429C73.7808 85.3405 74.2642 84.0229 74.4522 83.5255C74.6401 83.0281 74.9892 82.208 75.2443 81.7105C75.4995 81.2131 75.9962 80.4199 76.3588 79.9359C76.7079 79.4653 77.2718 78.8334 77.6075 78.5511C77.9431 78.2553 78.5474 77.7982 78.9502 77.5428C79.353 77.2739 80.078 76.9244 80.5614 76.7361C81.0448 76.5614 81.7967 76.3194 82.2398 76.2253C82.8708 76.0908 84.4418 76.0505 89.1546 76.0774ZM86.5498 79.2233C86.4424 79.425 85.9053 80.8501 85.3414 82.3827C84.7774 83.9154 84.3209 85.2329 84.3209 85.3002C84.3209 85.3808 84.8043 85.448 85.5025 85.448H86.6706C87.3285 83.6196 87.8388 82.2349 88.2147 81.1996C88.5907 80.1644 88.8995 79.183 88.8861 79.0217C88.8861 78.82 88.7652 78.6721 88.5504 78.578C88.3624 78.5108 88.0805 78.457 87.9193 78.457C87.7448 78.457 87.4225 78.5511 87.1808 78.6587C86.9392 78.7662 86.6572 79.0217 86.5498 79.2233ZM113.86 76.037C119.056 76.037 122.883 76.0908 123.192 76.1715C123.487 76.2387 123.93 76.4269 124.172 76.6017C124.441 76.7899 124.696 77.1395 124.83 77.5025C124.991 77.9596 125.031 78.3495 124.978 78.9813C124.937 79.4653 124.709 80.4333 124.467 81.1324C124.226 81.845 123.769 82.934 123.447 83.5524C123.125 84.1843 122.547 85.0582 122.158 85.4884C121.675 86.0261 121.178 86.416 120.587 86.6984C119.728 87.1151 119.687 87.1151 117.365 87.1689C115.82 87.1958 114.948 87.263 114.827 87.3706C114.733 87.4512 114.599 87.7336 114.531 87.989C114.464 88.2848 114.464 88.5537 114.545 88.7016C114.652 88.9167 114.921 88.9301 117.19 88.9301C119.311 88.9301 119.781 88.9704 120.171 89.1721C120.426 89.3066 120.721 89.562 120.815 89.7368C120.909 89.925 120.963 90.288 120.936 90.5434C120.909 90.8123 120.654 91.6727 120.359 92.4794C120.063 93.2995 119.634 94.2003 119.365 94.5498C119.097 94.9128 118.627 95.3162 118.224 95.5178C117.593 95.8539 117.472 95.8539 115.136 95.8539C112.88 95.8539 112.679 95.8405 112.047 95.5447C111.685 95.3699 111.269 95.101 111.134 94.9397C111 94.7784 110.812 94.4557 110.705 94.2137C110.597 93.9717 110.503 93.4743 110.503 93.0978C110.503 92.7349 110.611 92.0895 110.732 91.6593C110.852 91.2291 111.202 90.1939 111.51 89.3334C111.833 88.4865 112.128 87.6529 112.168 87.4916C112.249 87.1958 112.222 87.1824 111.148 87.1824C110.396 87.1824 109.993 87.2361 109.899 87.3571C109.819 87.4512 109.631 87.8546 109.47 88.2579C109.308 88.6747 108.838 89.9653 108.409 91.1484C107.993 92.3315 107.549 93.5415 107.402 93.8373C107.267 94.1331 106.945 94.6036 106.69 94.8859C106.395 95.1952 105.925 95.4909 105.468 95.6523C104.81 95.8943 104.394 95.9212 101.507 95.9212C98.7414 95.9212 98.2043 95.8943 97.7344 95.6926C97.4256 95.5582 97.1302 95.3565 97.0631 95.222C96.9959 95.0876 96.9422 94.7649 96.9422 94.4826C96.9422 94.2003 97.3316 92.8962 97.815 91.5518C98.2983 90.2208 99.0771 88.0428 99.5605 86.7118C100.044 85.3808 100.769 83.3911 101.172 82.2752C101.574 81.1728 102.071 79.8149 102.286 79.2502C102.488 78.699 102.796 77.9865 102.957 77.6772C103.119 77.368 103.454 76.9512 103.696 76.7765C103.938 76.6017 104.34 76.3597 104.596 76.2387C104.998 76.0639 106.287 76.037 113.86 76.037ZM112.759 79.3578C112.638 79.6267 112.222 80.7022 111.846 81.7374C111.457 82.7726 111.121 83.8078 111.081 84.0229C111.014 84.3591 111.067 84.4666 111.322 84.6145C111.537 84.7355 111.846 84.7758 112.249 84.722C112.625 84.6817 112.974 84.5338 113.162 84.3322C113.323 84.1708 113.632 83.539 113.86 82.9474C114.075 82.3559 114.464 81.2669 114.733 80.5274C115.001 79.788 115.203 79.062 115.163 78.9141C115.122 78.7662 114.948 78.6049 114.773 78.5511C114.612 78.4973 114.317 78.457 114.129 78.457C113.941 78.457 113.618 78.5377 113.39 78.6452C113.162 78.7662 112.893 79.0486 112.759 79.3578ZM30.9087 82.8802C30.9624 82.8802 31.2444 83.2297 31.5264 83.6599C31.7949 84.0902 32.5334 85.1254 33.151 85.9724C33.7821 86.8328 34.8294 88.2176 35.5007 89.0646C36.1721 89.925 37.3805 91.377 38.1861 92.2912C38.9917 93.2188 39.945 94.2809 40.9386 95.3162L39.5019 96.6068C38.7097 97.3059 37.4745 98.5562 36.736 99.3629C36.0109 100.17 35.3665 100.855 35.2993 100.869C35.2322 100.882 34.1715 99.9813 32.9496 98.852C31.7143 97.7227 30.1031 96.1363 29.3646 95.3162C28.6261 94.5095 27.7803 93.5818 27.4714 93.2457C27.176 92.9231 26.3704 91.9551 25.6857 91.0946C25.0009 90.2477 24.437 89.441 24.437 89.3066C24.437 89.1721 25.4171 88.0697 26.6255 86.8328C27.8205 85.5959 29.2572 84.2112 29.7943 83.7406C30.3448 83.2701 30.8416 82.8802 30.9087 82.8802ZM23.4165 90.6779C23.4836 90.6779 23.8999 91.2156 24.3564 91.8475C24.8129 92.4928 26.0885 94.0255 27.2163 95.2489C28.3308 96.4724 30.2374 98.3815 31.4458 99.4839C32.6542 100.6 33.8224 101.648 34.0372 101.81C34.44 102.119 34.44 102.132 34.1983 102.482C34.064 102.684 33.6881 103.396 33.3658 104.055C33.0302 104.727 32.7079 105.588 32.6274 105.977C32.5468 106.381 32.426 106.677 32.332 106.677C32.238 106.677 31.1638 105.883 29.942 104.902C28.6933 103.907 26.7598 102.159 25.4977 100.909C24.2758 99.6856 22.8123 98.126 22.2484 97.4404C21.6442 96.7144 21.2145 96.069 21.2145 95.8943C21.2145 95.7329 21.3353 95.101 21.4965 94.5095C21.6442 93.9179 21.953 93.071 22.1812 92.6273C22.4229 92.1836 22.7586 91.5652 22.9466 91.256C23.1345 90.9468 23.3494 90.6779 23.4165 90.6779ZM68.1818 97.279C68.1952 97.279 68.3966 97.4538 68.6115 97.6689C68.8397 97.8975 69.0143 98.1395 69.0143 98.2067C69.0143 98.2873 67.7924 98.9596 63.5764 101.07L62.811 100.21C62.3948 99.7393 62.0725 99.3091 62.1128 99.2553C62.1397 99.2016 62.3814 99.1478 62.6365 99.1478C62.8916 99.1478 63.5227 99.0671 64.0195 98.9596C64.5162 98.852 65.3084 98.6369 65.7918 98.489C66.2752 98.3411 67.0002 98.005 67.403 97.7496C67.8058 97.5076 68.1549 97.2925 68.1818 97.279ZM42.9929 97.5479L43.8254 98.2873C44.2819 98.6907 45.4635 99.7393 46.4436 100.6C47.4372 101.474 48.8202 102.63 49.5318 103.195C50.2435 103.746 51.4519 104.66 52.2306 105.211C53.0094 105.762 53.8687 106.367 54.1507 106.556C54.4192 106.73 54.6475 106.959 54.6475 107.053C54.6475 107.147 54.6072 107.214 54.5535 107.214C54.4998 107.214 53.8687 107.752 53.1705 108.397C52.4723 109.056 51.6533 109.917 51.3579 110.293C51.0625 110.67 50.7537 110.992 50.6597 110.992C50.5657 110.992 50.0555 110.764 49.5184 110.495C48.9813 110.226 47.6386 109.5 46.5242 108.868C45.4232 108.236 43.5166 107.053 42.2947 106.246C41.0729 105.426 39.5556 104.364 38.8977 103.88C38.2532 103.383 37.7296 102.926 37.7296 102.845C37.7296 102.778 38.0518 102.361 38.4412 101.917C38.8306 101.474 39.5691 100.694 40.0793 100.17C40.6029 99.6587 41.4623 98.8654 42.0128 98.3949L42.9929 97.5479ZM94.8879 97.8168C94.9147 97.8168 95.2101 98.005 95.5592 98.2336C95.9083 98.4756 96.2172 98.6772 96.2306 98.7041C96.2574 98.731 95.8681 99.5242 95.3847 100.465C94.8879 101.406 94.1091 102.818 93.6526 103.598C93.1827 104.364 92.6859 105.104 92.5516 105.225C92.3636 105.386 91.9205 105.467 90.7927 105.534C89.826 105.574 89.2889 105.561 89.2889 105.48C89.2889 105.399 89.3426 105.238 89.4097 105.104C89.4769 104.969 89.7588 104.149 90.0274 103.262C90.2959 102.374 90.6718 101.097 90.8464 100.438C91.0209 99.7662 91.1821 99.215 91.1955 99.215C91.2223 99.2016 91.7729 99.0671 92.4442 98.9058C93.1424 98.731 93.9077 98.4487 94.2568 98.2201C94.5791 98.005 94.8745 97.8302 94.8879 97.8168ZM21.4428 97.9512C21.4965 97.9512 22.7586 99.2016 24.249 100.734C25.7259 102.267 27.5117 103.988 28.2099 104.552C28.8947 105.117 29.7943 105.856 30.2105 106.179C30.6133 106.502 31.2712 107.013 31.6875 107.308C32.3051 107.766 32.4394 107.927 32.5199 108.411C32.5737 108.72 32.7079 109.15 32.8288 109.379C32.9496 109.621 32.9765 109.809 32.8959 109.849C32.8153 109.876 32.6408 109.836 32.5065 109.742C32.3588 109.648 31.4726 108.949 30.5193 108.169C29.566 107.389 27.4983 105.453 25.8871 103.8C24.2893 102.173 22.7452 100.533 22.4498 100.17C22.1678 99.7931 21.7919 99.2016 21.6307 98.852C21.4696 98.5025 21.3488 98.1529 21.3488 98.0857C21.3488 98.005 21.3891 97.9512 21.4428 97.9512ZM81.6355 98.2067C81.6758 98.247 81.8907 99.2822 82.0921 100.506C82.3069 101.716 82.4949 102.993 82.5217 103.329C82.5486 103.652 82.6694 104.62 82.7768 105.48C82.8977 106.327 82.9648 107.08 82.938 107.161C82.9111 107.228 82.7097 107.335 82.4949 107.403C82.28 107.456 81.4207 107.779 80.5882 108.102C79.7558 108.438 79.0039 108.707 78.9099 108.707C78.8159 108.707 78.5608 108.33 78.346 107.86C78.1177 107.389 77.0435 105.305 75.956 103.221C74.8684 101.138 73.9822 99.3629 73.9822 99.2957C73.9822 99.2016 74.8147 99.1612 76.2245 99.1612C77.7955 99.1612 78.7622 99.094 79.4201 98.9461C79.9303 98.8251 80.6285 98.5966 80.9508 98.4352C81.2864 98.2739 81.5953 98.1663 81.6355 98.2067ZM83.7704 98.9596C83.9584 99.0133 85.3951 99.0806 89.826 99.1612L89.7588 99.6587C89.732 99.941 89.5306 100.896 89.3023 101.783C89.0875 102.67 88.7518 103.934 88.5504 104.606C88.349 105.265 88.161 105.856 88.1342 105.91C88.1073 105.964 87.8253 106.045 87.5031 106.098C87.1943 106.139 86.2947 106.34 85.5293 106.556C84.7506 106.757 84.0658 106.905 84.0121 106.878C83.9584 106.838 83.9047 106.435 83.9047 105.977C83.9047 105.52 83.851 104.23 83.7838 103.127C83.7167 102.011 83.5959 100.654 83.5287 100.102C83.4482 99.5377 83.3945 99.0402 83.3945 98.973C83.4079 98.9058 83.569 98.9058 83.7704 98.9596ZM97.0899 99.0537L98.7951 99.1209C99.7216 99.1478 100.567 99.2016 100.661 99.2284C100.782 99.2688 100.742 99.4167 100.527 99.7259C100.366 99.9544 99.7484 100.788 99.1576 101.568C98.5803 102.348 97.5598 103.611 96.9154 104.364C95.9486 105.493 95.6801 105.735 95.425 105.682C95.2638 105.655 94.7805 105.588 94.3508 105.547C93.9346 105.507 93.5586 105.426 93.5183 105.372C93.4915 105.319 93.8809 104.62 94.3911 103.826C94.9013 103.033 95.3176 102.334 95.3176 102.28C95.3176 102.227 95.425 102.025 95.5727 101.85C95.7069 101.662 96.1097 100.949 96.4588 100.277L97.0899 99.0537ZM59.414 99.1881L60.6493 100.586C61.3341 101.353 61.8711 102.025 61.8443 102.079C61.8174 102.146 61.2267 102.522 60.5285 102.939C59.8437 103.369 58.5413 104.23 57.6282 104.862C56.7286 105.493 55.9096 105.991 55.8156 105.964C55.7216 105.937 54.8623 105.319 53.909 104.606C52.9423 103.88 51.801 102.979 51.3579 102.603C50.9148 102.227 49.9481 101.406 49.223 100.775C48.498 100.143 47.84 99.5242 47.7729 99.3898C47.6521 99.1747 47.9609 99.1612 59.414 99.1881ZM101.789 99.1612H103.119C103.87 99.1612 104.488 99.215 104.528 99.2957C104.555 99.3629 104.34 99.7124 104.032 100.062C103.709 100.425 102.85 101.393 102.112 102.24C101.373 103.087 100.004 104.458 97.4121 106.798L96.9154 106.448C96.6334 106.246 96.4051 106.018 96.4051 105.951C96.4051 105.87 96.6737 105.547 96.9959 105.211C97.3182 104.875 98.2312 103.786 99.0368 102.791C99.8424 101.796 100.782 100.573 101.145 100.062L101.789 99.1612ZM72.2233 99.7124C72.2501 99.7124 72.7335 100.533 73.284 101.554C73.8479 102.576 74.761 104.163 75.3249 105.077C75.8888 106.004 76.6944 107.295 77.1107 107.94C77.5269 108.586 77.8626 109.137 77.8357 109.164C77.8223 109.191 76.9898 109.621 74.1836 111.019L73.5123 110.535C73.1363 110.266 72.5053 109.769 72.1024 109.419C71.6996 109.07 70.6792 108.169 69.8199 107.416C68.974 106.663 67.6044 105.399 66.7988 104.62C65.3756 103.262 65.3353 103.195 65.5904 102.993C65.7381 102.885 66.7048 102.361 67.7387 101.823C68.7726 101.299 70.1958 100.613 70.894 100.291C71.5922 99.9813 72.1964 99.7124 72.2233 99.7124ZM64.0463 103.88C64.0866 103.88 64.476 104.23 64.9191 104.646C65.3756 105.077 66.2483 105.883 66.866 106.435C67.497 106.999 68.7054 107.994 69.5513 108.666C70.3972 109.325 71.5654 110.186 72.1293 110.575C72.7067 110.952 73.1766 111.355 73.1766 111.463C73.1766 111.584 73.1363 111.664 73.0692 111.664C73.0155 111.664 72.3844 112.054 70.3569 113.412L69.3768 113.076C68.8531 112.874 67.7387 112.444 66.9331 112.108C66.114 111.785 64.7042 111.127 63.7778 110.67C62.8513 110.212 61.3475 109.392 60.421 108.855C59.4946 108.317 58.6621 107.819 58.5681 107.725C58.4339 107.604 58.5681 107.456 59.1723 107.013C59.602 106.703 60.8507 105.87 61.9651 105.157C63.0661 104.458 64.006 103.88 64.0463 103.88ZM36.7763 104.149C36.8166 104.149 37.3671 104.512 37.9981 104.969C38.6292 105.426 39.8913 106.287 40.8178 106.892C41.7442 107.497 43.3957 108.492 44.5102 109.123C45.6112 109.742 47.3298 110.629 48.2966 111.086C49.2767 111.557 50.0689 111.987 50.0421 112.041C50.0286 112.095 49.7869 112.579 49.505 113.116C49.2364 113.654 48.9679 114.367 48.9008 114.703C48.8202 115.187 48.7531 115.308 48.5382 115.308C48.3905 115.308 48.2026 115.254 48.1354 115.187C48.0549 115.133 47.5178 114.904 46.927 114.703C46.3362 114.501 45.5172 114.179 45.1144 113.99C44.7116 113.816 44.0671 113.533 43.7046 113.399C43.3286 113.251 42.0933 112.659 40.952 112.081C39.8108 111.517 38.2935 110.696 37.5953 110.266C36.8971 109.836 36.1049 109.365 35.8498 109.218C35.5947 109.083 35.2725 108.855 35.1516 108.734C34.9234 108.518 34.9234 108.465 35.1919 107.497C35.3396 106.945 35.7558 105.964 36.0915 105.319C36.4272 104.673 36.736 104.149 36.7763 104.149ZM90.1213 107.658C90.7121 107.645 90.8732 107.685 90.8061 107.806C90.7524 107.9 90.1616 108.639 89.4769 109.446C88.8055 110.266 87.8119 111.355 87.2883 111.866C86.7646 112.39 86.335 112.861 86.335 112.915C86.335 112.969 86.4155 113.009 86.5229 113.009C86.6304 113.009 87.4225 112.296 88.2953 111.409C89.1815 110.535 90.2825 109.325 91.6386 107.631L92.5113 107.698C92.9947 107.739 93.4109 107.806 93.4512 107.833C93.4915 107.873 93.1558 108.223 92.7127 108.626C92.2696 109.029 91.5983 109.634 91.2358 109.97C90.8598 110.307 90.5242 110.589 90.457 110.589C90.4033 110.589 90.363 110.67 90.363 110.764C90.3496 110.858 90.1348 111.033 89.8528 111.167C89.5843 111.288 89.1949 111.543 88.9801 111.732C88.7787 111.92 88.5773 112.081 88.5101 112.081C88.4564 112.081 88.2147 112.269 87.973 112.485C87.7448 112.7 87.4762 112.874 87.4091 112.874C87.3285 112.874 87.2748 112.942 87.2748 113.009C87.2748 113.09 87.3554 113.143 87.436 113.143C87.53 113.143 87.973 112.874 88.4161 112.565C88.8592 112.243 89.356 111.933 89.5171 111.893C89.6917 111.839 89.8528 111.718 89.8931 111.597C89.9334 111.49 90.0542 111.396 90.1616 111.396C90.269 111.396 90.363 111.342 90.363 111.261C90.363 111.194 90.6853 110.898 91.0612 110.602C91.4506 110.307 91.8937 109.97 92.0414 109.836C92.1891 109.702 92.7127 109.244 93.2095 108.814C93.9749 108.169 94.1628 108.061 94.418 108.155C94.5925 108.223 94.8073 108.371 94.8879 108.492C95.0356 108.68 94.9819 108.774 94.5522 109.097C94.2837 109.312 93.4781 109.863 92.7799 110.333C92.0817 110.817 91.3835 111.261 91.2358 111.355C91.0881 111.436 90.5779 111.745 90.0945 112.041C89.6111 112.337 88.8324 112.78 88.349 113.036C87.8656 113.305 87.3823 113.479 87.2748 113.453C87.1674 113.412 87.0332 113.479 86.966 113.6C86.9123 113.721 86.6706 113.91 86.4289 114.004C86.2007 114.111 85.8382 114.259 85.6233 114.34C85.4219 114.421 85.0997 114.501 84.8849 114.501C84.6834 114.501 84.482 114.461 84.4149 114.394C84.3612 114.34 84.4015 114.219 84.482 114.125C84.576 114.031 84.6163 113.91 84.5626 113.856C84.5089 113.802 84.3612 113.842 84.2538 113.95C84.1329 114.071 84.039 114.246 84.0524 114.353C84.0524 114.474 83.9718 114.636 83.851 114.73C83.7436 114.824 83.6093 114.878 83.5422 114.837C83.4885 114.81 83.5287 114.34 83.6227 113.802C83.7033 113.251 83.8107 112.323 83.8376 111.732C83.8778 111.14 83.9047 110.28 83.9047 109.823C83.9181 109.164 83.9718 108.949 84.1464 108.855C84.2806 108.787 85.0191 108.572 85.7979 108.384C86.5766 108.196 87.2346 108.061 87.2748 108.102C87.3151 108.142 87.2614 108.371 87.154 108.613C87.0466 108.855 86.6169 109.742 86.2007 110.589C85.7845 111.449 85.2742 112.404 85.0863 112.713C84.8849 113.022 84.7237 113.345 84.7237 113.412C84.7237 113.493 84.7774 113.533 84.858 113.52C84.9251 113.506 85.3816 112.874 85.8784 112.135C86.3618 111.396 87.0869 110.132 88.2281 107.833L88.7921 107.766C89.1009 107.712 89.7051 107.671 90.1213 107.658ZM57.3329 108.572C57.4134 108.572 57.8699 108.814 58.3667 109.097C58.877 109.392 60.3002 110.132 61.5623 110.75C62.811 111.369 64.0866 111.974 64.382 112.108C64.6774 112.229 65.2144 112.458 65.5904 112.619C65.9529 112.767 66.9868 113.143 67.873 113.439C68.7591 113.735 69.5111 114.004 69.5513 114.044C69.5916 114.071 69.1888 114.515 68.6786 115.039C67.8998 115.819 67.6581 115.98 67.2956 115.98C67.0674 115.98 66.4229 115.886 65.8858 115.778C65.3621 115.684 64.6774 115.55 64.382 115.496C64.0866 115.442 63.7778 115.375 63.7106 115.362C63.6301 115.348 62.999 115.2 62.3008 115.039C61.6026 114.891 60.6896 114.663 60.2868 114.542C59.884 114.434 58.8769 114.125 58.0713 113.856C57.2523 113.6 55.9633 113.143 55.1846 112.848C54.4058 112.565 53.721 112.283 53.6673 112.229C53.6136 112.189 53.9493 111.718 54.4058 111.207C54.8757 110.696 55.6948 109.903 56.2318 109.433C56.7689 108.962 57.2657 108.572 57.3329 108.572ZM83.0454 109.177C83.1259 109.191 83.1796 110.266 83.1796 112.041C83.1796 113.748 83.1259 114.945 83.0454 115.025C82.9514 115.133 82.7231 114.918 82.3069 114.326C81.9712 113.869 81.2999 112.807 80.7896 111.974C80.2929 111.14 79.9303 110.414 79.9706 110.36C80.0109 110.307 80.6957 110.011 81.4744 109.702C82.2666 109.392 82.9648 109.164 83.0454 109.177ZM35.353 109.742C35.447 109.796 35.8095 110.038 36.1855 110.266C36.548 110.508 37.1925 110.885 37.5953 111.127C37.9981 111.355 39.4751 112.108 40.8849 112.807C42.2813 113.493 44.2551 114.38 45.2486 114.77C46.2422 115.146 47.4372 115.577 47.8937 115.725C48.5785 115.926 48.7665 116.047 48.8873 116.343C48.9679 116.545 49.1693 117.002 49.3573 117.351C49.5453 117.728 49.6258 118.024 49.5453 118.05C49.4647 118.091 49.1559 118.064 48.8336 117.997C48.5248 117.929 47.5178 117.593 46.5913 117.271C45.6649 116.948 44.443 116.491 43.8657 116.262C43.3017 116.034 42.7244 115.778 42.5901 115.711C42.4693 115.644 41.61 115.214 40.6835 114.757C39.757 114.3 38.8172 113.829 38.6023 113.708C38.3741 113.6 37.8101 113.251 37.3268 112.955C36.8434 112.646 36.2526 112.148 36.0109 111.866C35.7693 111.57 35.4604 111.019 35.3127 110.629C35.165 110.239 35.0845 109.863 35.1248 109.782C35.165 109.715 35.2725 109.688 35.353 109.742ZM78.9502 110.737C78.9904 110.737 79.1784 110.992 79.3798 111.301C79.5678 111.611 80.3063 112.592 81.0179 113.479C82.1726 114.945 82.28 115.12 82.0652 115.268C81.9444 115.362 81.7967 115.442 81.7295 115.442C81.6758 115.442 81.6624 115.348 81.7027 115.227C81.7564 115.079 81.5147 114.945 80.7896 114.676C80.266 114.474 79.3127 114.058 78.6816 113.735C78.0506 113.412 77.2315 112.969 76.869 112.753C76.493 112.538 76.1842 112.296 76.1574 112.216C76.1439 112.135 76.7482 111.772 77.5001 111.396C78.252 111.033 78.9099 110.737 78.9502 110.737ZM75.3115 112.646C75.3652 112.659 76.0231 112.995 76.8019 113.385C77.5806 113.775 78.7756 114.313 79.4738 114.595C80.172 114.878 80.7762 115.187 80.8165 115.281C80.8836 115.442 80.7359 115.469 80.0914 115.442C79.6484 115.415 79.2456 115.415 79.1784 115.415C79.1247 115.429 79.1918 115.536 79.3127 115.657C79.5141 115.846 79.7021 115.872 80.3868 115.792C81.0179 115.725 81.2327 115.751 81.2327 115.872C81.2327 115.967 80.9105 116.222 80.5211 116.437C80.1452 116.666 79.7692 116.867 79.6886 116.894C79.6081 116.921 79.3664 117.029 79.1516 117.123C78.9233 117.217 77.9566 117.54 77.0033 117.835C76.0365 118.131 74.7744 118.508 74.1836 118.655C73.5928 118.803 72.4381 119.045 70.1555 119.489L69.9139 119.18C69.7796 119.005 69.6722 118.817 69.6722 118.763C69.6856 118.709 69.7662 118.642 69.8467 118.615C69.9407 118.575 70.8672 118.454 71.901 118.333C72.9349 118.212 74.0762 118.05 74.4522 117.983C74.8147 117.916 75.7277 117.741 76.4662 117.58C77.2047 117.432 77.8492 117.257 77.9029 117.203C77.9566 117.163 77.8223 117.096 77.594 117.082C77.3792 117.069 77.057 117.109 76.869 117.177C76.681 117.257 75.9157 117.405 75.1504 117.526C74.3984 117.634 73.3511 117.782 72.8409 117.849C72.3173 117.916 71.4042 118.01 69.6856 118.118L69.7662 117.755C69.8064 117.553 69.9273 117.244 70.0347 117.082C70.2227 116.787 70.263 116.787 72.8678 116.787C74.3313 116.787 75.9962 116.746 76.5602 116.693C77.1375 116.625 77.6075 116.545 77.6075 116.504C77.6075 116.477 76.1305 116.437 74.3179 116.437C72.3173 116.437 70.988 116.397 70.894 116.303C70.8 116.222 70.988 115.94 72.2367 114.689L72.7335 114.851C73.0155 114.945 74.0225 115.133 74.9892 115.281C75.9425 115.429 77.1375 115.59 77.6343 115.63C78.2385 115.684 78.5742 115.657 78.6413 115.55C78.7085 115.469 78.6548 115.348 78.5474 115.281C78.4399 115.227 78.252 115.2 78.1445 115.241C78.0371 115.281 77.2449 115.187 76.3991 115.025C75.5532 114.878 74.4522 114.663 73.9419 114.555C73.4183 114.434 73.0423 114.286 73.0423 114.192C73.0423 114.098 73.5391 113.708 74.1433 113.318C74.7475 112.928 75.2712 112.619 75.3115 112.646ZM52.9825 113.143C53.0094 113.143 53.533 113.332 54.1373 113.56C54.7549 113.789 55.7619 114.125 56.393 114.326C57.024 114.515 58.0445 114.81 58.6755 114.985C59.3066 115.16 60.6627 115.483 61.6966 115.711C62.7305 115.926 64.4223 116.235 65.4561 116.397C66.49 116.545 67.3627 116.693 67.403 116.719C67.4433 116.76 67.3762 116.881 67.2553 117.015C67.1345 117.15 66.9599 117.472 66.8794 117.755C66.7988 118.037 66.6243 118.306 66.49 118.346C66.3692 118.4 65.3219 118.373 64.1806 118.279C63.0393 118.198 61.4952 118.064 60.7567 117.997C60.0182 117.916 58.689 117.741 57.8028 117.58C56.9166 117.432 55.4934 117.15 54.6475 116.961C53.8016 116.787 52.7811 116.545 52.3918 116.437C51.8144 116.276 51.6936 116.195 51.6936 115.94C51.6936 115.778 51.7875 115.362 51.895 115.025C52.0158 114.703 52.2978 114.138 52.5126 113.789C52.7409 113.439 52.9423 113.143 52.9825 113.143ZM51.8278 116.908C51.895 116.908 52.4052 117.042 52.9288 117.19C53.4659 117.338 54.6072 117.58 55.4531 117.728C56.299 117.876 57.7222 118.091 58.6084 118.198C59.4946 118.306 60.7567 118.454 61.4281 118.534C62.086 118.602 63.5361 118.655 66.6646 118.669L66.9599 119.207C67.1882 119.61 67.2285 119.758 67.0942 119.825C67.0137 119.879 65.577 119.946 63.912 119.986C62.086 120.027 60.0317 119.973 58.7427 119.879C57.5611 119.785 55.7753 119.556 54.7817 119.381C53.2377 119.099 52.9154 118.992 52.5797 118.682C52.3783 118.494 52.0829 118.104 51.9487 117.822C51.801 117.54 51.6936 117.23 51.6936 117.109C51.6936 117.002 51.7473 116.908 51.8278 116.908Z" fill="#181818"/>
</svg>
