<svg width="167" height="47" viewBox="0 0 167 47" fill="none" xmlns="http://www.w3.org/2000/svg">
<mask id="mask0_21718_29037" style="mask-type:alpha" maskUnits="userSpaceOnUse" x="0" y="0" width="167" height="47">
<path d="M0 23.5C0 10.5213 10.5213 0 23.5 0H143.5C156.479 0 167 10.5213 167 23.5C167 36.4787 156.479 47 143.5 47H23.5C10.5213 47 0 36.4787 0 23.5Z" fill="url(#paint0_linear_21718_29037)"/>
</mask>
<g mask="url(#mask0_21718_29037)">
</g>
<g clip-path="url(#clip0_21718_29037)">
<path fill-rule="evenodd" clip-rule="evenodd" d="M58.4241 11.0732C59.1497 11.8137 54.2864 17.9777 47.5617 24.8408C40.837 31.704 34.7973 36.6673 34.0717 35.9268C33.6599 35.5065 35.0484 33.3391 37.5557 30.2886C37.2848 29.9202 37.0377 29.5357 36.8154 29.138C35.8977 27.4955 35.4029 25.6237 35.4029 23.6998C35.4029 20.7883 36.5362 17.996 38.5534 15.9373C40.5707 13.8785 43.3067 12.7219 46.1595 12.7219C48.0446 12.7219 49.8786 13.2269 51.488 14.1635C51.8677 14.3845 52.2349 14.6295 52.5874 14.8976C55.7402 12.1698 57.9981 10.6384 58.4241 11.0732ZM41.2762 26.0198C42.4084 24.7816 43.6366 23.4834 44.9341 22.1591C46.1261 20.9426 47.2965 19.7858 48.4197 18.7099C47.7178 18.3788 46.9475 18.2025 46.1595 18.2025C44.7309 18.2025 43.3608 18.7817 42.3507 19.8126C41.3405 20.8436 40.773 22.2418 40.773 23.6998C40.773 24.5091 40.9479 25.3 41.2762 26.0198ZM40.1757 32.8215C40.2275 32.8568 40.2796 32.8918 40.3319 32.9262C42.0561 34.0605 44.077 34.6773 46.1602 34.6773C49.013 34.6773 51.7489 33.5207 53.7662 31.462C55.7834 29.4032 56.9168 26.6109 56.9168 23.6994C56.9168 21.5733 56.3125 19.5109 55.201 17.7511C55.1773 17.7138 55.1536 17.6766 55.1295 17.6396C54.6646 18.2554 54.1582 18.8985 53.6145 19.5627C54.2849 20.821 54.6452 22.2412 54.6452 23.6994C54.6452 25.9961 53.7513 28.1986 52.16 29.8226C50.5688 31.4466 48.4106 32.359 46.1602 32.359C44.7179 32.359 43.3135 31.9842 42.072 31.2876C41.4152 31.8407 40.781 32.3535 40.1757 32.8215ZM42.8442 30.6276C43.8673 31.1376 45 31.41 46.1602 31.41C48.1639 31.41 50.0856 30.5977 51.5024 29.1516C52.9193 27.7056 53.7153 25.7443 53.7153 23.6994C53.7153 22.5272 53.4538 21.3825 52.9637 20.3467C52.4273 20.9842 51.8593 21.6382 51.2637 22.3036C51.3823 22.755 51.4438 23.2239 51.4438 23.6994C51.4438 25.1295 50.8871 26.5011 49.8962 27.5123C48.9054 28.5235 47.5615 29.0917 46.1602 29.0917C45.6867 29.0917 45.2197 29.0269 44.7708 28.9019C44.1146 29.5081 43.4707 30.0844 42.8442 30.6276Z" fill="black"/>
<path fill-rule="evenodd" clip-rule="evenodd" d="M86.0176 30.6818V16.3181H88.2287V20.4914H91.4609C93.4394 20.4914 94.4283 21.5136 94.4283 23.5582V27.615C94.4283 29.6595 93.4394 30.6818 91.4609 30.6818H86.0176ZM88.2287 28.7019H91.3475C91.9272 28.7019 92.2172 28.4043 92.2172 27.8091V23.3641C92.2172 22.7688 91.9272 22.4712 91.3475 22.4712H88.2287V28.7019Z" fill="black"/>
<path fill-rule="evenodd" clip-rule="evenodd" d="M63.041 17.2886V30.6817H65.347V26.1785H69.3162C71.3701 26.1785 72.3973 25.1304 72.3973 23.034V20.4525C72.3973 18.3432 71.3701 17.2886 69.3162 17.2886H63.041ZM69.2595 24.024H65.347V19.4431H69.2595C69.8139 19.4431 70.0912 19.7213 70.0912 20.2778V23.1699C70.0912 23.7393 69.8139 24.024 69.2595 24.024Z" fill="black"/>
<path d="M74.7744 20.4915V27.615C74.7744 29.6596 75.7698 30.6819 77.7606 30.6819H83.1855V20.4915H80.974V28.702H77.8553C77.2756 28.702 76.9859 28.4044 76.9859 27.8092V20.4915H74.7744Z" fill="black"/>
<path d="M97.0352 16.3181V30.6818H99.2467V16.3181H97.0352Z" fill="black"/>
<path d="M102.039 18.7251V16.4153H104.364V18.7251H102.039Z" fill="black"/>
<path d="M102.096 30.6819V20.4915H104.307V30.6819H102.096Z" fill="black"/>
<path d="M106.983 23.5583V27.615C106.983 29.6596 107.979 30.6819 109.97 30.6819H114.544V28.702H110.064C109.485 28.702 109.195 28.4044 109.195 27.8092V23.3642C109.195 22.7689 109.485 22.4713 110.064 22.4713H114.544V20.4915H109.97C107.979 20.4915 106.983 21.5137 106.983 23.5583Z" fill="black"/>
<path fill-rule="evenodd" clip-rule="evenodd" d="M121.312 16.3865L116.741 30.6134H119.373L120.342 27.4794H126.098L127.047 30.6134H129.641L125.149 16.3865H121.312ZM125.432 25.1907H121.029L123.028 18.6751H123.412L125.432 25.1907Z" fill="black"/>
<path d="M131.536 16.3865V30.6134H134V16.3865H131.536Z" fill="black"/>
</g>
<defs>
<linearGradient id="paint0_linear_21718_29037" x1="83.5" y1="0" x2="83.5" y2="47" gradientUnits="userSpaceOnUse">
<stop stop-color="#FFF200"/>
<stop offset="0.995" stop-color="#FFE169"/>
</linearGradient>
<clipPath id="clip0_21718_29037">
<rect width="100" height="25" fill="white" transform="translate(34 11)"/>
</clipPath>
</defs>
</svg>
