<svg width="167" height="47" viewBox="0 0 167 47" fill="none" xmlns="http://www.w3.org/2000/svg">
<mask id="mask0_21614_9199" style="mask-type:alpha" maskUnits="userSpaceOnUse" x="0" y="0" width="167" height="47">
<path d="M0 23.5C0 10.5213 10.5213 0 23.5 0H143.5C156.479 0 167 10.5213 167 23.5C167 36.4787 156.479 47 143.5 47H23.5C10.5213 47 0 36.4787 0 23.5Z" fill="url(#paint0_linear_21614_9199)"/>
</mask>
<g mask="url(#mask0_21614_9199)">
<path fill-rule="evenodd" clip-rule="evenodd" d="M93.4702 23.5723L100.096 31.7852C100.149 31.85 100.216 31.9018 100.292 31.9368C100.369 31.9718 100.452 31.989 100.536 31.9871H104.246C104.338 31.9968 104.431 31.9796 104.513 31.9377C104.596 31.8957 104.665 31.8308 104.711 31.7507C104.757 31.6706 104.779 31.5789 104.774 31.4866C104.769 31.3944 104.737 31.3055 104.683 31.2308L98.5139 23.5723C98.3629 23.3858 98.2842 23.1514 98.2925 22.9118C98.3007 22.6723 98.3954 22.4437 98.5589 22.2681L104.567 15.7855C104.63 15.7131 104.67 15.6232 104.681 15.5278C104.692 15.4324 104.673 15.336 104.628 15.2513C104.583 15.1665 104.513 15.0975 104.427 15.0533C104.342 15.0091 104.245 14.9918 104.149 15.0037H100.513C100.435 15.0025 100.358 15.0176 100.286 15.0479C100.214 15.0783 100.149 15.1232 100.096 15.1799L93.5152 22.2649C93.352 22.4414 93.2577 22.6704 93.2495 22.9103C93.2412 23.1502 93.3195 23.3851 93.4702 23.5723ZM66.2744 15.0037H63.9277C63.5106 15.0037 63.1723 15.3409 63.1723 15.7568V31.2342C63.1723 31.6501 63.5106 31.9872 63.9277 31.9872H66.2744C66.6916 31.9872 67.0299 31.6501 67.0299 31.2342V15.7568C67.0299 15.3409 66.6916 15.0037 66.2744 15.0037ZM122 24.1108V22.6208C122 22.1925 121.652 21.8453 121.222 21.8453H111.527C111.097 21.8453 110.749 22.1925 110.749 22.6208V24.1108C110.749 24.5391 111.097 24.8863 111.527 24.8863H121.222C121.652 24.8863 122 24.5391 122 24.1108ZM122 29.7184V31.2085C122 31.6368 121.652 31.9839 121.222 31.9839H111.527C111.097 31.9839 110.749 31.6368 110.749 31.2085V29.7184C110.749 29.2902 111.097 28.943 111.527 28.943H121.222C121.652 28.943 122 29.2902 122 29.7184ZM121.997 17.2692V15.7792C121.997 15.3509 121.649 15.0037 121.219 15.0037H111.524C111.094 15.0037 110.746 15.3509 110.746 15.7792V17.2692C110.746 17.6975 111.094 18.0447 111.524 18.0447H121.219C121.649 18.0447 121.997 17.6975 121.997 17.2692ZM81.6693 15.0037C84.0481 15.0037 87.2274 16.6604 87.282 22.5373V22.5662V31.3463C87.282 31.5163 87.2144 31.6793 87.0937 31.7995C86.9732 31.9197 86.8097 31.9872 86.6392 31.9872H84.0674C83.8969 31.9872 83.7334 31.9197 83.6128 31.7995C83.4923 31.6793 83.4245 31.5163 83.4245 31.3463V23.3352C83.4245 18.849 81.2128 18.849 80.2099 18.849H77.9596C77.7891 18.849 77.6256 18.9166 77.505 19.0367C77.3844 19.1569 77.3167 19.3199 77.3167 19.4899V31.3463C77.3167 31.5163 77.249 31.6793 77.1284 31.7995C77.0078 31.9197 76.8443 31.9872 76.6738 31.9872H74.1021C73.9316 31.9872 73.768 31.9197 73.6475 31.7995C73.5269 31.6793 73.4591 31.5163 73.4591 31.3463V17.2116C73.4587 16.9215 73.5157 16.6342 73.6269 16.3662C73.7381 16.0981 73.9012 15.8545 74.107 15.6494C74.3126 15.4443 74.557 15.2817 74.8259 15.1709C75.0949 15.0601 75.383 15.0033 75.674 15.0037H81.6693ZM48.5801 15.2675C48.4107 15.0986 48.181 15.0037 47.9414 15.0037H45.9033C45.6637 15.0037 45.434 15.0986 45.2646 15.2675C45.0952 15.4363 45 15.6653 45 15.9042V24.5882C45 28.8821 47.0895 32 52.4322 32H56.023C56.2625 32 56.4923 31.9051 56.6617 31.7362C56.8311 31.5674 56.9263 31.3384 56.9263 31.0995V28.8276C56.9263 28.5888 56.8311 28.3598 56.6617 28.1909C56.4923 28.022 56.2625 27.9271 56.023 27.9271H52.6412C49.4876 27.9271 48.8447 26.6261 48.8447 24.5561V15.9042C48.8447 15.6653 48.7495 15.4363 48.5801 15.2675Z" fill="black"/>
</g>
<defs>
<linearGradient id="paint0_linear_21614_9199" x1="80.732" y1="0" x2="80.732" y2="47" gradientUnits="userSpaceOnUse">
<stop stop-color="#FFE169"/>
<stop offset="0.99" stop-color="#F7B72E"/>
</linearGradient>
</defs>
</svg>
