<svg width="167" height="47" viewBox="0 0 167 47" fill="none" xmlns="http://www.w3.org/2000/svg">
<mask id="mask0_22001_2419" style="mask-type:alpha" maskUnits="userSpaceOnUse" x="0" y="0" width="167" height="47">
<rect width="167" height="47" rx="23.5" fill="url(#paint0_linear_22001_2419)"/>
</mask>
<g mask="url(#mask0_22001_2419)">
<path d="M56.3673 33.8008C56.0565 34.0398 55.7458 34.3028 55.435 34.5418C55.0286 34.8765 54.6223 35.2112 54.2159 35.5458C53.7378 35.9283 53.2597 36.3347 52.8055 36.7171C50.7019 38.51 48.8374 40.2789 47.7378 41.6176C47.6421 41.7371 47.5465 41.8805 47.4509 42C46.1123 40.2072 43.1242 37.5538 40.0405 34.996C39.5385 34.5896 39.0365 34.1833 38.5345 33.7769C33.4668 29.737 30.7895 23.8804 31.2676 17.8804L31.7935 11.3784C31.8652 11.3784 34.3991 12.215 36.0007 7.96001C36.0246 7.8883 38.8931 9.60943 42.6939 8.00782C45.3473 6.90822 46.1601 5.54566 47.4509 3.6333C48.7657 5.56957 49.5545 6.90822 52.2079 8.00782C56.0326 9.60943 58.8773 7.8883 58.9012 7.96001C60.5028 12.1911 63.0127 11.4023 63.1084 11.3784L63.6343 17.8804C64.1124 23.8804 61.435 29.737 56.3673 33.8008Z" fill="#122620"/>
<path d="M56.3673 33.8008C56.0565 34.0398 55.7458 34.3028 55.435 34.5418C55.0286 34.8765 54.6223 35.2112 54.2159 35.5458C53.7378 35.9283 53.2597 36.3347 52.8055 36.7171C50.7019 38.51 48.8374 40.2789 47.7378 41.6176C47.6421 41.7371 47.5465 41.8805 47.4509 42C46.1123 40.2072 43.1242 37.5538 40.0405 34.996C39.5385 34.5896 39.0365 34.1833 38.5345 33.7769C33.4668 29.737 30.7895 23.8804 31.2676 17.8804L31.7935 11.3784C31.8652 11.3784 34.3991 12.215 36.0007 7.96001C36.0246 7.8883 38.8931 9.60943 42.6939 8.00782C45.3473 6.90822 46.1601 5.54566 47.4509 3.6333C48.7657 5.56957 49.5545 6.90822 52.2079 8.00782C56.0326 9.60943 58.8773 7.8883 58.9012 7.96001C60.5028 12.1911 63.0127 11.4023 63.1084 11.3784L63.6343 17.8804C64.1124 23.8804 61.435 29.737 56.3673 33.8008Z" fill="#122620"/>
<path d="M74.5327 23.1392L71.9032 19.4579V23.1392H69.5605V14.7009H71.9032V18.3344L74.5088 14.7009H77.21L74.1024 18.7886L77.3534 23.1153H74.5327V23.1392Z" fill="black"/>
<path d="M78.4059 15.4659C78.1669 15.2508 78.0234 14.9639 78.0234 14.6054C78.0234 14.2468 78.143 13.96 78.4059 13.7448C78.645 13.5058 78.9796 13.4102 79.4099 13.4102C79.8163 13.4102 80.1509 13.5297 80.39 13.7448C80.629 13.9839 80.7725 14.2707 80.7725 14.6054C80.7725 14.94 80.6529 15.2269 80.39 15.4659C80.1509 15.6811 79.8163 15.8006 79.4099 15.8006C78.9796 15.8006 78.645 15.705 78.4059 15.4659ZM80.5573 16.4221V23.1154H78.2147V16.4221H80.5573Z" fill="black"/>
<path d="M88.1112 17.1392C88.5654 17.6412 88.7805 18.3583 88.7805 19.2189V23.1153H86.4379V19.5296C86.4379 19.1472 86.3423 18.8364 86.151 18.6213C85.9598 18.4061 85.6968 18.2866 85.3622 18.2866C85.0036 18.2866 84.7407 18.4061 84.5494 18.6213C84.3582 18.8364 84.2626 19.1472 84.2626 19.5296V23.1153H81.9199V16.4221H84.2626V17.3782C84.4777 17.0675 84.7407 16.8284 85.0992 16.6372C85.4578 16.446 85.8403 16.3503 86.2944 16.3503C87.0355 16.3742 87.657 16.6372 88.1112 17.1392Z" fill="black"/>
<path d="M93.7513 16.6135C94.0859 16.8048 94.3489 17.0438 94.5401 17.3546V16.4223H96.8828V23.0677C96.8828 23.6893 96.7632 24.263 96.5242 24.765C96.2851 25.267 95.9027 25.6733 95.4007 25.9841C94.8987 26.2949 94.2533 26.4383 93.4883 26.4383C92.4604 26.4383 91.6238 26.1992 91.0022 25.7211C90.3807 25.2431 90.0222 24.5737 89.9504 23.7371H92.2453C92.2931 23.9522 92.4126 24.1195 92.6039 24.2391C92.7951 24.3586 93.0341 24.4064 93.3449 24.4064C94.1337 24.4064 94.5401 23.9522 94.5401 23.0677V22.2072C94.3489 22.5179 94.0859 22.757 93.7513 22.9482C93.4166 23.1395 93.0102 23.2112 92.556 23.2112C92.0301 23.2112 91.5281 23.0677 91.0979 22.8048C90.6676 22.5179 90.3329 22.1355 90.07 21.6096C89.8309 21.0837 89.6875 20.4861 89.6875 19.7928C89.6875 19.0996 89.807 18.502 90.07 17.9761C90.309 17.4502 90.6676 17.0677 91.0979 16.7809C91.5281 16.494 92.0062 16.3745 92.556 16.3745C93.0102 16.3506 93.3927 16.4462 93.7513 16.6135ZM94.1815 18.7649C93.9425 18.5259 93.6557 18.4064 93.321 18.4064C92.9624 18.4064 92.6756 18.5259 92.4604 18.7649C92.2214 19.004 92.1258 19.3386 92.1258 19.7928C92.1258 20.2231 92.2453 20.5578 92.4604 20.8207C92.6995 21.0598 92.9863 21.2032 93.321 21.2032C93.6557 21.2032 93.9425 21.0837 94.1815 20.8446C94.4206 20.6056 94.5401 20.247 94.5401 19.8167C94.5162 19.3386 94.3967 19.004 94.1815 18.7649Z" fill="black"/>
<path d="M98.1989 17.9521C98.4379 17.4262 98.7965 17.0437 99.2268 16.7568C99.657 16.47 100.159 16.3505 100.685 16.3505C101.115 16.3505 101.498 16.4461 101.832 16.6134C102.167 16.7807 102.43 17.0437 102.621 17.3545V14.2947H104.964V23.1393H102.621V22.2071C102.43 22.5178 102.191 22.7569 101.856 22.9481C101.522 23.1393 101.139 23.2111 100.685 23.2111C100.159 23.2111 99.657 23.0676 99.2268 22.8047C98.7965 22.5178 98.4618 22.1354 98.1989 21.6095C97.9598 21.0836 97.8164 20.4859 97.8164 19.7927C97.8164 19.0995 97.9359 18.478 98.1989 17.9521ZM102.287 18.7648C102.048 18.5258 101.761 18.4063 101.426 18.4063C101.067 18.4063 100.781 18.5258 100.565 18.7648C100.326 19.0039 100.231 19.3385 100.231 19.7927C100.231 20.223 100.35 20.5577 100.565 20.8206C100.804 21.0597 101.091 21.2031 101.426 21.2031C101.761 21.2031 102.048 21.0836 102.287 20.8445C102.526 20.6055 102.645 20.2469 102.645 19.8166C102.645 19.3385 102.526 19.0039 102.287 18.7648Z" fill="black"/>
<path d="M107.641 22.8046C107.115 22.5177 106.684 22.1353 106.398 21.6094C106.087 21.0835 105.943 20.4858 105.943 19.7926C105.943 19.0994 106.087 18.5018 106.398 17.9759C106.708 17.45 107.115 17.0675 107.641 16.7806C108.166 16.4938 108.764 16.3743 109.433 16.3743C110.103 16.3743 110.7 16.5177 111.226 16.7806C111.752 17.0675 112.182 17.45 112.469 17.9759C112.78 18.5018 112.923 19.0994 112.923 19.7926C112.923 20.4858 112.78 21.0835 112.469 21.6094C112.159 22.1353 111.752 22.5416 111.202 22.8046C110.676 23.0914 110.079 23.211 109.41 23.211C108.74 23.211 108.166 23.0675 107.641 22.8046ZM110.246 20.8205C110.461 20.5815 110.581 20.2229 110.581 19.7687C110.581 19.3145 110.461 18.9799 110.246 18.7408C110.031 18.5018 109.768 18.3822 109.433 18.3822C109.099 18.3822 108.86 18.5018 108.645 18.7408C108.429 18.9799 108.334 19.3145 108.334 19.7687C108.334 20.2229 108.429 20.5815 108.645 20.8205C108.86 21.0596 109.123 21.1791 109.433 21.1791C109.768 21.1791 110.031 21.0596 110.246 20.8205Z" fill="black"/>
<path d="M124.66 17.1392C125.138 17.6412 125.378 18.3344 125.378 19.2189V23.1153H123.035V19.5296C123.035 19.1711 122.939 18.8842 122.748 18.693C122.557 18.5018 122.27 18.4061 121.935 18.4061C121.601 18.4061 121.314 18.5018 121.123 18.693C120.931 18.8842 120.836 19.1711 120.836 19.5296V23.1153H118.493V19.5296C118.493 19.1711 118.397 18.8842 118.206 18.693C118.015 18.5018 117.752 18.4061 117.393 18.4061C117.035 18.4061 116.772 18.5018 116.581 18.693C116.389 18.8842 116.294 19.1711 116.294 19.5296V23.1153H113.951V16.4221H116.294V17.3065C116.509 17.0197 116.772 16.7806 117.107 16.6133C117.441 16.446 117.824 16.3503 118.254 16.3503C118.756 16.3503 119.186 16.446 119.569 16.6611C119.951 16.8762 120.262 17.187 120.477 17.5695C120.716 17.2109 121.027 16.9001 121.409 16.685C121.792 16.4699 122.222 16.3503 122.7 16.3503C123.513 16.3742 124.182 16.6372 124.66 17.1392Z" fill="black"/>
<path d="M129.011 14.2947V23.1393H126.668V14.2947H129.011Z" fill="black"/>
<path d="M137.544 16.4221L133.289 26.3186H130.755L132.356 22.8524L129.607 16.446H132.213L133.623 20.2468L134.986 16.446H137.544V16.4221Z" fill="black"/>
<path d="M70.4707 28.2312L70.2555 28.7093H69.873L70.8292 26.5579H71.2117L72.1679 28.7093H71.7854L71.5703 28.2312H70.4707ZM70.9966 26.9403L70.5902 27.8965H71.4029L70.9966 26.9403Z" fill="black"/>
<path d="M73.8891 28.7091H73.5305V28.4223C73.411 28.6135 73.2198 28.7091 72.9568 28.7091C72.4787 28.7091 72.168 28.3745 72.168 27.8725C72.168 27.3705 72.4787 27.0358 72.9568 27.0358C73.2198 27.0358 73.411 27.1554 73.5305 27.3466V26.4143H73.8891V28.7091ZM73.5544 27.8964C73.5544 27.5856 73.3393 27.3466 73.0524 27.3466C72.7656 27.3466 72.5504 27.5617 72.5504 27.8964C72.5504 28.2071 72.7656 28.4223 73.0524 28.4223C73.3393 28.4462 73.5544 28.2071 73.5544 27.8964Z" fill="black"/>
<path d="M74.8212 28.709L74.1758 27.0596H74.5583L75.0124 28.3504L75.4666 27.0596H75.8252L75.2037 28.709H74.8212Z" fill="black"/>
<path d="M77.4512 28.0396H76.2082C76.256 28.3026 76.4472 28.446 76.7102 28.446C76.8775 28.446 77.0448 28.3743 77.1644 28.2548L77.3556 28.446C77.1883 28.6134 76.9492 28.7329 76.6863 28.7329C76.1843 28.7329 75.8496 28.3982 75.8496 27.8962C75.8496 27.3942 76.1843 27.0596 76.6863 27.0596C77.26 27.0596 77.499 27.442 77.4512 28.0396ZM77.1405 27.7767C77.1166 27.5138 76.9492 27.3464 76.6863 27.3464C76.4233 27.3464 76.256 27.5138 76.2082 27.7767H77.1405Z" fill="black"/>
<path d="M79.3868 27.705V28.7329H79.0282V27.8006C79.0282 27.5616 78.8848 27.3942 78.6218 27.3942C78.3589 27.3942 78.1915 27.5855 78.1437 27.8484V28.7329H77.7852V27.0835H78.1437V27.3942C78.2632 27.1552 78.4784 27.0596 78.7413 27.0596C79.1716 27.0596 79.3868 27.2986 79.3868 27.705Z" fill="black"/>
<path d="M80.7969 28.6135C80.6774 28.6852 80.5339 28.733 80.3905 28.733C80.1514 28.733 79.9363 28.5896 79.9363 28.255V27.3944H79.6973V27.1314H79.9363V26.6772H80.2949V27.1314H80.773V27.3944H80.2949V28.1832C80.2949 28.3506 80.3666 28.3984 80.4622 28.3984C80.5339 28.3984 80.6056 28.3745 80.7013 28.3267L80.7969 28.6135Z" fill="black"/>
<path d="M82.6143 28.709H82.2558V28.3982C82.1362 28.6373 81.945 28.7329 81.6582 28.7329C81.2757 28.7329 81.0605 28.4939 81.0605 28.1114V27.0835H81.4191V28.0158C81.4191 28.2548 81.5625 28.4222 81.8016 28.4222C82.0884 28.4222 82.2558 28.207 82.2558 27.9202V27.1074H82.6143V28.709Z" fill="black"/>
<path d="M83.4972 27.3942C83.6168 27.1791 83.808 27.0596 84.071 27.0596V27.3942C83.7363 27.3703 83.5211 27.5616 83.4972 27.8484V28.709H83.1387V27.0596H83.4972V27.3942Z" fill="black"/>
<path d="M85.793 28.0396H84.55C84.5978 28.3026 84.789 28.446 85.052 28.446C85.2432 28.446 85.3866 28.3743 85.5062 28.2548L85.6974 28.446C85.5301 28.6134 85.291 28.7329 85.0281 28.7329C84.5261 28.7329 84.1914 28.3982 84.1914 27.8962C84.1914 27.3942 84.5261 27.0596 85.0281 27.0596C85.6018 27.0596 85.8408 27.442 85.793 28.0396ZM85.4822 27.7767C85.4583 27.5138 85.291 27.3464 85.0281 27.3464C84.7651 27.3464 84.5978 27.5138 84.55 27.7767H85.4822Z" fill="black"/>
<path d="M87.3483 26.6055C87.3483 26.725 87.2526 26.8207 87.1331 26.8207C87.0136 26.8207 86.918 26.725 86.918 26.6055C86.918 26.486 87.0136 26.3904 87.1331 26.3904C87.2526 26.3904 87.3483 26.486 87.3483 26.6055ZM86.9658 28.7091V27.0597H87.3243V28.7091H86.9658Z" fill="black"/>
<path d="M89.4258 27.705V28.7329H89.0672V27.8006C89.0672 27.5616 88.9238 27.3942 88.6609 27.3942C88.3979 27.3942 88.2306 27.5855 88.1828 27.8484V28.7329H87.8242V27.0835H88.1828V27.3942C88.3023 27.1552 88.5174 27.0596 88.7804 27.0596C89.1868 27.0596 89.4258 27.2986 89.4258 27.705Z" fill="black"/>
<path d="M90.8145 28.6135C90.6949 28.6852 90.5515 28.733 90.4081 28.733C90.169 28.733 89.9539 28.5896 89.9539 28.255V27.3944H89.7148V27.1314H89.9539V26.6772H90.3125V27.1314H90.7905V27.3944H90.3125V28.1832C90.3125 28.3506 90.3842 28.3984 90.4798 28.3984C90.5515 28.3984 90.6232 28.3745 90.7188 28.3267L90.8145 28.6135Z" fill="black"/>
<path d="M92.7016 27.8962C92.7016 28.3982 92.343 28.7329 91.841 28.7329C91.339 28.7329 90.9805 28.3982 90.9805 27.8962C90.9805 27.3942 91.339 27.0596 91.841 27.0596C92.343 27.0596 92.7016 27.3942 92.7016 27.8962ZM91.339 27.8962C91.339 28.207 91.5542 28.4221 91.841 28.4221C92.1279 28.4221 92.343 28.207 92.343 27.8962C92.343 27.5855 92.1279 27.3703 91.841 27.3703C91.5303 27.3703 91.339 27.5855 91.339 27.8962Z" fill="black"/>
<path d="M96.5986 27.705V28.7328H96.2401V27.8006C96.2401 27.5615 96.0966 27.3942 95.8576 27.3942C95.5707 27.3942 95.4034 27.6093 95.4034 27.8962V28.7089H95.0448V27.7767C95.0448 27.5376 94.9014 27.3703 94.6624 27.3703C94.3755 27.3703 94.2082 27.5854 94.2082 27.8723V28.685H93.8496V27.0356H94.2082V27.3464C94.3277 27.1073 94.5428 27.0117 94.8058 27.0117C95.0926 27.0117 95.3078 27.1551 95.3795 27.4181C95.4751 27.1551 95.7142 27.0117 96.001 27.0117C96.3835 27.0595 96.5986 27.2986 96.5986 27.705Z" fill="black"/>
<path d="M98.5352 28.0396H97.2922C97.34 28.3026 97.5312 28.446 97.7942 28.446C97.9854 28.446 98.1288 28.3743 98.2483 28.2548L98.4396 28.446C98.2722 28.6134 98.0332 28.7329 97.7703 28.7329C97.2683 28.7329 96.9336 28.3982 96.9336 27.8962C96.9336 27.3942 97.2683 27.0596 97.7703 27.0596C98.344 27.0596 98.583 27.442 98.5352 28.0396ZM98.2244 27.7767C98.2005 27.5138 98.0332 27.3464 97.7703 27.3464C97.5073 27.3464 97.34 27.5138 97.2922 27.7767H98.2244Z" fill="black"/>
<path d="M99.8242 28.6135C99.7047 28.6852 99.5613 28.733 99.4178 28.733C99.1788 28.733 98.9637 28.5896 98.9637 28.255V27.3944H98.7246V27.1314H98.9637V26.6772H99.3222V27.1314H99.8003V27.3944H99.3222V28.1832C99.3222 28.3506 99.3939 28.3984 99.4896 28.3984C99.5613 28.3984 99.633 28.3745 99.7286 28.3267L99.8242 28.6135Z" fill="black"/>
<path d="M101.141 28.5177C101.022 28.6612 100.83 28.7329 100.591 28.7329C100.233 28.7329 100.018 28.5177 100.018 28.2309C100.018 27.9201 100.233 27.7289 100.639 27.7289H101.141V27.6811C101.141 27.4659 100.998 27.3464 100.759 27.3464C100.591 27.3464 100.448 27.3942 100.281 27.5137L100.137 27.2747C100.376 27.1313 100.543 27.0596 100.854 27.0596C101.285 27.0596 101.524 27.2747 101.524 27.6333V28.709H101.165V28.5177H101.141ZM101.141 28.1353V27.9918H100.687C100.448 27.9918 100.352 28.0636 100.352 28.207C100.352 28.3504 100.472 28.446 100.663 28.446C100.926 28.446 101.117 28.3265 101.141 28.1353Z" fill="black"/>
<path d="M102.288 28.709L101.643 27.0596H102.025L102.479 28.3504L102.933 27.0596H103.292L102.67 28.709H102.288Z" fill="black"/>
<path d="M104.918 28.0396H103.675C103.723 28.3026 103.914 28.446 104.177 28.446C104.368 28.446 104.512 28.3743 104.631 28.2548L104.822 28.446C104.655 28.6134 104.416 28.7329 104.153 28.7329C103.651 28.7329 103.316 28.3982 103.316 27.8962C103.316 27.3942 103.651 27.0596 104.153 27.0596C104.727 27.0596 104.966 27.442 104.918 28.0396ZM104.607 27.7767C104.583 27.5138 104.416 27.3464 104.153 27.3464C103.89 27.3464 103.723 27.5138 103.675 27.7767H104.607Z" fill="black"/>
<path d="M105.657 27.3942C105.777 27.1791 105.968 27.0596 106.231 27.0596V27.3942C105.896 27.3703 105.681 27.5616 105.657 27.8484V28.709H105.299V27.0596H105.657V27.3942Z" fill="black"/>
<path d="M107.572 27.2269L107.452 27.4898C107.309 27.3942 107.117 27.3464 106.974 27.3464C106.831 27.3464 106.735 27.3942 106.735 27.5137C106.735 27.8245 107.619 27.6572 107.596 28.2548C107.596 28.5895 107.285 28.7329 106.974 28.7329C106.735 28.7329 106.472 28.6612 106.305 28.4938L106.424 28.2309C106.568 28.3504 106.807 28.446 106.974 28.446C107.117 28.446 107.237 28.3982 107.237 28.2787C107.237 27.944 106.376 28.1353 106.376 27.5377C106.376 27.203 106.663 27.0596 106.974 27.0596C107.213 27.0596 107.428 27.1313 107.572 27.2269Z" fill="black"/>
<path d="M109.41 28.0396H108.167C108.215 28.3026 108.406 28.446 108.669 28.446C108.86 28.446 109.004 28.3743 109.123 28.2548L109.315 28.446C109.147 28.6134 108.908 28.7329 108.645 28.7329C108.143 28.7329 107.809 28.3982 107.809 27.8962C107.809 27.3942 108.143 27.0596 108.645 27.0596C109.219 27.0596 109.458 27.442 109.41 28.0396ZM109.099 27.7767C109.076 27.5138 108.908 27.3464 108.645 27.3464C108.382 27.3464 108.215 27.5138 108.167 27.7767H109.099Z" fill="black"/>
<path d="M110.917 27.3942C111.037 27.1791 111.228 27.0596 111.491 27.0596V27.3942C111.156 27.3703 110.941 27.5616 110.917 27.8484V28.709H110.559V27.0596H110.917V27.3942Z" fill="black"/>
<path d="M113.356 27.8962C113.356 28.3982 112.997 28.7329 112.495 28.7329C111.993 28.7329 111.635 28.3982 111.635 27.8962C111.635 27.3942 111.993 27.0596 112.495 27.0596C112.997 27.0596 113.356 27.3942 113.356 27.8962ZM111.993 27.8962C111.993 28.207 112.208 28.4221 112.495 28.4221C112.782 28.4221 112.997 28.207 112.997 27.8962C112.997 27.5855 112.782 27.3703 112.495 27.3703C112.208 27.3703 111.993 27.5855 111.993 27.8962Z" fill="black"/>
<path d="M114.311 28.948C114.216 29.211 114.024 29.3305 113.785 29.3305C113.642 29.3305 113.522 29.2827 113.403 29.1871L113.546 28.9002C113.618 28.948 113.69 28.9719 113.761 28.9719C113.881 28.9719 113.953 28.9241 114 28.7807L114.048 28.6612L113.379 27.0356H113.737L114.239 28.2787L114.694 27.0356H115.052L114.311 28.948Z" fill="black"/>
<path d="M116.249 28.5177C116.129 28.6612 115.938 28.7329 115.699 28.7329C115.34 28.7329 115.125 28.5177 115.125 28.2309C115.125 27.9201 115.34 27.7289 115.747 27.7289H116.249V27.6811C116.249 27.4659 116.105 27.3464 115.866 27.3464C115.699 27.3464 115.555 27.3942 115.388 27.5137L115.245 27.2747C115.484 27.1313 115.651 27.0596 115.962 27.0596C116.392 27.0596 116.631 27.2747 116.631 27.6333V28.709H116.272V28.5177H116.249ZM116.225 28.1353V27.9918H115.77C115.531 27.9918 115.436 28.0636 115.436 28.207C115.436 28.3504 115.555 28.446 115.747 28.446C116.033 28.446 116.225 28.3265 116.225 28.1353Z" fill="black"/>
<path d="M117.084 28.7091V26.4143H117.443V28.7091H117.084Z" fill="black"/>
<path d="M118.9 28.6135C118.781 28.6852 118.637 28.733 118.494 28.733C118.255 28.733 118.04 28.5896 118.04 28.255V27.3944H117.801V27.1314H118.04V26.6772H118.398V27.1314H118.876V27.3944H118.398V28.1832C118.398 28.3506 118.47 28.3984 118.566 28.3984C118.637 28.3984 118.709 28.3745 118.805 28.3267L118.9 28.6135Z" fill="black"/>
<path d="M119.882 28.948C119.786 29.211 119.595 29.3305 119.356 29.3305C119.212 29.3305 119.093 29.2827 118.973 29.1871L119.117 28.9002C119.188 28.948 119.26 28.9719 119.332 28.9719C119.451 28.9719 119.523 28.9241 119.571 28.7807L119.619 28.6612L118.949 27.0356H119.308L119.81 28.2787L120.264 27.0356H120.623L119.882 28.948Z" fill="black"/>
<path d="M121.101 28.5419C121.101 28.6614 121.03 28.757 120.91 28.757C120.79 28.757 120.719 28.6614 120.719 28.5419C120.719 28.4223 120.79 28.3506 120.91 28.3506C121.03 28.3267 121.101 28.4223 121.101 28.5419Z" fill="black"/>
<path d="M47.7133 19.1443V37.8349C47.6473 37.9008 47.5814 37.9668 47.5154 38.0548C46.5259 36.9993 45.0526 35.6799 43.0956 34.0748C42.8318 33.8769 42.5899 33.657 42.326 33.4591V26.0268L45.4704 24.0918L41.2266 25.8509V22.0908L42.8977 21.2992V23.8059L44.1731 23.2122V20.7715L45.2505 20.2217V22.7725L46.5039 22.1788V19.672L47.7133 19.1443Z" fill="#D6AD60"/>
<path d="M54.1982 25.8289L49.6685 23.762L53.0987 26.2027V32.9533C52.9448 33.0853 52.8129 33.1952 52.6589 33.3271C52.571 33.4151 52.483 33.4811 52.3731 33.569C52.0213 33.8549 51.6914 34.1407 51.3396 34.4266C49.8224 35.7239 48.635 36.8234 47.6895 37.7689V19.1443L48.8988 19.65V22.1568L50.1522 22.7505V20.1998L51.2297 20.7495V23.1902L52.527 23.7839V21.2772L54.1982 22.0688V25.8289Z" fill="white"/>
<path d="M47.4477 39.0001L46.9639 38.4943C45.6666 37.131 43.7975 35.4379 41.2028 33.3269L39.8175 32.2055C35.3538 28.6433 33.0449 23.6078 33.4847 18.3964L33.8805 13.361L34.3423 13.251C35.4637 12.9872 36.4093 12.1736 37.1569 10.8542L37.3987 10.4145L37.8825 10.5464C38.5642 10.7223 39.2678 10.8103 39.9934 10.8103C41.1369 10.8103 42.2803 10.5684 43.4017 10.1066C45.3148 9.31502 46.2383 8.3695 46.9199 7.53392L47.4257 6.89624L47.9314 7.53392C48.5911 8.34751 49.5146 9.29303 51.4277 10.1066C52.5491 10.5684 53.6925 10.8103 54.836 10.8103C55.5616 10.8103 56.2652 10.7223 56.9469 10.5464L57.4306 10.4145L57.6725 10.8542C58.4201 12.1736 59.3657 12.9872 60.4871 13.251L60.9489 13.361L61.3447 18.3964C61.7625 23.5638 59.4976 28.5553 55.1438 32.0955L55.0998 32.1395C55.0558 32.1615 55.0339 32.2055 54.9899 32.2275C54.726 32.4474 54.4402 32.6892 54.1543 32.9091C54.1103 32.9311 54.0883 32.9751 54.0444 32.9971L53.4067 33.5248C53.2747 33.6348 53.1648 33.7227 53.0329 33.8327L52.747 34.0745C52.4172 34.3384 52.0873 34.6243 51.7795 34.8881L51.7135 34.9321C50.1963 36.2295 49.0309 37.3069 48.1293 38.2524C48.0414 38.3404 47.9534 38.4283 47.8655 38.5163L47.4477 39.0001ZM35.1339 14.3725L34.8041 18.4844C34.4083 23.256 36.5412 27.8957 40.6531 31.172L42.0604 32.2934C44.3912 34.2065 46.1723 35.7897 47.4697 37.087C48.3712 36.1855 49.5146 35.13 50.9439 33.8986L51.0099 33.8546C51.3397 33.5908 51.6476 33.3049 51.9774 33.0411L52.2633 32.7992C52.3952 32.6892 52.5271 32.5793 52.6371 32.4913L53.2747 31.9636C53.3187 31.9196 53.3627 31.8976 53.4067 31.8537C53.6925 31.6338 53.9784 31.3919 54.2642 31.172C54.3082 31.15 54.3302 31.128 54.3522 31.106L54.3962 31.0621C58.3982 27.7857 60.4871 23.212 60.1133 18.4844L59.7835 14.3725C58.8819 14.0646 57.8045 13.361 56.8589 11.9097C56.2213 12.0416 55.5616 12.1076 54.9019 12.1076C53.5826 12.1076 52.2633 11.8437 50.9879 11.294C49.5366 10.6783 48.4372 9.9527 47.4697 8.94121C46.5241 9.9527 45.4027 10.7003 43.9514 11.294C42.6761 11.8218 41.3568 12.1076 40.0374 12.1076C39.3777 12.1076 38.7181 12.0416 38.0804 11.9097C37.1129 13.383 36.0134 14.0646 35.1339 14.3725Z" fill="#D6AD60"/>
<path d="M47.3828 15.0101V16.9891C47.3828 16.9891 48.3943 16.4833 49.1859 16.9451C49.9555 17.4069 51.4508 17.6927 51.8466 17.099V15.0541C51.8466 15.0541 51.3188 15.6698 50.1314 15.2959C48.944 14.9221 48.3723 14.5923 47.3828 15.0101Z" fill="#D6AD60"/>
<path d="M47.7126 15.0322H47.3828V20.1776H47.7126V15.0322Z" fill="#D6AD60"/>
<path d="M46.5888 32.6455H45.3574V30.6445C45.3574 30.3147 45.6213 30.0288 45.9731 30.0288C46.3029 30.0288 46.5888 30.2927 46.5888 30.6445V32.6455Z" fill="white"/>
<path d="M44.4794 29.0173H43.248V27.0163C43.248 26.6865 43.5119 26.4006 43.8637 26.4006C44.1936 26.4006 44.4794 26.6645 44.4794 27.0163V29.0173Z" fill="white"/>
<path d="M48.9102 33.4901H50.2488V31.3148C50.2488 30.9563 49.962 30.6455 49.5795 30.6455C49.2209 30.6455 48.9102 30.9324 48.9102 31.3148V33.4901Z" fill="#122620"/>
<path d="M51.2754 29.5458H52.614V27.3705C52.614 27.0119 52.3272 26.7012 51.9447 26.7012C51.5861 26.7012 51.2754 26.988 51.2754 27.3705V29.5458Z" fill="#122620"/>
</g>
<defs>
<linearGradient id="paint0_linear_22001_2419" x1="83.5" y1="0" x2="83.5" y2="47" gradientUnits="userSpaceOnUse">
<stop stop-color="#FFF200"/>
<stop offset="0.995" stop-color="#FFE169"/>
</linearGradient>
</defs>
</svg>
