<svg width="1600" height="400" viewBox="0 0 1600 400" fill="none" xmlns="http://www.w3.org/2000/svg">
<rect width="1412" height="280" transform="translate(188 60)" fill="black"/>
<path d="M553.456 265H521.2V175.912C521.2 172.328 520.261 169.683 518.384 167.976C516.677 166.099 514.373 165.16 511.472 165.16C508.059 165.16 505.328 166.184 503.28 168.232C501.403 170.28 500.464 173.352 500.464 177.448V265H468.208V175.912C468.208 172.328 467.184 169.683 465.136 167.976C463.259 166.099 460.955 165.16 458.224 165.16C455.152 165.16 452.592 166.184 450.544 168.232C448.496 170.28 447.472 173.352 447.472 177.448V265H415.216V138.024H447.472V150.312H452.08C453.104 145.704 455.408 141.949 458.992 139.048C462.747 135.976 467.611 134.44 473.584 134.44C479.216 134.44 483.995 135.976 487.92 139.048C491.845 141.949 494.491 145.704 495.856 150.312H500.464C501.829 145.704 504.645 141.949 508.912 139.048C513.349 135.976 518.811 134.44 525.296 134.44C533.829 134.44 540.656 137.341 545.776 143.144C550.896 148.776 553.456 156.627 553.456 166.696V265ZM598.334 212.008C598.505 215.763 599.358 219.261 600.894 222.504C602.601 225.576 604.819 228.307 607.55 230.696C610.451 232.915 613.694 234.707 617.278 236.072C621.033 237.267 624.958 237.864 629.054 237.864C637.075 237.864 643.219 236.499 647.486 233.768C651.753 230.867 654.825 227.453 656.702 223.528L684.35 238.888C682.814 242.131 680.681 245.544 677.95 249.128C675.219 252.541 671.635 255.699 667.198 258.6C662.931 261.501 657.641 263.891 651.326 265.768C645.182 267.645 637.929 268.584 629.566 268.584C620.009 268.584 611.305 267.048 603.454 263.976C595.603 260.904 588.777 256.467 582.974 250.664C577.342 244.861 572.905 237.779 569.662 229.416C566.59 221.053 565.054 211.581 565.054 201V199.464C565.054 189.736 566.675 180.861 569.918 172.84C573.331 164.819 577.939 157.992 583.742 152.36C589.545 146.728 596.286 142.376 603.966 139.304C611.817 136.061 620.179 134.44 629.054 134.44C639.977 134.44 649.363 136.403 657.214 140.328C665.065 144.083 671.55 148.947 676.67 154.92C681.79 160.723 685.545 167.208 687.934 174.376C690.323 181.373 691.518 188.2 691.518 194.856V212.008H598.334ZM628.798 163.624C620.606 163.624 613.95 165.757 608.83 170.024C603.71 174.12 600.382 178.899 598.846 184.36H658.75C657.726 178.387 654.483 173.437 649.022 169.512C643.731 165.587 636.99 163.624 628.798 163.624ZM841.356 265H809.1V175.912C809.1 172.328 808.161 169.683 806.284 167.976C804.577 166.099 802.273 165.16 799.372 165.16C795.959 165.16 793.228 166.184 791.18 168.232C789.303 170.28 788.364 173.352 788.364 177.448V265H756.108V175.912C756.108 172.328 755.084 169.683 753.036 167.976C751.159 166.099 748.855 165.16 746.124 165.16C743.052 165.16 740.492 166.184 738.444 168.232C736.396 170.28 735.372 173.352 735.372 177.448V265H703.116V138.024H735.372V150.312H739.98C741.004 145.704 743.308 141.949 746.892 139.048C750.647 135.976 755.511 134.44 761.484 134.44C767.116 134.44 771.895 135.976 775.82 139.048C779.745 141.949 782.391 145.704 783.756 150.312H788.364C789.729 145.704 792.545 141.949 796.812 139.048C801.249 135.976 806.711 134.44 813.196 134.44C821.729 134.44 828.556 137.341 833.676 143.144C838.796 148.776 841.356 156.627 841.356 166.696V265ZM886.234 212.008C886.405 215.763 887.258 219.261 888.794 222.504C890.501 225.576 892.719 228.307 895.45 230.696C898.351 232.915 901.594 234.707 905.178 236.072C908.933 237.267 912.858 237.864 916.954 237.864C924.975 237.864 931.119 236.499 935.386 233.768C939.653 230.867 942.725 227.453 944.602 223.528L972.25 238.888C970.714 242.131 968.581 245.544 965.85 249.128C963.119 252.541 959.535 255.699 955.098 258.6C950.831 261.501 945.541 263.891 939.226 265.768C933.082 267.645 925.829 268.584 917.466 268.584C907.909 268.584 899.205 267.048 891.354 263.976C883.503 260.904 876.677 256.467 870.874 250.664C865.242 244.861 860.805 237.779 857.562 229.416C854.49 221.053 852.954 211.581 852.954 201V199.464C852.954 189.736 854.575 180.861 857.818 172.84C861.231 164.819 865.839 157.992 871.642 152.36C877.445 146.728 884.186 142.376 891.866 139.304C899.717 136.061 908.079 134.44 916.954 134.44C927.877 134.44 937.263 136.403 945.114 140.328C952.965 144.083 959.45 148.947 964.57 154.92C969.69 160.723 973.445 167.208 975.834 174.376C978.223 181.373 979.418 188.2 979.418 194.856V212.008H886.234ZM916.698 163.624C908.506 163.624 901.85 165.757 896.73 170.024C891.61 174.12 888.282 178.899 886.746 184.36H946.65C945.626 178.387 942.383 173.437 936.922 169.512C931.631 165.587 924.89 163.624 916.698 163.624ZM1042.22 173.864C1042.22 177.96 1044.35 180.947 1048.62 182.824C1052.88 184.531 1060.65 185.981 1071.91 187.176C1084.88 188.541 1095.46 192.467 1103.66 198.952C1111.85 205.267 1115.94 214.141 1115.94 225.576V227.112C1115.94 239.741 1111.34 249.811 1102.12 257.32C1092.9 264.829 1079.93 268.584 1063.21 268.584C1053.31 268.584 1044.86 267.304 1037.86 264.744C1030.87 262.184 1025.06 259.027 1020.46 255.272C1015.85 251.347 1012.26 247.08 1009.7 242.472C1007.31 237.693 1005.69 233.085 1004.84 228.648L1034.54 218.92C1035.9 224.381 1038.72 229.16 1042.98 233.256C1047.42 237.352 1054.16 239.4 1063.21 239.4C1071.23 239.4 1076.69 238.205 1079.59 235.816C1082.66 233.256 1084.2 230.525 1084.2 227.624C1084.2 225.917 1083.77 224.381 1082.92 223.016C1082.24 221.48 1080.87 220.115 1078.82 218.92C1076.78 217.555 1073.96 216.445 1070.38 215.592C1066.96 214.739 1062.61 214.056 1057.32 213.544C1042.98 212.349 1031.55 208.68 1023.02 202.536C1014.65 196.221 1010.47 187.005 1010.47 174.888V173.352C1010.47 167.037 1011.84 161.491 1014.57 156.712C1017.3 151.933 1020.88 147.923 1025.32 144.68C1029.76 141.267 1034.88 138.707 1040.68 137C1046.48 135.293 1052.46 134.44 1058.6 134.44C1066.62 134.44 1073.53 135.464 1079.34 137.512C1085.31 139.389 1090.34 141.949 1094.44 145.192C1098.54 148.264 1101.86 151.763 1104.42 155.688C1106.98 159.443 1108.95 163.112 1110.31 166.696L1081.13 178.472C1079.59 173.864 1076.95 170.28 1073.19 167.72C1069.44 164.989 1064.57 163.624 1058.6 163.624C1053.14 163.624 1049.04 164.648 1046.31 166.696C1043.58 168.573 1042.22 170.963 1042.22 173.864ZM1270.13 265H1214.33L1207.16 168.744V153.384H1201.01V168.744L1193.85 265H1138.04L1129.59 138.024H1159.29L1164.92 234.28V249.64H1171.06V234.28L1177.46 138.024H1230.71L1237.11 234.28V249.64H1243.25V234.28L1248.89 138.024H1278.58L1270.13 265ZM1371.84 246.568C1368.43 254.589 1363.65 260.307 1357.51 263.72C1351.36 266.963 1344.2 268.584 1336 268.584C1328.32 268.584 1321.07 267.133 1314.24 264.232C1307.59 261.331 1301.7 257.064 1296.58 251.432C1291.46 245.8 1287.36 238.973 1284.29 230.952C1281.39 222.931 1279.94 213.8 1279.94 203.56V199.464C1279.94 189.395 1281.39 180.349 1284.29 172.328C1287.19 164.307 1291.12 157.48 1296.07 151.848C1301.02 146.216 1306.73 141.949 1313.22 139.048C1319.88 135.976 1326.96 134.44 1334.47 134.44C1343.51 134.44 1350.77 135.976 1356.23 139.048C1361.86 142.12 1366.3 146.899 1369.54 153.384H1374.15V138.024H1406.4V226.6C1406.4 231.72 1408.71 234.28 1413.32 234.28H1418.18V265H1396.16C1390.36 265 1385.58 263.293 1381.83 259.88C1378.24 256.467 1376.45 252.029 1376.45 246.568H1371.84ZM1343.17 237.864C1352.56 237.864 1360.07 234.792 1365.7 228.648C1371.33 222.333 1374.15 213.8 1374.15 203.048V199.976C1374.15 189.224 1371.33 180.776 1365.7 174.632C1360.07 168.317 1352.56 165.16 1343.17 165.16C1333.79 165.16 1326.28 168.317 1320.64 174.632C1315.01 180.776 1312.2 189.224 1312.2 199.976V203.048C1312.2 213.8 1315.01 222.333 1320.64 228.648C1326.28 234.792 1333.79 237.864 1343.17 237.864ZM1459.22 316.2H1426.96V138.024H1459.22V156.456H1463.83C1467.24 149.459 1472.19 144.083 1478.67 140.328C1485.16 136.403 1493.44 134.44 1503.51 134.44C1511.02 134.44 1518.1 135.891 1524.75 138.792C1531.58 141.693 1537.47 145.96 1542.42 151.592C1547.54 157.053 1551.55 163.795 1554.45 171.816C1557.52 179.837 1559.06 188.968 1559.06 199.208V203.816C1559.06 214.227 1557.61 223.443 1554.71 231.464C1551.8 239.485 1547.88 246.312 1542.93 251.944C1537.98 257.405 1532.09 261.587 1525.27 264.488C1518.61 267.219 1511.36 268.584 1503.51 268.584C1497.7 268.584 1492.67 267.987 1488.4 266.792C1484.14 265.597 1480.38 263.976 1477.14 261.928C1474.07 259.88 1471.42 257.576 1469.2 255.016C1467.15 252.285 1465.36 249.469 1463.83 246.568H1459.22V316.2ZM1493.01 237.864C1503.08 237.864 1511.19 234.792 1517.33 228.648C1523.64 222.333 1526.8 213.8 1526.8 203.048V199.976C1526.8 189.224 1523.64 180.776 1517.33 174.632C1511.19 168.317 1503.08 165.16 1493.01 165.16C1482.94 165.16 1474.75 168.403 1468.43 174.888C1462.29 181.203 1459.22 189.565 1459.22 199.976V203.048C1459.22 213.459 1462.29 221.907 1468.43 228.392C1474.75 234.707 1482.94 237.864 1493.01 237.864Z" fill="white"/>
<circle cx="212.5" cy="212.5" r="187.5" fill="black"/>
<circle cx="187.5" cy="187.5" r="178.75" fill="#FFDD02" stroke="black" stroke-width="17.5"/>
<path d="M307.812 192.5H67.1875C67.1875 244.397 103.349 289.282 154.058 300.325L162.793 302.228C179.688 305.907 197.181 305.878 214.064 302.144L221.005 300.608C271.714 289.391 307.812 244.435 307.812 192.5Z" fill="white" stroke="black" stroke-width="17.5"/>
<circle cx="126.25" cy="122.5" r="20" fill="black"/>
<circle cx="248.75" cy="122.5" r="20" fill="black"/>
</svg>
