<svg width="1128" height="253" viewBox="0 0 1128 253" fill="none" xmlns="http://www.w3.org/2000/svg">
<path d="M1073.16 28.3281H1100.11L1128 0.000772476H1100.51L1073.16 28.3281Z" fill="#32434A"/>
<path d="M1025.86 28.3281H1052.8L1080.69 0.000772476H1053.2L1025.86 28.3281Z" fill="#32434A"/>
<path d="M978.547 28.3281H1005.49L1033.38 0.000772476H1005.89L978.547 28.3281Z" fill="#32434A"/>
<path d="M931.236 28.3281H958.184L986.072 0.000772476H958.581L931.236 28.3281Z" fill="#32434A"/>
<path d="M883.928 28.3281H910.876L938.764 0.000772476H911.273L883.928 28.3281Z" fill="#32434A"/>
<path d="M836.619 28.3281H863.567L891.455 0.000772476H863.964L836.619 28.3281Z" fill="#32434A"/>
<path d="M742 28.3281H768.948L796.836 0.000772476H769.345L742 28.3281Z" fill="#32434A"/>
<path d="M789.311 28.3281H816.258L844.146 0.000772476H816.656L789.311 28.3281Z" fill="#32434A"/>
<path d="M14 206.182L14 218.792L0.744493 231.842L0.744494 218.977L14 206.182Z" fill="#FAAC07"/>
<path d="M14 184.045L14 196.655L0.744493 209.705L0.744494 196.841L14 184.045Z" fill="#FAAC07"/>
<path d="M14 161.906L14 174.516L0.744493 187.566L0.744494 174.702L14 161.906Z" fill="#FAAC07"/>
<path d="M14 139.768L14 152.378L0.744493 165.427L0.744494 152.563L14 139.768Z" fill="#FAAC07"/>
<path d="M14 117.629L14 130.239L0.744493 143.289L0.744494 130.425L14 117.629Z" fill="#FAAC07"/>
<path d="M14 95.4941L14 108.104L0.744493 121.154L0.744494 108.29L14 95.4941Z" fill="#FAAC07"/>
<path d="M14 51.2168L14 63.8268L0.744493 76.8767L0.744494 64.0126L14 51.2168Z" fill="#FAAC07"/>
<path d="M14 73.3555L14 85.9655L0.744493 99.0154L0.744494 86.1513L14 73.3555Z" fill="#FAAC07"/>
<path fill-rule="evenodd" clip-rule="evenodd" d="M40.6328 24.332H764.439V28.332H42.367L32.7538 38.5974L23.9999 49.244V232.769L0.71875 252.201V247.406L19.9999 230.915V47.8107L29.746 35.9573L40.6328 24.332Z" fill="#32434A"/>
<path d="M37.3967 24.3192L51.6222 24.3192L20.0176 55.2949L20.0176 41.0581L37.3967 24.3192Z" fill="#32434A"/>
<path d="M20.0176 37.4141L20.0176 33.9317L30.2035 24.3168L33.5362 24.3168L20.0176 37.4141Z" fill="#32434A"/>
</svg>
