<svg width="539" height="472" viewBox="0 0 539 472" fill="none" xmlns="http://www.w3.org/2000/svg">
<path d="M89.71 357.093C80.1844 379.924 60.915 400.334 37.8192 409.117C59.8023 413.258 85.3185 413.207 106.613 406.335C117.43 402.845 130.684 399.792 139.968 390.238C177.274 406.602 229.147 419.426 266.949 412.153C308.169 404.219 349.658 379.169 378.299 348.984C408.5 317.143 428.103 274.869 430.541 231.035C433.953 169.662 402.539 108.33 352.83 72.2832C272.162 13.7988 126.44 9.57174 63.9022 125.183C30.1633 187.55 27.3473 268.271 66.5394 328.941C73.0874 339.079 80.9011 348.495 89.7114 357.084L89.71 357.093Z" fill="#111D20"/>
<path d="M436.026 234.003C439.412 194.101 427.909 153.849 406.158 120.479C386.832 90.823 359.656 67.3495 327.812 52.0974C300.886 39.1982 271.267 31.8118 241.46 30.3435C208.973 28.7452 176.413 34.5194 146.393 47.0456C116.139 59.6724 89.8329 80.041 70.7149 106.782C47.8282 138.771 34.759 177.986 32.4046 217.163C29.9838 257.53 39.3352 298.87 61.8874 332.703C68.2475 342.244 75.6816 351.015 83.8659 359.031C79.1324 370.269 72.278 380.573 63.8259 389.351C59.6731 393.666 55.124 397.645 50.2152 401.069C47.7812 402.763 45.2541 404.337 42.655 405.768C41.4611 406.423 40.2487 407.031 39.0153 407.61C38.5351 407.835 38.0564 408.052 37.5706 408.258C37.1876 408.421 36.7961 408.583 36.4131 408.745C35.7611 409.012 35.64 409.061 36.0315 408.9C34.9922 409.302 33.5741 409.737 32.6548 410.411C32.4662 410.554 31.5482 411.063 32.257 411.189C47.5572 414.042 63.3301 414.824 78.8159 413.141C86.9082 412.261 94.9194 410.664 102.733 408.372C103.902 408.026 105.065 407.662 106.228 407.298C106.503 407.213 107.677 406.833 107.796 406.8C109.262 406.338 110.733 405.895 112.208 405.434C116.054 404.235 119.887 403.007 123.651 401.569C128.898 399.566 134.086 397.241 138.765 394.153C157.21 401.883 176.44 407.864 196.033 411.801C216.284 415.863 237.48 417.986 258.028 414.896C280.979 411.447 303.588 403.035 324.078 392.255C343.731 381.92 362.034 368.873 377.987 353.394C410.359 321.973 432.207 279.201 436.044 233.998L436.026 234.003ZM114.261 403.103C114.472 403.034 114.517 403.024 114.261 403.103V403.103ZM392.049 326.556C379.731 344.532 364.384 360.233 347.138 373.507C330.32 386.442 311.239 397.473 291.591 404.574C290.113 405.112 287.043 406.135 285.708 406.54C283.156 407.319 281.152 407.883 278.732 408.492C274.192 409.637 269.596 410.59 264.939 411.177C255.227 412.397 245.407 412.382 235.652 411.656C214.376 410.068 193.329 405.256 173.085 398.637C163.74 395.587 154.538 392.099 145.524 388.156C144.285 387.612 140.825 389.101 139.696 389.471C138.005 390.035 135.531 390.6 134.239 391.9C131.986 394.18 129.505 396.161 126.764 397.821C125.615 398.519 124.432 399.158 123.224 399.741C122.752 399.967 122.281 400.194 121.823 400.388C121.14 400.684 120.442 400.968 120.33 401.011C119.754 401.237 119.173 401.445 118.591 401.654C118.453 401.7 117.458 402.049 117.256 402.111C116.586 402.331 115.915 402.551 115.245 402.77C114.897 402.878 114.548 402.994 114.2 403.102C114.127 403.125 114.045 403.146 113.962 403.176C112.662 403.578 111.364 403.972 110.072 404.376C109.011 404.705 107.949 405.034 106.884 405.38C106.884 405.38 106.591 405.47 106.443 405.524C106.15 405.615 105.338 405.855 105.338 405.855C93.2347 409.402 79.2948 410.245 66.3706 409.673C59.0674 409.352 51.7976 408.515 44.6019 407.229C67.4807 396.975 85.6617 378.524 95.5052 355.242C95.5474 355.196 95.5798 355.158 95.5572 355.137C95.5727 355.096 95.5346 355.064 95.4684 355.044C65.6841 325.816 48.5091 286.409 44.6094 245.032C40.9005 205.652 48.7463 165.252 66.3074 129.86C81.0441 100.149 103.282 74.3416 131.721 57.0918C134.733 55.2675 137.83 53.501 140.906 51.9136C142.606 51.0379 144.318 50.1903 146.036 49.3611C147.968 48.4455 149.141 47.9176 150.526 47.3118C151.396 46.9338 152.274 46.5658 153.151 46.1977C153.589 46.0179 154.027 45.8381 154.473 45.6597C154.473 45.6597 154.855 45.5053 155.115 45.4006C155.376 45.2958 155.756 45.1499 155.748 45.1485C156.193 44.9786 156.629 44.8072 157.073 44.6458C158.111 44.252 159.146 43.8753 160.189 43.4999C160.216 43.4956 160.226 43.4886 160.254 43.4758C160.309 43.4588 160.364 43.4418 160.437 43.4191C160.888 43.2675 161.33 43.1145 161.781 42.9629C162.525 42.7121 163.279 42.4627 164.031 42.2218C164.206 42.1637 164.873 41.9609 164.965 41.9326C165.184 41.8646 165.404 41.7965 165.632 41.7299C166.693 41.4095 167.742 41.1046 168.808 40.8026C169.109 40.7133 169.418 40.6338 169.719 40.5445C169.801 40.5232 169.837 40.5119 169.901 40.4963C169.973 40.482 170.019 40.4636 170.128 40.4381C171.044 40.1983 171.953 39.9572 172.868 39.7259C173.784 39.4946 174.698 39.2717 175.619 39.0588C175.999 38.9651 176.386 38.8813 176.765 38.7961C176.8 38.7932 176.81 38.7862 176.837 38.7819C177.098 38.7293 177.351 38.6669 177.612 38.6143C181.296 37.8146 185.007 37.1151 188.733 36.5396C195.729 35.4614 203.08 34.755 210.266 34.4214C239.663 33.0646 269.442 37.9115 297.07 47.9869C327.016 58.9067 354.236 76.3338 375.713 100.022C401.765 128.763 419.269 165.554 423.784 204.206C428.812 247.266 416.442 290.971 392.06 326.54L392.049 326.556Z" fill="#243338"/>
<path d="M442.493 120.231C464.458 106.259 486.423 92.2874 508.395 78.3256C510.005 77.3047 505.435 75.3745 504.897 75.1637C503.431 74.5734 501.893 74.1017 500.328 73.8514C499.5 73.7144 498.093 73.3949 497.346 73.8714C475.381 87.843 453.417 101.806 431.444 115.776C429.833 116.797 434.404 118.727 434.942 118.938C436.408 119.529 437.945 120 439.51 120.251C440.339 120.388 441.745 120.707 442.493 120.231Z" fill="#B5432B"/>
<path d="M459.615 157.115C485.448 153.994 511.273 150.872 537.106 147.752C539.001 147.526 535.698 143.814 535.309 143.384C534.243 142.216 533.05 141.132 531.758 140.231C531.064 139.751 529.943 138.861 529.057 138.966C503.224 142.087 477.4 145.209 451.567 148.329C449.671 148.555 452.974 152.267 453.363 152.697C454.429 153.865 455.622 154.95 456.915 155.85C457.608 156.331 458.729 157.22 459.615 157.115Z" fill="#B5432B"/>
</svg>
